<svg xmlns="http://www.w3.org/2000/svg"  viewBox="0 0 48 48" width="48px" height="48px" baseProfile="basic"><path fill="#8bc34a" d="M46,32.078c0-1.731-0.97-3.204-2.39-3.958c0.171-0.478,0.28-0.987,0.28-1.526	c0-1.572-0.792-2.945-2.001-3.748c0.49-0.603,0.798-1.356,0.798-2.174c0-1.9-1.6-3.5-3.5-3.5c-0.011,0-0.021,0.003-0.032,0.003	c0.003-0.054,0.017-0.105,0.017-0.16c0-1.9-1.6-3.5-3.5-3.5c-0.93,0-1.784,0.387-2.418,1c-0.061-1.851-1.626-3.391-3.489-3.391	c-0.355,0-0.694,0.072-1.02,0.175c0.004-0.064,0.02-0.126,0.02-0.191c0-1.9-1.6-3.5-3.5-3.5c-1.55,0-2.884,1.071-3.329,2.494	c-0.575-0.414-1.269-0.666-2.015-0.666c-1.813,0-3.336,1.461-3.473,3.245c-1.348,0.04-2.527,0.879-3.073,2.053	c-0.248-0.058-0.503-0.095-0.766-0.095c-1.9,0-3.5,1.6-3.5,3.5c0,0.525,0.132,1.022,0.349,1.474	c-0.167-0.025-0.333-0.053-0.505-0.053c-1.9,0-3.5,1.6-3.5,3.5c0,1.016,0.466,1.937,1.182,2.582	c-1.112,0.816-1.838,2.124-1.838,3.621c0,0.41,0.071,0.798,0.172,1.174c-1.208,0.804-2,2.176-2,3.747c0,2.5,2,4.5,4.5,4.5	c0.612,0,1.192-0.123,1.722-0.34c0.801,1.223,2.179,2.028,3.763,2.028c0.826,0,1.587-0.235,2.25-0.617	c0.663,0.383,1.424,0.617,2.25,0.617c1.15,0,2.182-0.437,2.975-1.137c0.638,0.915,1.695,1.528,2.869,1.528	c1.133,0,2.151-0.576,2.795-1.439c0.617,0.536,1.407,0.876,2.268,0.876c1.057,0,2.009-0.505,2.657-1.272	c0.623,1.004,1.727,1.694,2.968,1.694c1.038,0,1.976-0.488,2.623-1.231c0.575,0.415,1.271,0.669,2.018,0.669	c1.797,0,3.309-1.436,3.469-3.199c0.268-0.145,0.518-0.315,0.75-0.509C44.675,35.785,46,34.106,46,32.078z"/><path fill="#689f38" d="M10.776,19.989c-0.19-0.569,0.062-1.075,0.631-1.265c2.466-0.824,4.618,1.198,5.379,3.474	c0.19,0.569-0.062,1.075-0.631,1.265c-0.569,0.19-1.075-0.062-1.265-0.631c-0.38-1.138-1.52-2.655-2.848-2.211	C11.473,20.811,10.966,20.558,10.776,19.989z"/><path fill="#689f38" d="M15.6,33.09c-0.44,0.408-1.005,0.387-1.413-0.053c-1.156-1.246-2.993-1.316-4.24-0.16	c-0.44,0.408-1.005,0.387-1.413-0.053s-0.387-1.005,0.053-1.413c2.053-1.904,5.162-1.787,7.066,0.266	C16.061,32.116,16.04,32.682,15.6,33.09z"/><path fill="#689f38" d="M37.889,21.435c-0.385,0.357-0.881,0.339-1.238-0.047c-1.013-1.092-2.622-1.153-3.714-0.14	c-0.385,0.357-0.881,0.339-1.238-0.047s-0.339-0.881,0.047-1.238c1.798-1.668,4.522-1.565,6.19,0.233	C38.293,20.582,38.275,21.077,37.889,21.435z"/><path fill="#689f38" d="M35.063,31.969c-0.6,0-1-0.4-1-1s0.4-1,1-1c1.1,0,2-0.9,2-2c0-0.6,0.4-1,1-1s1,0.4,1,1	C39.063,30.169,37.263,31.969,35.063,31.969z"/><path fill="#689f38" d="M22.438,36.563c-0.6,0-1-0.4-1-1c0-1.9,2.1-4,4-4c0.6,0,1,0.4,1,1c0,0.6-0.4,1-1,1c-0.8,0-2,1.2-2,2	C23.438,36.162,23.038,36.563,22.438,36.563z"/><path fill="#689f38" d="M25.806,17.676c-0.395,0.451-0.96,0.488-1.411,0.093c-0.602-0.527-2.295-0.416-2.822,0.186	c-0.395,0.451-0.96,0.488-1.411,0.093c-0.451-0.395-0.488-0.96-0.093-1.411c1.252-1.429,4.216-1.624,5.645-0.372	C26.165,16.66,26.202,17.224,25.806,17.676z"/><path fill="#689f38" d="M28.531,28.188c-2.6,0-4-2.6-4-5c0-0.6,0.4-1,1-1s1,0.4,1,1c0,1.2,0.6,3,2,3c0.6,0,1,0.4,1,1	S29.131,28.188,28.531,28.188z"/></svg>