<svg xmlns="http://www.w3.org/2000/svg"  viewBox="0 0 50 50" width="50px" height="50px"><path d="M 16 2 C 14.355469 2 13 3.355469 13 5 L 13 7 L 3 7 C 2.96875 7 2.9375 7 2.90625 7 C 2.355469 7.027344 1.925781 7.496094 1.953125 8.046875 C 1.980469 8.597656 2.449219 9.027344 3 9 L 13 9 L 13 11 C 13 12.644531 14.355469 14 16 14 L 18 14 C 19.644531 14 21 12.644531 21 11 L 21 5 C 21 3.355469 19.644531 2 18 2 Z M 16 4 L 18 4 C 18.566406 4 19 4.433594 19 5 L 19 11 C 19 11.566406 18.566406 12 18 12 L 16 12 C 15.433594 12 15 11.566406 15 11 L 15 8.1875 C 15.027344 8.054688 15.027344 7.914063 15 7.78125 L 15 5 C 15 4.433594 15.433594 4 16 4 Z M 22 7 L 22 9 L 47 9 C 47.359375 9.003906 47.695313 8.816406 47.878906 8.503906 C 48.058594 8.191406 48.058594 7.808594 47.878906 7.496094 C 47.695313 7.183594 47.359375 6.996094 47 7 Z M 34 19 C 32.355469 19 31 20.355469 31 22 L 31 24 L 3 24 C 2.96875 24 2.9375 24 2.90625 24 C 2.355469 24.027344 1.925781 24.496094 1.953125 25.046875 C 1.980469 25.597656 2.449219 26.027344 3 26 L 31 26 L 31 28 C 31 29.644531 32.355469 31 34 31 L 36 31 C 37.644531 31 39 29.644531 39 28 L 39 22 C 39 20.355469 37.644531 19 36 19 Z M 34 21 L 36 21 C 36.566406 21 37 21.433594 37 22 L 37 28 C 37 28.566406 36.566406 29 36 29 L 34 29 C 33.433594 29 33 28.566406 33 28 L 33 25.1875 C 33.027344 25.054688 33.027344 24.914063 33 24.78125 L 33 22 C 33 21.433594 33.433594 21 34 21 Z M 40 24 L 40 26 L 47 26 C 47.359375 26.003906 47.695313 25.816406 47.878906 25.503906 C 48.058594 25.191406 48.058594 24.808594 47.878906 24.496094 C 47.695313 24.183594 47.359375 23.996094 47 24 Z M 13 36 C 11.355469 36 10 37.355469 10 39 L 10 41 L 3 41 C 2.96875 41 2.9375 41 2.90625 41 C 2.875 41 2.84375 41 2.8125 41 C 2.261719 41.050781 1.855469 41.542969 1.90625 42.09375 C 1.957031 42.644531 2.449219 43.050781 3 43 L 10 43 L 10 45 C 10 46.644531 11.355469 48 13 48 L 15 48 C 16.644531 48 18 46.644531 18 45 L 18 39 C 18 37.355469 16.644531 36 15 36 Z M 13 38 L 15 38 C 15.566406 38 16 38.433594 16 39 L 16 45 C 16 45.566406 15.566406 46 15 46 L 13 46 C 12.433594 46 12 45.566406 12 45 L 12 42.1875 C 12.027344 42.054688 12.027344 41.914063 12 41.78125 L 12 39 C 12 38.433594 12.433594 38 13 38 Z M 19 41 L 19 43 L 47 43 C 47.359375 43.003906 47.695313 42.816406 47.878906 42.503906 C 48.058594 42.191406 48.058594 41.808594 47.878906 41.496094 C 47.695313 41.183594 47.359375 40.996094 47 41 Z"/></svg>