<svg xmlns="http://www.w3.org/2000/svg"  viewBox="0 0 256 256" width="64px" height="64px"><path fill="#725246" d="M99.712,60.746c-40.373,0-73.102,32.729-73.102,73.102s32.729,73.102,73.102,73.102 s73.102-32.729,73.102-73.102S140.085,60.746,99.712,60.746z M99.712,192.73c-32.52,0-58.882-26.362-58.882-58.882 s26.362-58.882,58.882-58.882s58.882,26.363,58.882,58.882S132.232,192.73,99.712,192.73z"/><path fill="#5E3E2F" d="M99.712,68.288c-36.208,0-65.56,29.352-65.56,65.56s29.352,65.56,65.56,65.56s65.56-29.352,65.56-65.56 S135.92,68.288,99.712,68.288z M99.712,192.73c-32.52,0-58.882-26.362-58.882-58.882s26.362-58.882,58.882-58.882 s58.882,26.363,58.882,58.882S132.232,192.73,99.712,192.73z"/><path fill="#725246" d="M119.254,35.057c-54.561,0-98.791,44.23-98.791,98.791s44.23,98.791,98.791,98.791 s98.791-44.23,98.791-98.791S173.814,35.057,119.254,35.057z M119.254,213.421c-43.947,0-79.574-35.626-79.574-79.574 s35.626-79.574,79.574-79.574s79.574,35.627,79.574,79.574S163.201,213.421,119.254,213.421z"/><path fill="#5E3E2F" d="M119.254,45.25c-48.931,0-88.598,39.667-88.598,88.598s39.667,88.598,88.598,88.598 s88.598-39.667,88.598-88.598S168.185,45.25,119.254,45.25z M119.254,213.421c-43.947,0-79.574-35.626-79.574-79.574 s35.626-79.574,79.574-79.574s79.574,35.627,79.574,79.574S163.201,213.421,119.254,213.421z"/><path fill="#A9CE91" d="M34.632,77.615c-11.559,0-20.929-12.24-20.929-12.24s9.37-12.24,20.929-12.24 s20.929,12.24,20.929,12.24S46.191,77.615,34.632,77.615z"/><path fill="#99BC82" d="M34.632,77.615c11.559,0,20.929-12.24,20.929-12.24H13.703 C13.703,65.375,23.074,77.615,34.632,77.615z"/><path fill="#A9CE91" d="M32.266,59.389c-8.173-8.173-6.144-23.454-6.144-23.454s15.28-2.029,23.454,6.144 s6.144,23.454,6.144,23.454S40.439,67.562,32.266,59.389z"/><path fill="#99BC82" d="M32.266,59.389c8.173,8.173,23.454,6.144,23.454,6.144L26.121,35.935 C26.121,35.935,24.092,51.215,32.266,59.389z"/><path fill="#A9CE91" d="M43.477,44.291c0-11.559,12.24-20.929,12.24-20.929s12.24,9.37,12.24,20.929 c0,11.559-12.24,20.929-12.24,20.929S43.477,55.85,43.477,44.291z"/><path fill="#99BC82" d="M43.477,44.291c0,11.559,12.24,20.929,12.24,20.929l0-41.858 C55.717,23.362,43.477,32.732,43.477,44.291z"/><path fill="#A9CE91" d="M43.992,154.712c0-13.178,13.955-23.862,13.955-23.862s13.955,10.683,13.955,23.862 s-13.955,23.862-13.955,23.862S43.992,167.891,43.992,154.712z"/><path fill="#99BC82" d="M43.992,154.712c0,13.178,13.955,23.862,13.955,23.862v-47.723 C57.946,130.851,43.992,141.534,43.992,154.712z"/><path fill="#A9CE91" d="M64.772,152.014c9.319-9.319,26.74-7.005,26.74-7.005s2.313,17.422-7.005,26.74 s-26.74,7.005-26.74,7.005S55.453,161.332,64.772,152.014z"/><path fill="#99BC82" d="M64.772,152.014c-9.319,9.319-7.005,26.74-7.005,26.74l33.745-33.745 C91.512,145.008,74.09,142.695,64.772,152.014z"/><g><path fill="#A9CE91" d="M81.985,164.796c13.178,0,23.862,13.955,23.862,13.955s-10.683,13.955-23.862,13.955 c-13.178,0-23.862-13.955-23.862-13.955S68.807,164.796,81.985,164.796z"/><path fill="#99BC82" d="M81.985,164.796c-13.178,0-23.862,13.955-23.862,13.955l47.723,0 C105.847,178.751,95.164,164.797,81.985,164.796z"/></g><g><path fill="#A9CE91" d="M210.197,187.379c-7.392-7.392-5.557-21.213-5.557-21.213s13.821-1.835,21.213,5.557 s5.557,21.213,5.557,21.213S217.589,194.771,210.197,187.379z"/><path fill="#99BC82" d="M210.197,187.379c7.393,7.393,21.213,5.557,21.213,5.557l-26.771-26.771 C204.639,166.166,202.804,179.986,210.197,187.379z"/><g><path fill="#A9CE91" d="M223.367,177.034c-10.455,0-18.93-11.07-18.93-11.07s8.475-11.07,18.93-11.07 c10.455,0,18.93,11.07,18.93,11.07S233.822,177.034,223.367,177.034z"/><path fill="#99BC82" d="M223.367,177.034c10.455,0,18.93-11.07,18.93-11.07l-37.859,0 C204.437,165.964,212.912,177.034,223.367,177.034z"/></g></g><g><path fill="#A9CE91" d="M112.765,85.819c7.392-7.392,21.213-5.557,21.213-5.557s1.835,13.821-5.557,21.213 c-7.392,7.392-21.213,5.557-21.213,5.557S105.372,93.211,112.765,85.819z"/><path fill="#99BC82" d="M112.765,85.819c-7.393,7.393-5.557,21.213-5.557,21.213l26.771-26.771 C133.978,80.262,120.157,78.426,112.765,85.819z"/><g><path fill="#A9CE91" d="M123.11,98.989c0-10.455,11.07-18.93,11.07-18.93s11.07,8.475,11.07,18.93s-11.07,18.93-11.07,18.93 S123.11,109.444,123.11,98.989z"/><path fill="#99BC82" d="M123.11,98.989c0,10.455,11.07,18.93,11.07,18.93l0-37.859 C134.18,80.06,123.11,88.535,123.11,98.989z"/></g></g><g><path fill="#A9CE91" d="M187.766,66.579c-10.455,0-18.93-11.07-18.93-11.07s8.475-11.07,18.93-11.07 c10.455,0,18.93,11.07,18.93,11.07S198.22,66.579,187.766,66.579z"/><path fill="#99BC82" d="M187.766,66.579c10.455,0,18.93-11.07,18.93-11.07l-37.859,0 C168.836,55.508,177.311,66.579,187.766,66.579z"/><g><path fill="#A9CE91" d="M189.763,49.951c-7.392,7.392-21.213,5.557-21.213,5.557s-1.835-13.821,5.557-21.213 s21.213-5.557,21.213-5.557S197.156,42.559,189.763,49.951z"/><path fill="#99BC82" d="M189.763,49.951c7.393-7.393,5.557-21.213,5.557-21.213L168.55,55.508 C168.55,55.508,182.371,57.343,189.763,49.951z"/></g></g><g><path fill="#A9CE91" d="M187.355,148.953c-7.392,7.392-21.213,5.557-21.213,5.557s-1.835-13.821,5.557-21.213 s21.213-5.557,21.213-5.557S194.748,141.56,187.355,148.953z"/><path fill="#99BC82" d="M187.355,148.953c7.393-7.393,5.557-21.213,5.557-21.213l-26.771,26.771 C166.142,154.51,179.963,156.345,187.355,148.953z"/></g><g><path fill="#A9CE91" d="M39.68,215.279c-10.455,0-18.93-11.07-18.93-11.07s8.475-11.07,18.93-11.07 c10.455,0,18.93,11.07,18.93,11.07S50.134,215.279,39.68,215.279z"/><path fill="#99BC82" d="M39.68,215.279c10.455,0,18.93-11.07,18.93-11.07l-37.859,0 C20.75,204.209,29.225,215.279,39.68,215.279z"/></g><g><path fill="#422618" d="M119.254,234.639c-23.692,0-46.604-8.34-64.715-23.518c-3.697,3.032-8.944,6.158-14.859,6.158 c-11.312,0-20.147-11.37-20.518-11.854c-0.55-0.718-0.55-1.714,0-2.432c0.335-0.438,7.599-9.787,17.356-11.564 c-11.825-16.937-18.056-36.766-18.056-57.581c0-19.383,5.457-38.043,15.821-54.235c-12.237-0.23-21.766-12.495-22.169-13.021 c-0.55-0.718-0.55-1.714,0-2.432c0.252-0.329,5.844-7.547,13.902-11.094c-3.058-8.131-1.933-16.99-1.879-17.393 c0.119-0.896,0.823-1.601,1.719-1.72c0.407-0.054,9.319-1.185,17.47,1.906c3.516-8.154,10.839-13.83,11.174-14.086 c0.717-0.549,1.715-0.549,2.432,0c0.532,0.407,13.023,10.114,13.023,22.518c0,0.552-0.025,1.108-0.075,1.668 c15.023-8.455,31.996-12.902,49.373-12.902c16.667,0,33.079,4.127,47.66,11.96c0.907-5.077,2.879-9.234,5.779-12.136 c8-8,22.286-6.204,22.891-6.125c0.896,0.119,1.6,0.823,1.719,1.719c0.049,0.366,1.063,8.352-1.672,15.725 c7.335,3.227,12.421,9.791,12.652,10.093c0.55,0.718,0.55,1.714,0,2.432c-0.257,0.335-5.701,7.354-13.458,10.431 c16.287,18.433,25.219,41.99,25.219,66.693c0,6.685-0.656,13.345-1.954,19.85c1.78-0.534,3.546-0.804,5.277-0.804 c11.312,0,20.147,11.37,20.518,11.854c0.55,0.718,0.55,1.714,0,2.432c-0.225,0.293-5.155,6.656-12.302,9.936 c2.904,7.469,1.859,15.707,1.81,16.084c-0.119,0.896-0.823,1.601-1.719,1.72c-0.606,0.078-14.893,1.874-22.891-6.126 c-1.049-1.048-1.976-2.255-2.774-3.608C187.877,215.787,154.988,234.639,119.254,234.639z M54.535,206.489 c0.467,0,0.935,0.163,1.311,0.489c17.582,15.258,40.101,23.66,63.408,23.66c35.567,0,68.198-19.446,85.159-50.75 c0.375-0.69,1.114-1.08,1.904-1.042c0.784,0.058,1.463,0.569,1.732,1.308c0.861,2.354,2.06,4.31,3.562,5.81 c5.223,5.224,14.291,5.322,17.945,5.121c0.153-2.868,0.122-9.083-2.423-14.148c-0.258-0.514-0.282-1.113-0.067-1.646 c0.215-0.532,0.649-0.947,1.191-1.138c5.243-1.842,9.53-6.09,11.417-8.188c-2.449-2.724-8.947-9.07-16.308-9.07 c-2.286,0-4.69,0.619-7.146,1.841c-0.695,0.344-1.529,0.259-2.136-0.227c-0.608-0.483-0.881-1.275-0.7-2.03 c1.765-7.367,2.659-14.98,2.659-22.63c0-24.738-9.328-48.282-26.267-66.294c-0.492-0.523-0.666-1.271-0.455-1.957 s0.773-1.207,1.475-1.364c6.098-1.367,11.181-6.382,13.278-8.723c-1.919-2.137-6.336-6.509-11.718-8.291 c-0.546-0.181-0.987-0.587-1.212-1.116s-0.211-1.13,0.038-1.648c2.406-5.009,2.434-11.045,2.283-13.861 c-3.658-0.198-12.739-0.089-17.945,5.116c-3.515,3.516-4.672,8.828-5.024,12.665c-0.062,0.679-0.466,1.279-1.07,1.593 c-0.605,0.316-1.329,0.3-1.92-0.043c-14.606-8.418-31.292-12.867-48.253-12.867c-18.161,0-35.861,5.059-51.188,14.628 c-0.714,0.444-1.63,0.397-2.292-0.121c-0.663-0.519-0.93-1.396-0.669-2.196c0.564-1.728,0.851-3.435,0.851-5.076 c0-8.35-7.29-15.687-10.24-18.313c-2.324,2.067-7.339,7.056-9.364,13.166c-0.181,0.546-0.588,0.987-1.116,1.212 c-0.527,0.226-1.128,0.213-1.647-0.038c-5.716-2.743-12.573-2.716-15.617-2.535c-0.178,3.033-0.201,9.858,2.494,15.538 c0.244,0.515,0.258,1.109,0.036,1.635c-0.222,0.524-0.656,0.931-1.195,1.115c-6.029,2.063-10.939,7.003-12.987,9.304 c2.627,2.951,9.964,10.241,18.314,10.241c1.058,0,2.148-0.119,3.244-0.354c0.801-0.174,1.632,0.164,2.087,0.85 c0.454,0.686,0.443,1.58-0.029,2.253c-11.43,16.311-17.472,35.496-17.472,55.484c0,21.149,6.698,41.24,19.37,58.099 c0.462,0.615,0.531,1.441,0.176,2.124c-0.354,0.684-1.077,1.113-1.838,1.077c-0.163-0.005-0.327-0.009-0.491-0.009 c-7.359,0-13.857,6.347-16.308,9.07c2.449,2.723,8.947,9.07,16.308,9.07c5.399,0,10.332-3.414,13.519-6.277 C53.578,206.66,54.057,206.489,54.535,206.489z M119.254,215.422c-12.616,0-24.711-2.803-35.95-8.33 c-0.906-0.446-1.338-1.498-1.006-2.452s1.323-1.509,2.312-1.298c4.932,1.066,10.013,1.607,15.103,1.607 c31.241,0,59.271-20.893,68.164-50.808c0.252-0.849,1.032-1.43,1.917-1.43c0.056-0.001,0.114,0,0.172,0 c4.112,0,11.493-0.689,15.977-5.173c5.204-5.205,5.311-14.287,5.116-17.944c-3.438-0.184-11.689-0.102-16.99,4.253 c-0.591,0.487-1.408,0.591-2.105,0.272c-0.696-0.32-1.147-1.01-1.164-1.776c-0.795-38.376-32.685-69.598-71.086-69.598 c-5.093,0-10.174,0.54-15.103,1.606c-0.987,0.211-1.979-0.344-2.312-1.298s0.1-2.006,1.006-2.452 c11.24-5.526,23.335-8.329,35.95-8.329c44.979,0,81.573,36.594,81.573,81.574S164.233,215.422,119.254,215.422z M99.701,208.949 c6.326,1.645,12.862,2.473,19.553,2.473c42.774,0,77.573-34.8,77.573-77.574s-34.799-77.574-77.573-77.574 c-6.69,0-13.227,0.829-19.553,2.473c0.003,0,0.007,0,0.011,0c19.784,0,38.458,7.628,52.581,21.478 c13.248,12.992,21.104,30.088,22.347,48.465c7.972-4.266,18.053-2.995,18.536-2.931c0.896,0.119,1.6,0.823,1.719,1.719 c0.08,0.604,1.874,14.892-6.125,22.891c-5.022,5.022-12.606,6.163-17.494,6.323c-4.672,14.625-13.955,27.742-26.262,37.063 c-13.126,9.941-28.791,15.196-45.302,15.196C99.708,208.949,99.705,208.949,99.701,208.949z M99.712,194.729 c-3.933,0-7.864-0.377-11.686-1.121c-0.896-0.174-1.56-0.932-1.614-1.842c-0.056-0.911,0.513-1.743,1.38-2.023 c7.265-2.352,13.162-8.394,15.447-10.992c-2.27-2.581-8.103-8.559-15.298-10.943c-0.546-0.181-0.987-0.588-1.212-1.116 c-0.225-0.529-0.211-1.13,0.038-1.647c3.22-6.707,3.116-14.824,2.9-18.192c-3.354-0.215-11.409-0.318-18.099,2.856 c-0.515,0.245-1.108,0.259-1.635,0.036c-0.524-0.222-0.931-0.656-1.115-1.195c-2.429-7.101-8.316-12.843-10.872-15.09 c-3.105,2.731-11.126,10.624-11.896,19.834c-0.079,0.942-0.806,1.7-1.744,1.818c-0.939,0.12-1.83-0.437-2.139-1.33 c-2.216-6.397-3.339-13.104-3.339-19.934c0-33.571,27.312-60.883,60.882-60.883c8.989,0,17.646,1.915,25.733,5.69 c0.798,0.373,1.258,1.225,1.133,2.097s-0.807,1.56-1.678,1.693c-4.646,0.709-8.254,2.32-10.722,4.787 c-5.204,5.205-5.312,14.288-5.117,17.946c2.866,0.147,9.081,0.12,14.146-2.423c0.513-0.258,1.112-0.283,1.646-0.067 c0.533,0.215,0.947,0.649,1.138,1.192c1.841,5.242,6.089,9.53,8.188,11.416c2.722-2.448,9.07-8.947,9.07-16.308 c0-0.791-0.075-1.606-0.223-2.425c-0.162-0.894,0.299-1.784,1.122-2.168c0.824-0.387,1.802-0.164,2.383,0.533 c9.067,10.896,14.062,24.718,14.062,38.918C160.594,167.418,133.282,194.729,99.712,194.729z M95.451,190.572 c1.416,0.104,2.838,0.157,4.261,0.157c31.365,0,56.882-25.518,56.882-56.882c0-11.309-3.39-22.361-9.637-31.682 c-1.785,9.75-11.124,17.006-11.562,17.341c-0.717,0.549-1.715,0.549-2.432,0c-0.293-0.225-6.656-5.154-9.936-12.302 c-7.469,2.905-15.708,1.86-16.084,1.81c-0.896-0.119-1.601-0.823-1.72-1.719c-0.08-0.604-1.873-14.893,6.126-22.892 c1.85-1.85,4.156-3.305,6.896-4.355c-5.932-2.049-12.143-3.084-18.534-3.084c-31.365,0-56.882,25.518-56.882,56.883 c0,3.902,0.393,7.761,1.17,11.536c3.929-9.293,12.289-15.783,12.73-16.121c0.717-0.549,1.715-0.549,2.432,0 c0.376,0.288,8.695,6.733,12.668,15.984c9.271-3.579,19.484-2.282,19.945-2.222c0.896,0.119,1.6,0.823,1.719,1.72 c0.062,0.463,1.366,10.738-2.255,20.032c9.362,3.935,15.903,12.376,16.195,12.758c0.55,0.718,0.55,1.714,0,2.432 C107.187,180.29,102.512,186.324,95.451,190.572z"/></g></svg>