<svg xmlns="http://www.w3.org/2000/svg"  viewBox="0 0 48 48" width="48px" height="48px"><path fill="#ff8a80" d="M9 12c-.4 0-.8-.3-1-.7-.1-.5.2-1.1.7-1.2C9 10 11 9.3 11 7c0-.6.4-1 1-1s1 .4 1 1c0 3.1-2.4 4.6-3.7 5C9.2 12 9.1 12 9 12zM41 31c-2.9 0-4-2.4-4-4 0-.6.4-1 1-1 .5 0 1 .4 1 1 0 .5.2 2 2 2 .6 0 1 .4 1 1S41.6 31 41 31zM39 27L39 27 39 27zM12 24c-.4 0-.8-.3-1-.7-.1-.5.2-1.1.7-1.2C12 22 14 21.3 14 19c0-.6.4-1 1-1s1 .4 1 1c0 3.1-2.4 4.6-3.7 5C12.2 24 12.1 24 12 24zM10 37c-.5 0-1-.4-1-1 0-.1-.1-1.4-1.4-2.1-.5-.2-.7-.8-.4-1.3.2-.5.8-.7 1.3-.4C11 33.4 11 35.9 11 36 11 36.6 10.6 37 10 37z"/><path fill="#ff8a80" d="M15.7 17.1c-2.1 0-3.8-.6-5.3-1.8C7.3 12.7 7 8.2 7 8.1 7 7.5 7.4 7 7.9 7 8.5 7 9 7.4 9 7.9c0 .1.3 3.8 2.7 5.8 1.3 1.1 3.1 1.5 5.2 1.2.5-.1 1 .3 1.1.9.1.5-.3 1-.9 1.1C16.6 17.1 16.1 17.1 15.7 17.1zM28 12c-1.7 0-5-1-5-5 0-.6.4-1 1-1s1 .4 1 1c0 2.8 2.5 3 3 3 .5 0 1 .5 1 1C29 11.6 28.5 12 28 12z"/><path fill="#ff5252" d="M16.6 14.4c-.4 0-.8-.3-.9-.7-.2-.5.1-1.1.6-1.3.1 0 2.8-1.1 2.8-3.5 0-.6.4-1 1-1s1 .4 1 1c0 3.8-3.9 5.3-4.1 5.4C16.8 14.4 16.7 14.4 16.6 14.4zM37.2 14.5c-1.1 0-2-.3-2.7-.6-.5-.2-.7-.8-.4-1.3.2-.5.8-.7 1.3-.4.3.2 3.2 1.4 4.7-1.6.2-.5.8-.7 1.3-.4.5.2.7.8.4 1.3C40.7 13.8 38.9 14.5 37.2 14.5zM17 27c-1.4 0-7-1.2-7-7 0-.6.4-1 1-1s1 .4 1 1c0 4.6 5 5 5 5 .6 0 1 .4 1 1S17.6 27 17 27zM33 37c-.2 0-.5-.1-.7-.2-.1-.1-2.5-2.3-1.3-6.1.2-.5.7-.8 1.3-.6.5.2.8.7.6 1.3-.8 2.5.7 3.9.7 3.9.4.4.4 1 .1 1.4C33.5 36.9 33.3 37 33 37zM38.2 27.6c-3.7 0-5.1-3.2-5.1-3.2-.2-.5 0-1.1.5-1.3.5-.2 1.1 0 1.3.5.1.3 1.5 3.1 5.7 1.5.5-.2 1.1 0 1.3.6.2.5 0 1.1-.6 1.3C40.1 27.4 39.1 27.6 38.2 27.6z"/><path fill="#ff5252" d="M18.8 29.7c-1.3 0-2.4-.4-3.2-.8-.5-.2-.7-.8-.4-1.3.2-.5.8-.7 1.3-.4l0 0c.1.1 3.2 1.6 4.7-.7.3-.5.9-.6 1.4-.3.5.3.6.9.3 1.4C21.8 29.1 20.2 29.7 18.8 29.7zM10 37.6c-1.1 0-2.2-.2-3.4-.7-.5-.2-.8-.8-.6-1.3.2-.5.8-.8 1.3-.6 4.6 1.8 7.8-1.6 7.9-1.7.4-.4 1-.4 1.4-.1.4.4.4 1 .1 1.4C15.7 35.9 13.2 37.6 10 37.6z"/><path fill="#f44336" d="M24 18.1c-.6 0-1.2-.4-1.4-.9-.3-.8.1-1.6.8-1.9 4.1-1.7 3.3-6.8 3.3-6.9-.1-.8.4-1.6 1.2-1.7.8-.1 1.6.4 1.7 1.2.4 2.6-.1 8.1-5.2 10.1C24.4 18.1 24.2 18.1 24 18.1zM35 25.5c-.1 0-.2 0-.3 0-2-.4-5.8-2.6-5.8-7.8 0-.8.7-1.5 1.5-1.5s1.5.7 1.5 1.5c0 4.1 3.3 4.8 3.4 4.9.8.2 1.3 1 1.1 1.8C36.3 25 35.7 25.5 35 25.5zM12.3 33c-.6 0-1.1-.3-1.3-.8-.4-.7-.1-1.6.7-2 .2-.1 5.4-2.8 4.5-8-.1-.8.4-1.6 1.2-1.7.8-.1 1.6.4 1.7 1.2 1 5.9-3.6 9.9-6.1 11.2C12.8 32.9 12.5 33 12.3 33zM29.6 38.1c-2.3 0-4-.7-4.1-.7-.8-.3-1.2-1.2-.9-1.9.3-.8 1.2-1.1 1.9-.9l0 0c.2.1 4.9 1.8 8.4-1.7.6-.6 1.5-.6 2.1 0s.6 1.5 0 2.1C34.6 37.5 31.8 38.1 29.6 38.1z"/><path fill="#f44336" d="M21.9 18.2c-.7 0-1.7-.1-2.7-.4-2-.6-4.5-2.2-5.2-6.2-.1-.8.4-1.6 1.2-1.7.8-.1 1.6.4 1.7 1.2.3 2.1 1.4 3.3 3.1 3.9 1.4.4 2.6.2 2.6.2.8-.1 1.6.4 1.7 1.2.1.8-.4 1.6-1.2 1.7C23.1 18.1 22.6 18.2 21.9 18.2zM37.8 20.3c-.3 0-.6-.1-.9-.3-4.2-3.1-3.5-7.5-2.6-9.3.4-.7 1.3-1 2-.7.7.4 1 1.3.7 2-.2.3-1.4 3.2 1.7 5.6.7.5.8 1.4.3 2.1C38.7 20 38.3 20.3 37.8 20.3z"/><path fill="#e53935" d="M20.1 35.6c-2.5 0-5.4-.4-8-1.9-3-1.7-5-4.4-6-8-.3-1.1.3-2.2 1.4-2.5 1.1-.3 2.2.3 2.5 1.4.7 2.6 2.1 4.5 4.1 5.6 4.3 2.4 10.3.9 10.4.9 1.1-.3 2.2.3 2.5 1.4.3 1.1-.3 2.2-1.4 2.5C25.4 35 23.1 35.6 20.1 35.6zM26.1 29.3c-1.1 0-2-.8-2-1.9-.1-2-2.4-7.5-3.9-10.4-.5-1-.1-2.2.9-2.7 1-.5 2.2-.1 2.7.9.4.9 4.2 8.5 4.3 12.1C28.2 28.3 27.3 29.2 26.1 29.3 26.2 29.3 26.1 29.3 26.1 29.3z"/><path fill="#e53935" d="M17.2,42h5.4c2.4-3,5.4-7.7,5.6-12.9c4.1-0.6,9.9-3.2,11.6-9.9c0.3-1.1-0.4-2.2-1.5-2.4 s-2.2,0.4-2.4,1.5c-1.7,6.8-9.4,7-9.7,7h-2.2l0.2,2.2C24.8,33.9,19,40.2,17.2,42z"/></svg>