<svg xmlns="http://www.w3.org/2000/svg"  viewBox="0 0 48 48" width="48px" height="48px"><path fill="#795548" d="M22 30H26V42H22z"/><path fill="#795548" d="M28,43h-8c0,0,2-1,2-2s4-1,4,0S28,43,28,43z"/><path fill="#8bc34a" d="M27 9.5c0 2.5-2 4.5-4.5 4.5S18 12 18 9.5 20 5 22.5 5 27 7 27 9.5zM34 28c0 2.8-2.2 5-5 5s-5-2.2-5-5 2.2-5 5-5S34 25.2 34 28z"/><path fill="#8bc34a" d="M40 29c0 2.2-1.8 4-4 4s-4-1.8-4-4 1.8-4 4-4S40 26.8 40 29zM36 13.5c0 1.9-1.6 3.5-3.5 3.5S29 15.4 29 13.5s1.6-3.5 3.5-3.5S36 11.6 36 13.5z"/><path fill="#8bc34a" d="M42 22c0 2.2-1.8 4-4 4s-4-1.8-4-4 1.8-4 4-4S42 19.8 42 22zM31 11.5c0 1.9-1.6 3.5-3.5 3.5S24 13.4 24 11.5 25.6 8 27.5 8 31 9.6 31 11.5z"/><path fill="#8bc34a" d="M39 19c0 2.2-1.8 4-4 4s-4-1.8-4-4 1.8-4 4-4S39 16.8 39 19zM28 31.5c0 2.5-2 4.5-4.5 4.5S19 34 19 31.5s2-4.5 4.5-4.5S28 29 28 31.5z"/><path fill="#8bc34a" d="M36,22c0-6.1-5.6-11-12.5-11S11,15.9,11,22s5.6,11,12.5,11S36,28.1,36,22z"/><path fill="#8bc34a" d="M22 11c0 2.2-1.8 4-4 4s-4-1.8-4-4 1.8-4 4-4S22 8.8 22 11zM17 30.5c0 1.9-1.6 3.5-3.5 3.5S10 32.4 10 30.5s1.6-3.5 3.5-3.5S17 28.6 17 30.5z"/><path fill="#8bc34a" d="M22 29.5c0 1.9-1.6 3.5-3.5 3.5S15 31.4 15 29.5s1.6-3.5 3.5-3.5S22 27.6 22 29.5zM13 27.5c0 1.9-1.6 3.5-3.5 3.5S6 29.4 6 27.5 7.6 24 9.5 24 13 25.6 13 27.5zM16 13.5c0 1.9-1.6 3.5-3.5 3.5S9 15.4 9 13.5s1.6-3.5 3.5-3.5S16 11.6 16 13.5z"/><path fill="#8bc34a" d="M16,23.5c0,1.9-1.6,3.5-3.5,3.5S9,25.4,9,23.5s1.6-3.5,3.5-3.5S16,21.6,16,23.5z"/><path fill="#8bc34a" d="M13,17.5c0,1.9-1.6,3.5-3.5,3.5S6,19.4,6,17.5S7.6,14,9.5,14S13,15.6,13,17.5z"/><path fill="#689f38" d="M15 17c-.6 0-1-.4-1-1 0-2.6 2.6-4 5-4 .6 0 1 .4 1 1s-.4 1-1 1c-1.2 0-3 .6-3 2C16 16.6 15.6 17 15 17zM31 19c-.6 0-1-.4-1-1 0-1.7-1.3-3-3-3-.6 0-1-.4-1-1s.4-1 1-1c2.8 0 5 2.2 5 5C32 18.6 31.6 19 31 19zM32 28c-.6 0-1-.4-1-1s.4-1 1-1c1.1 0 2-.9 2-2 0-.6.4-1 1-1s1 .4 1 1C36 26.2 34.2 28 32 28zM22 31c-.6 0-1-.4-1-1 0-1.9 2.1-4 4-4 .6 0 1 .4 1 1s-.4 1-1 1c-.8 0-2 1.2-2 2C23 30.6 22.6 31 22 31zM24 23c-.6 0-1-.4-1-1 0-.8-1.2-2-2-2-.6 0-1-.4-1-1s.4-1 1-1c1.9 0 4 2.1 4 4C25 22.6 24.6 23 24 23zM16 29c-2.6 0-4-2.6-4-5 0-.6.4-1 1-1s1 .4 1 1c0 1.2.6 3 2 3 .6 0 1 .4 1 1S16.6 29 16 29z"/></svg>