<svg xmlns="http://www.w3.org/2000/svg"  viewBox="0 0 48 48" width="48px" height="48px"><path fill="#795548" d="M20.2 8.6L18 4 21.8 7.4zM6.553 17.895L3 15 7.447 16.105zM9 15L10 10 11 15zM23 7L24 2 25 7zM27.105 7.553L30 4 28.895 8.447zM30.445 10.168L34 9 31.555 11.832zM17.553 11.895L14 9 18.447 10.105zM7.447 21.895L3 23 6.553 20.105zM9.555 27.832L6 29 8.445 26.168zM13.832 31.555L11 34 12.168 30.445zM31 15L35 16 31 17zM12.293 15.293L15 14 13.707 16.707zM37.029 26.758L39 23 38.971 27.242zM39.758 28.029L44 28 40.242 29.971zM31 20L35 21 31 22zM39.242 33.029L43 35 38.758 34.971zM34.293 28.707L32 25 35.707 27.293zM36.832 36.445L38 40 35.168 37.555z"/><g><path fill="#4DB6AC" d="M29.5 39.5c-1.934 0-3.5-.066-3.5-2s1.566-3 3.5-3c3.866 0 4.502-5.232 4.527-5.436.238-1.918 1.998-3.278 3.906-3.037 1.918.238 3.278 1.988 3.039 3.906C40.494 33.762 37.48 39.5 29.5 39.5zM17.002 33.001c-.364 0-.733-.05-1.101-.155C8.085 30.613 6 22.464 6 18c0-2.209 1.791-4 4-4 2.202 0 3.988 1.779 4 3.979.003.152-.945 8.894 3 10.021 2.124.605 4.453-.025 3.846 2.1C20.344 31.855 18.742 33.001 17.002 33.001z"/><path fill="#4DB6AC" d="M18,46c0,0-2-17.161-2-32c0-4.999,3.582-8,8-8s8,2.999,8,8s-2,32.001-2,32.001L18,46z"/></g><g><path fill="#009688" d="M27.997 14.396C27.926 17.297 26.555 39.21 26.126 46h2.011c.473-7.523 1.787-28.625 1.86-31.587C30.434 9.001 25.832 6.043 24 6 25.594 6.862 28.463 9.669 27.997 14.396zM19.817 46h2.009c-.438-7.158-1.752-28.74-1.823-31.604C19.537 9.669 22.406 6.862 24 6c-1.832.043-6.433 3.001-5.997 8.413C18.076 17.338 19.338 38.163 19.817 46z"/><path fill="#009688" d="M23 28v11.001V46h2v-6.999V28 17c0 0 0-7.999-1-11-1 3.001-1 11-1 11V28zM16.541 29.245c-.673-.291-1.313-.646-1.888-1.085-1.284-.979-2.253-2.34-2.882-3.877-.633-1.54-.953-3.236-1.062-4.951C10.476 17.072 10.25 14.958 10 14c-.572.818-1.645 3.072-1.286 5.458.12 1.881.469 3.782 1.209 5.587.731 1.799 1.919 3.489 3.515 4.703.655.5 2.124 1.521 3.239 1.527C16.63 30.609 16.585 29.936 16.541 29.245zM38.035 26c-.289.699-.898 3.055-1.002 3.617-.213 1.126-.65 2.188-1.313 3.085-.658.899-1.543 1.629-2.558 2.171-.373.202-1.593.613-2.433.895-.051.744-.103 1.465-.15 2.164 1.158-.231 3.007-1.015 3.529-1.297 1.233-.656 2.371-1.586 3.222-2.748.854-1.158 1.405-2.517 1.666-3.895C39.035 28 38.566 26.555 38.035 26z"/></g></svg>