<svg xmlns="http://www.w3.org/2000/svg"  viewBox="0 0 256 256" width="64px" height="64px"><path fill="#648940" d="M130.102,141.014l58.721-15.261c0.168-0.044,0.245,0.2,0.083,0.261l-56.785,21.366L130.102,141.014z"/><path fill="#76A34F" d="M162.756,148.371c0.089,0.502-0.43,0.883-0.882,0.648c-1.311-0.682-3.604-2.107-5.304-4.422 c-1.701-2.316-2.375-4.93-2.633-6.384c-0.089-0.502,0.43-0.883,0.882-0.648c1.311,0.682,3.604,2.107,5.304,4.422 C161.824,144.302,162.498,146.916,162.756,148.371z"/><path fill="#76A34F" d="M155.354,152.7c0.055,0.545-0.532,0.911-0.997,0.622c-1.348-0.837-3.688-2.549-5.321-5.167 c-1.633-2.618-2.143-5.472-2.301-7.051c-0.055-0.545,0.532-0.911,0.997-0.622c1.348,0.837,3.688,2.549,5.321,5.167 S155.195,151.122,155.354,152.7z"/><path fill="#76A34F" d="M147.834,157.107c0.037,0.614-0.637,0.998-1.146,0.654c-1.476-0.998-4.025-3.023-5.741-6.032 c-1.716-3.009-2.162-6.234-2.27-8.012c-0.037-0.614,0.637-0.998,1.146-0.654c1.475,0.998,4.025,3.023,5.741,6.032 C147.281,152.104,147.726,155.329,147.834,157.107z"/><path fill="#76A34F" d="M169.591,145.289c0.085,0.479-0.41,0.843-0.842,0.618c-1.251-0.651-3.439-2.011-5.063-4.221 c-1.623-2.21-2.267-4.705-2.513-6.093c-0.085-0.479,0.41-0.843,0.842-0.618c1.251,0.651,3.439,2.011,5.063,4.221 C168.701,141.406,169.344,143.901,169.591,145.289z"/><path fill="#76A34F" d="M176.192,141.858c0.104,0.44-0.335,0.804-0.748,0.618c-1.195-0.537-3.298-1.682-4.921-3.646 s-2.353-4.244-2.656-5.519c-0.104-0.44,0.335-0.804,0.748-0.618c1.195,0.537,3.298,1.682,4.921,3.646 C175.159,138.303,175.889,140.583,176.192,141.858z"/><path fill="#76A34F" d="M181.854,138.315c0.1,0.364-0.256,0.679-0.605,0.537c-1.012-0.413-2.797-1.307-4.207-2.896 c-1.41-1.59-2.084-3.469-2.373-4.523c-0.1-0.364,0.256-0.679,0.605-0.537c1.012,0.413,2.797,1.307,4.207,2.896 C180.891,135.382,181.565,137.261,181.854,138.315z"/><path fill="#76A34F" d="M186.029,135.021c0.077,0.295-0.214,0.548-0.496,0.429c-0.815-0.344-2.252-1.086-3.377-2.387 c-1.126-1.301-1.653-2.83-1.876-3.686c-0.077-0.295,0.214-0.548,0.495-0.429c0.815,0.344,2.252,1.086,3.377,2.387 S185.806,134.165,186.029,135.021z"/><path fill="#76A34F" d="M189.717,132.393c0.044,0.249-0.213,0.437-0.437,0.321c-0.649-0.338-1.785-1.043-2.627-2.19 c-0.842-1.147-1.176-2.442-1.304-3.162c-0.044-0.249,0.213-0.437,0.437-0.321c0.649,0.338,1.785,1.043,2.627,2.19 C189.256,130.378,189.589,131.672,189.717,132.393z"/><path fill="#76A34F" d="M192.243,129.228c0.053,0.17-0.11,0.325-0.277,0.264c-0.485-0.178-1.343-0.571-2.036-1.299 c-0.693-0.728-1.042-1.605-1.196-2.098c-0.053-0.17,0.11-0.325,0.277-0.264c0.485,0.178,1.343,0.571,2.036,1.299 S192.089,128.735,192.243,129.228z"/><path fill="#76A34F" d="M156.663,121.866c-0.175-0.535-0.879-0.636-1.197-0.17c-0.921,1.348-2.41,3.934-2.857,7.077 c-0.448,3.144,0.261,6.042,0.769,7.594c0.175,0.535,0.879,0.636,1.197,0.17c0.921-1.348,2.41-3.934,2.857-7.077 C157.879,126.316,157.17,123.418,156.663,121.866z"/><g><path fill="#76A34F" d="M163.413,121.763c-0.145-0.445-0.73-0.528-0.994-0.142c-0.764,1.12-2.001,3.267-2.373,5.877 c-0.372,2.61,0.217,5.017,0.638,6.306c0.145,0.445,0.73,0.528,0.994,0.142c0.765-1.12,2.001-3.267,2.373-5.877 C164.423,125.459,163.835,123.052,163.413,121.763z"/></g><g><path fill="#76A34F" d="M148.67,121.882c-0.236-0.571-1.014-0.622-1.323-0.087c-0.895,1.551-2.309,4.502-2.537,7.976 c-0.229,3.475,0.787,6.585,1.471,8.24c0.236,0.571,1.014,0.622,1.323,0.087c0.895-1.551,2.309-4.502,2.537-7.976 S149.354,123.537,148.67,121.882z"/></g><g><path fill="#76A34F" d="M139.92,121.919c-0.299-0.65-1.202-0.673-1.534-0.04c-0.964,1.835-2.465,5.312-2.571,9.341 c-0.106,4.029,1.21,7.58,2.077,9.463c0.299,0.65,1.202,0.673,1.534,0.04c0.964-1.835,2.465-5.312,2.571-9.341 C142.103,127.353,140.787,123.802,139.92,121.919z"/></g><g><path fill="#76A34F" d="M169.755,121.75c-0.122-0.374-0.614-0.444-0.836-0.119c-0.643,0.941-1.682,2.746-1.995,4.941 c-0.312,2.195,0.182,4.218,0.537,5.301c0.122,0.374,0.614,0.444,0.836,0.119c0.643-0.941,1.682-2.746,1.995-4.941 C170.605,124.857,170.11,122.834,169.755,121.75z"/></g><g><path fill="#76A34F" d="M176.405,122.072c-0.086-0.286-0.459-0.348-0.633-0.105c-0.506,0.704-1.329,2.058-1.605,3.722 c-0.277,1.663,0.063,3.211,0.313,4.041c0.086,0.286,0.459,0.348,0.633,0.105c0.506-0.704,1.329-2.058,1.605-3.722 C176.996,124.45,176.656,122.902,176.405,122.072z"/></g><g><path fill="#76A34F" d="M189.42,122.808c-0.037-0.113-0.186-0.134-0.253-0.036c-0.195,0.285-0.509,0.832-0.604,1.496 c-0.095,0.664,0.055,1.277,0.163,1.605c0.037,0.113,0.186,0.134,0.253,0.036c0.195-0.285,0.509-0.832,0.604-1.496 C189.677,123.749,189.528,123.136,189.42,122.808z"/></g><g><path fill="#76A34F" d="M186.312,122.289c-0.054-0.166-0.273-0.197-0.371-0.053c-0.285,0.418-0.747,1.219-0.885,2.193 c-0.139,0.974,0.081,1.872,0.238,2.353c0.054,0.166,0.273,0.197,0.371,0.053c0.285-0.418,0.747-1.219,0.885-2.193 S186.469,122.77,186.312,122.289z"/></g><g><path fill="#76A34F" d="M181.568,122.464c-0.071-0.218-0.359-0.259-0.488-0.07c-0.376,0.55-0.983,1.605-1.166,2.888 c-0.183,1.283,0.107,2.465,0.314,3.099c0.072,0.218,0.359,0.259,0.488,0.07c0.376-0.55,0.983-1.605,1.166-2.888 C182.064,124.28,181.775,123.097,181.568,122.464z"/></g><g><path fill="#648940" d="M125.898,141.014l-58.721-15.261c-0.168-0.044-0.245,0.2-0.083,0.261l56.785,21.366L125.898,141.014z"/><path fill="#76A34F" d="M93.244,148.371c-0.089,0.502,0.43,0.883,0.882,0.648c1.311-0.682,3.604-2.107,5.304-4.422 s2.375-4.93,2.633-6.384c0.089-0.502-0.43-0.883-0.882-0.648c-1.311,0.682-3.604,2.107-5.304,4.422 C94.177,144.302,93.502,146.916,93.244,148.371z"/><path fill="#76A34F" d="M100.646,152.7c-0.055,0.545,0.532,0.911,0.997,0.622c1.348-0.837,3.688-2.549,5.321-5.167 s2.143-5.472,2.301-7.051c0.055-0.545-0.532-0.911-0.997-0.622c-1.348,0.837-3.688,2.549-5.321,5.167 S100.805,151.122,100.646,152.7z"/><path fill="#76A34F" d="M108.166,157.107c-0.037,0.614,0.637,0.998,1.146,0.654c1.476-0.998,4.025-3.023,5.741-6.032 s2.162-6.234,2.27-8.012c0.037-0.614-0.637-0.998-1.146-0.654c-1.476,0.998-4.025,3.023-5.741,6.032 C108.719,152.104,108.274,155.329,108.166,157.107z"/><path fill="#76A34F" d="M86.409,145.289c-0.085,0.479,0.41,0.843,0.842,0.618c1.251-0.651,3.439-2.011,5.063-4.221 c1.623-2.21,2.267-4.705,2.513-6.093c0.085-0.479-0.41-0.843-0.842-0.618c-1.251,0.651-3.439,2.011-5.063,4.221 C87.299,141.406,86.656,143.901,86.409,145.289z"/><path fill="#76A34F" d="M79.808,141.858c-0.104,0.44,0.335,0.804,0.748,0.618c1.195-0.537,3.298-1.682,4.921-3.646 s2.353-4.244,2.656-5.519c0.104-0.44-0.335-0.804-0.748-0.618c-1.195,0.537-3.298,1.682-4.921,3.646 C80.841,138.303,80.111,140.583,79.808,141.858z"/><path fill="#76A34F" d="M74.146,138.315c-0.1,0.364,0.256,0.679,0.605,0.537c1.012-0.413,2.797-1.307,4.207-2.896 c1.41-1.59,2.084-3.469,2.373-4.523c0.1-0.364-0.256-0.679-0.605-0.537c-1.012,0.413-2.797,1.307-4.207,2.896 C75.109,135.382,74.435,137.261,74.146,138.315z"/><path fill="#76A34F" d="M69.971,135.021c-0.077,0.295,0.214,0.548,0.496,0.429c0.815-0.344,2.252-1.086,3.377-2.387 c1.126-1.301,1.653-2.83,1.876-3.686c0.077-0.295-0.214-0.548-0.496-0.429c-0.815,0.344-2.252,1.086-3.377,2.387 C70.721,132.637,70.194,134.165,69.971,135.021z"/><path fill="#76A34F" d="M66.283,132.393c-0.044,0.249,0.213,0.437,0.437,0.321c0.649-0.338,1.785-1.043,2.627-2.19 c0.842-1.147,1.176-2.442,1.304-3.162c0.044-0.249-0.213-0.437-0.437-0.321c-0.649,0.338-1.785,1.043-2.627,2.19 C66.744,130.378,66.411,131.672,66.283,132.393z"/><path fill="#76A34F" d="M63.757,129.228c-0.053,0.17,0.11,0.325,0.277,0.264c0.485-0.178,1.343-0.571,2.036-1.299 c0.693-0.728,1.042-1.605,1.196-2.098c0.053-0.17-0.11-0.325-0.277-0.264c-0.485,0.178-1.343,0.571-2.036,1.299 C64.261,127.858,63.911,128.735,63.757,129.228z"/><path fill="#76A34F" d="M99.337,121.866c0.175-0.535,0.879-0.636,1.197-0.17c0.921,1.348,2.41,3.934,2.857,7.077 s-0.261,6.042-0.769,7.594c-0.175,0.535-0.879,0.636-1.197,0.17c-0.921-1.348-2.41-3.934-2.857-7.077 C98.121,126.316,98.83,123.418,99.337,121.866z"/><g><path fill="#76A34F" d="M92.587,121.763c0.145-0.445,0.73-0.528,0.994-0.142c0.765,1.12,2.001,3.267,2.373,5.877 c0.372,2.61-0.217,5.017-0.638,6.306c-0.145,0.445-0.73,0.528-0.994,0.142c-0.765-1.12-2.001-3.267-2.373-5.877 C91.577,125.459,92.165,123.052,92.587,121.763z"/></g><g><path fill="#76A34F" d="M107.33,121.882c0.236-0.571,1.014-0.622,1.323-0.087c0.895,1.551,2.309,4.502,2.537,7.976 c0.229,3.475-0.787,6.585-1.471,8.24c-0.236,0.571-1.014,0.622-1.323,0.087c-0.895-1.551-2.309-4.502-2.537-7.976 C105.631,126.647,106.646,123.537,107.33,121.882z"/></g><g><path fill="#76A34F" d="M116.08,121.919c0.299-0.65,1.202-0.673,1.534-0.04c0.964,1.835,2.465,5.312,2.571,9.341 c0.106,4.029-1.21,7.58-2.077,9.463c-0.299,0.65-1.202,0.673-1.534,0.04c-0.964-1.835-2.465-5.312-2.571-9.341 C113.897,127.353,115.213,123.802,116.08,121.919z"/></g><g><path fill="#76A34F" d="M86.245,121.75c0.122-0.374,0.614-0.444,0.836-0.119c0.643,0.941,1.682,2.746,1.995,4.941 s-0.182,4.218-0.537,5.301c-0.122,0.374-0.614,0.444-0.836,0.119c-0.643-0.941-1.682-2.746-1.995-4.941 S85.89,122.834,86.245,121.75z"/></g><g><path fill="#76A34F" d="M79.595,122.072c0.086-0.286,0.459-0.348,0.633-0.105c0.506,0.704,1.329,2.058,1.605,3.722 c0.277,1.663-0.063,3.211-0.313,4.041c-0.086,0.286-0.459,0.348-0.633,0.105c-0.506-0.704-1.329-2.058-1.605-3.722 C79.004,124.45,79.344,122.902,79.595,122.072z"/></g><g><path fill="#76A34F" d="M66.58,122.808c0.037-0.113,0.186-0.134,0.253-0.036c0.195,0.285,0.509,0.832,0.604,1.496 c0.095,0.664-0.055,1.277-0.163,1.605c-0.037,0.113-0.186,0.134-0.253,0.036c-0.195-0.285-0.509-0.832-0.604-1.496 S66.472,123.136,66.58,122.808z"/></g><g><path fill="#76A34F" d="M69.688,122.289c0.054-0.166,0.273-0.197,0.371-0.053c0.285,0.418,0.747,1.219,0.885,2.193 c0.139,0.974-0.081,1.872-0.238,2.353c-0.054,0.166-0.273,0.197-0.371,0.053c-0.285-0.418-0.747-1.219-0.885-2.193 C69.311,123.668,69.531,122.77,69.688,122.289z"/></g><g><path fill="#76A34F" d="M74.432,122.464c0.071-0.218,0.359-0.259,0.488-0.07c0.376,0.55,0.983,1.605,1.166,2.888 c0.183,1.283-0.107,2.465-0.314,3.099c-0.071,0.218-0.359,0.259-0.488,0.07c-0.376-0.55-0.983-1.605-1.166-2.888 C73.936,124.28,74.225,123.097,74.432,122.464z"/></g></g><g><path fill="#648940" d="M129.801,108.393l50.319-13.078c0.144-0.037,0.21,0.171,0.071,0.223l-48.66,18.309L129.801,108.393z"/><path fill="#76A34F" d="M157.783,114.697c0.076,0.43-0.368,0.757-0.756,0.555c-1.123-0.584-3.088-1.805-4.545-3.79 c-1.458-1.984-2.035-4.224-2.257-5.471c-0.076-0.43,0.368-0.757,0.756-0.555c1.123,0.584,3.088,1.805,4.545,3.79 C156.984,111.211,157.561,113.451,157.783,114.697z"/><path fill="#76A34F" d="M151.44,118.407c0.047,0.467-0.456,0.78-0.854,0.533c-1.155-0.717-3.16-2.184-4.56-4.427 s-1.836-4.689-1.972-6.042c-0.047-0.467,0.456-0.78,0.854-0.533c1.155,0.717,3.16,2.184,4.56,4.427 C150.867,114.609,151.304,117.054,151.44,118.407z"/><path fill="#76A34F" d="M144.996,122.183c0.032,0.526-0.546,0.855-0.982,0.56c-1.264-0.855-3.449-2.59-4.92-5.169 s-1.852-5.342-1.945-6.866c-0.032-0.526,0.546-0.855,0.982-0.56c1.264,0.855,3.449,2.59,4.92,5.169 S144.904,120.659,144.996,122.183z"/><path fill="#76A34F" d="M163.64,112.057c0.073,0.41-0.351,0.722-0.721,0.53c-1.072-0.558-2.947-1.723-4.338-3.617 s-1.942-4.032-2.154-5.222c-0.073-0.41,0.351-0.722,0.721-0.53c1.072,0.558,2.947,1.723,4.338,3.617 S163.428,110.867,163.64,112.057z"/><path fill="#76A34F" d="M169.296,109.116c0.09,0.377-0.287,0.689-0.641,0.53c-1.024-0.46-2.826-1.441-4.217-3.124 c-1.391-1.683-2.017-3.637-2.276-4.729c-0.09-0.377,0.287-0.689,0.641-0.53c1.024,0.46,2.826,1.441,4.217,3.124 C168.411,106.07,169.037,108.024,169.296,109.116z"/><path fill="#76A34F" d="M174.148,106.08c0.086,0.312-0.22,0.582-0.519,0.46c-0.867-0.354-2.397-1.12-3.605-2.482 s-1.786-2.973-2.034-3.876c-0.086-0.312,0.22-0.582,0.519-0.46c0.867,0.354,2.397,1.12,3.605,2.482 C173.323,103.567,173.901,105.177,174.148,106.08z"/><path fill="#76A34F" d="M177.726,103.258c0.066,0.253-0.184,0.469-0.425,0.367c-0.698-0.295-1.929-0.93-2.894-2.045 c-0.965-1.115-1.416-2.425-1.608-3.158c-0.066-0.253,0.184-0.469,0.425-0.367c0.698,0.295,1.929,0.93,2.894,2.045 C177.083,101.215,177.534,102.524,177.726,103.258z"/><path fill="#76A34F" d="M180.886,101.005c0.038,0.213-0.182,0.375-0.374,0.275c-0.556-0.289-1.529-0.894-2.251-1.877 c-0.722-0.983-1.008-2.092-1.118-2.709c-0.038-0.213,0.182-0.375,0.374-0.275c0.556,0.289,1.529,0.894,2.251,1.877 S180.777,100.388,180.886,101.005z"/><path fill="#76A34F" d="M183.05,98.293c0.046,0.146-0.094,0.279-0.238,0.226c-0.416-0.153-1.151-0.49-1.745-1.113 c-0.594-0.624-0.893-1.375-1.025-1.798c-0.046-0.146,0.094-0.279,0.238-0.226c0.416,0.153,1.151,0.49,1.745,1.113 C182.619,97.119,182.918,97.871,183.05,98.293z"/><path fill="#76A34F" d="M152.561,91.985c-0.15-0.459-0.754-0.545-1.026-0.146c-0.789,1.155-2.065,3.371-2.448,6.065 c-0.383,2.694,0.224,5.177,0.659,6.507c0.15,0.459,0.754,0.545,1.026,0.146c0.789-1.155,2.065-3.371,2.448-6.065 S152.996,93.314,152.561,91.985z"/><g><path fill="#76A34F" d="M158.346,91.897c-0.125-0.381-0.626-0.452-0.852-0.121c-0.655,0.959-1.715,2.799-2.033,5.036 c-0.318,2.237,0.186,4.299,0.547,5.403c0.125,0.381,0.626,0.452,0.852,0.121c0.655-0.959,1.715-2.799,2.033-5.036 C159.211,95.063,158.707,93.001,158.346,91.897z"/></g><g><path fill="#76A34F" d="M145.712,91.999c-0.202-0.489-0.869-0.533-1.134-0.075c-0.767,1.329-1.978,3.857-2.174,6.835 c-0.196,2.977,0.674,5.643,1.26,7.061c0.202,0.489,0.869,0.533,1.134,0.075c0.767-1.329,1.978-3.857,2.174-6.835 C147.168,96.082,146.299,93.417,145.712,91.999z"/></g><g><path fill="#76A34F" d="M138.215,92.031c-0.256-0.557-1.03-0.577-1.315-0.035c-0.826,1.572-2.112,4.552-2.203,8.004 s1.037,6.496,1.78,8.109c0.256,0.557,1.03,0.577,1.315,0.035c0.826-1.572,2.112-4.552,2.203-8.004 S138.957,93.644,138.215,92.031z"/></g><g><path fill="#76A34F" d="M163.781,91.886c-0.105-0.32-0.526-0.38-0.716-0.102c-0.551,0.807-1.442,2.353-1.709,4.234 s0.156,3.614,0.46,4.543c0.105,0.32,0.526,0.38,0.716,0.102c0.551-0.807,1.442-2.353,1.709-4.234 S164.084,92.814,163.781,91.886z"/></g><g><path fill="#76A34F" d="M169.479,92.161c-0.074-0.245-0.393-0.299-0.543-0.09c-0.433,0.604-1.138,1.764-1.376,3.189 c-0.237,1.425,0.054,2.752,0.269,3.463c0.074,0.245,0.393,0.299,0.543,0.09c0.433-0.604,1.138-1.764,1.376-3.189 S169.693,92.873,169.479,92.161z"/></g><g><path fill="#76A34F" d="M180.632,92.792c-0.032-0.097-0.159-0.115-0.217-0.031c-0.167,0.244-0.437,0.713-0.518,1.282 c-0.081,0.569,0.047,1.094,0.139,1.375c0.032,0.097,0.159,0.115,0.217,0.031c0.167-0.244,0.437-0.713,0.518-1.282 C180.852,93.598,180.724,93.073,180.632,92.792z"/></g><g><path fill="#76A34F" d="M177.968,92.347c-0.047-0.142-0.234-0.169-0.318-0.045c-0.244,0.358-0.64,1.045-0.759,1.879 c-0.119,0.835,0.069,1.604,0.204,2.016c0.047,0.142,0.234,0.169,0.318,0.045c0.244-0.358,0.64-1.045,0.759-1.879 C178.291,93.529,178.103,92.76,177.968,92.347z"/></g><g><path fill="#76A34F" d="M173.903,92.497c-0.061-0.187-0.308-0.222-0.419-0.06c-0.322,0.471-0.843,1.375-0.999,2.475 s0.091,2.113,0.269,2.655c0.061,0.187,0.308,0.222,0.419,0.06c0.322-0.471,0.843-1.375,0.999-2.475 S174.08,93.04,173.903,92.497z"/></g><g><path fill="#648940" d="M126.199,108.393L75.88,95.315c-0.144-0.037-0.21,0.171-0.071,0.223l48.66,18.309L126.199,108.393z"/><path fill="#76A34F" d="M98.217,114.697c-0.076,0.43,0.368,0.757,0.756,0.555c1.123-0.584,3.088-1.805,4.545-3.79 c1.457-1.984,2.035-4.224,2.257-5.471c0.076-0.43-0.368-0.757-0.756-0.555c-1.123,0.584-3.088,1.805-4.545,3.79 S98.439,113.451,98.217,114.697z"/><path fill="#76A34F" d="M104.56,118.407c-0.047,0.467,0.456,0.78,0.854,0.533c1.155-0.717,3.16-2.184,4.56-4.427 s1.836-4.689,1.972-6.042c0.047-0.467-0.456-0.78-0.854-0.533c-1.155,0.717-3.16,2.184-4.56,4.427 C105.133,114.609,104.696,117.054,104.56,118.407z"/><path fill="#76A34F" d="M111.004,122.183c-0.032,0.526,0.546,0.855,0.982,0.56c1.264-0.855,3.449-2.59,4.92-5.169 c1.471-2.579,1.852-5.342,1.945-6.866c0.032-0.526-0.546-0.855-0.982-0.56c-1.264,0.855-3.449,2.59-4.92,5.169 C111.478,117.896,111.096,120.659,111.004,122.183z"/><path fill="#76A34F" d="M92.36,112.057c-0.073,0.41,0.351,0.722,0.721,0.53c1.072-0.558,2.947-1.723,4.338-3.617 s1.942-4.032,2.154-5.222c0.073-0.41-0.351-0.722-0.721-0.53c-1.072,0.558-2.947,1.723-4.338,3.617 C93.123,108.729,92.572,110.867,92.36,112.057z"/><path fill="#76A34F" d="M86.704,109.116c-0.09,0.377,0.287,0.689,0.641,0.53c1.024-0.46,2.826-1.441,4.217-3.124 s2.017-3.637,2.276-4.729c0.09-0.377-0.287-0.689-0.641-0.53c-1.024,0.46-2.826,1.441-4.217,3.124 C87.589,106.07,86.963,108.024,86.704,109.116z"/><path fill="#76A34F" d="M81.852,106.08c-0.086,0.312,0.22,0.582,0.519,0.46c0.867-0.354,2.397-1.12,3.605-2.482 s1.786-2.973,2.034-3.876c0.086-0.312-0.22-0.582-0.519-0.46c-0.867,0.354-2.397,1.12-3.605,2.482 S82.099,105.177,81.852,106.08z"/><path fill="#76A34F" d="M78.274,103.258c-0.066,0.253,0.184,0.469,0.425,0.367c0.698-0.295,1.929-0.93,2.894-2.045 s1.416-2.425,1.608-3.158c0.066-0.253-0.184-0.469-0.425-0.367c-0.698,0.295-1.929,0.93-2.894,2.045 S78.466,102.524,78.274,103.258z"/><path fill="#76A34F" d="M75.114,101.005c-0.038,0.213,0.182,0.375,0.374,0.275c0.556-0.289,1.529-0.894,2.251-1.877 c0.722-0.983,1.008-2.092,1.118-2.709c0.038-0.213-0.182-0.375-0.374-0.275c-0.556,0.289-1.529,0.894-2.251,1.877 C75.51,99.279,75.223,100.388,75.114,101.005z"/><path fill="#76A34F" d="M72.95,98.293c-0.046,0.146,0.094,0.279,0.238,0.226c0.416-0.153,1.151-0.49,1.745-1.113 c0.594-0.624,0.893-1.375,1.025-1.798c0.046-0.146-0.094-0.279-0.238-0.226c-0.416,0.153-1.151,0.49-1.745,1.113 C73.381,97.119,73.082,97.871,72.95,98.293z"/><path fill="#76A34F" d="M103.439,91.985c0.15-0.459,0.754-0.545,1.026-0.146c0.789,1.155,2.065,3.371,2.448,6.065 s-0.224,5.177-0.659,6.507c-0.15,0.459-0.754,0.545-1.026,0.146c-0.789-1.155-2.065-3.371-2.448-6.065 S103.004,93.314,103.439,91.985z"/><g><path fill="#76A34F" d="M97.654,91.897c0.125-0.381,0.626-0.452,0.852-0.121c0.655,0.959,1.715,2.799,2.033,5.036 c0.318,2.237-0.186,4.299-0.547,5.403c-0.125,0.381-0.626,0.452-0.852,0.121c-0.655-0.959-1.715-2.799-2.033-5.036 C96.789,95.063,97.293,93.001,97.654,91.897z"/></g><g><path fill="#76A34F" d="M110.288,91.999c0.202-0.489,0.869-0.533,1.134-0.075c0.767,1.329,1.978,3.857,2.174,6.835 c0.196,2.977-0.674,5.643-1.26,7.061c-0.202,0.489-0.869,0.533-1.134,0.075c-0.767-1.329-1.978-3.857-2.174-6.835 C108.832,96.082,109.701,93.417,110.288,91.999z"/></g><g><path fill="#76A34F" d="M117.785,92.031c0.256-0.557,1.03-0.577,1.315-0.035c0.826,1.572,2.112,4.552,2.203,8.004 s-1.037,6.496-1.78,8.109c-0.256,0.557-1.03,0.577-1.315,0.035c-0.826-1.572-2.112-4.552-2.203-8.004 S117.043,93.644,117.785,92.031z"/></g><g><path fill="#76A34F" d="M92.219,91.886c0.105-0.32,0.526-0.38,0.716-0.102c0.551,0.807,1.442,2.353,1.709,4.234 c0.268,1.881-0.156,3.614-0.46,4.543c-0.105,0.32-0.526,0.38-0.716,0.102c-0.551-0.807-1.442-2.353-1.709-4.234 C91.492,94.548,91.916,92.814,92.219,91.886z"/></g><g><path fill="#76A34F" d="M86.521,92.161c0.074-0.245,0.393-0.299,0.543-0.09c0.433,0.604,1.138,1.764,1.376,3.189 c0.237,1.425-0.054,2.752-0.269,3.463c-0.074,0.245-0.393,0.299-0.543,0.09c-0.433-0.604-1.138-1.764-1.376-3.189 S86.307,92.873,86.521,92.161z"/></g><g><path fill="#76A34F" d="M75.368,92.792c0.032-0.097,0.159-0.115,0.217-0.031c0.167,0.244,0.437,0.713,0.518,1.282 c0.081,0.569-0.047,1.094-0.139,1.375c-0.032,0.097-0.159,0.115-0.217,0.031c-0.167-0.244-0.437-0.713-0.518-1.282 C75.148,93.598,75.276,93.073,75.368,92.792z"/></g><g><path fill="#76A34F" d="M78.032,92.347c0.047-0.142,0.234-0.169,0.318-0.045c0.244,0.358,0.64,1.045,0.759,1.879 c0.119,0.835-0.069,1.604-0.204,2.016c-0.047,0.142-0.234,0.169-0.318,0.045c-0.244-0.358-0.64-1.045-0.759-1.879 S77.897,92.76,78.032,92.347z"/></g><g><path fill="#76A34F" d="M82.097,92.497c0.061-0.187,0.308-0.222,0.419-0.06c0.322,0.471,0.843,1.375,0.999,2.475 c0.156,1.099-0.091,2.113-0.269,2.655c-0.061,0.187-0.308,0.222-0.419,0.06c-0.322-0.471-0.843-1.375-0.999-2.475 C81.672,94.053,81.92,93.04,82.097,92.497z"/></g></g></g><g><path fill="#648940" d="M129.428,77.563l39.879-10.364c0.114-0.03,0.166,0.136,0.056,0.177l-38.565,14.511L129.428,77.563z"/><path fill="#76A34F" d="M151.604,82.559c0.061,0.341-0.292,0.6-0.599,0.44c-0.89-0.463-2.447-1.431-3.602-3.003 s-1.613-3.348-1.788-4.336c-0.061-0.341,0.292-0.6,0.599-0.44c0.89,0.463,2.447,1.431,3.602,3.003 S151.428,81.572,151.604,82.559z"/><path fill="#76A34F" d="M146.577,85.5c0.037,0.37-0.361,0.618-0.677,0.422c-0.916-0.568-2.505-1.731-3.614-3.509 c-1.109-1.778-1.455-3.716-1.563-4.788c-0.037-0.37,0.361-0.618,0.677-0.422c0.916,0.568,2.505,1.731,3.614,3.509 C146.123,82.489,146.469,84.428,146.577,85.5z"/><path fill="#76A34F" d="M141.47,88.492c0.025,0.417-0.433,0.678-0.778,0.444c-1.002-0.678-2.733-2.053-3.899-4.097 c-1.166-2.044-1.468-4.234-1.541-5.441c-0.025-0.417,0.433-0.678,0.778-0.444c1.002,0.678,2.733,2.053,3.899,4.097 C141.094,85.095,141.397,87.285,141.47,88.492z"/><path fill="#76A34F" d="M156.246,80.467c0.058,0.325-0.278,0.572-0.572,0.42c-0.85-0.442-2.336-1.366-3.438-2.867 c-1.102-1.501-1.539-3.195-1.707-4.138c-0.058-0.325,0.278-0.572,0.572-0.42c0.85,0.442,2.336,1.366,3.438,2.867 C155.641,77.829,156.078,79.524,156.246,80.467z"/><path fill="#76A34F" d="M160.729,78.136c0.071,0.299-0.228,0.546-0.508,0.42c-0.812-0.365-2.24-1.142-3.342-2.476 c-1.103-1.334-1.598-2.882-1.804-3.748c-0.071-0.299,0.228-0.546,0.508-0.42c0.812,0.365,2.24,1.142,3.342,2.476 C160.027,75.722,160.523,77.27,160.729,78.136z"/><path fill="#76A34F" d="M164.574,75.73c0.068,0.247-0.174,0.461-0.411,0.365c-0.687-0.28-1.9-0.887-2.857-1.967 c-0.958-1.08-1.415-2.356-1.612-3.072c-0.068-0.247,0.174-0.461,0.411-0.365c0.687,0.28,1.9,0.887,2.857,1.967 C163.92,73.738,164.378,75.015,164.574,75.73z"/><path fill="#76A34F" d="M167.409,73.493c0.052,0.201-0.146,0.372-0.337,0.291c-0.553-0.234-1.529-0.737-2.294-1.621 c-0.764-0.884-1.122-1.922-1.274-2.503c-0.052-0.201,0.146-0.372,0.337-0.291c0.553,0.234,1.529,0.737,2.294,1.621 S167.258,72.912,167.409,73.493z"/><path fill="#76A34F" d="M169.914,71.708c0.03,0.169-0.144,0.297-0.297,0.218c-0.441-0.229-1.212-0.709-1.784-1.487 c-0.572-0.779-0.799-1.658-0.886-2.147c-0.03-0.169,0.144-0.297,0.297-0.218c0.441,0.229,1.212,0.709,1.784,1.487 C169.6,70.34,169.827,71.219,169.914,71.708z"/><path fill="#76A34F" d="M171.629,69.559c0.036,0.116-0.075,0.221-0.188,0.179c-0.329-0.121-0.912-0.388-1.383-0.882 c-0.47-0.494-0.708-1.09-0.813-1.425c-0.036-0.116,0.075-0.221,0.188-0.179c0.329,0.121,0.912,0.388,1.383,0.882 C171.287,68.628,171.525,69.224,171.629,69.559z"/><path fill="#76A34F" d="M147.466,64.559c-0.119-0.364-0.597-0.432-0.813-0.116c-0.625,0.916-1.637,2.672-1.941,4.806 c-0.304,2.135,0.177,4.103,0.522,5.157c0.119,0.364,0.597,0.432,0.813,0.116c0.625-0.916,1.637-2.672,1.941-4.806 C148.292,67.581,147.81,65.613,147.466,64.559z"/><g><path fill="#76A34F" d="M152.05,64.489c-0.099-0.302-0.496-0.358-0.675-0.096c-0.519,0.76-1.359,2.218-1.611,3.991 c-0.252,1.773,0.147,3.407,0.434,4.282c0.099,0.302,0.496,0.358,0.675,0.096c0.519-0.76,1.359-2.218,1.611-3.991 C152.736,66.999,152.337,65.365,152.05,64.489z"/></g><g><path fill="#76A34F" d="M142.038,64.57c-0.16-0.388-0.689-0.423-0.899-0.059c-0.608,1.053-1.568,3.057-1.723,5.417 c-0.155,2.36,0.534,4.472,0.999,5.596c0.16,0.388,0.689,0.423,0.899,0.059c0.608-1.053,1.568-3.057,1.723-5.417 S142.502,65.694,142.038,64.57z"/></g><g><path fill="#76A34F" d="M136.096,64.595c-0.203-0.441-0.816-0.457-1.042-0.027c-0.655,1.246-1.674,3.607-1.746,6.344 s0.822,5.148,1.411,6.427c0.203,0.441,0.816,0.457,1.042,0.027c0.655-1.246,1.674-3.607,1.746-6.344 S136.684,65.874,136.096,64.595z"/></g><g><path fill="#76A34F" d="M156.357,64.481c-0.083-0.254-0.417-0.301-0.568-0.081c-0.436,0.639-1.143,1.865-1.355,3.355 c-0.212,1.49,0.124,2.864,0.365,3.6c0.083,0.254,0.417,0.301,0.568,0.081c0.436-0.639,1.143-1.865,1.355-3.355 C156.934,66.59,156.598,65.216,156.357,64.481z"/></g><g><path fill="#76A34F" d="M160.874,64.699c-0.059-0.195-0.312-0.237-0.43-0.072c-0.343,0.478-0.902,1.398-1.09,2.528 s0.043,2.181,0.213,2.745c0.059,0.195,0.312,0.237,0.43,0.072c0.343-0.478,0.902-1.398,1.09-2.528 C161.274,66.314,161.043,65.263,160.874,64.699z"/></g><g><path fill="#76A34F" d="M169.712,65.199c-0.025-0.077-0.126-0.091-0.172-0.024c-0.132,0.194-0.346,0.565-0.41,1.016 c-0.064,0.451,0.037,0.867,0.11,1.09c0.025,0.077,0.126,0.091,0.172,0.024c0.132-0.194,0.346-0.565,0.41-1.016 C169.887,65.838,169.785,65.422,169.712,65.199z"/></g><g><path fill="#76A34F" d="M167.601,64.847c-0.037-0.113-0.185-0.134-0.252-0.036c-0.194,0.284-0.507,0.828-0.601,1.489 c-0.094,0.662,0.055,1.272,0.162,1.598c0.037,0.113,0.185,0.134,0.252,0.036c0.194-0.284,0.507-0.828,0.601-1.489 C167.857,65.783,167.708,65.173,167.601,64.847z"/></g><g><path fill="#76A34F" d="M164.379,64.965c-0.049-0.148-0.244-0.176-0.332-0.047c-0.255,0.374-0.668,1.09-0.792,1.961 c-0.124,0.871,0.072,1.674,0.213,2.104c0.049,0.148,0.244,0.176,0.332,0.047c0.255-0.374,0.668-1.09,0.792-1.961 C164.717,66.199,164.52,65.395,164.379,64.965z"/></g><g><path fill="#648940" d="M126.572,77.563L86.693,67.198c-0.114-0.03-0.166,0.136-0.056,0.177l38.565,14.511L126.572,77.563z"/><path fill="#76A34F" d="M104.396,82.559c-0.061,0.341,0.292,0.6,0.599,0.44c0.89-0.463,2.447-1.431,3.602-3.003 s1.613-3.348,1.788-4.336c0.061-0.341-0.292-0.6-0.599-0.44c-0.89,0.463-2.447,1.431-3.602,3.003 S104.572,81.572,104.396,82.559z"/><path fill="#76A34F" d="M109.423,85.5c-0.037,0.37,0.361,0.618,0.677,0.422c0.916-0.568,2.505-1.731,3.614-3.509 c1.109-1.778,1.455-3.716,1.563-4.788c0.037-0.37-0.361-0.618-0.677-0.422c-0.916,0.568-2.505,1.731-3.614,3.509 C109.877,82.489,109.531,84.428,109.423,85.5z"/><path fill="#76A34F" d="M114.53,88.492c-0.025,0.417,0.433,0.678,0.778,0.444c1.002-0.678,2.733-2.053,3.899-4.097 c1.166-2.044,1.468-4.234,1.541-5.441c0.025-0.417-0.433-0.678-0.778-0.444c-1.002,0.678-2.733,2.053-3.899,4.097 C114.906,85.095,114.603,87.285,114.53,88.492z"/><path fill="#76A34F" d="M99.754,80.467c-0.058,0.325,0.278,0.572,0.572,0.42c0.85-0.442,2.336-1.366,3.438-2.867 c1.102-1.501,1.539-3.195,1.707-4.138c0.058-0.325-0.278-0.572-0.572-0.42c-0.85,0.442-2.336,1.366-3.438,2.867 C100.359,77.829,99.922,79.524,99.754,80.467z"/><path fill="#76A34F" d="M95.271,78.136c-0.071,0.299,0.228,0.546,0.508,0.42c0.812-0.365,2.24-1.142,3.342-2.476 c1.103-1.334,1.598-2.882,1.804-3.748c0.071-0.299-0.228-0.546-0.508-0.42c-0.812,0.365-2.24,1.142-3.342,2.476 S95.477,77.27,95.271,78.136z"/><path fill="#76A34F" d="M91.426,75.73c-0.068,0.247,0.174,0.461,0.411,0.365c0.687-0.28,1.9-0.887,2.857-1.967 c0.958-1.08,1.415-2.356,1.612-3.072c0.068-0.247-0.174-0.461-0.411-0.365c-0.687,0.28-1.9,0.887-2.857,1.967 C92.08,73.738,91.622,75.015,91.426,75.73z"/><path fill="#76A34F" d="M88.591,73.493c-0.052,0.201,0.146,0.372,0.337,0.291c0.553-0.234,1.529-0.737,2.294-1.621 c0.764-0.884,1.122-1.922,1.274-2.503c0.052-0.201-0.146-0.372-0.337-0.291c-0.553,0.234-1.529,0.737-2.294,1.621 S88.742,72.912,88.591,73.493z"/><path fill="#76A34F" d="M86.086,71.708c-0.03,0.169,0.144,0.297,0.297,0.218c0.441-0.229,1.212-0.709,1.784-1.487 c0.572-0.779,0.799-1.658,0.886-2.147c0.03-0.169-0.144-0.297-0.297-0.218c-0.441,0.229-1.212,0.709-1.784,1.487 C86.4,70.34,86.173,71.219,86.086,71.708z"/><path fill="#76A34F" d="M84.371,69.559c-0.036,0.116,0.075,0.221,0.188,0.179c0.329-0.121,0.912-0.388,1.383-0.882 c0.47-0.494,0.708-1.09,0.812-1.425c0.036-0.116-0.075-0.221-0.188-0.179c-0.329,0.121-0.912,0.388-1.383,0.882 C84.713,68.628,84.475,69.224,84.371,69.559z"/><path fill="#76A34F" d="M108.534,64.559c0.119-0.364,0.597-0.432,0.813-0.116c0.625,0.916,1.637,2.672,1.94,4.806 c0.304,2.135-0.177,4.103-0.522,5.157c-0.119,0.364-0.597,0.432-0.813,0.116c-0.625-0.916-1.637-2.672-1.94-4.806 C107.708,67.581,108.19,65.613,108.534,64.559z"/><g><path fill="#76A34F" d="M103.95,64.489c0.099-0.302,0.496-0.358,0.675-0.096c0.519,0.76,1.359,2.218,1.611,3.991 c0.252,1.773-0.147,3.407-0.434,4.282c-0.099,0.302-0.496,0.358-0.675,0.096c-0.519-0.76-1.359-2.218-1.611-3.991 C103.264,66.999,103.663,65.365,103.95,64.489z"/></g><g><path fill="#76A34F" d="M113.962,64.57c0.16-0.388,0.689-0.423,0.899-0.059c0.608,1.053,1.568,3.057,1.723,5.417 c0.155,2.36-0.534,4.472-0.999,5.596c-0.16,0.388-0.689,0.423-0.899,0.059c-0.608-1.053-1.568-3.057-1.723-5.417 C112.808,67.806,113.498,65.694,113.962,64.57z"/></g><g><path fill="#76A34F" d="M119.904,64.595c0.203-0.441,0.816-0.457,1.042-0.027c0.655,1.246,1.674,3.607,1.746,6.344 s-0.822,5.148-1.411,6.427c-0.203,0.441-0.816,0.457-1.042,0.027c-0.655-1.246-1.674-3.607-1.746-6.344 S119.316,65.874,119.904,64.595z"/></g><g><path fill="#76A34F" d="M99.643,64.481c0.083-0.254,0.417-0.301,0.568-0.081c0.436,0.639,1.143,1.865,1.355,3.355 s-0.124,2.864-0.364,3.6c-0.083,0.254-0.417,0.301-0.568,0.081c-0.436-0.639-1.143-1.865-1.355-3.355 S99.402,65.216,99.643,64.481z"/></g><g><path fill="#76A34F" d="M95.126,64.699c0.059-0.195,0.312-0.237,0.43-0.072c0.343,0.478,0.902,1.398,1.09,2.528 c0.188,1.13-0.043,2.181-0.213,2.745c-0.059,0.195-0.312,0.237-0.43,0.072c-0.343-0.478-0.902-1.398-1.09-2.528 C94.726,66.314,94.957,65.263,95.126,64.699z"/></g><g><path fill="#76A34F" d="M86.288,65.199c0.025-0.077,0.126-0.091,0.172-0.024c0.132,0.194,0.346,0.565,0.41,1.016 c0.064,0.451-0.037,0.867-0.11,1.09c-0.025,0.077-0.126,0.091-0.172,0.024c-0.132-0.194-0.346-0.565-0.41-1.016 C86.113,65.838,86.215,65.422,86.288,65.199z"/></g><g><path fill="#76A34F" d="M88.399,64.847c0.037-0.113,0.185-0.134,0.252-0.036c0.194,0.284,0.507,0.828,0.601,1.489 c0.094,0.662-0.055,1.272-0.162,1.598c-0.037,0.113-0.185,0.134-0.252,0.036c-0.194-0.284-0.507-0.828-0.601-1.489 C88.143,65.783,88.292,65.173,88.399,64.847z"/></g><g><path fill="#76A34F" d="M91.621,64.965c0.049-0.148,0.244-0.176,0.332-0.047c0.255,0.374,0.668,1.09,0.792,1.961 s-0.072,1.674-0.213,2.104c-0.049,0.148-0.244,0.176-0.332,0.047c-0.255-0.374-0.668-1.09-0.792-1.961 C91.283,66.199,91.48,65.395,91.621,64.965z"/></g></g></g><g><path fill="#648940" d="M129.11,53.568l31.01-8.059c0.089-0.023,0.129,0.105,0.044,0.138L130.176,56.93L129.11,53.568z"/><path fill="#76A34F" d="M146.354,57.454c0.047,0.265-0.227,0.466-0.466,0.342c-0.692-0.36-1.903-1.113-2.801-2.335 s-1.254-2.603-1.391-3.371c-0.047-0.265,0.227-0.466,0.466-0.342c0.692,0.36,1.903,1.113,2.801,2.335 S146.218,56.686,146.354,57.454z"/><path fill="#76A34F" d="M142.445,59.74c0.029,0.288-0.281,0.481-0.526,0.328c-0.712-0.442-1.948-1.346-2.81-2.729 c-0.863-1.382-1.132-2.89-1.215-3.723c-0.029-0.288,0.281-0.481,0.526-0.328c0.712,0.442,1.948,1.346,2.81,2.729 C142.092,57.399,142.361,58.906,142.445,59.74z"/><path fill="#76A34F" d="M138.474,62.067c0.02,0.324-0.336,0.527-0.605,0.345c-0.779-0.527-2.125-1.596-3.032-3.186 c-0.906-1.589-1.142-3.292-1.199-4.231c-0.02-0.324,0.336-0.527,0.605-0.345c0.779,0.527,2.125,1.596,3.032,3.186 S138.417,61.128,138.474,62.067z"/><path fill="#76A34F" d="M149.963,55.826c0.045,0.253-0.217,0.445-0.444,0.326c-0.661-0.344-1.816-1.062-2.674-2.229 c-0.857-1.167-1.197-2.485-1.327-3.218c-0.045-0.253,0.217-0.445,0.444-0.326c0.661,0.344,1.816,1.062,2.674,2.229 C149.493,53.776,149.833,55.093,149.963,55.826z"/><path fill="#76A34F" d="M153.449,54.014c0.055,0.232-0.177,0.424-0.395,0.327c-0.631-0.284-1.741-0.888-2.599-1.925 c-0.857-1.037-1.243-2.241-1.403-2.914c-0.055-0.232,0.177-0.424,0.395-0.327c0.631,0.284,1.741,0.888,2.599,1.925 C152.904,52.137,153.289,53.341,153.449,54.014z"/><path fill="#76A34F" d="M156.44,52.143c0.053,0.192-0.135,0.359-0.32,0.284c-0.534-0.218-1.477-0.69-2.222-1.529 c-0.745-0.84-1.101-1.832-1.253-2.388c-0.053-0.192,0.135-0.359,0.32-0.284c0.534,0.218,1.477,0.69,2.222,1.529 C155.931,50.594,156.287,51.587,156.44,52.143z"/><path fill="#76A34F" d="M158.644,50.404c0.041,0.156-0.113,0.289-0.262,0.226c-0.43-0.182-1.189-0.573-1.783-1.261 c-0.594-0.687-0.873-1.494-0.991-1.946c-0.041-0.156,0.113-0.289,0.262-0.226c0.43,0.182,1.189,0.573,1.783,1.261 C158.248,49.145,158.526,49.952,158.644,50.404z"/><path fill="#76A34F" d="M160.592,49.016c0.023,0.131-0.112,0.231-0.231,0.169c-0.343-0.178-0.942-0.551-1.387-1.157 c-0.445-0.606-0.621-1.289-0.689-1.67c-0.023-0.131,0.112-0.231,0.231-0.169c0.343,0.178,0.942,0.551,1.387,1.157 C160.348,47.952,160.524,48.636,160.592,49.016z"/><path fill="#76A34F" d="M161.926,47.345c0.028,0.09-0.058,0.172-0.146,0.139c-0.256-0.094-0.709-0.302-1.075-0.686 s-0.55-0.848-0.632-1.108c-0.028-0.09,0.058-0.172,0.146-0.139c0.256,0.094,0.709,0.302,1.075,0.686 S161.844,47.084,161.926,47.345z"/><path fill="#76A34F" d="M143.136,43.457c-0.093-0.283-0.464-0.336-0.632-0.09c-0.486,0.712-1.273,2.077-1.509,3.737 s0.138,3.191,0.406,4.01c0.093,0.283,0.464,0.336,0.632,0.09c0.486-0.712,1.273-2.077,1.509-3.737 S143.404,44.276,143.136,43.457z"/><g><path fill="#76A34F" d="M146.701,43.403c-0.077-0.235-0.386-0.279-0.525-0.075c-0.404,0.591-1.057,1.725-1.253,3.104 c-0.196,1.379,0.114,2.649,0.337,3.33c0.077,0.235,0.386,0.279,0.525,0.075c0.404-0.591,1.057-1.725,1.253-3.104 C147.235,45.354,146.924,44.083,146.701,43.403z"/></g><g><path fill="#76A34F" d="M138.916,43.465c-0.125-0.302-0.536-0.329-0.699-0.046c-0.473,0.819-1.219,2.377-1.34,4.212 c-0.121,1.835,0.415,3.478,0.777,4.351c0.125,0.302,0.536,0.329,0.699,0.046c0.473-0.819,1.219-2.377,1.34-4.212 C139.813,45.982,139.277,44.339,138.916,43.465z"/></g><g><path fill="#76A34F" d="M134.295,43.485c-0.158-0.343-0.635-0.356-0.81-0.021c-0.509,0.969-1.302,2.805-1.357,4.933 c-0.056,2.128,0.639,4.003,1.097,4.997c0.158,0.343,0.635,0.356,0.81,0.021c0.509-0.969,1.302-2.805,1.357-4.933 C135.448,46.355,134.753,44.479,134.295,43.485z"/></g><g><path fill="#76A34F" d="M150.05,43.396c-0.065-0.197-0.324-0.234-0.441-0.063c-0.339,0.497-0.888,1.45-1.053,2.609 s0.096,2.227,0.283,2.799c0.065,0.197,0.324,0.234,0.441,0.063c0.339-0.497,0.888-1.45,1.053-2.609 S150.238,43.968,150.05,43.396z"/></g><g><path fill="#76A34F" d="M153.562,43.566c-0.046-0.151-0.242-0.184-0.335-0.056c-0.267,0.372-0.702,1.087-0.848,1.965 s0.033,1.696,0.165,2.134c0.046,0.151,0.242,0.184,0.335,0.056c0.267-0.372,0.702-1.087,0.848-1.965 S153.694,44.004,153.562,43.566z"/></g><g><path fill="#76A34F" d="M160.435,43.954c-0.02-0.06-0.098-0.071-0.134-0.019c-0.103,0.151-0.269,0.439-0.319,0.79 c-0.05,0.351,0.029,0.674,0.086,0.848c0.02,0.06,0.098,0.071,0.134,0.019c0.103-0.151,0.269-0.439,0.319-0.79 C160.571,44.451,160.492,44.128,160.435,43.954z"/></g><g><path fill="#76A34F" d="M158.793,43.68c-0.029-0.088-0.144-0.104-0.196-0.028c-0.151,0.221-0.394,0.644-0.468,1.158 c-0.073,0.514,0.043,0.989,0.126,1.243c0.029,0.088,0.144,0.104,0.196,0.028c0.151-0.221,0.394-0.644,0.468-1.158 C158.992,44.409,158.877,43.934,158.793,43.68z"/></g><g><path fill="#76A34F" d="M156.288,43.773c-0.038-0.115-0.19-0.137-0.258-0.037c-0.198,0.291-0.519,0.848-0.616,1.525 c-0.096,0.677,0.056,1.302,0.166,1.636c0.038,0.115,0.189,0.137,0.258,0.037c0.198-0.291,0.519-0.848,0.616-1.525 C156.55,44.732,156.398,44.107,156.288,43.773z"/></g><g><path fill="#648940" d="M126.89,53.568l-31.01-8.059c-0.089-0.023-0.129,0.105-0.044,0.138l29.987,11.283L126.89,53.568z"/><path fill="#76A34F" d="M109.646,57.454c-0.047,0.265,0.227,0.466,0.466,0.342c0.692-0.36,1.903-1.113,2.801-2.335 c0.898-1.223,1.254-2.603,1.391-3.371c0.047-0.265-0.227-0.466-0.466-0.342c-0.692,0.36-1.903,1.113-2.801,2.335 C110.138,55.305,109.782,56.686,109.646,57.454z"/><path fill="#76A34F" d="M113.555,59.74c-0.029,0.288,0.281,0.481,0.526,0.328c0.712-0.442,1.948-1.346,2.81-2.729 c0.863-1.382,1.132-2.89,1.215-3.723c0.029-0.288-0.281-0.481-0.526-0.328c-0.712,0.442-1.948,1.346-2.81,2.729 S113.639,58.906,113.555,59.74z"/><path fill="#76A34F" d="M117.526,62.067c-0.02,0.324,0.336,0.527,0.605,0.345c0.779-0.527,2.125-1.596,3.032-3.186 c0.906-1.589,1.142-3.292,1.199-4.231c0.02-0.324-0.336-0.527-0.605-0.345c-0.779,0.527-2.125,1.596-3.032,3.186 S117.583,61.128,117.526,62.067z"/><path fill="#76A34F" d="M106.037,55.826c-0.045,0.253,0.217,0.445,0.444,0.326c0.661-0.344,1.816-1.062,2.674-2.229 c0.857-1.167,1.197-2.485,1.327-3.218c0.045-0.253-0.217-0.445-0.444-0.326c-0.661,0.344-1.816,1.062-2.674,2.229 C106.507,53.776,106.167,55.093,106.037,55.826z"/><path fill="#76A34F" d="M102.551,54.014c-0.055,0.232,0.177,0.424,0.395,0.327c0.631-0.284,1.741-0.888,2.599-1.925 s1.243-2.241,1.403-2.914c0.055-0.232-0.177-0.424-0.395-0.327c-0.631,0.284-1.741,0.888-2.599,1.925 S102.711,53.341,102.551,54.014z"/><path fill="#76A34F" d="M99.56,52.143c-0.053,0.192,0.135,0.359,0.32,0.284c0.534-0.218,1.477-0.69,2.222-1.529 c0.745-0.84,1.101-1.832,1.253-2.388c0.053-0.192-0.135-0.359-0.32-0.284c-0.534,0.218-1.477,0.69-2.222,1.529 S99.713,51.587,99.56,52.143z"/><path fill="#76A34F" d="M97.356,50.404c-0.041,0.156,0.113,0.289,0.262,0.226c0.43-0.182,1.189-0.573,1.783-1.261 s0.873-1.494,0.991-1.946c0.041-0.156-0.113-0.289-0.262-0.226c-0.43,0.182-1.189,0.573-1.783,1.261 S97.474,49.952,97.356,50.404z"/><path fill="#76A34F" d="M95.408,49.016c-0.023,0.131,0.112,0.231,0.231,0.169c0.343-0.178,0.942-0.551,1.387-1.157 c0.445-0.606,0.621-1.289,0.689-1.67c0.023-0.131-0.112-0.231-0.231-0.169c-0.343,0.178-0.942,0.551-1.387,1.157 C95.652,47.952,95.476,48.636,95.408,49.016z"/><path fill="#76A34F" d="M94.074,47.345c-0.028,0.09,0.058,0.172,0.146,0.139c0.256-0.094,0.709-0.302,1.075-0.686 c0.366-0.384,0.55-0.848,0.632-1.108c0.028-0.09-0.058-0.172-0.146-0.139c-0.256,0.094-0.709,0.302-1.075,0.686 C94.34,46.621,94.156,47.084,94.074,47.345z"/><path fill="#76A34F" d="M112.864,43.457c0.093-0.283,0.464-0.336,0.632-0.09c0.486,0.712,1.273,2.077,1.509,3.737 s-0.138,3.191-0.406,4.01c-0.093,0.283-0.464,0.336-0.632,0.09c-0.486-0.712-1.273-2.077-1.509-3.737 S112.596,44.276,112.864,43.457z"/><g><path fill="#76A34F" d="M109.299,43.403c0.077-0.235,0.386-0.279,0.525-0.075c0.404,0.591,1.057,1.725,1.253,3.104 c0.196,1.379-0.114,2.649-0.337,3.33c-0.077,0.235-0.386,0.279-0.525,0.075c-0.404-0.591-1.057-1.725-1.253-3.104 C108.765,45.354,109.076,44.083,109.299,43.403z"/></g><g><path fill="#76A34F" d="M117.084,43.465c0.125-0.302,0.536-0.329,0.699-0.046c0.473,0.819,1.219,2.377,1.34,4.212 c0.121,1.835-0.415,3.478-0.777,4.351c-0.125,0.302-0.536,0.329-0.699,0.046c-0.473-0.819-1.219-2.377-1.34-4.212 S116.723,44.339,117.084,43.465z"/></g><g><path fill="#76A34F" d="M121.705,43.485c0.158-0.343,0.635-0.356,0.81-0.021c0.509,0.969,1.302,2.805,1.357,4.933 c0.056,2.128-0.639,4.003-1.097,4.997c-0.158,0.343-0.635,0.356-0.81,0.021c-0.509-0.969-1.302-2.805-1.357-4.933 C120.552,46.355,121.247,44.479,121.705,43.485z"/></g><g><path fill="#76A34F" d="M105.95,43.396c0.065-0.197,0.324-0.234,0.441-0.063c0.339,0.497,0.888,1.45,1.053,2.609 c0.165,1.159-0.096,2.227-0.283,2.799c-0.065,0.197-0.324,0.234-0.441,0.063c-0.339-0.497-0.888-1.45-1.053-2.609 S105.762,43.968,105.95,43.396z"/></g><g><path fill="#76A34F" d="M102.438,43.566c0.046-0.151,0.242-0.184,0.335-0.056c0.267,0.372,0.702,1.087,0.848,1.965 s-0.033,1.696-0.165,2.134c-0.046,0.151-0.242,0.184-0.335,0.056c-0.267-0.372-0.702-1.087-0.848-1.965 S102.306,44.004,102.438,43.566z"/></g><g><path fill="#76A34F" d="M95.565,43.954c0.02-0.06,0.098-0.071,0.134-0.019c0.103,0.151,0.269,0.439,0.319,0.79 c0.05,0.351-0.029,0.674-0.086,0.848c-0.02,0.06-0.098,0.071-0.134,0.019c-0.103-0.151-0.269-0.439-0.319-0.79 C95.429,44.451,95.508,44.128,95.565,43.954z"/></g><g><path fill="#76A34F" d="M97.207,43.68c0.029-0.088,0.144-0.104,0.196-0.028c0.151,0.221,0.394,0.644,0.468,1.158 c0.073,0.514-0.043,0.989-0.126,1.243c-0.029,0.088-0.144,0.104-0.196,0.028c-0.151-0.221-0.394-0.644-0.468-1.158 C97.008,44.409,97.123,43.934,97.207,43.68z"/></g><g><path fill="#76A34F" d="M99.712,43.773c0.038-0.115,0.189-0.137,0.258-0.037c0.198,0.291,0.519,0.848,0.616,1.525 s-0.056,1.302-0.166,1.636c-0.038,0.115-0.19,0.137-0.258,0.037c-0.198-0.291-0.519-0.848-0.616-1.525 C99.45,44.732,99.602,44.107,99.712,43.773z"/></g></g></g><g><path fill="#648940" d="M128.781,35.758l21.817-5.67c0.062-0.016,0.091,0.074,0.031,0.097l-21.098,7.939L128.781,35.758z"/><path fill="#76A34F" d="M140.913,38.491c0.033,0.186-0.16,0.328-0.328,0.241c-0.487-0.253-1.339-0.783-1.971-1.643 c-0.632-0.86-0.882-1.832-0.978-2.372c-0.033-0.186,0.16-0.328,0.328-0.241c0.487,0.253,1.339,0.783,1.971,1.643 C140.567,36.98,140.817,37.951,140.913,38.491z"/><path fill="#76A34F" d="M138.163,40.1c0.02,0.202-0.198,0.338-0.37,0.231c-0.501-0.311-1.37-0.947-1.977-1.92 s-0.796-2.033-0.855-2.62c-0.02-0.202,0.198-0.338,0.37-0.231c0.501,0.311,1.37,0.947,1.977,1.92 C137.915,38.453,138.104,39.513,138.163,40.1z"/><path fill="#76A34F" d="M135.369,41.737c0.014,0.228-0.237,0.371-0.426,0.243c-0.548-0.371-1.495-1.123-2.133-2.241 c-0.638-1.118-0.803-2.316-0.843-2.977c-0.014-0.228,0.237-0.371,0.426-0.243c0.548,0.371,1.495,1.123,2.133,2.241 C135.164,39.878,135.329,41.076,135.369,41.737z"/><path fill="#76A34F" d="M143.453,37.346c0.032,0.178-0.152,0.313-0.313,0.23c-0.465-0.242-1.278-0.747-1.881-1.568 c-0.603-0.821-0.842-1.748-0.934-2.264c-0.032-0.178,0.152-0.313,0.313-0.23c0.465,0.242,1.278,0.747,1.881,1.568 C143.122,35.904,143.361,36.831,143.453,37.346z"/><path fill="#76A34F" d="M145.905,36.071c0.039,0.163-0.125,0.299-0.278,0.23c-0.444-0.199-1.225-0.625-1.828-1.355 s-0.874-1.577-0.987-2.05c-0.039-0.163,0.125-0.299,0.278-0.23c0.444,0.199,1.225,0.625,1.828,1.355 C145.522,34.75,145.793,35.598,145.905,36.071z"/><path fill="#76A34F" d="M148.009,34.755c0.037,0.135-0.095,0.252-0.225,0.2c-0.376-0.153-1.039-0.485-1.563-1.076 c-0.524-0.591-0.774-1.289-0.882-1.68c-0.037-0.135,0.095-0.252,0.225-0.2c0.376,0.153,1.039,0.485,1.563,1.076 S147.902,34.364,148.009,34.755z"/><path fill="#76A34F" d="M149.56,33.531c0.029,0.11-0.08,0.203-0.184,0.159c-0.303-0.128-0.837-0.403-1.255-0.887 c-0.418-0.483-0.614-1.051-0.697-1.369c-0.029-0.11,0.08-0.203,0.184-0.159c0.303,0.128,0.837,0.403,1.255,0.887 C149.282,32.645,149.477,33.213,149.56,33.531z"/><path fill="#76A34F" d="M150.931,32.555c0.016,0.092-0.079,0.162-0.162,0.119c-0.241-0.125-0.663-0.388-0.976-0.814 c-0.313-0.426-0.437-0.907-0.485-1.175c-0.016-0.092,0.079-0.162,0.162-0.119c0.241,0.125,0.663,0.388,0.976,0.814 C150.759,31.806,150.883,32.287,150.931,32.555z"/><path fill="#76A34F" d="M151.869,31.379c0.02,0.063-0.041,0.121-0.103,0.098c-0.18-0.066-0.499-0.212-0.757-0.483 c-0.257-0.27-0.387-0.596-0.445-0.78c-0.02-0.063,0.041-0.121,0.103-0.098c0.18,0.066,0.499,0.212,0.757,0.483 S151.812,31.196,151.869,31.379z"/><path fill="#76A34F" d="M138.649,28.644c-0.065-0.199-0.327-0.236-0.445-0.063c-0.342,0.501-0.895,1.462-1.062,2.63 s0.097,2.245,0.286,2.821c0.065,0.199,0.327,0.236,0.445,0.063c0.342-0.501,0.895-1.462,1.062-2.63 S138.838,29.22,138.649,28.644z"/><g><path fill="#76A34F" d="M141.158,28.605c-0.054-0.165-0.271-0.196-0.369-0.053c-0.284,0.416-0.744,1.214-0.882,2.184 c-0.138,0.97,0.081,1.864,0.237,2.343c0.054,0.165,0.271,0.196,0.369,0.053c0.284-0.416,0.743-1.214,0.882-2.184 C141.533,29.978,141.314,29.084,141.158,28.605z"/></g><g><path fill="#76A34F" d="M135.68,28.65c-0.088-0.212-0.377-0.231-0.492-0.032c-0.332,0.576-0.858,1.673-0.943,2.963 c-0.085,1.291,0.292,2.447,0.546,3.061c0.088,0.212,0.377,0.231,0.492,0.032c0.332-0.576,0.858-1.673,0.943-2.963 C136.311,30.42,135.934,29.264,135.68,28.65z"/></g><g><path fill="#76A34F" d="M132.429,28.663c-0.111-0.241-0.446-0.25-0.57-0.015c-0.358,0.682-0.916,1.974-0.955,3.471 c-0.039,1.497,0.45,2.816,0.772,3.516c0.111,0.241,0.446,0.25,0.57,0.015c0.358-0.682,0.916-1.974,0.955-3.471 C133.24,30.682,132.751,29.363,132.429,28.663z"/></g><g><path fill="#76A34F" d="M143.514,28.601c-0.045-0.139-0.228-0.165-0.311-0.044c-0.239,0.35-0.625,1.02-0.741,1.836 c-0.116,0.815,0.068,1.567,0.199,1.97c0.045,0.139,0.228,0.165,0.311,0.044c0.239-0.35,0.625-1.02,0.741-1.836 S143.646,29.003,143.514,28.601z"/></g><g><path fill="#76A34F" d="M145.985,28.72c-0.032-0.106-0.171-0.129-0.235-0.039c-0.188,0.262-0.494,0.765-0.596,1.383 c-0.103,0.618,0.023,1.193,0.116,1.502c0.032,0.106,0.171,0.129,0.235,0.039c0.188-0.262,0.494-0.765,0.596-1.383 C146.204,29.604,146.078,29.029,145.985,28.72z"/></g><g><path fill="#76A34F" d="M150.82,28.994c-0.014-0.042-0.069-0.05-0.094-0.013c-0.072,0.106-0.189,0.309-0.224,0.556 c-0.035,0.247,0.021,0.475,0.06,0.596c0.014,0.042,0.069,0.05,0.094,0.013c0.072-0.106,0.189-0.309,0.224-0.556 C150.916,29.343,150.86,29.115,150.82,28.994z"/></g><g><path fill="#76A34F" d="M149.665,28.801c-0.02-0.062-0.101-0.073-0.138-0.02c-0.106,0.155-0.277,0.453-0.329,0.815 s0.03,0.696,0.089,0.874c0.02,0.062,0.101,0.073,0.138,0.02c0.106-0.155,0.277-0.453,0.329-0.815 S149.724,28.979,149.665,28.801z"/></g><g><path fill="#76A34F" d="M147.903,28.866c-0.027-0.081-0.133-0.096-0.181-0.026c-0.14,0.204-0.365,0.596-0.433,1.073 c-0.068,0.477,0.04,0.916,0.117,1.151c0.027,0.081,0.133,0.096,0.182,0.026c0.14-0.204,0.365-0.596,0.433-1.073 C148.087,29.54,147.98,29.101,147.903,28.866z"/></g><g><path fill="#648940" d="M127.219,35.758l-21.817-5.67c-0.062-0.016-0.091,0.074-0.031,0.097l21.098,7.939L127.219,35.758z"/><path fill="#76A34F" d="M115.087,38.491c-0.033,0.186,0.16,0.328,0.328,0.241c0.487-0.253,1.339-0.783,1.971-1.643 c0.632-0.86,0.882-1.832,0.978-2.372c0.033-0.186-0.16-0.328-0.328-0.241c-0.487,0.253-1.339,0.783-1.971,1.643 C115.433,36.98,115.183,37.951,115.087,38.491z"/><path fill="#76A34F" d="M117.837,40.1c-0.02,0.202,0.198,0.338,0.37,0.231c0.501-0.311,1.37-0.947,1.977-1.92 s0.796-2.033,0.855-2.62c0.02-0.202-0.198-0.338-0.37-0.231c-0.501,0.311-1.37,0.947-1.977,1.92 C118.085,38.453,117.896,39.513,117.837,40.1z"/><path fill="#76A34F" d="M120.631,41.737c-0.014,0.228,0.237,0.371,0.426,0.243c0.548-0.371,1.495-1.123,2.133-2.241 c0.638-1.118,0.803-2.316,0.843-2.977c0.014-0.228-0.237-0.371-0.426-0.243c-0.548,0.371-1.495,1.123-2.133,2.241 C120.836,39.878,120.671,41.076,120.631,41.737z"/><path fill="#76A34F" d="M112.547,37.346c-0.032,0.178,0.152,0.313,0.313,0.23c0.465-0.242,1.278-0.747,1.881-1.568 c0.603-0.821,0.842-1.748,0.934-2.264c0.032-0.178-0.152-0.313-0.313-0.23c-0.465,0.242-1.278,0.747-1.881,1.568 C112.878,35.904,112.639,36.831,112.547,37.346z"/><path fill="#76A34F" d="M110.095,36.071c-0.039,0.163,0.125,0.299,0.278,0.23c0.444-0.199,1.225-0.625,1.828-1.355 s0.874-1.577,0.987-2.05c0.039-0.163-0.125-0.299-0.278-0.23c-0.444,0.199-1.225,0.625-1.828,1.355 C110.478,34.75,110.207,35.598,110.095,36.071z"/><path fill="#76A34F" d="M107.991,34.755c-0.037,0.135,0.095,0.252,0.225,0.2c0.376-0.153,1.039-0.485,1.563-1.076 c0.524-0.591,0.774-1.289,0.882-1.68c0.037-0.135-0.095-0.252-0.225-0.2c-0.376,0.153-1.039,0.485-1.563,1.076 C108.349,33.665,108.098,34.364,107.991,34.755z"/><path fill="#76A34F" d="M106.44,33.531c-0.029,0.11,0.08,0.203,0.184,0.159c0.303-0.128,0.837-0.403,1.255-0.887 s0.614-1.051,0.697-1.369c0.029-0.11-0.08-0.203-0.184-0.159c-0.303,0.128-0.837,0.403-1.255,0.887 C106.718,32.645,106.523,33.213,106.44,33.531z"/><path fill="#76A34F" d="M105.069,32.555c-0.016,0.092,0.079,0.162,0.162,0.119c0.241-0.125,0.663-0.388,0.976-0.814 c0.313-0.426,0.437-0.907,0.485-1.175c0.016-0.092-0.079-0.162-0.162-0.119c-0.241,0.125-0.663,0.388-0.976,0.814 S105.117,32.287,105.069,32.555z"/><path fill="#76A34F" d="M104.131,31.379c-0.02,0.063,0.041,0.121,0.103,0.098c0.18-0.066,0.499-0.212,0.756-0.483 c0.257-0.27,0.387-0.596,0.445-0.78c0.02-0.063-0.041-0.121-0.103-0.098c-0.18,0.066-0.499,0.212-0.756,0.483 S104.188,31.196,104.131,31.379z"/><path fill="#76A34F" d="M117.351,28.644c0.065-0.199,0.327-0.236,0.445-0.063c0.342,0.501,0.895,1.462,1.062,2.63 c0.166,1.168-0.097,2.245-0.286,2.821c-0.065,0.199-0.327,0.236-0.445,0.063c-0.342-0.501-0.895-1.462-1.062-2.63 C116.899,30.297,117.162,29.22,117.351,28.644z"/><g><path fill="#76A34F" d="M114.842,28.605c0.054-0.165,0.271-0.196,0.369-0.053c0.284,0.416,0.743,1.214,0.882,2.184 c0.138,0.97-0.081,1.864-0.237,2.343c-0.054,0.165-0.271,0.196-0.369,0.053c-0.284-0.416-0.744-1.214-0.882-2.184 C114.467,29.978,114.686,29.084,114.842,28.605z"/></g><g><path fill="#76A34F" d="M120.32,28.65c0.088-0.212,0.377-0.231,0.492-0.032c0.332,0.576,0.858,1.673,0.943,2.963 s-0.292,2.447-0.546,3.061c-0.088,0.212-0.377,0.231-0.492,0.032c-0.332-0.576-0.858-1.673-0.943-2.963 C119.689,30.42,120.066,29.264,120.32,28.65z"/></g><g><path fill="#76A34F" d="M123.571,28.663c0.111-0.241,0.446-0.25,0.57-0.015c0.358,0.682,0.916,1.974,0.955,3.471 c0.039,1.497-0.45,2.816-0.772,3.516c-0.111,0.241-0.446,0.25-0.57,0.015c-0.358-0.682-0.916-1.974-0.955-3.471 S123.249,29.363,123.571,28.663z"/></g><g><path fill="#76A34F" d="M112.486,28.601c0.045-0.139,0.228-0.165,0.311-0.044c0.239,0.35,0.625,1.02,0.741,1.836 c0.116,0.815-0.068,1.567-0.199,1.97c-0.045,0.139-0.228,0.165-0.311,0.044c-0.239-0.35-0.625-1.02-0.741-1.836 C112.171,29.755,112.354,29.003,112.486,28.601z"/></g><g><path fill="#76A34F" d="M110.015,28.72c0.032-0.106,0.171-0.129,0.235-0.039c0.188,0.262,0.494,0.765,0.597,1.383 c0.103,0.618-0.023,1.193-0.116,1.502c-0.032,0.106-0.171,0.129-0.235,0.039c-0.188-0.262-0.494-0.765-0.597-1.383 C109.796,29.604,109.922,29.029,110.015,28.72z"/></g><g><path fill="#76A34F" d="M105.18,28.994c0.014-0.042,0.069-0.05,0.094-0.013c0.072,0.106,0.189,0.309,0.224,0.556 c0.035,0.247-0.021,0.475-0.06,0.596c-0.014,0.042-0.069,0.05-0.094,0.013c-0.072-0.106-0.189-0.309-0.224-0.556 C105.084,29.343,105.14,29.115,105.18,28.994z"/></g><g><path fill="#76A34F" d="M106.335,28.801c0.02-0.062,0.101-0.073,0.138-0.02c0.106,0.155,0.277,0.453,0.329,0.815 s-0.03,0.696-0.089,0.874c-0.02,0.062-0.101,0.073-0.138,0.02c-0.106-0.155-0.277-0.453-0.329-0.815 S106.276,28.979,106.335,28.801z"/></g><g><path fill="#76A34F" d="M108.097,28.866c0.027-0.081,0.133-0.096,0.181-0.026c0.14,0.204,0.365,0.596,0.433,1.073 s-0.04,0.916-0.117,1.151c-0.027,0.081-0.133,0.096-0.181,0.026c-0.14-0.204-0.365-0.596-0.433-1.073 C107.913,29.54,108.02,29.101,108.097,28.866z"/></g></g></g><g><path fill="#648940" d="M122.72,159.078l4.2-134.539c0.044-1.396,2.116-1.396,2.16,0l4.2,134.539 c0.093,2.98-2.298,5.447-5.28,5.447h0C125.018,164.525,122.627,162.059,122.72,159.078z"/></g><g><path fill="#5A7A39" d="M129.08,24.539c-0.044-1.396-2.116-1.396-2.16,0l-0.514,16.482l3.583,114.766 c0.093,2.98-2.298,5.447-5.28,5.447c-0.597,0-1.168-0.103-1.702-0.285c0.709,2.074,2.669,3.576,4.994,3.576 c2.982,0,5.373-2.467,5.28-5.447L129.08,24.539z"/></g><g><path fill="#FCC4AE" d="M165.227,236.34l-74.454,0c-1.189,0-2.224-0.812-2.508-1.966l-14.422-58.655h108.315 l-14.422,58.655C167.451,235.528,166.416,236.34,165.227,236.34z"/><path fill="#FFD2C0" d="M91.16,223.729c-0.93,0-1.72-0.62-1.94-1.52c-0.27-1.07,0.39-2.15,1.46-2.42 c1.06-0.261,2.16,0.41,2.42,1.47c0.26,1.07-0.4,2.15-1.46,2.42C91.48,223.72,91.32,223.729,91.16,223.729z M89.25,215.97 c-0.93,0-1.73-0.63-1.94-1.53l-8.27-33.64c-0.27-1.07,0.39-2.15,1.46-2.42c1.06-0.26,2.16,0.42,2.42,1.47l8.27,33.641 c0.26,1.069-0.4,2.149-1.47,2.42C89.57,215.95,89.41,215.97,89.25,215.97z"/><path fill="#F2AD97" d="M169.699,175.718l-11.963,48.655c-0.284,1.155-1.319,1.966-2.508,1.966H86.289l1.975,8.034 c0.284,1.155,1.319,1.966,2.508,1.966h74.454c1.189,0,2.224-0.812,2.508-1.966l14.422-58.655H169.699z"/><path fill="#E59076" d="M175.928,175.718l-13.193,53.655c-0.284,1.155-1.319,1.966-2.508,1.966H87.519l0.746,3.034 c0.284,1.155,1.319,1.966,2.508,1.966h74.454c1.189,0,2.224-0.812,2.508-1.966l14.422-58.655H175.928z"/><path fill="#F2AD97" d="M184.805,156.083H71.195c-1.427,0-2.583,1.156-2.583,2.583v14.469c0,1.427,1.156,2.583,2.583,2.583 h113.61c1.427,0,2.583-1.156,2.583-2.583v-14.469C187.388,157.239,186.232,156.083,184.805,156.083z"/><g><path fill="#E59076" d="M184.805,156.083h-7.417v7.052c0,1.427-1.156,2.583-2.583,2.583H68.612v7.417 c0,1.427,1.156,2.583,2.583,2.583h113.61c1.427,0,2.583-1.156,2.583-2.583v-14.469 C187.388,157.239,186.232,156.083,184.805,156.083z"/></g></g></svg>