<svg xmlns="http://www.w3.org/2000/svg"  viewBox="0 0 500 500" width="62px" height="62px"><path fill="#e9e9ff" d="M466.35,137.81c-4.97,7.06-16.4,8.33-29.8,4.51l-.67,1.84a558.434,558.434,0,0,1-49.23,101.36,554.6,554.6,0,0,1-68.48,89.16L247.9,285.21q5.76-11.34,12.04-22.37,1.695-3,3.44-5.98a552.775,552.775,0,0,1,54.8-77.67c1.45-1.73,2.91-3.44,4.39-5.15a559.807,559.807,0,0,1,65-63.89l1.51-1.25c-8.12-11.33-10.77-22.52-5.81-29.57,8.08-11.47,33.22-7.68,56.16,8.47S474.42,126.34,466.35,137.81Z"/><path fill="#c9d2e9" d="M318.18,179.19c-19.66,62.61-58.54,86.58-58.54,86.58l.3-2.93q1.695-3,3.44-5.98A552.775,552.775,0,0,1,318.18,179.19Z"/><path fill="#28892d" d="M140.483,34.929c-12.251,16.657-56.6,88.056,24.073,157.322l15.077-2.719C231.02,96.446,164.523,45.04,147.225,33.713A4.985,4.985,0,0,0,140.483,34.929Z"/><path fill="#125e14" d="M161.332,96.894a5,5,0,0,0-9.3,3.666c.04.1,1.876,4.967,4.152,16.478a57.963,57.963,0,0,0-11.8-2.431,5,5,0,0,0-1.1,9.94c9.331,1.03,13.494,3.37,14.993,4.476a558.73,558.73,0,0,1,5.388,55.906,5,5,0,0,0,4.989,4.738c.088,0,.177,0,.266-.007a5,5,0,0,0,4.731-5.255C170.285,120.144,161.7,97.812,161.332,96.894Z"/><path fill="#65b96d" d="M49.957,116.171C45.175,140.226,29.905,256.276,170.6,293.446l16.593-12.089C194.929,136.043,79.784,115.011,55.42,112.191A4.986,4.986,0,0,0,49.957,116.171Z"/><path fill="#7bd681" d="M294.21,60.013c-26.125,7.554-161.123,55.334-121.544,227.193l22.085,10.847C354.949,224.3,310.227,88.263,300.232,62.971A4.982,4.982,0,0,0,294.21,60.013Z"/><path fill="#28892d" d="M262.439,120.538a5,5,0,0,0-7.056.453A194.71,194.71,0,0,0,227.938,162a56.155,56.155,0,0,0-9.457-17.572,5,5,0,1,0-7.773,6.289c5.291,6.541,8.74,15.015,10.533,25.857-15.208,36.445-17.373,67.855-17.493,69.805a5,5,0,0,0,4.68,5.3c.1.006.211.009.315.009A5,5,0,0,0,213.729,247a178.955,178.955,0,0,1,2.922-20.111c13.258-11.842,26.214-18.98,39.568-21.778a5,5,0,1,0-2.051-9.787c-11.556,2.421-22.732,7.606-33.879,15.739,6.385-24.145,18.784-56.374,42.6-83.469A5,5,0,0,0,262.439,120.538Z"/><path fill="#28892d" d="M162.926,245.714a97.52,97.52,0,0,0-10.472-27.793,5,5,0,0,0-.519-.942,157.042,157.042,0,0,0-23.963-31.554c-2.624-2.712-5.193-5.2-7.627-7.461.179-2.287.452-5.713.678-8.551a5,5,0,0,0-9.969-.794c-.03.376-.061.765-.092,1.158-.794-.65-1.546-1.256-2.236-1.8-8.654-6.865-10.071-7.1-10.832-7.228a5,5,0,0,0-4.707,8.1A4.964,4.964,0,0,0,94.9,170.2c2.266,1.536,26.374,18.492,43.208,43.41-7.807-.542-18.831-.469-29.485,2.492a5,5,0,1,0,2.676,9.634c13.3-3.693,27.8-2.173,33.285-1.376a85.979,85.979,0,0,1,8.539,23.311,5,5,0,1,0,9.807-1.953Z"/><path fill="#cfcfff" d="M404.61,279.77V385.21a83.48,83.48,0,0,1-83.48,83.48H147.11a83.463,83.463,0,0,1-83.42-80.5c-.04-.99-.06-1.98-.06-2.98V279.77Z"/><rect width="403.767" height="33.078" x="32.775" y="246.69" fill="#b8b8f4" rx="16.539"/><circle cx="234.658" cy="368.993" r="66.552" fill="#f0f1ff"/><path fill="#ed524e" d="M266.228,356.5H249.1V339.367a4.332,4.332,0,0,0-4.332-4.333H225.818a4.333,4.333,0,0,0-4.333,4.333V356.5H204.356a4.332,4.332,0,0,0-4.332,4.333v18.948a4.332,4.332,0,0,0,4.332,4.332h17.129v17.129a4.333,4.333,0,0,0,4.333,4.333h18.948a4.332,4.332,0,0,0,4.332-4.333V384.109h17.13a4.333,4.333,0,0,0,4.332-4.332V360.829A4.333,4.333,0,0,0,266.228,356.5Z"/><path fill="#aaaae2" d="M404.61,279.77V385.21a83.48,83.48,0,0,1-83.48,83.48H147.11a83.463,83.463,0,0,1-83.42-80.5c-.04-.99-.06-1.98-.06-2.98v-4.54c18.38,22.09,68.69,67.81,170.31,67.81,61.98,0,104.871-17.008,133.071-35.287a49.217,49.217,0,0,0,22.439-41.307V279.77Z"/></svg>