<svg xmlns="http://www.w3.org/2000/svg"  viewBox="0 0 48 48" width="48px" height="48px"><path fill="#f55376" d="M35,12c-0.403,0-0.798,0.031-1.189,0.077C28.85,12.666,25,16.88,25,22 c0,0.658,0.068,1.3,0.189,1.923C26.086,28.525,30.135,32,35,32c5.523,0,10-4.477,10-10C45,16.477,40.523,12,35,12z"/><circle cx="35" cy="22" r="10" fill="#f55376"/><path fill="#f55376" d="M35,12c-0.403,0-0.798,0.031-1.189,0.077C33.932,12.7,34,13.342,34,14 c0,5.12-3.85,9.334-8.811,9.923C26.086,28.525,30.135,32,35,32c5.523,0,10-4.477,10-10C45,16.477,40.523,12,35,12z"/><path fill="#f55376" d="M34,14c0-0.658-0.068-1.3-0.189-1.923C28.85,12.666,25,16.88,25,22c0,0.658,0.068,1.3,0.189,1.923 C30.15,23.334,34,19.12,34,14z"/><circle cx="24" cy="14" r="10" fill="#f55376"/><circle cx="13" cy="22" r="10" fill="#f55376"/><circle cx="35" cy="22" r="10" fill="#f55376"/><circle cx="17" cy="34" r="10" fill="#f55376"/><circle cx="31" cy="34" r="10" fill="#f55376"/><path fill="#eb0000" d="M14.189,12.077C14.068,12.7,14,13.342,14,14c0,5.12,3.85,9.334,8.811,9.923 C22.932,23.3,23,22.658,23,22C23,16.88,19.15,12.666,14.189,12.077z"/><path fill="#f55376" d="M35,12c-0.403,0-0.798,0.031-1.189,0.077C28.85,12.666,25,16.88,25,22 c0,0.658,0.068,1.3,0.189,1.923C26.086,28.525,30.135,32,35,32c5.523,0,10-4.477,10-10C45,16.477,40.523,12,35,12z"/><path fill="#eb0000" d="M25.662,25.554C27.096,29.32,30.731,32,35,32c1.965,0,3.792-0.575,5.338-1.554 C38.904,26.68,35.269,24,31,24C29.035,24,27.208,24.575,25.662,25.554z"/><path fill="#eb0000" d="M21,34c0,2.796,1.15,5.321,3,7.136c1.85-1.815,3-4.34,3-7.136c0-2.796-1.15-5.321-3-7.136 C22.15,28.679,21,31.204,21,34z"/><path fill="#eb0000" d="M7.662,30.446C9.208,31.425,11.035,32,13,32c4.269,0,7.904-2.68,9.338-6.446 C20.792,24.575,18.965,24,17,24C12.731,24,9.096,26.68,7.662,30.446z"/><path fill="#eb0000" d="M25,22c0,0.658,0.068,1.3,0.189,1.923l0,0C30.15,23.334,34,19.12,34,14 c0-0.658-0.068-1.3-0.189-1.923l0,0C28.85,12.666,25,16.88,25,22z"/><circle cx="24" cy="25" r="4" fill="#f5bc00"/></svg>