<svg width="727" height="428" viewBox="0 0 727 428" fill="none" xmlns="http://www.w3.org/2000/svg">
<path d="M60.7824 418.67C60.7824 418.67 -2.42763 143.797 51.3144 77.9735C114.524 0.554527 271.246 -25.8585 347.551 29.2375C423.856 84.3335 625.99 11.0645 676.972 87.3815C727.954 163.699 663.927 420.336 663.927 420.336L60.7824 418.67Z" fill="#EEF6FF"/>
<path d="M494.667 115.022C485.259 113.567 489.639 107.359 482.55 104.706C476.315 102.373 468.148 104.956 461.964 106.404C448.975 109.447 453.201 101.237 441.592 99.1395C432.174 97.4385 425.953 104.07 419.523 106.695C410.055 110.561 411.617 103.147 401.165 103.224C392.719 103.286 386.488 109.185 382.932 112.282C377.678 116.857 371.963 116.871 362.554 117.356C353.895 117.803 345.75 121.18 358.888 121.955C366.03 122.377 471.974 121.566 495.44 120.641C505.95 120.226 510.867 119.49 511.908 116.578C513.291 112.707 500.267 115.888 494.667 115.022Z" fill="white"/>
<path d="M129.336 170.613C120.79 169.388 124.7 163.714 118.244 161.379C112.567 159.326 105.186 161.75 99.5934 163.125C87.8444 166.014 91.5944 158.527 81.0454 156.741C72.4874 155.292 66.9124 161.368 61.1074 163.813C52.5594 167.413 53.9024 160.675 44.4244 160.849C36.7664 160.99 31.1734 166.402 27.9804 169.245C23.2614 173.447 18.0784 173.516 9.55042 174.051C1.70242 174.543 -5.65058 177.687 6.27242 178.259C12.7534 178.57 108.821 176.775 130.092 175.7C139.619 175.219 144.071 174.502 144.985 171.851C146.202 168.327 134.423 171.342 129.336 170.613Z" fill="white"/>
<path d="M709.836 151.193C700.866 149.591 705.056 142.738 698.3 139.813C692.358 137.241 684.563 140.094 678.663 141.695C666.269 145.058 670.315 135.996 659.247 133.686C650.268 131.812 644.321 139.132 638.184 142.032C629.146 146.302 630.651 138.12 620.682 138.208C612.627 138.279 606.672 144.792 603.275 148.21C598.255 153.261 592.804 153.278 583.829 153.817C575.57 154.313 567.794 158.043 580.324 158.894C587.135 159.357 688.18 158.424 710.562 157.394C720.586 156.932 725.278 156.119 726.276 152.904C727.603 148.631 715.175 152.146 709.836 151.193Z" fill="white"/>
<path d="M200.188 58.5155C175.955 58.8995 189.491 48.1315 179.205 46.1365C168.878 44.1335 161.985 51.4245 152.208 47.6025C141.835 43.5485 136.962 36.3865 124.061 39.0675C119.65 39.9835 113.077 47.8665 108.226 47.9005C102.477 47.9405 102.287 41.1735 96.5685 41.8335C84.8205 43.1885 84.1375 48.2695 77.3785 53.2885C73.0485 56.5035 63.7585 60.1735 57.8955 59.8415C54.0645 59.6245 49.4735 66.2205 63.6515 66.2285C88.8765 66.2425 173.281 64.4825 202.731 64.7815C206.294 64.8175 214.949 58.2815 200.188 58.5155Z" fill="white"/>
<path d="M144.877 284.054C143.297 280.505 139.351 272.076 142.319 268.015C147.754 260.578 142.396 249.373 137.148 246.666C126.124 240.981 129.092 223.112 119.341 223.518C109.589 223.924 112.701 238.516 104.497 242.445C95.1694 246.912 88.3695 257.082 93.6985 263.718C97.9385 268.997 86.8995 287.719 97.0745 298.278C102.896 304.32 157.172 311.669 144.877 284.054Z" fill="#B7CA79"/>
<path d="M124.514 401.115C124.321 400.417 121.757 250.19 121.757 250.19H120.79L118.081 283.067L116.921 286.669L114.26 401.115C114.26 401.115 118.414 402.495 120.128 402.36C121.481 402.253 124.514 401.115 124.514 401.115Z" fill="#A86D65"/>
<path d="M117.26 286.91L101.135 274.745L101.765 274.503L119.255 285.488L117.26 286.91Z" fill="#A86D65"/>
<path d="M134.467 257.07L122.377 268.949L122.297 266.552L133.887 256.657L134.467 257.07Z" fill="#A86D65"/>
<path d="M605.384 313.183C605.384 313.183 576.829 307.057 579.258 290.411C581.561 274.623 591.405 282.025 590.948 271.062C590.491 260.099 594.602 245.939 605.108 247.766C615.614 249.593 613.181 263.224 616.984 264.21C629.317 267.408 638.382 279.964 634.342 290.247C629.318 303.038 621.371 325.517 605.384 313.183Z" fill="#B7CA79"/>
<path d="M603.971 415.968C604.119 415.432 605.596 271.131 605.596 271.131H606.338L608.417 296.367L609.308 299.132L611.841 415.968C611.841 415.968 608.687 416.54 607.371 416.436C606.333 416.354 603.971 415.968 603.971 415.968Z" fill="#A86D65"/>
<path d="M609.343 300.08L626.076 284.616L625.609 284.245L607.906 297.303L609.343 300.08Z" fill="#A86D65"/>
<path d="M598.226 278.736L605.323 288.5L605.384 286.66L598.671 278.418L598.226 278.736Z" fill="#A86D65"/>
<path d="M347.925 300.184C347.925 300.184 349.288 297.257 351.152 294.091C353.456 290.176 358.752 290.789 358.752 290.789C358.752 290.789 358.912 296.048 357.023 298.055C353.58 301.716 347.925 300.184 347.925 300.184Z" fill="#677E52"/>
<path d="M348.036 299.865C350.143 298.877 352.125 297.618 353.919 296.152C355.699 294.675 357.274 292.925 358.296 290.884L358.299 290.878C358.375 290.726 358.56 290.664 358.712 290.74C358.864 290.816 358.925 291.001 358.849 291.153C358.848 291.156 358.845 291.161 358.844 291.164C357.688 293.273 356.003 294.999 354.143 296.432C352.268 297.852 350.232 299.042 348.076 299.958C348.05 299.969 348.021 299.957 348.01 299.931C347.997 299.907 348.011 299.877 348.036 299.865Z" fill="#B7CA79"/>
<path d="M349.966 296.289L352.994 296.859C353.092 296.878 353.157 296.972 353.139 297.071C353.12 297.169 353.026 297.234 352.927 297.216C352.922 297.215 352.917 297.214 352.912 297.213L352.903 297.211L349.944 296.389C349.917 296.382 349.901 296.355 349.908 296.328C349.914 296.301 349.94 296.285 349.966 296.289Z" fill="#B7CA79"/>
<path d="M356.698 298.236C356.482 296.922 356.266 295.598 355.931 294.318C355.912 294.254 355.948 294.186 356.013 294.167C356.077 294.148 356.145 294.184 356.164 294.248L356.166 294.256C356.461 295.572 356.628 296.895 356.798 298.221C356.802 298.249 356.782 298.274 356.754 298.277C356.728 298.283 356.703 298.263 356.698 298.236Z" fill="#B7CA79"/>
<path d="M659.794 383.386C659.871 383.658 656.766 383.2 652.832 385.791C649.111 388.146 644.563 393.55 646.681 400.08C650.295 396.358 651.665 392.067 654.224 388.792C656.447 385.51 659.86 383.245 659.794 383.386Z" fill="#677E52"/>
<path d="M631.321 381.521C631.198 381.727 634.468 382.606 636.38 385.04C645.116 396.166 645.676 409.429 642.495 414.405C642.31 403.172 631.295 381.419 631.321 381.521Z" fill="#677E52"/>
<path d="M99.6443 400.534C101.833 397.262 103.113 393.215 106.403 391.107C111.169 388.053 117.344 390.6 122.703 392.425C129.985 394.905 138.045 395.897 145.597 394.084C150.234 392.97 150.842 393.044 155.245 394.783C159.223 396.355 163.462 397.357 167.762 397.06C185.584 395.831 197.783 373.646 215.568 375.33C228.938 376.596 237.735 391.055 250.9 393.71C266.083 396.772 279.112 383.464 293.506 377.745C328.732 363.75 367.178 396.508 404.61 390.545C426.155 387.113 445.594 370.977 467.232 373.761C483.938 375.91 497.903 389.145 514.716 390.158C534.032 391.321 574.134 391.21 605.383 377.977C621.39 371.199 619.511 402.541 655.858 402.515C666.063 402.508 682.504 409.904 685.945 419.512C673.018 420.742 656.516 415.451 643.552 416.183C565.754 420.575 486.643 422.013 408.737 423.576C366.52 424.423 327.391 422.713 285.165 422.729C251.63 422.741 217.252 423.986 183.717 423.999C155.022 424.01 132.276 423.106 103.592 422.305C91.7143 421.973 84.1983 419.513 62.3993 421.834C61.7223 421.556 61.0393 421.26 60.4843 420.783C58.7953 419.329 58.8213 416.633 59.7193 414.593C61.6193 410.273 66.4343 407.915 71.1063 407.245C75.7773 406.575 80.5303 407.23 85.2473 407.089C89.9643 406.947 94.9813 405.827 98.2023 402.378C98.7363 401.807 99.2083 401.186 99.6443 400.534Z" fill="#B7CA79"/>
<path d="M298.506 393.636C298.385 393.849 303.363 393.466 305.53 395.533C308.828 398.681 314.851 412.115 311.711 417.287C311.384 406.637 298.478 393.543 298.506 393.636Z" fill="#677E52"/>
<path d="M155.002 381.031C155.15 381.292 149.052 380.821 146.399 383.354C142.359 387.21 134.982 403.667 138.828 410.002C139.227 396.955 155.035 380.917 155.002 381.031Z" fill="#677E52"/>
<path d="M401.261 409.958C401.261 409.958 394.71 402.568 395.782 392.943C402.413 397.595 401.261 409.958 401.261 409.958Z" fill="#677E52"/>
<path d="M416.213 393.801C416.333 394.013 411.39 393.631 409.239 395.684C405.964 398.809 399.984 412.15 403.102 417.285C403.426 406.71 416.24 393.709 416.213 393.801Z" fill="#677E52"/>
<path d="M325.366 397.569C325.468 397.748 321.284 397.425 319.463 399.163C316.691 401.809 311.629 413.101 314.268 417.447C314.543 408.496 325.389 397.491 325.366 397.569Z" fill="#677E52"/>
<path d="M84.2004 391.223C84.1634 391.376 86.3814 391.295 88.0484 392.451C95.6684 397.734 98.5784 405.935 97.5474 409.666C95.2634 402.666 84.1644 391.165 84.2004 391.223Z" fill="#677E52"/>
<path d="M365.245 427.448C553.022 427.448 705.245 423.895 705.245 419.512C705.245 415.13 553.022 411.576 365.245 411.576C177.469 411.576 25.2454 415.13 25.2454 419.512C25.2454 423.895 177.469 427.448 365.245 427.448Z" fill="#677E52"/>
<path d="M260.048 216.997C260.048 216.997 185.937 215.855 187.797 213.487C188.705 212.331 188.839 195.511 193.665 176.251C198.726 156.056 208.792 133.136 223.4 120.884C226.289 120.447 229.616 120.292 233.196 120.363C235.818 120.419 238.581 120.589 241.4 120.856C241.752 120.884 242.119 120.926 242.471 120.969C250.477 121.829 258.905 123.506 266.121 125.677C268.221 126.297 270.208 126.96 272.069 127.665C273.211 128.088 274.296 128.539 275.311 128.99C280.653 131.344 284.261 133.98 284.769 136.587C286.561 145.747 260.048 216.997 260.048 216.997Z" fill="#CEAB7E"/>
<path d="M258.406 140.266C254.99 140.266 251.284 139.276 251.05 139.212C250.901 139.172 250.812 139.016 250.852 138.866C250.893 138.716 251.046 138.625 251.199 138.668C251.284 138.69 259.728 140.946 262.672 138.715C262.796 138.622 262.973 138.645 263.067 138.769C263.161 138.893 263.136 139.07 263.012 139.164C261.921 139.992 260.203 140.266 258.406 140.266Z" fill="#77614D"/>
<path d="M349.072 241.367C349.403 239.455 345.655 237.813 345.655 237.813C345.655 237.813 348.292 237.477 348.141 235.696C348.053 234.655 335.5 228.11 335.5 228.11C335.5 228.11 344.234 226.398 342.659 224.422C341.084 222.446 319.299 221.592 319.299 221.592L315.87 237.294C315.87 237.294 326.353 245.758 333.764 248.676C337.089 249.985 342.521 251.156 342.977 249.156C343.212 248.125 342.358 246.873 342.358 246.873C342.358 246.873 346.513 247.352 346.947 245.996C347.508 244.244 345.659 242.549 345.659 242.549C345.659 242.549 348.901 242.357 349.072 241.367Z" fill="#FFAC70"/>
<path d="M261.837 143.071C256.073 155.383 255.188 199.748 255.345 204.903C255.502 210.059 261.265 217.471 265.191 219.736C275.872 225.896 318.87 244.795 318.87 244.795C318.87 244.795 328.933 219.663 325.089 218.038C321.244 216.413 288.223 201.132 287.426 195.141C285.166 178.145 287.639 151.37 284.771 136.585C272.277 133.61 267.632 130.693 261.837 143.071Z" fill="#CEAB7E"/>
<path d="M272.071 127.663C269.604 129.622 261.345 135.556 253.635 134.273C247.616 133.272 243.247 125.055 241.401 120.855C252.043 121.898 263.558 124.449 272.071 127.663Z" fill="#FFAC70"/>
<path d="M268.948 113.509L263.841 132.387C263.841 132.387 246.938 130.669 244.279 125.117C243.674 123.854 253.085 103.556 253.085 103.556L268.948 113.509Z" fill="#FFAC70"/>
<path d="M267.632 118.478C264.662 117.416 258.051 112.062 258.051 112.062C258.051 112.062 259.216 118.44 266.628 121.908C266.906 120.977 267.207 119.833 267.632 118.478Z" fill="#AA7D5E"/>
<path d="M254.84 83.0535L252.041 105.501C252.041 105.501 252.073 105.54 252.152 105.622C252.32 105.849 252.692 106.327 253.235 106.974C254.311 108.25 256.065 110.213 258.208 112.204C258.245 112.23 258.277 112.269 258.327 112.298C260.844 114.632 263.904 116.943 267.06 118.244C267.252 118.332 267.436 118.41 267.607 118.472C267.616 118.49 267.634 118.48 267.634 118.48C269.418 119.158 271.238 119.465 272.997 119.238C278.948 118.465 282.051 107.741 283.546 99.6565C283.591 99.4055 283.629 99.1815 283.67 98.9435C284.141 96.2745 284.449 93.9545 284.619 92.4465C284.742 91.2915 284.796 90.6165 284.796 90.6165L254.84 83.0535Z" fill="#FFAC70"/>
<path d="M279.789 101.206C279.532 101.912 279.752 102.641 280.282 102.834C280.812 103.027 281.449 102.611 281.707 101.905C281.964 101.199 281.743 100.47 281.214 100.278C280.684 100.084 280.046 100.5 279.789 101.206Z" fill="#634F3F"/>
<path d="M270.791 98.7646C270.534 99.4706 270.754 100.199 271.284 100.393C271.813 100.586 272.451 100.17 272.708 99.4636C272.965 98.7576 272.745 98.0286 272.215 97.8356C271.686 97.6426 271.048 98.0586 270.791 98.7646Z" fill="#634F3F"/>
<path d="M275.971 108.133C274.723 108.133 273.731 107.277 273.717 107.264C273.601 107.161 273.589 106.984 273.692 106.867C273.795 106.75 273.973 106.738 274.089 106.841C274.154 106.897 275.667 108.196 277.151 107.199C277.751 106.795 277.666 106.35 277.046 103.742C276.909 103.165 276.749 102.492 276.57 101.701C276.536 101.549 276.632 101.398 276.784 101.364C276.931 101.327 277.086 101.425 277.121 101.577C277.299 102.365 277.458 103.037 277.595 103.612C278.237 106.309 278.409 107.034 277.466 107.667C276.957 108.009 276.445 108.133 275.971 108.133Z" fill="#634F3F"/>
<path d="M271.843 108.607C274.326 111.024 275.896 111.263 275.896 111.263C275.896 111.263 274.694 113.953 272.996 112.556C270.74 110.699 271.843 108.607 271.843 108.607Z" fill="#EDEDEF"/>
<path d="M257.813 77.6715C261.386 73.0315 266.046 76.5965 266.541 76.2145C269.059 74.2705 274.651 74.3415 276.766 76.7175C280.59 81.0145 282.493 78.3235 286.285 79.6605C295.106 82.7705 287.675 93.0005 282.702 92.8315C280.213 92.7465 278.1 90.9625 275.776 90.0665C273.452 89.1705 270.668 88.7915 268.59 90.1625C267.463 90.9065 266.2 94.1275 264.954 94.6475C262.947 95.4835 260.537 94.2845 258.511 95.0715C256.776 95.7455 255.885 97.6405 255.285 99.4025C254.692 101.143 254.218 102.924 253.866 104.728C253.688 105.64 253.531 106.586 253.028 107.367C252.525 108.148 251.566 108.723 250.672 108.468C249.331 108.085 249.073 106.302 249.229 104.917C249.372 103.642 249.644 102.382 250.04 101.163C250.538 99.6295 248.824 75.8755 257.813 77.6715Z" fill="#77614D"/>
<path d="M260.644 97.0915C260.512 97.0205 260.384 93.9685 257.506 93.5015C254.943 93.0865 253.44 97.0235 253.936 98.1725C255.471 101.729 258.014 102.444 258.014 102.444L260.644 97.0915Z" fill="#FFAC70"/>
<path d="M255.33 98.0435C255.307 98.0435 255.285 98.0405 255.263 98.0355C255.112 97.9985 255.02 97.8455 255.057 97.6945C255.318 96.6305 255.784 95.9965 256.443 95.8125C257.59 95.4945 258.803 96.6905 258.855 96.7425C258.965 96.8515 258.965 97.0305 258.856 97.1405C258.745 97.2515 258.567 97.2505 258.458 97.1425C258.172 96.8585 257.287 96.1625 256.595 96.3555C256.147 96.4815 255.814 96.9775 255.605 97.8285C255.572 97.9575 255.457 98.0435 255.33 98.0435Z" fill="#634F3F"/>
<path d="M257.525 98.8065C257.412 98.8065 257.305 98.7385 257.262 98.6265C257.24 98.5685 257.185 98.4835 257.117 98.3735C256.839 97.9155 256.32 97.0605 256.405 96.0775C256.418 95.9225 256.545 95.7965 256.711 95.8215C256.866 95.8345 256.981 95.9715 256.968 96.1265C256.899 96.9255 257.337 97.6485 257.6 98.0815C257.69 98.2295 257.757 98.3465 257.788 98.4235C257.845 98.5685 257.772 98.7325 257.627 98.7885C257.594 98.8005 257.56 98.8065 257.525 98.8065Z" fill="#634F3F"/>
<path d="M274.71 97.4125C274.338 97.7415 273.36 97.0815 272.103 96.6805C270.842 96.2295 269.61 96.3715 269.519 96.1545C269.4 95.9565 270.718 95.1145 272.481 95.4225C274.26 95.7315 275.099 97.1135 274.71 97.4125Z" fill="#77614D"/>
<path d="M278.908 98.4375C279.079 98.9005 280.262 98.7815 281.558 99.0205C282.374 99.1455 283.089 99.4615 283.545 99.6555C283.59 99.4045 283.628 99.1805 283.669 98.9425C283.298 98.5085 282.68 98.0155 281.824 97.7315C280.111 97.1635 278.706 97.9805 278.908 98.4375Z" fill="#77614D"/>
<path d="M176.911 397.184L172.794 419.721L223.067 420.373C223.067 420.373 228.452 416.288 225.366 413.104C222.281 409.92 205.566 404.349 206.362 400.369C207.158 396.388 176.911 397.184 176.911 397.184Z" fill="#77614D"/>
<path d="M241.98 397.184L237.863 419.721L288.136 420.373C288.136 420.373 293.521 416.288 290.435 413.104C287.35 409.92 270.635 404.349 271.431 400.369C272.226 396.388 241.98 397.184 241.98 397.184Z" fill="#77614D"/>
<path d="M183.65 247.514C185.269 260.149 190.777 279.672 194.427 295.854C195.983 302.751 197.412 308.05 194.427 321.988C191.442 335.926 168.414 399.559 173.533 400.971C181.776 403.245 212.619 402.648 212.619 402.648C212.619 402.648 232.197 320.564 232.916 317.102C236.141 301.574 228.391 258.054 227.794 252.827C229.855 251.098 230.841 253.069 230.841 253.069C230.841 253.069 248.753 306.935 251.141 315.066C248.641 328.027 236.895 396.21 237.492 400.856C245.253 404.909 275.385 403.172 278.37 401.43C281.355 399.688 285.132 322.083 285.165 315.018C285.248 297.014 266.804 224.719 262.626 221.234C259.261 218.428 204.781 210.392 185.767 210.65C183.826 214.224 181.159 228.069 183.65 247.514Z" fill="#81A8D3"/>
<path d="M192.899 391.465C187.667 391.465 182.848 390.984 180.624 389.471C179.711 388.85 182.091 381.085 190.749 354.699C197.551 333.971 205.26 310.477 204.459 307.699C203.856 305.612 201.902 297.613 199.641 288.35C196.125 273.961 191.751 256.053 190.066 250.523C187.295 241.437 189.941 215.388 190.055 214.284C190.071 214.129 190.207 214.014 190.364 214.033C190.518 214.049 190.631 214.187 190.615 214.342C190.588 214.612 187.868 241.382 190.604 250.36C192.294 255.905 196.671 273.822 200.187 288.217C202.449 297.474 204.401 305.468 205 307.543C205.85 310.488 198.445 333.054 191.284 354.875C185.968 371.08 180.469 387.836 180.988 389.056C186.754 392.958 212.128 389.473 212.383 389.436C212.543 389.41 212.68 389.522 212.701 389.676C212.722 389.83 212.615 389.973 212.461 389.994C211.798 390.085 201.755 391.465 192.899 391.465Z" fill="#AACBE8"/>
<path d="M233.197 241.154H229.02C228.865 241.154 228.738 241.027 228.738 240.872C228.738 240.717 228.865 240.59 229.02 240.59H232.933L234.308 219.562C234.319 219.407 234.424 219.308 234.608 219.299C234.763 219.309 234.88 219.444 234.871 219.599L233.478 240.891C233.469 241.039 233.346 241.154 233.197 241.154Z" fill="#AACBE8"/>
<path d="M260.859 392.076C252.601 392.076 245.129 391.006 245.013 390.989C244.939 390.977 244.872 390.937 244.828 390.877C244.784 390.816 244.764 390.74 244.776 390.666C244.891 389.939 256.311 318.016 256.116 313.914C255.982 311.11 245.682 282.321 239.527 265.12C235.358 253.466 234.307 250.498 234.307 250.23C234.307 250.075 234.434 249.948 234.589 249.948C234.737 249.948 234.859 250.062 234.87 250.208C234.96 250.684 237.211 256.974 240.057 264.93C246.621 283.276 256.54 311 256.677 313.887C256.871 317.957 246.276 384.805 245.376 390.47C247.692 390.783 263.643 392.787 273.839 390.237C273.988 390.199 274.143 390.292 274.181 390.442C274.219 390.593 274.126 390.746 273.975 390.784C270.077 391.759 265.352 392.076 260.859 392.076Z" fill="#AACBE8"/>
<path d="M204.677 221.967C204.677 221.967 225.832 182.966 231.524 156.69C237.354 156.69 262.396 159.088 272.816 160.879C272.816 175.189 262.627 221.235 262.627 221.235C262.627 221.235 214.642 226.941 204.677 221.967Z" fill="#81A8D3"/>
<path d="M244.051 160.11L235.665 159.039C237.117 147.721 237.511 128.523 233.198 120.363C235.82 120.419 238.582 120.589 241.401 120.856C241.753 120.884 242.12 120.926 242.472 120.969C247.026 135.218 244.432 157.107 244.051 160.11Z" fill="#81A8D3"/>
<path d="M272.537 163.661L264.306 161.716C265.969 154.626 269.971 136.791 267.138 125.98C269.238 126.6 270.212 126.957 272.073 127.662C273.215 128.085 274.3 128.536 275.315 128.987C277.118 143.449 273.144 161.096 272.537 163.661Z" fill="#81A8D3"/>
<path d="M241.832 159.796C242.11 160.753 241.56 161.755 240.603 162.033C239.646 162.311 238.644 161.761 238.366 160.804C238.088 159.847 238.638 158.845 239.596 158.567C240.552 158.289 241.554 158.839 241.832 159.796Z" fill="#77614D"/>
<path d="M270.546 162.707C270.824 163.664 270.274 164.666 269.316 164.944C268.359 165.222 267.357 164.672 267.079 163.714C266.801 162.757 267.351 161.755 268.308 161.477C269.266 161.199 270.268 161.749 270.546 162.707Z" fill="#77614D"/>
<path d="M259.183 197.774C259.174 197.774 259.165 197.774 259.157 197.773L228.995 194.987C228.911 194.979 228.835 194.934 228.787 194.864C228.74 194.794 228.727 194.706 228.752 194.625L235.234 173.333C235.273 173.205 235.392 173.118 235.529 173.134L266.174 175.92C266.26 175.928 266.337 175.974 266.384 176.046C266.431 176.118 266.444 176.207 266.416 176.288L259.451 197.58C259.412 197.696 259.304 197.774 259.183 197.774ZM229.391 194.458L258.985 197.191L265.77 176.449L235.706 173.716L229.391 194.458Z" fill="#AACBE8"/>
<path d="M264.305 180.861C264.298 180.861 264.29 180.861 264.284 180.86L238.725 178.87C238.57 178.858 238.454 178.722 238.465 178.567C238.478 178.413 238.613 178.303 238.768 178.308L264.327 180.298C264.482 180.31 264.599 180.446 264.587 180.601C264.574 180.748 264.451 180.861 264.305 180.861Z" fill="#AACBE8"/>
<path d="M283.53 253.488L253.478 237.275L232.654 275.874L262.707 292.087L283.53 253.488Z" fill="#77614D"/>
<path d="M262.396 288.015L310.79 290.684L311.005 287.426L267.999 277.63L262.396 288.015Z" fill="#77614D"/>
<path d="M236.34 268.247C235.861 267.795 224.597 257.025 224.424 243.183C224.333 235.874 227.369 229.118 233.447 223.098C244.88 211.78 260.524 214.594 270.959 222.403C280.032 229.195 286.538 240.959 280.619 251.929L278.139 250.591C283.261 241.098 277.375 230.727 269.27 224.659C259.805 217.575 245.671 214.963 235.432 225.101C229.917 230.561 227.162 236.632 227.243 243.147C227.4 255.806 238.164 266.092 238.273 266.194L236.34 268.247Z" fill="#634F3F"/>
<path d="M219.598 227.33C219.598 227.33 235.796 235.242 237.308 234.549C240.462 233.103 247.698 224.056 247.698 224.056C247.698 224.056 247.825 219.881 246.585 219.426C245.345 218.97 240.111 217.047 240.111 217.047C240.111 217.047 247.789 217.016 248.368 216.29C248.947 215.565 249.318 213.28 249.318 213.28C249.318 213.28 245.114 213.369 240.489 212.391C239.581 212.199 228.27 212.641 228.27 212.641L219.598 227.33Z" fill="#FFAC70"/>
<path d="M230.927 203.295C238.468 219.754 216.347 229.5 216.347 229.5C216.347 229.5 185.414 208.527 175.71 193.525C167.466 180.781 171.832 168.043 175.14 161.69C181.346 149.77 204.407 129.939 223.403 120.883C237.896 128.137 225.367 154.389 225.367 154.389C225.367 154.389 205.536 163.785 205.424 177.593C205.344 187.391 219.179 197.02 230.927 203.295Z" fill="#CEAB7E"/>
<path d="M217.312 194.989C217.253 194.989 217.195 194.971 217.145 194.934C215.268 193.549 208.164 185.439 206.126 182.357C203.326 178.12 204.047 173.227 208.213 168.207C211.457 164.298 224.64 154.574 225.199 154.162C225.322 154.071 225.501 154.095 225.593 154.222C225.686 154.347 225.659 154.524 225.533 154.616C225.396 154.717 211.847 164.711 208.646 168.567C205.864 171.92 203.249 176.981 206.596 182.046C208.613 185.098 215.63 193.116 217.478 194.48C217.604 194.573 217.63 194.749 217.538 194.875C217.483 194.949 217.397 194.989 217.312 194.989Z" fill="#77614D"/>
<path d="M230.379 137.133C230.366 137.133 230.353 137.132 230.34 137.131C230.186 137.109 230.078 136.966 230.1 136.813C231.402 127.56 223.002 122.201 222.917 122.148C222.785 122.065 222.745 121.892 222.827 121.76C222.91 121.627 223.082 121.587 223.216 121.67C223.304 121.725 232.012 127.271 230.658 136.892C230.639 137.032 230.518 137.133 230.379 137.133Z" fill="#77614D"/>
<path d="M404.026 289.524L448.211 270.249L450.749 256.666L467.234 267.105C467.234 267.105 467.759 279.668 465.268 282.71C455.752 294.331 408.311 301.832 408.311 301.832L404.026 289.524Z" fill="#FFAC70"/>
<path d="M407.823 289.098C407.823 289.098 390.681 288.661 389.344 290.131C388.007 291.602 395.925 293.483 395.925 293.483C395.925 293.483 384.59 297.889 384.468 298.701C384.259 300.091 386.311 300.489 386.311 300.489C386.311 300.489 383.286 301.587 383.448 303.105C383.532 303.891 386.068 304.207 386.068 304.207C386.068 304.207 384.531 305.444 384.881 306.847C385.153 307.934 388.438 307.769 388.438 307.769C388.438 307.769 387.704 308.708 387.836 309.529C388.092 311.122 392.415 310.479 395.091 309.621C401.056 307.708 409.716 301.597 409.716 301.597L407.823 289.098Z" fill="#FFAC70"/>
<path d="M439.865 269.728C443.46 265.883 457.601 240.161 462.91 223.33C468.934 221.384 480.64 218.546 480.069 240.03C479.497 261.514 470.485 278.456 464.115 285.577C461.948 287.998 436.27 273.573 439.865 269.728Z" fill="#677E52"/>
<path d="M485.761 314.797C485.761 314.797 440.458 353.215 430.084 395.404C427.101 407.535 443.277 414.192 443.277 414.192L474.816 413.746L516.535 330.393L485.761 314.797Z" fill="#85AAD3"/>
<path d="M464.167 206.172C473.295 209.084 486.937 196.55 486.937 196.55L488.182 174.26L457.77 176.322C457.77 176.322 457.396 179.944 457.392 184.678C457.38 185.065 457.381 185.449 457.383 185.834C457.473 193.89 458.653 204.418 464.167 206.172Z" fill="#FFAC70"/>
<path d="M470.641 201.505L473.426 220.003C473.426 220.003 487.641 221.89 491.008 216.95C491.774 215.826 484.647 196.052 484.647 196.052L470.641 201.505Z" fill="#FFAC70"/>
<path d="M452.582 171.779C451.923 173.902 451.549 178.38 456.236 179.5C460.923 180.62 472.516 174.744 473.428 176.999C474.846 180.506 478.014 184.746 481.094 185.517C483.024 190.832 482.983 191.077 482.983 191.077C482.983 191.077 482.941 206.335 487.793 210.896C490.845 213.765 505.89 207.598 505.753 200.278C505.622 193.27 499.744 182.513 496.69 178.995C493.636 175.477 493.616 171.944 492.257 169.44C490.898 166.937 486.394 163.206 482.254 164.497C477.181 166.079 476.351 160.179 470.281 163.709C464.625 166.998 454.593 165.296 452.582 171.779Z" fill="#77614D"/>
<path d="M471.204 206.036C474.08 205.508 479.499 200.583 479.499 200.583C479.499 200.583 476.813 207.639 471.772 209.169C471.501 207.69 471.355 207.424 471.204 206.036Z" fill="#AA7D5E"/>
<path d="M469.927 186.698C470.052 187.428 469.709 188.097 469.161 188.191C468.613 188.285 468.068 187.769 467.942 187.038C467.817 186.308 468.159 185.639 468.708 185.546C469.256 185.452 469.802 185.968 469.927 186.698Z" fill="#634F3F"/>
<path d="M460.632 188.118C460.757 188.848 460.414 189.516 459.866 189.61C459.318 189.704 458.773 189.188 458.647 188.457C458.522 187.727 458.864 187.058 459.413 186.965C459.961 186.87 460.506 187.387 460.632 188.118Z" fill="#634F3F"/>
<path d="M464.734 194.509C464.158 194.509 463.354 194.446 462.723 194.153C461.594 193.628 462.705 189.668 463.236 187.99C463.283 187.842 463.44 187.76 463.589 187.806C463.738 187.853 463.819 188.012 463.773 188.16C462.914 190.882 462.535 193.443 462.961 193.641C463.904 194.08 465.396 193.916 465.41 193.912C465.567 193.895 465.705 194.006 465.723 194.16C465.741 194.315 465.629 194.454 465.475 194.473C465.446 194.476 465.149 194.509 464.734 194.509Z" fill="#634F3F"/>
<path d="M480.069 186.866C480.209 186.82 480.873 183.881 483.748 183.936C486.308 183.985 487.072 188.072 486.388 189.099C484.27 192.28 481.676 192.525 481.676 192.525L480.069 186.866Z" fill="#FFAC70"/>
<path d="M485.023 188.323C484.872 188.323 484.747 188.203 484.742 188.051C484.722 187.495 484.563 187.13 484.269 186.964C483.662 186.622 482.544 187.102 482.165 187.315C482.032 187.393 481.857 187.343 481.781 187.208C481.705 187.072 481.754 186.9 481.889 186.824C481.955 186.786 483.543 185.906 484.544 186.472C485.023 186.741 485.277 187.266 485.304 188.032C485.31 188.188 485.188 188.318 485.033 188.323C485.029 188.324 485.026 188.323 485.023 188.323Z" fill="#634F3F"/>
<path d="M483.181 189.284C483.055 189.284 482.94 189.199 482.908 189.071C482.865 188.901 482.952 188.737 483.142 188.379C483.381 187.931 483.742 187.254 483.805 186.577C483.82 186.422 483.957 186.304 484.112 186.323C484.267 186.338 484.381 186.474 484.366 186.629C484.293 187.419 483.9 188.157 483.64 188.646C483.571 188.776 483.486 188.936 483.463 189.001C483.464 189.128 483.379 189.244 483.25 189.277C483.227 189.282 483.203 189.284 483.181 189.284Z" fill="#634F3F"/>
<path d="M464.807 198.323C464 198.323 463.403 198.155 463.387 198.15C463.238 198.106 463.153 197.951 463.196 197.802C463.239 197.653 463.404 197.57 463.545 197.609C463.694 197.651 467.191 198.62 468.281 195.307C468.33 195.16 468.49 195.08 468.636 195.129C468.784 195.177 468.865 195.336 468.816 195.484C468.03 197.868 466.135 198.323 464.807 198.323Z" fill="#634F3F"/>
<path d="M466.121 184.147C466.419 184.544 467.51 184.093 468.822 183.952C470.148 183.763 471.326 184.149 471.459 183.954C471.615 183.784 470.493 182.695 468.704 182.643C466.898 182.59 465.8 183.776 466.121 184.147Z" fill="#77614D"/>
<path d="M457.383 185.834C457.735 185.709 458.128 185.578 458.574 185.51C459.875 185.254 461.046 185.361 461.217 184.893C461.406 184.451 460.013 183.637 458.306 184.225C457.954 184.35 457.649 184.496 457.391 184.678C457.379 185.065 457.381 185.449 457.383 185.834Z" fill="#77614D"/>
<path d="M488.313 316.092C488.313 316.092 444.272 386.733 450.025 401.502C454.214 412.254 468.714 415.923 477.004 415.53C500.733 414.406 568.571 402.893 568.571 402.893L566.917 383.377C566.917 383.377 523.096 377.747 496.798 378.98C514.071 358.874 536.048 343.343 539.487 337.22C548.254 321.611 545.006 301.013 545.006 301.013C545.006 301.013 496.26 300.819 488.313 316.092Z" fill="#97B6E0"/>
<path d="M558.623 391.489C535.403 388.4 526.139 388.31 491.668 387.975L484.742 387.907L484.741 387.63C484.725 385.202 492.698 374.579 501.93 362.278C511.239 349.878 520.865 337.054 522.833 331.864C526.677 321.733 527.02 308.544 527.023 308.411L527.588 308.425C527.584 308.558 527.238 321.842 523.359 332.064C521.361 337.331 511.713 350.186 502.38 362.618C494.279 373.411 485.911 384.557 485.333 387.35L491.672 387.413C526.17 387.749 535.442 387.839 558.695 390.933L558.623 391.489Z" fill="#81A8D3"/>
<path d="M523.097 376.427C516.128 382.63 525.145 412.527 525.145 412.527L573.713 406.73L593.561 413.253C593.561 413.253 607.761 411.053 599.98 405.729C589.016 398.228 584.308 387.526 582.488 381.888C581.872 379.979 579.822 378.964 577.915 379.585C576.056 380.19 573.61 380.731 570.928 380.663C559.123 380.363 538.013 377.797 523.097 376.427Z" fill="#77614D"/>
<path d="M533.221 408.506C533.112 408.506 533.007 408.441 532.961 408.334C527.027 394.39 529.337 380.26 529.36 380.119C529.386 379.966 529.533 379.87 529.685 379.888C529.839 379.914 529.942 380.06 529.917 380.213C529.893 380.353 527.613 394.326 533.48 408.113C533.54 408.257 533.474 408.422 533.331 408.483C533.295 408.498 533.258 408.506 533.221 408.506Z" fill="#DDBB8A"/>
<path d="M597.593 408.506C597.528 408.506 597.463 408.482 597.409 408.438C597.309 408.354 587.417 399.976 585.461 398.171C582.069 395.039 577.619 383.638 577.432 383.153C577.375 383.008 577.448 382.845 577.593 382.789C577.736 382.735 577.901 382.805 577.956 382.95C578.002 383.067 582.547 394.713 585.844 397.757C587.79 399.553 597.676 407.924 597.776 408.009C597.894 408.11 597.908 408.287 597.807 408.406C597.751 408.471 597.673 408.506 597.593 408.506Z" fill="#DDBB8A"/>
<path d="M550.036 308.622C549.12 311.258 503.805 302.223 485.016 318.164C477.799 314.542 464.874 271.693 463.281 261.869C461.688 252.031 459.898 225.039 463.972 221.388C465.691 219.852 467.806 218.428 470.258 217.272C476.093 214.509 483.902 213.128 493.233 214.58C494.474 214.834 495.657 215.144 496.799 215.51C514.671 221.204 521.507 239.514 529.894 255.3C541.494 277.134 552.065 302.787 550.036 308.622Z" fill="#677E52"/>
<path d="M467.916 280.83C467.809 280.83 467.706 280.767 467.659 280.664C467.474 280.252 463.099 270.538 462.24 267.567C461.528 265.109 462.89 253.716 463.472 248.851C463.595 247.818 463.693 247.001 463.694 246.894C463.696 246.739 463.822 246.614 463.976 246.614H463.977C464.132 246.614 464.258 246.739 464.258 246.894C464.258 247.022 464.193 247.573 464.031 248.917C463.503 253.333 462.1 265.062 462.78 267.41C463.63 270.342 468.127 280.33 468.172 280.43C468.237 280.573 468.173 280.74 468.031 280.803C467.994 280.822 467.955 280.83 467.916 280.83Z" fill="#556842"/>
<path d="M486.626 307.498C486.508 307.498 486.398 307.423 486.359 307.304C486.31 307.157 486.39 306.996 486.539 306.948C487.528 306.622 510.88 298.976 519.389 298.931C533.56 298.861 544.767 299.486 544.877 299.492C545.033 299.501 545.151 299.634 545.143 299.789C545.134 299.944 544.992 300.087 544.846 300.055C544.734 300.048 533.536 299.412 519.393 299.496C510.972 299.54 486.957 307.404 486.715 307.483C486.685 307.492 486.655 307.498 486.626 307.498Z" fill="#556842"/>
<path d="M496.799 215.511C493.022 219.331 482.056 227.943 474.022 226.28C470.442 225.547 471.276 220.128 471.474 216.731C477.309 213.968 483.903 213.129 493.233 214.581C494.473 214.835 495.657 215.145 496.799 215.511Z" fill="#FFAC70"/>
<path d="M477.122 232.052C471.007 232.052 469.741 228.508 469.684 228.34C469.635 228.193 469.714 228.033 469.861 227.984C470.007 227.935 470.168 228.012 470.218 228.16C470.278 228.331 471.74 232.324 479.462 231.329C482.918 230.882 490.796 223.773 490.875 223.701C490.99 223.597 491.169 223.604 491.273 223.721C491.377 223.836 491.369 224.015 491.253 224.119C490.924 224.417 483.164 231.418 479.533 231.888C478.657 232.002 477.855 232.052 477.122 232.052Z" fill="#556842"/>
<path d="M439.865 299.911L482.536 277.486L484.083 263.755L501.281 272.972C501.281 272.972 502.715 285.464 500.451 288.678C491.802 300.958 445.03 311.878 445.03 311.878L439.865 299.911Z" fill="#FFAC70"/>
<path d="M475.554 273.911C478.477 269.533 484.742 251.981 487.248 234.511C489.146 221.278 511.155 214.413 514.079 235.705C517.003 256.997 509.175 280.079 504.045 288.14C502.3 290.882 472.63 278.289 475.554 273.911Z" fill="#677E52"/>
<path d="M446.414 311.542C446.414 311.542 438.22 318.264 432.409 320.604C429.802 321.654 425.537 322.608 425.166 321.038C424.975 320.228 425.639 319.24 425.639 319.24C425.639 319.24 422.375 319.641 422.025 318.577C421.573 317.202 423.017 315.858 423.017 315.858C423.017 315.858 420.465 315.726 420.324 314.949C420.052 313.447 422.989 312.133 422.989 312.133C422.989 312.133 420.913 311.885 421.021 310.483C421.084 309.664 432.07 304.449 432.07 304.449C432.07 304.449 424.037 303.146 425.264 301.583C426.491 300.019 443.62 299.214 443.62 299.214L446.414 311.542Z" fill="#FFAC70"/>
<path d="M425.639 319.521C425.494 319.521 425.371 319.41 425.358 319.262C425.345 319.107 425.461 318.97 425.616 318.957C425.654 318.954 429.375 318.646 429.714 318.605C429.995 318.557 432.788 317.493 434.481 316.833C434.628 316.78 434.791 316.848 434.846 316.993C434.903 317.139 434.83 317.302 434.686 317.358C433.626 317.771 430.138 319.123 429.781 319.166C429.431 319.208 425.816 319.507 425.663 319.52C425.654 319.52 425.647 319.521 425.639 319.521Z" fill="#634F3F"/>
<path d="M423.017 316.14C422.869 316.14 422.745 316.026 422.736 315.877C422.726 315.721 422.843 315.586 422.999 315.576L428.027 315.253L433.167 312.964C433.31 312.9 433.476 312.964 433.539 313.106C433.603 313.248 433.538 313.416 433.396 313.479L428.21 315.789C428.18 315.803 428.147 315.811 428.114 315.812L423.036 316.139C423.028 316.14 423.023 316.14 423.017 316.14Z" fill="#634F3F"/>
<path d="M422.989 312.416C422.858 312.416 422.741 312.325 422.714 312.192C422.682 312.04 422.779 311.889 422.931 311.857L427.119 310.971L431.683 309.27C431.834 309.219 431.992 309.29 432.046 309.435C432.1 309.581 432.025 309.745 431.88 309.799L427.276 311.511L423.048 312.408C423.028 312.414 423.009 312.416 422.989 312.416Z" fill="#634F3F"/>
<path d="M502.2 289.385C502.024 289.385 501.842 289.362 501.653 289.309C501.503 289.267 501.416 289.111 501.458 288.961C501.501 288.812 501.657 288.727 501.806 288.766C502.785 289.038 503.63 288.179 503.797 287.994C504.244 286.738 512.613 263.18 514.442 256.241C515.194 253.386 515.698 247.811 515.13 241.796C515.115 241.641 515.229 241.505 515.384 241.49C515.54 241.472 515.676 241.588 515.691 241.743C516.267 247.827 515.753 253.481 514.988 256.386C513.113 263.501 504.4 287.988 504.312 288.235C504.301 288.265 504.285 288.295 504.264 288.32C504.222 288.368 503.367 289.385 502.2 289.385Z" fill="#556842"/>
<path d="M479.499 279.531C479.454 279.531 479.409 279.52 479.367 279.498C477.168 278.333 475.37 274.198 475.295 274.022C475.269 273.96 475.265 273.891 475.284 273.827C475.37 273.554 483.841 246.391 485.903 240.819C485.957 240.673 486.119 240.599 486.265 240.652C486.411 240.707 486.486 240.869 486.432 241.014C484.438 246.4 476.425 272.061 475.854 273.893C476.134 274.514 477.779 278.019 479.63 278.999C479.768 279.072 479.82 279.242 479.747 279.38C479.697 279.476 479.6 279.531 479.499 279.531Z" fill="#556842"/>
<path d="M315.52 338.643C315.52 338.643 320.342 338.56 325.812 338.991C332.575 339.524 335.216 347.038 335.216 347.038C335.216 347.038 328.259 350.692 324.329 349.468C317.162 347.237 315.52 338.643 315.52 338.643Z" fill="#677E52"/>
<path d="M316.021 338.58C318.726 340.763 321.713 342.601 324.854 344.052C326.431 344.768 328.063 345.345 329.721 345.795C331.388 346.221 333.091 346.445 334.789 346.484H334.81C335.064 346.49 335.264 346.7 335.258 346.954C335.252 347.208 335.042 347.408 334.788 347.402C334.783 347.402 334.776 347.402 334.772 347.401C332.985 347.296 331.225 346.995 329.527 346.494C327.838 345.97 326.197 345.319 324.624 344.534C321.491 342.945 318.561 340.989 315.921 338.693C315.89 338.666 315.886 338.618 315.913 338.587C315.94 338.556 315.989 338.555 316.021 338.58Z" fill="#B7CA79"/>
<path d="M322.085 338.834L323.3 343.273C323.339 343.417 323.255 343.566 323.11 343.606C322.966 343.645 322.817 343.56 322.777 343.416C322.775 343.409 322.773 343.402 322.772 343.395L322.769 343.38L321.937 338.869C321.929 338.828 321.955 338.788 321.996 338.78C322.036 338.772 322.074 338.797 322.085 338.834Z" fill="#B7CA79"/>
<path d="M323.873 349.149C325.497 348 327.133 346.844 328.632 345.557L328.637 345.553C328.713 345.488 328.828 345.496 328.893 345.572C328.958 345.648 328.95 345.763 328.874 345.828L328.869 345.832C327.295 347.089 325.627 348.178 323.957 349.274C323.922 349.297 323.876 349.287 323.853 349.252C323.83 349.218 323.84 349.172 323.873 349.149Z" fill="#B7CA79"/>
<path d="M334.55 282.952C334.55 282.952 337.629 281.214 341.305 279.581C345.85 277.562 350.177 281.482 350.177 281.482C350.177 281.482 346.969 286.268 344.009 286.852C338.61 287.918 334.55 282.952 334.55 282.952Z" fill="#677E52"/>
<path d="M334.851 282.738C337.357 283.201 339.924 283.342 342.456 283.179C343.722 283.09 344.976 282.891 346.202 282.602C347.425 282.294 348.601 281.843 349.709 281.275L349.723 281.268C349.888 281.183 350.091 281.249 350.176 281.414C350.261 281.579 350.195 281.782 350.03 281.867C350.027 281.869 350.022 281.871 350.019 281.872C348.83 282.428 347.591 282.849 346.321 283.12C345.049 283.372 343.764 283.526 342.476 283.57C339.901 283.64 337.33 283.403 334.826 282.845C334.796 282.838 334.777 282.809 334.784 282.779C334.791 282.751 334.822 282.733 334.851 282.738Z" fill="#B7CA79"/>
<path d="M338.849 280.782L341.183 283.218C341.259 283.297 341.256 283.423 341.177 283.499C341.098 283.575 340.972 283.572 340.896 283.493C340.892 283.489 340.889 283.485 340.885 283.481L340.879 283.473L338.767 280.856C338.747 280.833 338.75 280.798 338.774 280.778C338.795 280.76 338.829 280.762 338.849 280.782Z" fill="#B7CA79"/>
<path d="M343.604 286.804C344.249 285.496 344.9 284.179 345.416 282.826C345.44 282.756 345.516 282.72 345.585 282.744C345.655 282.768 345.692 282.842 345.668 282.912L345.665 282.921C345.09 284.281 344.395 285.567 343.702 286.856C343.688 286.883 343.654 286.893 343.627 286.878C343.601 286.865 343.592 286.831 343.604 286.804Z" fill="#B7CA79"/>
<path d="M352.521 305.143C352.521 305.143 356.867 307.233 361.561 310.074C367.365 313.587 366.352 321.486 366.352 321.486C366.352 321.486 358.495 321.628 355.532 318.77C350.13 313.559 352.521 305.143 352.521 305.143Z" fill="#677E52"/>
<path d="M352.995 305.313C354.432 308.478 356.276 311.461 358.432 314.167C359.519 315.515 360.718 316.764 361.999 317.91C363.297 319.039 364.719 320.002 366.219 320.8L366.237 320.811C366.461 320.93 366.546 321.208 366.427 321.432C366.308 321.656 366.03 321.741 365.806 321.622C365.802 321.62 365.796 321.616 365.792 321.614C364.242 320.717 362.805 319.659 361.513 318.449C360.239 317.222 359.064 315.904 358.012 314.496C355.925 311.669 354.186 308.606 352.857 305.369C352.841 305.33 352.86 305.285 352.898 305.27C352.934 305.254 352.979 305.276 352.995 305.313Z" fill="#B7CA79"/>
<path d="M358.301 308.262L357.394 312.774C357.365 312.921 357.222 313.016 357.075 312.986C356.928 312.956 356.833 312.814 356.863 312.667C356.864 312.66 356.866 312.652 356.868 312.645L356.872 312.632L358.154 308.228C358.165 308.188 358.206 308.164 358.246 308.175C358.285 308.184 358.308 308.224 358.301 308.262Z" fill="#B7CA79"/>
<path d="M355.268 318.281C357.235 317.983 359.217 317.685 361.133 317.208L361.139 317.206C361.236 317.182 361.335 317.241 361.359 317.338C361.383 317.435 361.324 317.534 361.227 317.558C361.225 317.558 361.221 317.559 361.221 317.559C359.25 317.976 357.271 318.2 355.287 318.43C355.246 318.435 355.208 318.405 355.204 318.364C355.199 318.324 355.229 318.287 355.268 318.281Z" fill="#B7CA79"/>
<path d="M402.296 307.216C402.296 307.216 403.844 309.622 405.335 312.516C407.179 316.094 404.214 319.773 404.214 319.773C404.214 319.773 400.198 317.405 399.587 315.041C398.474 310.728 402.296 307.216 402.296 307.216Z" fill="#677E52"/>
<path d="M402.484 307.449C402.227 309.495 402.233 311.576 402.483 313.613C402.747 315.646 403.314 317.653 404.36 319.384L404.363 319.389C404.441 319.518 404.399 319.685 404.271 319.763C404.142 319.841 403.975 319.799 403.897 319.671C403.895 319.668 403.894 319.665 403.892 319.662C402.858 317.798 402.363 315.719 402.169 313.648C401.992 311.571 402.064 309.483 402.397 307.434C402.401 307.41 402.424 307.393 402.448 307.397C402.47 307.401 402.486 307.425 402.484 307.449Z" fill="#B7CA79"/>
<path d="M404.25 310.586L402.391 312.585C402.331 312.65 402.229 312.654 402.164 312.593C402.099 312.533 402.095 312.431 402.156 312.366C402.159 312.363 402.162 312.36 402.165 312.357L402.171 312.352L404.187 310.524C404.205 310.507 404.233 310.507 404.25 310.525C404.266 310.542 404.265 310.569 404.25 310.586Z" fill="#B7CA79"/>
<path d="M399.606 314.711C400.693 315.171 401.787 315.636 402.904 315.989C402.961 316.005 402.995 316.064 402.979 316.122C402.963 316.179 402.904 316.213 402.846 316.197L402.839 316.195C401.713 315.794 400.643 315.293 399.569 314.793C399.547 314.783 399.537 314.756 399.547 314.734C399.558 314.711 399.584 314.701 399.606 314.711Z" fill="#B7CA79"/>
<path d="M414.659 318.893C414.659 318.893 411.878 319.565 408.801 320.628C404.997 321.943 404.601 326.651 404.601 326.651C404.601 326.651 409.141 327.711 411.215 326.423C414.998 324.072 414.659 318.893 414.659 318.893Z" fill="#677E52"/>
<path d="M414.436 318.982C413.262 320.694 411.872 322.254 410.31 323.634C408.739 324.998 406.945 326.16 404.911 326.794C404.767 326.839 404.615 326.759 404.57 326.615C404.525 326.471 404.605 326.319 404.749 326.274C404.752 326.273 404.755 326.272 404.758 326.271L404.765 326.269C406.717 325.739 408.513 324.678 410.107 323.39C411.695 322.089 413.136 320.588 414.363 318.93C414.377 318.909 414.404 318.904 414.425 318.917C414.444 318.933 414.449 318.962 414.436 318.982Z" fill="#B7CA79"/>
<path d="M411.007 319.98L411.202 322.694L411.203 322.702C411.209 322.791 411.143 322.867 411.054 322.874C410.965 322.88 410.889 322.814 410.882 322.725C410.882 322.72 410.881 322.716 410.882 322.711L410.918 319.981C410.918 319.956 410.939 319.938 410.963 319.938C410.986 319.939 411.005 319.957 411.007 319.98Z" fill="#B7CA79"/>
<path d="M411.4 326.256C410.278 325.876 409.158 325.499 408.066 325.012C408.012 324.988 407.987 324.924 408.011 324.87C408.035 324.816 408.099 324.791 408.153 324.815L408.16 324.818C409.212 325.333 410.325 325.753 411.428 326.171C411.451 326.179 411.463 326.205 411.455 326.228C411.448 326.251 411.423 326.263 411.4 326.256Z" fill="#B7CA79"/>
<path d="M388.668 260.415C388.668 260.415 390.216 262.821 391.707 265.715C393.551 269.293 390.586 272.972 390.586 272.972C390.586 272.972 386.57 270.604 385.959 268.24C384.846 263.928 388.668 260.415 388.668 260.415Z" fill="#677E52"/>
<path d="M388.855 260.649C388.598 262.695 388.604 264.776 388.854 266.813C389.118 268.846 389.685 270.853 390.731 272.584L390.734 272.589C390.812 272.718 390.77 272.885 390.642 272.963C390.513 273.041 390.346 272.999 390.268 272.871C390.266 272.868 390.264 272.865 390.263 272.862C389.229 270.998 388.733 268.919 388.539 266.848C388.362 264.771 388.434 262.683 388.767 260.634C388.771 260.61 388.794 260.593 388.818 260.597C388.842 260.601 388.858 260.625 388.855 260.649Z" fill="#B7CA79"/>
<path d="M390.622 263.787L388.763 265.786C388.703 265.851 388.601 265.855 388.536 265.794C388.471 265.734 388.467 265.632 388.528 265.567C388.531 265.564 388.534 265.561 388.537 265.558L388.543 265.553L390.559 263.724C390.577 263.707 390.605 263.708 390.622 263.726C390.638 263.743 390.637 263.77 390.622 263.787Z" fill="#B7CA79"/>
<path d="M385.978 267.911C387.065 268.371 388.159 268.835 389.276 269.189C389.333 269.205 389.367 269.264 389.351 269.322C389.335 269.379 389.276 269.413 389.218 269.397L389.211 269.395C388.085 268.994 387.015 268.493 385.941 267.993C385.919 267.983 385.909 267.956 385.919 267.934C385.929 267.911 385.956 267.901 385.978 267.911Z" fill="#B7CA79"/>
<path d="M369.327 250.047C369.327 250.047 367.779 252.453 366.288 255.347C364.444 258.925 367.409 262.604 367.409 262.604C367.409 262.604 371.425 260.236 372.036 257.871C373.149 253.56 369.327 250.047 369.327 250.047Z" fill="#677E52"/>
<path d="M369.228 250.265C369.561 252.314 369.633 254.403 369.456 256.479C369.262 258.55 368.766 260.629 367.733 262.493C367.66 262.625 367.494 262.672 367.363 262.599C367.231 262.526 367.184 262.36 367.257 262.229C367.258 262.226 367.26 262.224 367.261 262.221L367.265 262.215C368.311 260.484 368.877 258.477 369.142 256.444C369.392 254.406 369.398 252.326 369.141 250.28C369.137 250.256 369.153 250.232 369.177 250.228C369.199 250.225 369.222 250.242 369.228 250.265Z" fill="#B7CA79"/>
<path d="M367.436 253.356L369.452 255.184L369.458 255.189C369.524 255.249 369.529 255.35 369.469 255.416C369.409 255.482 369.308 255.487 369.242 255.427C369.239 255.424 369.235 255.421 369.232 255.417L367.373 253.418C367.356 253.4 367.357 253.373 367.375 253.356C367.392 253.34 367.419 253.34 367.436 253.356Z" fill="#B7CA79"/>
<path d="M372.054 257.623C370.98 258.123 369.91 258.625 368.784 259.026C368.728 259.046 368.666 259.017 368.646 258.961C368.626 258.905 368.655 258.842 368.711 258.822L368.718 258.821C369.835 258.467 370.93 258.003 372.016 257.543C372.039 257.533 372.065 257.543 372.075 257.566C372.086 257.587 372.075 257.612 372.054 257.623Z" fill="#B7CA79"/>
<path d="M390.824 320.393C390.824 320.393 393.507 322.189 396.351 324.515C399.867 327.391 398.449 332.531 398.449 332.531C398.449 332.531 393.228 331.884 391.534 329.71C388.445 325.746 390.824 320.393 390.824 320.393Z" fill="#677E52"/>
<path d="M391.122 320.55C391.775 322.783 392.716 324.935 393.89 326.932C395.077 328.918 396.565 330.741 398.425 332.064L398.43 332.068C398.568 332.166 398.601 332.358 398.502 332.497C398.404 332.635 398.212 332.668 398.073 332.569C398.07 332.567 398.067 332.564 398.064 332.562C396.156 331.097 394.71 329.167 393.578 327.11C392.462 325.04 391.598 322.845 391.023 320.574C391.016 320.547 391.032 320.52 391.059 320.513C391.087 320.506 391.115 320.524 391.122 320.55Z" fill="#B7CA79"/>
<path d="M394.361 323.006L393.334 325.911C393.301 326.005 393.197 326.055 393.103 326.022C393.008 325.989 392.959 325.885 392.992 325.791C392.994 325.786 392.996 325.782 392.998 325.777L393.002 325.769L394.267 322.971C394.278 322.945 394.308 322.934 394.333 322.945C394.357 322.954 394.369 322.982 394.361 323.006Z" fill="#B7CA79"/>
<path d="M391.405 329.361C392.737 329.349 394.078 329.338 395.394 329.203C395.46 329.194 395.522 329.24 395.531 329.307C395.54 329.373 395.494 329.435 395.427 329.444C395.427 329.444 395.42 329.445 395.418 329.445C394.072 329.535 392.739 329.497 391.403 329.462C391.375 329.461 391.353 329.438 391.354 329.41C391.355 329.383 391.378 329.361 391.405 329.361Z" fill="#B7CA79"/>
<path d="M334.099 366.899C334.099 366.899 337.018 365.52 340.475 364.276C344.749 362.738 348.43 366.596 348.43 366.596C348.43 366.596 345.191 370.742 342.456 371.078C337.468 371.691 334.099 366.899 334.099 366.899Z" fill="#677E52"/>
<path d="M334.387 366.723C336.639 367.31 338.968 367.609 341.284 367.628C343.597 367.63 345.927 367.291 348.017 366.375L348.023 366.373C348.179 366.305 348.36 366.375 348.428 366.53C348.496 366.685 348.425 366.867 348.27 366.935C348.267 366.936 348.263 366.938 348.26 366.939C346.023 367.822 343.624 368.072 341.278 367.985C338.928 367.879 336.602 367.492 334.358 366.818C334.331 366.81 334.316 366.782 334.324 366.755C334.332 366.73 334.361 366.716 334.387 366.723Z" fill="#B7CA79"/>
<path d="M338.158 365.207L340.122 367.581C340.186 367.658 340.175 367.772 340.098 367.836C340.021 367.9 339.907 367.889 339.843 367.812C339.84 367.808 339.837 367.804 339.834 367.8L339.829 367.792L338.079 365.269C338.063 365.246 338.068 365.215 338.09 365.199C338.111 365.183 338.141 365.188 338.158 365.207Z" fill="#B7CA79"/>
<path d="M342.09 371.008C342.764 369.86 343.445 368.704 344.004 367.506C344.03 367.444 344.102 367.415 344.163 367.442C344.225 367.468 344.254 367.54 344.227 367.602L344.223 367.61C343.609 368.811 342.891 369.935 342.174 371.063C342.159 371.086 342.128 371.094 342.105 371.079C342.083 371.063 342.077 371.031 342.09 371.008Z" fill="#B7CA79"/>
<path d="M328.787 269.529C328.787 269.529 330.908 268.801 333.389 268.207C336.457 267.473 338.703 270.417 338.703 270.417C338.703 270.417 336.15 273.031 334.236 273.054C330.746 273.094 328.787 269.529 328.787 269.529Z" fill="#677E52"/>
<path d="M328.999 269.43C330.509 270.008 332.093 270.392 333.691 270.583C335.288 270.762 336.921 270.706 338.434 270.233C338.546 270.195 338.667 270.256 338.705 270.367C338.742 270.479 338.682 270.6 338.57 270.638C338.568 270.639 338.56 270.641 338.558 270.642C336.946 271.08 335.271 271.069 333.658 270.829C332.044 270.576 330.468 270.131 328.971 269.494C328.953 269.486 328.945 269.466 328.953 269.448C328.96 269.431 328.982 269.423 328.999 269.43Z" fill="#B7CA79"/>
<path d="M331.718 268.672L332.892 270.461C332.93 270.519 332.914 270.597 332.856 270.635C332.798 270.673 332.72 270.657 332.682 270.599C332.68 270.596 332.678 270.593 332.677 270.59L332.674 270.584L331.659 268.708C331.649 268.691 331.655 268.67 331.672 268.66C331.687 268.652 331.708 268.657 331.718 268.672Z" fill="#B7CA79"/>
<path d="M333.989 272.977L335.579 270.705L335.587 270.694C335.614 270.656 335.666 270.648 335.704 270.674C335.742 270.701 335.751 270.753 335.725 270.791L335.723 270.792L334.044 273.02C334.032 273.035 334.011 273.037 333.995 273.026C333.979 273.015 333.978 272.993 333.989 272.977Z" fill="#B7CA79"/>
<path d="M356.679 331.977C356.679 331.977 353.153 335.266 349.517 339.377C345.022 344.459 348.342 351.698 348.342 351.698C348.342 351.698 355.885 349.494 357.862 345.883C361.468 339.3 356.679 331.977 356.679 331.977Z" fill="#677E52"/>
<path d="M356.427 332.293C356.122 335.779 355.374 339.221 354.224 342.54C353.638 344.197 352.909 345.806 352.058 347.356C351.185 348.896 350.128 350.335 348.915 351.652C348.743 351.839 348.453 351.851 348.266 351.679C348.079 351.507 348.067 351.217 348.239 351.03C348.242 351.027 348.246 351.023 348.249 351.02L348.265 351.004C349.459 349.796 350.529 348.452 351.432 346.987C352.313 345.511 353.086 343.962 353.723 342.352C354.975 339.127 355.847 335.73 356.276 332.28C356.279 332.238 356.315 332.207 356.357 332.21C356.398 332.214 356.428 332.253 356.427 332.293Z" fill="#B7CA79"/>
<path d="M352.22 336.599L354.755 340.422L354.762 340.433C354.845 340.558 354.811 340.726 354.686 340.808C354.561 340.891 354.393 340.857 354.311 340.732C354.307 340.726 354.303 340.719 354.299 340.712L352.09 336.675C352.07 336.639 352.083 336.593 352.12 336.573C352.154 336.555 352.198 336.567 352.22 336.599Z" fill="#B7CA79"/>
<path d="M357.995 345.486C356.033 345.858 354.077 346.233 352.071 346.422C351.971 346.431 351.883 346.358 351.873 346.258C351.864 346.158 351.937 346.07 352.037 346.06C352.039 346.06 352.041 346.06 352.043 346.06H352.05C354.022 345.945 356.002 345.639 357.968 345.338C358.009 345.331 358.048 345.358 358.055 345.4C358.062 345.439 358.034 345.477 357.995 345.486Z" fill="#B7CA79"/>
<path d="M418.237 338.001C418.237 338.001 413.453 337.392 407.969 337.223C401.188 337.015 397.743 344.195 397.743 344.195C397.743 344.195 404.26 348.587 408.3 347.799C415.667 346.365 418.237 338.001 418.237 338.001Z" fill="#677E52"/>
<path d="M417.833 338.008C414.958 340.002 411.832 341.628 408.544 342.865C406.895 343.473 405.192 343.941 403.456 344.278C401.713 344.591 399.931 344.697 398.143 344.606C397.89 344.593 397.695 344.378 397.708 344.124C397.721 343.871 397.937 343.676 398.19 343.689C398.195 343.689 398.199 343.69 398.204 343.69L398.226 343.692C399.919 343.838 401.636 343.802 403.339 343.56C405.037 343.294 406.722 342.9 408.368 342.36C411.649 341.261 414.819 339.759 417.746 337.884C417.78 337.86 417.827 337.868 417.851 337.901C417.875 337.935 417.864 337.983 417.833 338.008Z" fill="#B7CA79"/>
<path d="M411.832 337.527L410.513 341.92L410.509 341.933C410.466 342.076 410.315 342.158 410.172 342.115C410.029 342.072 409.948 341.921 409.991 341.778C409.993 341.771 409.996 341.763 409.998 341.756L411.691 337.477C411.706 337.438 411.75 337.419 411.789 337.435C411.824 337.448 411.843 337.489 411.832 337.527Z" fill="#B7CA79"/>
<path d="M408.689 347.648C407.149 346.377 405.61 345.112 404.182 343.69C404.111 343.619 404.111 343.504 404.181 343.433C404.252 343.362 404.367 343.362 404.438 343.432L404.442 343.436L404.447 343.441C405.796 344.884 407.297 346.212 408.785 347.531C408.817 347.558 408.82 347.606 408.793 347.637C408.768 347.67 408.721 347.673 408.689 347.648Z" fill="#B7CA79"/>
<path d="M337.37 316.796C337.37 316.796 334.833 319.163 332.217 322.12C328.983 325.777 331.371 330.986 331.371 330.986C331.371 330.986 336.799 329.4 338.221 326.802C340.816 322.065 337.37 316.796 337.37 316.796Z" fill="#677E52"/>
<path d="M337.189 317.022C336.97 319.53 336.431 322.007 335.604 324.396C334.758 326.773 333.556 329.07 331.784 330.953C331.659 331.086 331.45 331.093 331.317 330.968C331.184 330.843 331.178 330.633 331.303 330.5C331.304 330.498 331.306 330.497 331.308 330.495L331.317 330.486C332.176 329.617 332.946 328.651 333.596 327.597C334.23 326.535 334.786 325.42 335.244 324.261C336.145 321.94 336.773 319.496 337.081 317.014C337.083 316.984 337.109 316.962 337.139 316.964C337.168 316.965 337.19 316.993 337.189 317.022Z" fill="#B7CA79"/>
<path d="M334.161 320.122L335.985 322.873L335.99 322.881C336.05 322.971 336.025 323.092 335.935 323.151C335.845 323.21 335.724 323.186 335.665 323.096C335.662 323.091 335.659 323.087 335.656 323.082L334.067 320.177C334.053 320.151 334.062 320.118 334.088 320.103C334.114 320.089 334.146 320.098 334.161 320.122Z" fill="#B7CA79"/>
<path d="M338.317 326.516C336.905 326.784 335.498 327.054 334.054 327.19C333.982 327.197 333.919 327.144 333.912 327.072C333.905 327 333.958 326.936 334.03 326.93L334.039 326.929C335.458 326.846 336.883 326.626 338.298 326.41C338.328 326.405 338.355 326.425 338.361 326.454C338.365 326.482 338.346 326.51 338.317 326.516Z" fill="#B7CA79"/>
<path d="M380.238 281.703C380.238 281.703 377.701 284.07 375.085 287.027C371.851 290.684 374.24 295.893 374.24 295.893C374.24 295.893 379.667 294.307 381.09 291.709C383.684 286.972 380.238 281.703 380.238 281.703Z" fill="#677E52"/>
<path d="M380.057 281.931C379.838 284.439 379.299 286.916 378.472 289.305C377.626 291.682 376.424 293.979 374.652 295.862C374.527 295.995 374.318 296.001 374.185 295.876C374.052 295.751 374.046 295.542 374.171 295.409C374.172 295.407 374.174 295.406 374.175 295.404L374.184 295.395C375.043 294.525 375.813 293.559 376.463 292.505C377.097 291.443 377.653 290.33 378.111 289.171C379.012 286.85 379.64 284.405 379.948 281.923C379.95 281.893 379.976 281.871 380.006 281.873C380.036 281.874 380.058 281.902 380.057 281.931Z" fill="#B7CA79"/>
<path d="M377.03 285.029L378.854 287.78L378.859 287.788C378.918 287.878 378.894 288 378.804 288.059C378.714 288.119 378.593 288.093 378.534 288.003C378.531 287.998 378.528 287.995 378.525 287.99L376.935 285.084C376.921 285.058 376.93 285.026 376.957 285.011C376.983 284.998 377.014 285.006 377.03 285.029Z" fill="#B7CA79"/>
<path d="M381.186 291.425C379.774 291.693 378.366 291.961 376.923 292.097C376.851 292.104 376.788 292.051 376.781 291.979C376.774 291.907 376.827 291.843 376.899 291.837L376.908 291.836C378.327 291.753 379.752 291.534 381.167 291.317C381.197 291.312 381.225 291.331 381.23 291.36C381.234 291.39 381.214 291.419 381.186 291.425Z" fill="#B7CA79"/>
<path d="M359.004 265.629C359.004 265.629 356.467 267.996 353.851 270.953C350.617 274.609 353.006 279.819 353.006 279.819C353.006 279.819 358.433 278.233 359.856 275.635C362.45 270.897 359.004 265.629 359.004 265.629Z" fill="#677E52"/>
<path d="M358.823 265.856C358.604 268.364 358.065 270.841 357.238 273.23C356.392 275.607 355.19 277.904 353.418 279.787C353.293 279.92 353.084 279.926 352.951 279.801C352.818 279.676 352.812 279.467 352.937 279.334C352.937 279.334 352.94 279.331 352.942 279.329L352.951 279.32C353.81 278.45 354.58 277.484 355.23 276.43C355.864 275.368 356.42 274.254 356.878 273.095C357.779 270.774 358.406 268.33 358.715 265.848C358.717 265.818 358.743 265.796 358.773 265.798C358.802 265.799 358.824 265.827 358.823 265.856Z" fill="#B7CA79"/>
<path d="M355.795 268.954L357.619 271.705L357.624 271.713C357.684 271.803 357.659 271.924 357.569 271.983C357.479 272.043 357.358 272.018 357.299 271.928C357.296 271.923 357.293 271.918 357.291 271.914L355.701 269.009C355.687 268.983 355.696 268.95 355.723 268.935C355.748 268.922 355.78 268.931 355.795 268.954Z" fill="#B7CA79"/>
<path d="M359.951 275.349C358.539 275.617 357.132 275.886 355.688 276.023C355.616 276.03 355.552 275.977 355.546 275.905C355.539 275.833 355.592 275.77 355.664 275.763L355.673 275.762C357.092 275.679 358.517 275.46 359.932 275.242C359.962 275.237 359.989 275.257 359.995 275.286C360 275.315 359.98 275.343 359.951 275.349Z" fill="#B7CA79"/>
<path d="M407.271 294.201C407.271 294.201 402.867 292.887 397.735 291.879C391.39 290.633 387.038 296.852 387.038 296.852C387.038 296.852 392.486 301.992 396.408 301.878C403.559 301.669 407.271 294.201 407.271 294.201Z" fill="#677E52"/>
<path d="M406.89 294.145C403.877 295.575 400.686 296.619 397.403 297.273C395.758 297.59 394.084 297.766 392.399 297.814C390.712 297.838 389.019 297.663 387.352 297.301C387.116 297.25 386.966 297.017 387.017 296.78C387.068 296.544 387.301 296.394 387.538 296.445C387.543 296.446 387.547 296.447 387.551 296.448L387.572 296.453C389.141 296.853 390.762 297.085 392.401 297.121C394.039 297.134 395.685 297.023 397.316 296.771C400.572 296.246 403.785 295.326 406.828 294.015C406.863 293.997 406.907 294.012 406.924 294.048C406.941 294.084 406.924 294.127 406.89 294.145Z" fill="#B7CA79"/>
<path d="M401.321 292.762L399.4 296.689L399.394 296.7C399.331 296.828 399.177 296.881 399.049 296.818C398.921 296.755 398.868 296.601 398.931 296.473C398.934 296.466 398.938 296.46 398.941 296.454L401.196 292.692C401.216 292.658 401.26 292.647 401.294 292.667C401.326 292.687 401.337 292.729 401.321 292.762Z" fill="#B7CA79"/>
<path d="M396.798 301.794C395.546 300.36 394.295 298.932 393.173 297.374C393.117 297.297 393.135 297.188 393.212 297.133C393.289 297.077 393.398 297.095 393.453 297.172C393.453 297.172 393.455 297.175 393.456 297.177L393.46 297.183C394.505 298.749 395.711 300.23 396.906 301.701C396.931 301.731 396.928 301.777 396.897 301.802C396.869 301.827 396.824 301.823 396.798 301.794Z" fill="#B7CA79"/>
<path d="M361.707 413.728C364.566 400.38 367.331 386.983 369.918 373.578C371.201 366.874 372.454 360.161 373.534 353.449C374.065 350.1 374.575 346.722 374.851 343.447L374.916 342.257C374.923 341.889 374.92 341.494 374.905 341.087C374.878 340.275 374.826 339.438 374.764 338.6C374.641 336.922 374.482 335.23 374.311 333.539C372.883 319.99 370.972 306.43 368.938 292.915C367.906 286.157 366.823 279.406 365.631 272.674C365.033 269.308 364.409 265.947 363.719 262.6C363.373 260.927 363.009 259.257 362.605 257.597C362.183 255.945 361.798 254.269 361.082 252.714C361.864 254.24 362.322 255.905 362.814 257.541C363.289 259.186 363.724 260.843 364.141 262.503C364.973 265.825 365.74 269.162 366.481 272.504C367.959 279.19 369.328 285.899 370.647 292.617C373.256 306.065 375.738 319.52 377.755 333.116C378 334.819 378.234 336.525 378.434 338.253C378.534 339.117 378.627 339.984 378.694 340.88C378.729 341.327 378.754 341.787 378.765 342.275L378.751 343.648C378.607 347.202 378.237 350.614 377.847 354.042C377.052 360.882 376.089 367.671 375.096 374.457C373.088 388.025 370.909 401.54 368.626 415.066L361.707 413.728Z" fill="#77614D"/>
<path d="M372.753 318.722C374.575 314.108 376.488 309.57 378.46 305.041C380.439 300.52 382.469 296.021 384.606 291.573C386.751 287.129 388.946 282.71 391.308 278.379C393.677 274.053 396.158 269.786 398.903 265.696C393.835 274.147 389.729 283.105 385.892 292.151C383.978 296.678 382.172 301.25 380.418 305.839C378.675 310.429 376.98 315.054 375.404 319.681L372.753 318.722Z" fill="#77614D"/>
<path d="M369.254 293.773C365.984 292.341 363.096 290.608 360.257 288.681C357.445 286.75 354.757 284.651 352.274 282.334C349.79 280.024 347.424 277.591 345.319 274.947C343.149 272.358 341.284 269.539 339.505 266.693C341.482 269.411 343.525 272.074 345.85 274.483C348.109 276.947 350.606 279.176 353.191 281.264C355.775 283.358 358.538 285.218 361.388 286.895C364.222 288.553 367.249 290.067 370.22 291.125L369.254 293.773Z" fill="#77614D"/>
<path d="M368.458 386.361C359.959 375.257 351.604 364.09 343.411 352.784C339.314 347.134 335.26 341.452 331.3 335.705C327.345 329.956 323.433 324.172 319.805 318.217C323.834 323.907 328.126 329.394 332.459 334.845C336.795 340.293 341.222 345.669 345.688 351.011C354.615 361.694 363.717 372.254 372.908 382.684L368.458 386.361Z" fill="#77614D"/>
<path d="M372.671 363.019C376.919 359.116 381.045 354.91 384.985 350.608C388.931 346.293 392.696 341.809 396.2 337.127C399.695 332.441 402.918 327.54 405.582 322.331C406.888 319.717 408.047 317.024 408.94 314.236C409.827 311.451 410.453 308.558 410.545 305.609C410.624 308.558 410.165 311.511 409.431 314.376C408.692 317.245 407.676 320.039 406.506 322.765C404.115 328.196 401.135 333.351 397.871 338.3C394.597 343.246 391.048 348.006 387.305 352.606C383.548 357.212 379.672 361.657 375.488 365.973L372.671 363.019Z" fill="#77614D"/>
<path d="M398.601 353.944C398.601 353.944 395.198 352.753 391.214 351.775C386.288 350.566 382.65 355.279 382.65 355.279C382.65 355.279 386.731 359.506 389.807 359.56C395.418 359.659 398.601 353.944 398.601 353.944Z" fill="#677E52"/>
<path d="M398.304 353.887C395.891 354.897 393.352 355.598 390.755 355.99C389.454 356.178 388.136 356.255 386.815 356.23C385.492 356.187 384.172 355.988 382.879 355.643C382.696 355.594 382.587 355.406 382.636 355.223C382.685 355.04 382.873 354.931 383.056 354.98C383.059 354.981 383.063 354.982 383.066 354.983L383.082 354.988C384.297 355.359 385.558 355.6 386.841 355.689C388.124 355.759 389.418 355.733 390.705 355.595C393.275 355.303 395.827 354.7 398.259 353.785C398.288 353.772 398.321 353.786 398.333 353.814C398.346 353.841 398.332 353.874 398.304 353.887Z" fill="#B7CA79"/>
<path d="M393.992 352.599L392.342 355.606L392.337 355.615C392.283 355.713 392.16 355.749 392.062 355.695C391.964 355.641 391.928 355.518 391.982 355.42C391.985 355.415 391.988 355.41 391.991 355.405L393.896 352.54C393.913 352.514 393.948 352.507 393.974 352.524C393.999 352.54 394.006 352.574 393.992 352.599Z" fill="#B7CA79"/>
<path d="M390.117 359.509C389.189 358.339 388.261 357.175 387.439 355.913C387.398 355.85 387.416 355.766 387.478 355.725C387.541 355.684 387.625 355.702 387.666 355.765L387.671 355.773C388.433 357.038 389.323 358.243 390.206 359.44C390.225 359.465 390.22 359.5 390.196 359.519C390.171 359.537 390.136 359.532 390.117 359.509Z" fill="#B7CA79"/>
</svg>
