<svg width="500" height="500" viewBox="0 0 500 500" fill="none" xmlns="http://www.w3.org/2000/svg">
<path d="M57.123 297.862C57.123 297.862 64.198 359.592 116.658 385.963C169.118 412.333 220.505 386.678 267.68 380.498C292.385 377.261 315.294 389.408 339.518 391.952C416.973 400.083 477.757 308.808 466.854 241.666C457.415 183.541 420.273 142.516 352.593 113.245C284.913 83.974 238.36 60.683 159.747 88.209C81.133 115.734 51.518 217.937 57.123 297.862Z" fill="#ECF9EF"/>
<path opacity="0.8" d="M57.123 297.862C57.123 297.862 64.198 359.592 116.658 385.963C169.118 412.333 220.505 386.678 267.68 380.498C292.385 377.261 315.294 389.408 339.518 391.952C416.973 400.083 477.757 308.808 466.854 241.666C457.415 183.541 420.273 142.516 352.593 113.245C284.913 83.974 238.36 60.683 159.747 88.209C81.133 115.734 51.518 217.937 57.123 297.862Z" fill="#ECF9EF"/>
<path d="M270.983 219.555C295.097 216.197 311.923 193.928 308.565 169.814C305.208 145.7 282.938 128.874 258.824 132.231C234.71 135.589 217.884 157.859 221.242 181.972C224.599 206.086 246.869 222.912 270.983 219.555Z" stroke="#263238" stroke-width="1.1775" stroke-miterlimit="10" stroke-linecap="round" stroke-linejoin="round"/>
<path d="M271.784 211.781C291.6 207.99 304.591 188.853 300.8 169.036C297.009 149.22 277.872 136.229 258.055 140.02C238.239 143.811 225.248 162.948 229.039 182.765C232.83 202.581 251.967 215.572 271.784 211.781Z" stroke="#263238" stroke-width="1.1775" stroke-miterlimit="10" stroke-linecap="round" stroke-linejoin="round"/>
<path d="M241.61 175.909H264.912V209.529" stroke="#263238" stroke-width="1.1775" stroke-miterlimit="10" stroke-linecap="round" stroke-linejoin="round"/>
<path d="M98.649 152.47C98.649 152.47 98.649 146.559 90.373 138.283C82.097 130.007 76.777 125.278 76.777 125.278C76.777 125.278 72.639 138.874 80.324 147.15C88.009 155.426 98.649 163.111 98.649 163.111V152.47Z" fill="#518C4C"/>
<path d="M86.638 189.388C86.638 189.388 86.638 183.477 78.362 175.201C70.086 166.925 64.766 162.196 64.766 162.196C64.766 162.196 60.628 175.792 68.313 184.068C75.998 192.344 86.638 200.029 86.638 200.029V189.388Z" fill="#518C4C"/>
<path d="M98.1289 162.538C98.1289 162.538 98.7539 156.66 107.858 149.305C116.962 141.95 122.752 137.81 122.752 137.81C122.752 137.81 125.43 151.767 116.914 159.185C108.398 166.603 97.0049 173.12 97.0049 173.12L98.1289 162.538Z" fill="#689F38"/>
<path d="M83.619 206.138C83.619 206.138 84.858 200.358 94.684 194C104.51 187.642 110.703 184.132 110.703 184.132C110.703 184.132 111.9 198.293 102.652 204.776C93.404 211.258 81.389 216.542 81.389 216.542L83.619 206.138Z" fill="#518C4C"/>
<path d="M86.347 253.674C86.347 253.674 86.347 247.763 94.623 239.486C102.899 231.21 108.219 226.481 108.219 226.481C108.219 226.481 112.357 240.077 104.672 248.353C96.988 256.629 86.347 264.314 86.347 264.314V253.674Z" fill="#518C4C"/>
<path d="M86.209 265.277C86.209 265.277 87.049 259.425 80.033 250.057C73.017 240.689 68.423 235.252 68.423 235.252C68.423 235.252 62.395 248.122 68.826 257.406C75.257 266.69 84.697 275.809 84.697 275.809L86.209 265.277Z" fill="#518C4C"/>
<path d="M78.048 299.663C78.048 299.663 78.048 293.752 86.324 285.476C94.6 277.2 99.92 272.471 99.92 272.471C99.92 272.471 104.058 286.067 96.373 294.343C88.688 302.619 78.048 310.304 78.048 310.304V299.663Z" fill="#518C4C"/>
<path d="M83.575 330.84C83.575 330.84 82.078 325.122 87.988 315.019C93.898 304.917 97.847 298.994 97.847 298.994C97.847 298.994 105.293 311.099 99.955 321.051C94.617 331.003 86.27 341.133 86.27 341.133L83.575 330.84Z" fill="#689F38"/>
<path d="M99.399 150.955C98.915 157.274 98.197 163.811 97.132 169.31C93.86 186.212 85.682 197.117 82.41 212.384C79.138 227.651 88.53 247.319 86.015 266.928C83.5 286.537 75.867 297.442 78.048 310.527C80.229 323.613 91.679 359.053 91.679 359.053" stroke="#263238" stroke-width="1.1775" stroke-miterlimit="10" stroke-linecap="round" stroke-linejoin="round"/>
<path d="M98.047 166.467L106.966 159.623" stroke="#263238" stroke-width="1.1775" stroke-miterlimit="10" stroke-linecap="round" stroke-linejoin="round"/>
<path d="M98.4629 158.585L94.7289 151.948" stroke="#263238" stroke-width="1.1775" stroke-miterlimit="10" stroke-linecap="round" stroke-linejoin="round"/>
<path d="M82.9059 211.682C82.9059 211.682 90.3729 206.082 98.0469 200.482" stroke="#263238" stroke-width="1.1775" stroke-miterlimit="10" stroke-linecap="round" stroke-linejoin="round"/>
<path d="M86.638 200.028C86.638 200.028 80.417 187.83 73.365 179.741" stroke="#263238" stroke-width="1.1775" stroke-miterlimit="10" stroke-linecap="round" stroke-linejoin="round"/>
<path d="M86.64 262.083C86.64 262.083 92.448 250.675 102.61 240.72" stroke="#263238" stroke-width="1.1775" stroke-miterlimit="10" stroke-linecap="round" stroke-linejoin="round"/>
<path d="M85.188 270.38C85.188 270.38 81.454 261.461 77.099 255.032C72.743 248.602 72.121 247.773 72.121 247.773" stroke="#263238" stroke-width="1.1775" stroke-miterlimit="10" stroke-linecap="round" stroke-linejoin="round"/>
<path d="M78.049 310.527C78.049 310.527 81.0399 302.943 84.7729 296.928C88.5059 290.913 93.4839 285.52 93.4839 285.52" stroke="#263238" stroke-width="1.1775" stroke-miterlimit="10" stroke-linecap="round" stroke-linejoin="round"/>
<path d="M86.27 341.133C86.27 341.133 85.396 334.054 88.507 328.039C91.618 322.024 95.144 314.143 96.596 311.032" stroke="#263238" stroke-width="1.1775" stroke-miterlimit="10" stroke-linecap="round" stroke-linejoin="round"/>
<path d="M44.456 231.426C44.456 231.426 43.814 227.719 48.106 221.631C52.397 215.543 55.22 212 55.22 212C55.22 212 59.291 220.077 55.37 226.101C51.449 232.125 45.611 238.099 45.611 238.099L44.456 231.426Z" fill="#92E3A9"/>
<path d="M55.995 253.273C55.995 253.273 55.353 249.566 59.644 243.478C63.935 237.39 66.758 233.847 66.758 233.847C66.758 233.847 70.829 241.924 66.908 247.948C62.987 253.972 57.149 259.946 57.149 259.946L55.995 253.273Z" fill="#92E3A9"/>
<path d="M45.875 237.683C45.875 237.683 44.845 234.065 38.338 230.441C31.831 226.817 27.75 224.849 27.75 224.849C27.75 224.849 27.586 233.892 33.731 237.619C39.877 241.346 47.728 244.196 47.728 244.196L45.875 237.683Z" fill="#92E3A9"/>
<path d="M59.707 263.449C59.707 263.449 58.303 259.959 51.451 257.038C44.599 254.118 40.334 252.589 40.334 252.589C40.334 252.589 41.121 261.599 47.624 264.66C54.127 267.721 62.235 269.73 62.235 269.73L59.707 263.449Z" fill="#92E3A9"/>
<path d="M63.157 293.553C63.157 293.553 62.515 289.846 56.428 285.555C50.34 281.264 46.49 278.876 46.49 278.876C46.49 278.876 45.371 287.851 51.088 292.206C56.805 296.562 64.312 300.225 64.312 300.225L63.157 293.553Z" fill="#92E3A9"/>
<path d="M64.503 300.815C64.503 300.815 63.341 297.237 66.724 290.601C70.106 283.965 72.397 280.057 72.397 280.057C72.397 280.057 77.574 287.473 74.55 293.993C71.525 300.513 66.595 307.256 66.595 307.256L64.503 300.815Z" fill="#92E3A9"/>
<path d="M74.891 330.715C74.891 330.715 75.32 326.978 81.153 322.346C86.986 317.714 90.693 315.111 90.693 315.111C90.693 315.111 92.323 324.008 86.863 328.682C81.404 333.356 74.118 337.443 74.118 337.443L74.891 330.715Z" fill="#92E3A9"/>
<path d="M73.353 321.492C73.353 321.492 72.711 317.785 66.623 313.494C60.535 309.203 56.686 306.815 56.686 306.815C56.686 306.815 55.567 315.79 61.284 320.146C67.001 324.501 74.508 328.165 74.508 328.165L73.353 321.492Z" fill="#92E3A9"/>
<path d="M73.272 341.642C73.272 341.642 73.59 337.893 68.787 332.2C63.984 326.507 60.865 323.222 60.865 323.222C60.865 323.222 57.509 331.621 61.937 337.282C66.365 342.944 72.699 348.389 72.699 348.389L73.272 341.642Z" fill="#92E3A9"/>
<path d="M43.821 230.558C44.811 234.467 45.971 238.489 47.235 241.822C51.121 252.066 57.434 258.016 61.143 267.235C64.852 276.453 61.098 289.807 64.803 301.83C68.508 313.853 74.479 319.863 74.532 328.305C74.585 336.747 71.252 360.215 71.252 360.215" stroke="#263238" stroke-width="1.1775" stroke-miterlimit="10" stroke-linecap="round" stroke-linejoin="round"/>
<path d="M46.353 240.138L40.017 236.814" stroke="#263238" stroke-width="1.1775" stroke-miterlimit="10" stroke-linecap="round" stroke-linejoin="round"/>
<path d="M45.237 235.241L46.857 230.673" stroke="#263238" stroke-width="1.1775" stroke-miterlimit="10" stroke-linecap="round" stroke-linejoin="round"/>
<path d="M60.756 266.848C60.756 266.848 55.466 264.147 50.046 261.468" stroke="#263238" stroke-width="1.1775" stroke-miterlimit="10" stroke-linecap="round" stroke-linejoin="round"/>
<path d="M57.15 259.945C57.15 259.945 59.727 251.621 63.271 245.782" stroke="#263238" stroke-width="1.1775" stroke-miterlimit="10" stroke-linecap="round" stroke-linejoin="round"/>
<path d="M63.886 298.859C63.886 298.859 59.006 292.336 51.552 287.196" stroke="#263238" stroke-width="1.1775" stroke-miterlimit="10" stroke-linecap="round" stroke-linejoin="round"/>
<path d="M65.697 303.904C65.697 303.904 67.07 297.906 69.103 293.401C71.137 288.896 71.437 288.309 71.437 288.309" stroke="#263238" stroke-width="1.1775" stroke-miterlimit="10" stroke-linecap="round" stroke-linejoin="round"/>
<path d="M74.245 334.708C74.245 334.708 78.444 329.561 81.058 327.635C83.671 325.709 85.482 323.788 85.482 323.788" stroke="#263238" stroke-width="1.1775" stroke-miterlimit="10" stroke-linecap="round" stroke-linejoin="round"/>
<path d="M74.533 328.304C74.533 328.304 71.834 323.873 68.84 320.506C65.846 317.14 62.139 314.298 62.139 314.298" stroke="#263238" stroke-width="1.1775" stroke-miterlimit="10" stroke-linecap="round" stroke-linejoin="round"/>
<path d="M72.7 348.389C72.7 348.389 72.48 343.855 69.876 340.421C67.272 336.987 64.205 332.427 62.957 330.634" stroke="#263238" stroke-width="1.1775" stroke-miterlimit="10" stroke-linecap="round" stroke-linejoin="round"/>
<path d="M100.261 400.656H62.567C61.016 400.656 59.759 399.399 59.759 397.848L54.345 356.137H108.482L103.068 397.848C103.068 399.399 101.811 400.656 100.261 400.656Z" fill="#263238"/>
<path d="M108.011 363.199H54.345C52.005 363.199 50.108 361.302 50.108 358.962C50.108 356.622 52.005 354.725 54.345 354.725H108.011C110.351 354.725 112.248 356.622 112.248 358.962C112.248 361.302 110.351 363.199 108.011 363.199Z" fill="#263238"/>
<path d="M382.01 365.983L398.607 392.722C400.722 396.13 398.271 400.535 394.261 400.535H361.756H318.268H360.356C364.356 400.535 366.808 396.151 364.715 392.743L348.649 366.579L382.01 365.983Z" fill="white" stroke="#263238" stroke-width="1.1775" stroke-miterlimit="10" stroke-linecap="round" stroke-linejoin="round"/>
<path d="M382.01 365.983L348.649 366.579L354.827 376.64H388.624L382.01 365.983Z" fill="#263238" stroke="#263238" stroke-width="1.1775" stroke-miterlimit="10" stroke-linecap="round" stroke-linejoin="round"/>
<path d="M293.179 371.94H429.139C430.747 371.94 432.051 370.636 432.051 369.028V255.11C432.051 253.502 430.748 252.198 429.139 252.198H293.179C291.571 252.198 290.267 253.501 290.267 255.11V369.029C290.267 370.637 291.571 371.94 293.179 371.94Z" fill="white" stroke="#263238" stroke-width="1.1775" stroke-miterlimit="10" stroke-linecap="round" stroke-linejoin="round"/>
<path d="M287.818 371.94H423.778C425.386 371.94 426.69 370.636 426.69 369.028V255.11C426.69 253.502 425.386 252.198 423.778 252.198H287.818C286.21 252.198 284.906 253.501 284.906 255.11V369.029C284.906 370.637 286.21 371.94 287.818 371.94Z" fill="white" stroke="#263238" stroke-width="1.1775" stroke-miterlimit="10" stroke-linecap="round" stroke-linejoin="round"/>
<path d="M289.672 252.199H421.924C424.556 252.199 426.69 254.333 426.69 256.965V350.494H284.906V256.965C284.906 254.332 287.04 252.199 289.672 252.199Z" fill="#263238" stroke="#263238" stroke-width="1.1775" stroke-miterlimit="10" stroke-linecap="round" stroke-linejoin="round"/>
<path d="M290.863 343.94H420.732V256.964H290.863V343.94Z" fill="white" stroke="#263238" stroke-width="1.1775" stroke-miterlimit="10" stroke-linecap="round" stroke-linejoin="round"/>
<path d="M252.546 394.548H248.421V395.923H252.546V394.548Z" fill="white" stroke="#263238" stroke-width="1.1775" stroke-miterlimit="10" stroke-linecap="round" stroke-linejoin="round"/>
<path d="M258.046 394.548H253.921V395.923H258.046V394.548Z" fill="white" stroke="#263238" stroke-width="1.1775" stroke-miterlimit="10" stroke-linecap="round" stroke-linejoin="round"/>
<path d="M263.545 394.548H259.42V395.923H263.545V394.548Z" fill="white" stroke="#263238" stroke-width="1.1775" stroke-miterlimit="10" stroke-linecap="round" stroke-linejoin="round"/>
<path d="M269.045 394.548H264.92V395.923H269.045V394.548Z" fill="white" stroke="#263238" stroke-width="1.1775" stroke-miterlimit="10" stroke-linecap="round" stroke-linejoin="round"/>
<path d="M274.544 394.548H270.419V395.923H274.544V394.548Z" fill="white" stroke="#263238" stroke-width="1.1775" stroke-miterlimit="10" stroke-linecap="round" stroke-linejoin="round"/>
<path d="M280.044 394.548H275.919V395.923H280.044V394.548Z" fill="white" stroke="#263238" stroke-width="1.1775" stroke-miterlimit="10" stroke-linecap="round" stroke-linejoin="round"/>
<path d="M285.543 394.548H281.418V395.923H285.543V394.548Z" fill="white" stroke="#263238" stroke-width="1.1775" stroke-miterlimit="10" stroke-linecap="round" stroke-linejoin="round"/>
<path d="M291.043 394.548H286.918V395.923H291.043V394.548Z" fill="white" stroke="#263238" stroke-width="1.1775" stroke-miterlimit="10" stroke-linecap="round" stroke-linejoin="round"/>
<path d="M296.542 394.548H292.417V395.923H296.542V394.548Z" fill="white" stroke="#263238" stroke-width="1.1775" stroke-miterlimit="10" stroke-linecap="round" stroke-linejoin="round"/>
<path d="M302.042 394.548H297.917V395.923H302.042V394.548Z" fill="white" stroke="#263238" stroke-width="1.1775" stroke-miterlimit="10" stroke-linecap="round" stroke-linejoin="round"/>
<path d="M307.541 394.548H303.416V395.923H307.541V394.548Z" fill="white" stroke="#263238" stroke-width="1.1775" stroke-miterlimit="10" stroke-linecap="round" stroke-linejoin="round"/>
<path d="M313.041 394.548H308.916V395.923H313.041V394.548Z" fill="white" stroke="#263238" stroke-width="1.1775" stroke-miterlimit="10" stroke-linecap="round" stroke-linejoin="round"/>
<path d="M318.54 394.548H314.415V395.923H318.54V394.548Z" fill="white" stroke="#263238" stroke-width="1.1775" stroke-miterlimit="10" stroke-linecap="round" stroke-linejoin="round"/>
<path d="M324.04 394.548H319.915V395.923H324.04V394.548Z" fill="white" stroke="#263238" stroke-width="1.1775" stroke-miterlimit="10" stroke-linecap="round" stroke-linejoin="round"/>
<path d="M329.539 394.548H325.414V395.923H329.539V394.548Z" fill="white" stroke="#263238" stroke-width="1.1775" stroke-miterlimit="10" stroke-linecap="round" stroke-linejoin="round"/>
<path d="M335.039 394.548H330.914V395.923H335.039V394.548Z" fill="white" stroke="#263238" stroke-width="1.1775" stroke-miterlimit="10" stroke-linecap="round" stroke-linejoin="round"/>
<path d="M340.538 394.548H336.413V395.923H340.538V394.548Z" fill="white" stroke="#263238" stroke-width="1.1775" stroke-miterlimit="10" stroke-linecap="round" stroke-linejoin="round"/>
<path d="M346.038 394.548H341.913V395.923H346.038V394.548Z" fill="white" stroke="#263238" stroke-width="1.1775" stroke-miterlimit="10" stroke-linecap="round" stroke-linejoin="round"/>
<path d="M351.537 394.548H347.412V395.923H351.537V394.548Z" fill="white" stroke="#263238" stroke-width="1.1775" stroke-miterlimit="10" stroke-linecap="round" stroke-linejoin="round"/>
<path d="M357.037 394.548H352.912V395.923H357.037V394.548Z" fill="white" stroke="#263238" stroke-width="1.1775" stroke-miterlimit="10" stroke-linecap="round" stroke-linejoin="round"/>
<path d="M362.536 394.548H358.411V395.923H362.536V394.548Z" fill="white" stroke="#263238" stroke-width="1.1775" stroke-miterlimit="10" stroke-linecap="round" stroke-linejoin="round"/>
<path d="M365.539 396.122H246.292V400.567H365.539V396.122Z" fill="white" stroke="#263238" stroke-width="1.1775" stroke-miterlimit="10" stroke-linecap="round" stroke-linejoin="round"/>
<path d="M365.539 396.122H336.451V400.567H365.539V396.122Z" fill="#263238" stroke="#263238" stroke-width="1.1775" stroke-miterlimit="10" stroke-linecap="round" stroke-linejoin="round"/>
<path d="M286.71 413.327V414.667H286.07V413.298C286.07 410.821 285.137 408.752 282.456 408.752C279.746 408.752 278.813 410.821 278.813 413.298V423.731C278.813 426.208 279.746 428.249 282.456 428.249C285.138 428.249 286.07 426.208 286.07 423.731V419.098H282.893V418.515H286.711V423.702C286.711 426.528 285.546 428.86 282.428 428.86C279.338 428.86 278.173 426.528 278.173 423.702V413.328C278.173 410.5 279.338 408.17 282.428 408.17C285.546 408.168 286.71 410.499 286.71 413.327Z" fill="#263238"/>
<path d="M290.673 423.905L289.478 428.714H288.895L293.82 408.285H294.724L299.765 428.714H299.125L297.93 423.905H290.673ZM290.789 423.322H297.812L294.257 409.043L290.789 423.322Z" fill="#263238"/>
<path d="M304.717 428.713V408.926H300.288V408.313H309.817V408.926H305.359V428.713H304.717Z" fill="#263238"/>
<path d="M318.238 418.077V418.659H312.236V428.102H319.376V428.714H311.595V408.314H319.376V408.927H312.236V418.078H318.238V418.077Z" fill="#263238"/>
<path d="M326.163 428.713H325.23L321.558 408.313H322.2L325.754 427.839L329.281 408.43H330.068L333.391 427.722L336.829 408.313H337.412L333.798 428.713H332.953L329.661 409.829L326.163 428.713Z" fill="#263238"/>
<path d="M340.907 423.905L339.712 428.714H339.129L344.055 408.285H344.958L350 428.713H349.358L348.163 423.904H340.907V423.905ZM341.024 423.322H348.047L344.492 409.043L341.024 423.322Z" fill="#263238"/>
<path d="M355.448 420.466L350.698 408.313H351.338L355.797 419.591L360.255 408.313H360.925L356.087 420.466V428.713H355.447V420.466H355.448Z" fill="#263238"/>
<path d="M371.445 428.713V408.926H367.015V408.313H376.545V408.926H372.086V428.713H371.445Z" fill="#263238"/>
<path d="M378.962 408.313V428.713H378.32V408.313H378.962Z" fill="#263238"/>
<path d="M387.645 428.655H386.917L381.875 409.276V428.714H381.292V408.314H382.283L387.295 427.666L392.307 408.314H393.298V428.714H392.657V409.276L387.645 428.655Z" fill="#263238"/>
<path d="M402.273 418.077V418.659H396.27V428.102H403.41V428.714H395.629V408.314H403.41V408.927H396.27V418.078H402.273V418.077Z" fill="#263238"/>
<path d="M405.652 413.327C405.652 410.471 406.875 408.169 409.965 408.169C413.112 408.169 414.336 410.471 414.336 413.327V423.701C414.336 426.557 413.112 428.859 409.965 428.859C406.875 428.859 405.652 426.557 405.652 423.701V413.327ZM406.293 423.73C406.293 426.237 407.255 428.277 409.966 428.277C412.705 428.277 413.696 426.237 413.696 423.73V413.297C413.696 410.791 412.705 408.751 409.966 408.751C407.256 408.751 406.293 410.791 406.293 413.297V423.73Z" fill="#263238"/>
<path d="M417.249 423.701C417.249 426.149 418.124 428.276 420.833 428.276C423.543 428.276 424.418 426.149 424.418 423.701V408.313H425.03V423.672C425.03 426.47 423.923 428.859 420.833 428.859C417.716 428.859 416.608 426.47 416.608 423.672V408.313H417.249V423.701Z" fill="#263238"/>
<path d="M431.149 428.713V408.926H426.72V408.313H436.249V408.926H431.791V428.713H431.149Z" fill="#263238"/>
<path d="M316.534 313.064V318.72C316.534 323.07 318.449 324.637 321.495 324.637C324.54 324.637 326.455 323.07 326.455 318.72V305.32C326.455 300.97 324.54 299.316 321.495 299.316C318.449 299.316 316.534 300.97 316.534 305.32V307.147H307.486L309.226 271.82H334.46V280.521H317.839L317.056 295.052C318.797 292.181 321.581 290.614 325.41 290.614C332.458 290.614 336.026 295.573 336.026 304.536V318.11C336.026 327.855 331.153 333.424 321.756 333.424C312.358 333.424 307.486 327.855 307.486 318.11V313.063H316.534V313.064Z" fill="#263238"/>
<path d="M341.592 286.439C341.592 276.693 346.725 271.124 356.123 271.124C365.521 271.124 370.654 276.693 370.654 286.439V318.112C370.654 327.857 365.521 333.426 356.123 333.426C346.725 333.426 341.592 327.857 341.592 318.112V286.439ZM351.164 318.721C351.164 323.071 353.079 324.725 356.123 324.725C359.169 324.725 361.083 323.071 361.083 318.721V285.83C361.083 281.479 359.17 279.826 356.123 279.826C353.078 279.826 351.164 281.478 351.164 285.83V318.721Z" fill="#263238"/>
<path d="M374.566 312.977L391.97 271.82H402.411V312.977H406.936V321.679H402.411V332.729H393.014V321.679H374.566V312.977ZM393.014 312.977V290.093L383.355 312.977H393.014Z" fill="#263238"/>
<path d="M337.877 236.42V237.002H331.874V246.445H339.015V247.057H331.234V226.657H339.015V227.27H331.874V236.421H337.877V236.42Z" fill="#263238"/>
<path d="M345.337 226.656C348.367 226.656 349.533 228.434 349.533 231.231V233.067C349.533 235.574 348.542 236.943 346.298 237.351C348.571 237.701 349.533 239.186 349.533 241.431V244.636C349.533 245.424 349.62 246.414 350.087 247.055H349.387C348.98 246.413 348.891 245.511 348.891 244.636V241.431C348.891 238.429 347.085 237.642 344.433 237.642H341.926V247.055H341.285V226.655H345.337V226.656ZM344.433 237.032C347.26 237.032 348.891 236.303 348.891 233.156V231.291C348.891 228.814 347.93 227.27 345.307 227.27H341.926V237.032H344.433Z" fill="#263238"/>
<path d="M356.409 226.656C359.439 226.656 360.605 228.434 360.605 231.231V233.067C360.605 235.574 359.614 236.943 357.37 237.351C359.643 237.701 360.605 239.186 360.605 241.431V244.636C360.605 245.424 360.692 246.414 361.159 247.055H360.459C360.051 246.413 359.963 245.511 359.963 244.636V241.431C359.963 238.429 358.157 237.642 355.505 237.642H352.998V247.055H352.358V226.655H356.409V226.656ZM355.505 237.032C358.331 237.032 359.963 236.303 359.963 233.156V231.291C359.963 228.814 359.002 227.27 356.379 227.27H352.998V237.032H355.505Z" fill="#263238"/>
<path d="M363.401 231.669C363.401 228.814 364.626 226.512 367.714 226.512C370.861 226.512 372.086 228.814 372.086 231.669V242.044C372.086 244.9 370.861 247.202 367.714 247.202C364.625 247.202 363.401 244.9 363.401 242.044V231.669ZM364.043 242.073C364.043 244.58 365.004 246.62 367.715 246.62C370.455 246.62 371.445 244.58 371.445 242.073V231.64C371.445 229.134 370.455 227.094 367.715 227.094C365.005 227.094 364.043 229.134 364.043 231.64V242.073Z" fill="#263238"/>
<path d="M378.437 226.656C381.467 226.656 382.633 228.434 382.633 231.231V233.067C382.633 235.574 381.642 236.943 379.398 237.351C381.671 237.701 382.633 239.186 382.633 241.431V244.636C382.633 245.424 382.72 246.414 383.187 247.055H382.487C382.08 246.413 381.991 245.511 381.991 244.636V241.431C381.991 238.429 380.185 237.642 377.533 237.642H375.026V247.055H374.386V226.655H378.437V226.656ZM377.534 237.032C380.36 237.032 381.992 236.303 381.992 233.156V231.291C381.992 228.814 381.031 227.27 378.408 227.27H375.027V237.032H377.534Z" fill="#263238"/>
<path d="M192.555 247.645C192.555 247.645 197.665 238.818 199.524 242.535C201.382 246.251 200.918 254.149 198.13 257.865C195.343 261.582 194.413 263.44 193.02 260.652C191.625 257.866 192.555 247.645 192.555 247.645Z" fill="white" stroke="#263238" stroke-width="1.1775" stroke-miterlimit="10" stroke-linecap="round" stroke-linejoin="round"/>
<path d="M131.697 254.614C131.697 254.614 125.658 247.181 124.264 252.291C122.87 257.401 129.839 263.905 131.697 264.834C133.555 265.763 136.343 265.299 136.343 265.299L131.697 254.614Z" fill="white" stroke="#263238" stroke-width="1.1775" stroke-miterlimit="10" stroke-linecap="round" stroke-linejoin="round"/>
<path d="M153.944 286.513C153.944 286.513 88.648 306.288 88.648 310.02C88.648 313.752 86.782 386.883 88.275 390.987C89.768 395.091 102.08 399.196 108.797 399.196V400.689H252.075L244.986 361.138C244.986 361.138 285.283 359.646 286.029 356.661C286.775 353.676 250.647 293.992 247.289 292.126C243.931 290.26 192.749 284.649 186.779 284.649C180.808 284.647 168.122 282.035 153.944 286.513Z" fill="#92E3A9"/>
<mask id="mask0_14_442" style="mask-type:luminance" maskUnits="userSpaceOnUse" x="87" y="283" width="200" height="118">
<path d="M153.944 286.513C153.944 286.513 88.648 306.288 88.648 310.02C88.648 313.752 86.782 386.883 88.275 390.987C89.768 395.091 102.08 399.196 108.797 399.196V400.689H252.075L244.986 361.138C244.986 361.138 285.283 359.646 286.029 356.661C286.775 353.676 250.647 293.992 247.289 292.126C243.931 290.26 192.749 284.649 186.779 284.649C180.808 284.647 168.122 282.035 153.944 286.513Z" fill="white"/>
</mask>
<g mask="url(#mask0_14_442)">
<path opacity="0.3" d="M212.329 400.687C121.855 367.44 125.9 350.502 125.9 350.502L95.8799 396.351C100.135 398.04 105.244 399.194 108.797 399.194V400.687H212.329Z" fill="#385B42"/>
</g>
<mask id="mask1_14_442" style="mask-type:luminance" maskUnits="userSpaceOnUse" x="87" y="283" width="200" height="118">
<path d="M153.944 286.513C153.944 286.513 88.648 306.288 88.648 310.02C88.648 313.752 86.782 386.883 88.275 390.987C89.768 395.091 102.08 399.196 108.797 399.196V400.689H252.075L244.986 361.138C244.986 361.138 285.283 359.646 286.029 356.661C286.775 353.676 250.647 293.992 247.289 292.126C243.931 290.26 192.749 284.649 186.779 284.649C180.808 284.647 168.122 282.035 153.944 286.513Z" fill="white"/>
</mask>
<g mask="url(#mask1_14_442)">
<path opacity="0.3" d="M188.932 304.441C188.932 304.441 219.64 302.825 239.843 288.279L183.276 281.006L188.932 304.441Z" fill="#385B42"/>
</g>
<path d="M153.944 286.513C153.944 286.513 88.648 306.288 88.648 310.02C88.648 313.752 86.782 386.883 88.275 390.987C89.768 395.091 102.08 399.196 108.797 399.196V400.689H252.075L244.986 361.138C244.986 361.138 285.283 359.646 286.029 356.661C286.775 353.676 250.647 293.992 247.289 292.126C243.931 290.26 192.749 284.649 186.779 284.649C180.808 284.647 168.122 282.035 153.944 286.513Z" stroke="#030303" stroke-width="1.1775" stroke-miterlimit="10" stroke-linecap="round" stroke-linejoin="round"/>
<path d="M243.722 342.761L233.024 310.667" stroke="#030303" stroke-width="1.1775" stroke-miterlimit="10" stroke-linecap="round" stroke-linejoin="round"/>
<path d="M101.083 311.38C101.083 311.38 118.913 321.365 124.618 344.9" stroke="#030303" stroke-width="1.1775" stroke-miterlimit="10" stroke-linecap="round" stroke-linejoin="round"/>
<path d="M100.961 355.913C100.961 355.913 89.021 363.749 86.409 365.614C83.797 367.48 83.051 387.255 85.663 392.852C88.275 398.449 99.468 401.061 106.931 397.329C114.393 393.598 117.752 376.061 115.14 367.106C112.527 358.152 100.961 355.913 100.961 355.913Z" fill="#263238" stroke="#263238" stroke-width="1.1775" stroke-miterlimit="10" stroke-linecap="round" stroke-linejoin="round"/>
<path d="M144.616 290.244C144.616 290.244 145.735 308.154 149.093 320.094C152.451 332.034 158.794 347.705 158.794 347.705L180.062 330.915L208.792 338.004C208.792 338.004 203.195 308.527 199.091 298.827C194.987 289.126 186.778 281.29 186.778 281.29C186.778 281.29 155.436 277.185 144.616 290.244Z" fill="#263238" stroke="#263238" stroke-width="1.1775" stroke-miterlimit="10" stroke-linecap="round" stroke-linejoin="round"/>
<path d="M148.72 287.259C148.72 287.259 153.944 300.318 159.54 311.512C165.137 322.706 178.569 338.377 181.927 335.019C185.285 331.661 188.643 305.542 188.643 299.573C188.643 293.604 188.643 281.663 188.643 281.663C188.643 281.663 178.196 290.245 169.987 290.245C161.778 290.245 148.72 287.259 148.72 287.259Z" fill="white"/>
<mask id="mask2_14_442" style="mask-type:luminance" maskUnits="userSpaceOnUse" x="148" y="281" width="41" height="55">
<path d="M148.72 287.259C148.72 287.259 153.944 300.318 159.54 311.512C165.137 322.706 178.569 338.377 181.927 335.019C185.285 331.661 188.643 305.542 188.643 299.573C188.643 293.604 188.643 281.663 188.643 281.663C188.643 281.663 178.196 290.245 169.987 290.245C161.778 290.245 148.72 287.259 148.72 287.259Z" fill="white"/>
</mask>
<g mask="url(#mask2_14_442)">
<path d="M188.644 281.662C188.644 281.662 178.197 290.244 169.988 290.244C161.779 290.244 148.72 287.259 148.72 287.259C148.72 287.259 151.372 293.887 154.92 301.746C160.425 305.229 167.895 308.059 176.753 306.65C181.428 305.906 185.353 303.356 188.639 299.838C188.64 299.75 188.643 299.652 188.643 299.572C188.644 293.602 188.644 281.662 188.644 281.662Z" fill="#B0B3A9"/>
</g>
<mask id="mask3_14_442" style="mask-type:luminance" maskUnits="userSpaceOnUse" x="148" y="281" width="41" height="55">
<path d="M148.72 287.259C148.72 287.259 153.944 300.318 159.54 311.512C165.137 322.706 178.569 338.377 181.927 335.019C185.285 331.661 188.643 305.542 188.643 299.573C188.643 293.604 188.643 281.663 188.643 281.663C188.643 281.663 178.196 290.245 169.987 290.245C161.778 290.245 148.72 287.259 148.72 287.259Z" fill="white"/>
</mask>
<g mask="url(#mask3_14_442)">
<path opacity="0.7" d="M188.644 281.662C188.644 281.662 178.197 290.244 169.988 290.244C161.779 290.244 148.72 287.259 148.72 287.259C148.72 287.259 151.372 293.887 154.92 301.746C160.425 305.229 167.895 308.059 176.753 306.65C181.428 305.906 185.353 303.356 188.639 299.838C188.64 299.75 188.643 299.652 188.643 299.572C188.644 293.602 188.644 281.662 188.644 281.662Z" fill="white"/>
</g>
<path d="M148.72 287.259C148.72 287.259 153.944 300.318 159.54 311.512C165.137 322.706 178.569 338.377 181.927 335.019C185.285 331.661 188.643 305.542 188.643 299.573C188.643 293.604 188.643 281.663 188.643 281.663C188.643 281.663 178.196 290.245 169.987 290.245C161.778 290.245 148.72 287.259 148.72 287.259Z" stroke="#263238" stroke-width="1.1775" stroke-miterlimit="10" stroke-linecap="round" stroke-linejoin="round"/>
<path d="M130.303 250.897C130.303 250.897 138.201 276.912 143.311 283.881C148.421 290.849 162.358 297.818 172.578 297.353C182.798 296.888 191.16 286.668 193.019 276.448C194.877 266.227 193.484 242.999 193.484 242.999C193.484 242.999 191.626 232.779 183.728 219.306C175.831 205.834 135.878 216.983 131.697 227.204C127.516 237.425 130.303 250.897 130.303 250.897Z" fill="white" stroke="#263238" stroke-width="1.1775" stroke-miterlimit="10" stroke-linecap="round" stroke-linejoin="round"/>
<path d="M161.894 271.338C161.894 271.338 166.54 277.842 172.114 270.874" stroke="#263238" stroke-width="1.1775" stroke-miterlimit="10" stroke-linecap="round" stroke-linejoin="round"/>
<path d="M147.492 261.117C147.492 261.117 151.673 257.401 157.248 261.117" stroke="#263238" stroke-width="1.1775" stroke-miterlimit="10" stroke-linecap="round" stroke-linejoin="round"/>
<path d="M173.508 258.33C173.508 258.33 175.366 254.613 182.335 254.613" stroke="#263238" stroke-width="1.1775" stroke-miterlimit="10" stroke-linecap="round" stroke-linejoin="round"/>
<path d="M145.169 253.685C145.169 253.685 147.956 249.039 157.247 248.11" stroke="#263238" stroke-width="2.355" stroke-miterlimit="10" stroke-linecap="round" stroke-linejoin="round"/>
<path d="M171.138 252.264C171.138 252.264 175.659 242.874 183.728 245.787" stroke="#263238" stroke-width="2.355" stroke-miterlimit="10" stroke-linecap="round" stroke-linejoin="round"/>
<path d="M172.578 282.023C172.578 283.306 171.434 284.346 170.023 284.346C168.612 284.346 167.468 283.306 167.468 282.023C167.468 280.74 168.612 279.7 170.023 279.7C171.434 279.7 172.578 280.74 172.578 282.023Z" fill="#263238"/>
<path d="M157.526 262.514C157.526 263.29 156.897 263.92 156.12 263.92C155.344 263.92 154.714 263.291 154.714 262.514C154.714 261.737 155.344 261.108 156.12 261.108C156.897 261.108 157.526 261.737 157.526 262.514Z" fill="#263238"/>
<path d="M181.982 257.257C181.982 258.033 181.353 258.663 180.576 258.663C179.8 258.663 179.17 258.033 179.17 257.257C179.17 256.48 179.799 255.851 180.576 255.851C181.352 255.851 181.982 256.48 181.982 257.257Z" fill="#263238"/>
<path d="M152.138 194.685C152.138 194.685 145.17 194.685 135.878 194.685C126.587 194.685 114.508 219.307 114.973 230.921C115.438 242.535 125.658 249.968 128.445 251.362C131.232 252.756 136.343 255.078 136.343 253.685C136.343 252.291 141.918 241.142 141.918 241.142C141.918 241.142 140.524 247.646 144.241 247.646C147.958 247.646 159.572 235.567 159.572 235.567C159.572 235.567 160.037 245.323 163.753 245.323C167.469 245.323 175.367 230.922 175.367 230.922L183.729 240.213L186.516 234.638C186.516 234.638 189.768 247.646 192.555 247.646C195.342 247.646 197.665 241.142 199.059 234.638C200.453 228.134 203.24 217.449 198.595 207.693C193.949 197.937 180.477 189.111 169.328 189.111C158.177 189.111 152.138 194.685 152.138 194.685Z" fill="#263238" stroke="#263238" stroke-width="1.1775" stroke-miterlimit="10" stroke-linecap="round" stroke-linejoin="round"/>
<path d="M146.391 198.401C146.391 198.401 134.95 199.721 129.67 203.241C124.39 206.761 122.629 211.162 122.629 211.162L134.07 205.882C134.07 205.882 126.589 211.602 125.709 214.243C124.829 216.883 123.949 222.604 123.949 222.604L130.99 220.404C130.99 220.404 128.083 222.843 128.35 225.244C128.617 227.646 129.67 233.165 129.67 233.165L138.031 225.244L140.231 230.965L147.272 225.244L147.712 229.644L152.552 223.044L156.512 227.004L159.152 222.164C159.152 222.164 161.352 224.364 162.232 219.084C163.112 213.804 163.552 211.603 163.552 211.603L168.392 217.324L170.152 224.805L171.472 216.884L175.432 220.404L176.752 213.804L181.592 216.444L183.352 210.284L193.913 213.804C193.913 213.804 190.833 202.803 188.193 199.723C185.553 196.643 172.792 195.323 172.792 195.323L171.472 193.123C171.472 193.123 156.511 196.203 154.751 197.083C152.991 197.963 150.791 200.163 150.791 200.163" stroke="#6B6B6B" stroke-width="1.1775" stroke-miterlimit="10" stroke-linecap="round" stroke-linejoin="round"/>
<path d="M118.87 277.931C118.87 277.931 116.258 275.319 116.258 271.215C116.258 267.111 120.735 258.156 121.855 258.156C122.975 258.156 125.213 260.395 125.213 260.395C125.213 260.395 123.347 269.35 122.601 272.708C121.855 276.065 118.87 277.931 118.87 277.931Z" fill="white" stroke="#263238" stroke-width="1.1775" stroke-miterlimit="10" stroke-linecap="round" stroke-linejoin="round"/>
<path d="M121.482 281.662C121.482 281.662 117.751 277.185 117.751 275.319C117.751 273.453 123.721 260.394 125.213 260.394C126.706 260.394 131.183 262.26 132.302 263.006C133.421 263.752 133.048 267.483 133.048 270.095C133.048 272.707 126.332 284.274 126.332 284.274L121.482 281.662Z" fill="white" stroke="#263238" stroke-width="1.1775" stroke-miterlimit="10" stroke-linecap="round" stroke-linejoin="round"/>
<path d="M129.318 262.26C129.318 262.26 119.99 279.05 121.483 281.662C122.976 284.274 137.9 300.318 137.9 300.318C137.9 300.318 95.364 363.748 91.26 370.091C87.156 376.434 86.409 385.762 88.275 390.986C90.141 396.21 101.334 401.06 109.17 400.687C117.006 400.314 122.976 390.613 125.214 381.658C127.453 372.703 147.601 307.034 149.467 301.81C151.333 296.586 153.944 292.482 151.333 289.87C148.721 287.258 138.647 277.557 138.647 277.557C138.647 277.557 141.632 274.945 141.259 271.96C140.884 268.976 134.541 263.006 129.318 262.26Z" fill="white"/>
<mask id="mask4_14_442" style="mask-type:luminance" maskUnits="userSpaceOnUse" x="87" y="262" width="66" height="139">
<path d="M129.318 262.26C129.318 262.26 119.99 279.05 121.483 281.662C122.976 284.274 137.9 300.318 137.9 300.318C137.9 300.318 95.364 363.748 91.26 370.091C87.156 376.434 86.409 385.762 88.275 390.986C90.141 396.21 101.334 401.06 109.17 400.687C117.006 400.314 122.976 390.613 125.214 381.658C127.453 372.703 147.601 307.034 149.467 301.81C151.333 296.586 153.944 292.482 151.333 289.87C148.721 287.258 138.647 277.557 138.647 277.557C138.647 277.557 141.632 274.945 141.259 271.96C140.884 268.976 134.541 263.006 129.318 262.26Z" fill="white"/>
</mask>
<g mask="url(#mask4_14_442)">
<path d="M125.213 381.658C127.452 372.703 147.6 307.034 149.466 301.81C151.332 296.586 153.943 292.482 151.332 289.87C148.979 287.517 140.594 279.434 138.95 277.85L138.886 277.864C140.356 279.771 148.069 290.113 147.272 296.088C146.392 302.688 112.509 382.335 108.109 387.615C104.745 391.651 95.7319 394.143 91.6689 395.094C96.0439 398.472 103.483 400.958 109.17 400.687C117.005 400.314 122.975 390.613 125.213 381.658Z" fill="#8AC69B"/>
</g>
<mask id="mask5_14_442" style="mask-type:luminance" maskUnits="userSpaceOnUse" x="87" y="262" width="66" height="139">
<path d="M129.318 262.26C129.318 262.26 119.99 279.05 121.483 281.662C122.976 284.274 137.9 300.318 137.9 300.318C137.9 300.318 95.364 363.748 91.26 370.091C87.156 376.434 86.409 385.762 88.275 390.986C90.141 396.21 101.334 401.06 109.17 400.687C117.006 400.314 122.976 390.613 125.214 381.658C127.453 372.703 147.601 307.034 149.467 301.81C151.333 296.586 153.944 292.482 151.333 289.87C148.721 287.258 138.647 277.557 138.647 277.557C138.647 277.557 141.632 274.945 141.259 271.96C140.884 268.976 134.541 263.006 129.318 262.26Z" fill="white"/>
</mask>
<g mask="url(#mask5_14_442)">
<path opacity="0.7" d="M125.213 381.658C127.452 372.703 147.6 307.034 149.466 301.81C151.332 296.586 153.943 292.482 151.332 289.87C148.979 287.517 140.594 279.434 138.95 277.85L138.886 277.864C140.356 279.771 148.069 290.113 147.272 296.088C146.392 302.688 112.509 382.335 108.109 387.615C104.745 391.651 95.7319 394.143 91.6689 395.094C96.0439 398.472 103.483 400.958 109.17 400.687C117.005 400.314 122.975 390.613 125.213 381.658Z" fill="white"/>
</g>
<path d="M129.318 262.26C129.318 262.26 119.99 279.05 121.483 281.662C122.976 284.274 137.9 300.318 137.9 300.318C137.9 300.318 95.364 363.748 91.26 370.091C87.156 376.434 86.409 385.762 88.275 390.986C90.141 396.21 101.334 401.06 109.17 400.687C117.006 400.314 122.976 390.613 125.214 381.658C127.453 372.703 147.601 307.034 149.467 301.81C151.333 296.586 153.944 292.482 151.333 289.87C148.721 287.258 138.647 277.557 138.647 277.557C138.647 277.557 141.632 274.945 141.259 271.96C140.884 268.976 134.541 263.006 129.318 262.26Z" stroke="#263238" stroke-width="1.1775" stroke-miterlimit="10" stroke-linecap="round" stroke-linejoin="round"/>
<path d="M134.915 270.469L133.049 274.946L138.646 277.558C138.646 277.558 138.731 277.665 138.885 277.865" stroke="#263238" stroke-width="1.1775" stroke-miterlimit="10" stroke-linecap="round" stroke-linejoin="round"/>
<path d="M246.104 339.496C246.104 339.496 249.462 333.899 253.566 332.407C257.67 330.915 273.715 329.422 280.058 331.661C286.401 333.9 290.132 342.108 291.252 346.586C292.371 351.064 291.998 357.406 288.267 360.764C284.536 364.122 279.685 363.376 274.461 361.883C269.237 360.391 258.79 354.421 253.193 351.063C247.597 347.704 246.477 341.734 246.104 339.496Z" fill="#263238" stroke="#263238" stroke-width="1.1775" stroke-miterlimit="10" stroke-linecap="round" stroke-linejoin="round"/>
<path d="M193.867 333.153C193.867 333.153 164.391 357.406 160.286 359.644C156.182 361.883 158.047 365.987 159.54 367.48C161.033 368.972 170.734 377.927 175.211 380.912C179.688 383.897 186.032 378.673 187.524 377.927C189.017 377.181 187.151 373.823 187.151 373.823C187.151 373.823 198.718 367.48 200.583 361.51C202.448 355.54 202.822 347.332 202.822 347.332C202.822 347.332 249.835 366.361 261.029 370.465C272.223 374.569 279.312 374.942 284.536 369.719C289.76 364.495 290.133 353.675 287.521 348.078C284.909 342.481 268.492 337.258 261.03 337.258C253.567 337.258 200.585 330.915 197.226 332.034C193.867 333.153 193.867 333.153 193.867 333.153Z" fill="white"/>
<mask id="mask6_14_442" style="mask-type:luminance" maskUnits="userSpaceOnUse" x="157" y="331" width="133" height="51">
<path d="M193.867 333.153C193.867 333.153 164.391 357.406 160.286 359.644C156.182 361.883 158.047 365.987 159.54 367.48C161.033 368.972 170.734 377.927 175.211 380.912C179.688 383.897 186.032 378.673 187.524 377.927C189.017 377.181 187.151 373.823 187.151 373.823C187.151 373.823 198.718 367.48 200.583 361.51C202.448 355.54 202.822 347.332 202.822 347.332C202.822 347.332 249.835 366.361 261.029 370.465C272.223 374.569 279.312 374.942 284.536 369.719C289.76 364.495 290.133 353.675 287.521 348.078C284.909 342.481 268.492 337.258 261.03 337.258C253.567 337.258 200.585 330.915 197.226 332.034C193.867 333.153 193.867 333.153 193.867 333.153Z" fill="white"/>
</mask>
<g mask="url(#mask6_14_442)">
<path d="M284.536 369.718C286.375 367.879 287.602 365.341 288.32 362.586C268.686 361.375 211.11 339.595 205.356 339.212C198.756 338.772 197.876 348.893 191.275 357.253C184.674 365.613 180.714 367.814 174.994 368.694C171.091 369.294 170.467 374.193 170.463 377.247C172.26 378.741 173.947 380.068 175.212 380.911C179.689 383.896 186.033 378.672 187.525 377.926C189.018 377.18 187.152 373.822 187.152 373.822C187.152 373.822 198.719 367.479 200.584 361.509C202.449 355.539 202.823 347.331 202.823 347.331C202.823 347.331 249.836 366.36 261.03 370.464C272.223 374.569 279.312 374.942 284.536 369.718Z" fill="#BBDCC4"/>
</g>
<mask id="mask7_14_442" style="mask-type:luminance" maskUnits="userSpaceOnUse" x="157" y="331" width="133" height="51">
<path d="M193.867 333.153C193.867 333.153 164.391 357.406 160.286 359.644C156.182 361.883 158.047 365.987 159.54 367.48C161.033 368.972 170.734 377.927 175.211 380.912C179.688 383.897 186.032 378.673 187.524 377.927C189.017 377.181 187.151 373.823 187.151 373.823C187.151 373.823 198.718 367.48 200.583 361.51C202.448 355.54 202.822 347.332 202.822 347.332C202.822 347.332 249.835 366.361 261.029 370.465C272.223 374.569 279.312 374.942 284.536 369.719C289.76 364.495 290.133 353.675 287.521 348.078C284.909 342.481 268.492 337.258 261.03 337.258C253.567 337.258 200.585 330.915 197.226 332.034C193.867 333.153 193.867 333.153 193.867 333.153Z" fill="white"/>
</mask>
<g mask="url(#mask7_14_442)">
<path opacity="0.7" d="M284.536 369.718C286.375 367.879 287.602 365.341 288.32 362.586C268.686 361.375 211.11 339.595 205.356 339.212C198.756 338.772 197.876 348.893 191.275 357.253C184.674 365.613 180.714 367.814 174.994 368.694C171.091 369.294 170.467 374.193 170.463 377.247C172.26 378.741 173.947 380.068 175.212 380.911C179.689 383.896 186.033 378.672 187.525 377.926C189.018 377.18 187.152 373.822 187.152 373.822C187.152 373.822 198.719 367.479 200.584 361.509C202.449 355.539 202.823 347.331 202.823 347.331C202.823 347.331 249.836 366.36 261.03 370.464C272.223 374.569 279.312 374.942 284.536 369.718Z" fill="white"/>
</g>
<path d="M193.867 333.153C193.867 333.153 164.391 357.406 160.286 359.644C156.182 361.883 158.047 365.987 159.54 367.48C161.033 368.972 170.734 377.927 175.211 380.912C179.688 383.897 186.032 378.673 187.524 377.927C189.017 377.181 187.151 373.823 187.151 373.823C187.151 373.823 198.718 367.48 200.583 361.51C202.448 355.54 202.822 347.332 202.822 347.332C202.822 347.332 249.835 366.361 261.029 370.465C272.223 374.569 279.312 374.942 284.536 369.719C289.76 364.495 290.133 353.675 287.521 348.078C284.909 342.481 268.492 337.258 261.03 337.258C253.567 337.258 200.585 330.915 197.226 332.034C193.867 333.153 193.867 333.153 193.867 333.153Z" stroke="#263238" stroke-width="1.1775" stroke-miterlimit="10" stroke-linecap="round" stroke-linejoin="round"/>
<path d="M187.151 373.823L182.301 376.061" stroke="#263238" stroke-width="1.1775" stroke-miterlimit="10" stroke-linecap="round" stroke-linejoin="round"/>
<path d="M200.957 340.988L202.822 347.331L208.046 349.943L205.061 337.63L200.957 340.988Z" fill="#263238" stroke="#263238" stroke-width="1.1775" stroke-miterlimit="10" stroke-linecap="round" stroke-linejoin="round"/>
<path d="M209.165 335.578C209.165 339.39 205.239 342.481 200.397 342.481C195.555 342.481 191.629 339.39 191.629 335.578C191.629 331.766 195.555 328.675 200.397 328.675C205.24 328.675 209.165 331.766 209.165 335.578Z" fill="white" stroke="#263238" stroke-width="1.1775" stroke-miterlimit="10" stroke-linecap="round" stroke-linejoin="round"/>
<path d="M40.61 400.656H443.332" stroke="#263238" stroke-width="1.1775" stroke-miterlimit="10" stroke-linecap="round" stroke-linejoin="round"/>
</svg>
