<svg width="750" height="500" viewBox="0 0 750 500" fill="none" xmlns="http://www.w3.org/2000/svg">
<path d="M704.185 191.603C696.305 163.225 643.772 194.091 643.772 194.091L657.519 169.155C659.152 166.683 660.618 164.063 661.873 161.256C668.777 145.817 668.686 129.302 661.837 114.919C659.954 106.187 654.251 93.707 638.518 80.03C608.75 54.152 508.938 36.451 480.045 40.381C451.152 44.312 506.311 56.467 506.311 56.467L501.939 56.429C417.786 47.507 333.115 46.359 249.106 48.098C228.04 48.534 206.91 49.225 186.284 52.784C180.349 53.808 173.967 55.372 170.434 60.159C154.751 81.425 218.903 83.503 228.966 83.093C184.903 88.82 135.943 90.576 94.964 107.605C89.246 109.981 83.582 112.797 79.274 117.193C74.966 121.589 72.159 127.826 73.13 134.094C75.949 152.291 101.02 157.685 115.236 161.726C115.236 161.726 33.516 216.065 43.147 243.648C47.128 255.05 53.062 267.053 64.059 278.869C57.791 286.738 52.272 294.995 48.006 303.725C45.396 309.065 41.977 316.381 44.898 322.528C59.782 353.853 285.511 461.384 466.393 430.693C514.444 422.54 562.3 409.058 604.424 385.214C646.343 361.485 689.06 322.29 699.62 272.866C699.968 271.237 700.223 269.658 700.397 268.122C706.95 245.345 710.777 215.344 704.185 191.603Z" fill="#92E3A9"/>
<path opacity="0.8" d="M704.185 191.603C696.305 163.225 643.772 194.091 643.772 194.091L657.519 169.155C659.152 166.683 660.618 164.063 661.873 161.256C668.777 145.817 668.686 129.302 661.837 114.919C659.954 106.187 654.251 93.707 638.518 80.03C608.75 54.152 508.938 36.451 480.045 40.381C451.152 44.312 506.311 56.467 506.311 56.467L501.939 56.429C417.786 47.507 333.115 46.359 249.106 48.098C228.04 48.534 206.91 49.225 186.284 52.784C180.349 53.808 173.967 55.372 170.434 60.159C154.751 81.425 218.903 83.503 228.966 83.093C184.903 88.82 135.943 90.576 94.964 107.605C89.246 109.981 83.582 112.797 79.274 117.193C74.966 121.589 73.28 127.753 73.13 134.094C72.733 150.87 99.694 157.099 115.236 161.726C115.236 161.726 33.516 216.065 43.147 243.648C47.128 255.05 53.062 267.053 64.059 278.869C57.791 286.738 52.272 294.995 48.006 303.725C45.396 309.065 41.977 316.381 44.898 322.528C59.782 353.853 285.511 461.384 466.393 430.693C514.444 422.54 562.3 409.058 604.424 385.214C646.343 361.485 689.06 322.29 699.62 272.866C699.968 271.237 700.223 269.658 700.397 268.122C706.95 245.345 710.777 215.344 704.185 191.603Z" fill="white"/>
<path d="M557.959 160.595C557.959 160.595 558.979 157.534 564.081 156.513C569.183 155.493 575.306 161.105 575.306 161.105C575.306 161.105 579.388 152.942 583.469 152.431C587.551 151.921 592.143 155.492 592.143 155.492" stroke="#263238" stroke-miterlimit="10"/>
<path d="M544.694 179.983C544.694 179.983 545.714 176.922 550.816 175.901C555.918 174.881 562.041 180.493 562.041 180.493C562.041 180.493 566.123 172.33 570.204 171.819C574.286 171.309 578.878 174.88 578.878 174.88" stroke="#263238" stroke-miterlimit="10"/>
<path d="M593.164 180.105C593.164 180.105 593.941 177.775 597.824 176.998C601.708 176.221 606.368 180.493 606.368 180.493C606.368 180.493 609.475 174.279 612.582 173.891C615.689 173.503 619.184 176.221 619.184 176.221" stroke="#263238" stroke-miterlimit="10"/>
<path d="M649.858 200.647C649.858 200.647 650.367 199.119 652.914 198.609C655.461 198.1 658.517 200.901 658.517 200.901C658.517 200.901 660.555 196.826 662.592 196.571C664.629 196.316 666.922 198.099 666.922 198.099" stroke="#263238" stroke-miterlimit="10"/>
<path d="M378.139 155.188C372.867 131.501 345.564 113.847 321.765 117.23C315.834 118.073 310.063 120.292 305.607 124.392C299.53 129.983 300.972 136.33 297.963 143.258C297.128 145.181 295.5 146.889 293.43 147.244C287.511 148.259 282.743 142.359 276.75 142.315C272.269 142.282 266.541 144.758 264.041 148.627C261.714 152.23 263.336 158.518 259.147 160.91C254.462 163.585 248.765 158.496 243.701 160.338C237.408 162.626 240.269 167.203 237.98 170.063C235.692 172.923 231.115 171.779 224.822 171.207C218.529 170.635 213.381 178.072 213.381 178.072H411.892C411.892 178.072 413.608 175.212 406.171 163.77C398.734 152.328 388.437 160.338 383.86 160.338C379.287 160.337 378.141 155.197 378.139 155.188Z" stroke="#263238" stroke-miterlimit="10"/>
<path d="M433.423 117.144C431.308 107.641 420.354 100.559 410.806 101.916C408.426 102.254 406.111 103.145 404.323 104.789C401.885 107.032 402.463 109.578 401.256 112.358C400.921 113.129 400.268 113.814 399.437 113.957C397.063 114.364 395.149 111.997 392.745 111.98C390.947 111.967 388.649 112.96 387.646 114.512C386.712 115.957 387.363 118.48 385.683 119.44C383.804 120.513 381.518 118.472 379.486 119.21C376.961 120.128 378.109 121.964 377.191 123.112C376.273 124.26 374.437 123.801 371.912 123.571C369.387 123.342 367.322 126.325 367.322 126.325H446.962C446.962 126.325 447.65 125.177 444.667 120.587C441.683 115.997 437.552 119.21 435.716 119.21C433.884 119.21 433.424 117.148 433.423 117.144Z" stroke="#263238" stroke-miterlimit="10"/>
<path d="M603.325 233.601C601.21 224.098 590.256 217.016 580.708 218.373C578.328 218.711 576.013 219.602 574.225 221.247C571.787 223.49 572.365 226.036 571.158 228.816C570.823 229.587 570.17 230.272 569.34 230.415C566.966 230.822 565.052 228.455 562.648 228.437C560.85 228.424 558.552 229.417 557.549 230.969C556.615 232.414 557.266 234.937 555.586 235.897C553.707 236.97 551.421 234.929 549.389 235.667C546.864 236.585 548.012 238.421 547.094 239.569C546.176 240.717 544.34 240.258 541.815 240.028C539.29 239.798 537.225 242.782 537.225 242.782H616.865C616.865 242.782 617.554 241.634 614.57 237.044C611.586 232.454 607.455 235.667 605.619 235.667C603.786 235.667 603.326 233.605 603.325 233.601Z" stroke="#263238" stroke-miterlimit="10"/>
<path d="M475.579 223.202C472.339 208.647 455.562 197.799 440.938 199.877C437.293 200.395 433.747 201.759 431.009 204.278C427.275 207.714 428.161 211.614 426.312 215.871C425.799 217.053 424.798 218.102 423.527 218.321C419.89 218.945 416.96 215.319 413.277 215.292C410.523 215.272 407.003 216.793 405.467 219.171C404.037 221.385 405.034 225.249 402.46 226.719C399.581 228.363 396.081 225.236 392.969 226.367C389.102 227.773 390.86 230.585 389.454 232.343C388.048 234.101 385.236 233.398 381.369 233.046C377.502 232.694 374.338 237.264 374.338 237.264H496.321C496.321 237.264 497.376 235.506 492.806 228.476C488.236 221.445 481.908 226.367 479.096 226.367C476.284 226.367 475.58 223.208 475.579 223.202Z" stroke="#263238" stroke-miterlimit="10"/>
<path d="M504.269 390.9C504.269 390.9 496.978 383.345 499.024 383.573C501.07 383.8 504.9 389.449 504.9 389.449C504.9 389.449 504.953 376.995 506.772 379.724C508.591 382.453 506.356 389.501 506.356 389.501C506.356 389.501 511.556 381.388 511.545 382.714C511.509 386.813 507.538 390.02 507.538 390.02C507.538 390.02 515.865 383.851 514.501 386.353C513.137 388.854 507.812 391.218 507.812 391.218C507.812 391.218 517.411 389.282 514.001 390.646C510.59 392.01 507.344 392.947 507.344 392.947H504.692C504.692 392.947 495.627 388.399 499.038 389.081C502.45 389.763 504.269 390.9 504.269 390.9Z" fill="#263238"/>
<path d="M600.558 367.261C600.558 367.261 594.884 361.382 596.476 361.559C598.069 361.736 601.049 366.132 601.049 366.132C601.049 366.132 601.09 356.44 602.506 358.564C603.922 360.688 602.182 366.173 602.182 366.173C602.182 366.173 606.229 359.859 606.22 360.891C606.192 364.081 603.102 366.576 603.102 366.576C603.102 366.576 609.583 361.775 608.521 363.722C607.459 365.669 603.315 367.508 603.315 367.508C603.315 367.508 610.786 366.001 608.131 367.063C605.477 368.125 602.951 368.854 602.951 368.854H600.887C600.887 368.854 593.833 365.315 596.487 365.846C599.142 366.376 600.558 367.261 600.558 367.261Z" fill="#263238"/>
<path d="M689.953 346.171C689.953 346.171 684.279 340.292 685.871 340.469C687.464 340.646 690.444 345.042 690.444 345.042C690.444 345.042 690.485 335.35 691.901 337.474C693.317 339.598 691.577 345.083 691.577 345.083C691.577 345.083 695.624 338.769 695.615 339.801C695.587 342.991 692.497 345.486 692.497 345.486C692.497 345.486 698.977 340.685 697.916 342.632C696.854 344.579 692.711 346.418 692.711 346.418C692.711 346.418 700.182 344.911 697.527 345.973C694.873 347.035 692.347 347.764 692.347 347.764H690.283C690.283 347.764 683.228 344.225 685.883 344.756C688.538 345.286 689.953 346.171 689.953 346.171Z" fill="#263238"/>
<path d="M576.022 394.342C576.022 394.342 569.244 387.319 571.146 387.53C573.049 387.741 576.609 392.993 576.609 392.993C576.609 392.993 576.658 381.416 578.349 383.953C580.04 386.49 577.962 393.042 577.962 393.042C577.962 393.042 582.797 385.5 582.786 386.732C582.753 390.543 579.061 393.523 579.061 393.523C579.061 393.523 586.802 387.789 585.534 390.114C584.266 392.439 579.316 394.637 579.316 394.637C579.316 394.637 588.24 392.837 585.069 394.105C581.898 395.373 578.881 396.244 578.881 396.244H576.415C576.415 396.244 567.988 392.016 571.159 392.65C574.331 393.285 576.022 394.342 576.022 394.342Z" fill="#92E3A9"/>
<path d="M441.893 363.875L381.926 296.644L368.793 307.151L303.051 208.17L245.819 220.922L228.705 188.952L212.07 188.076L180.55 125.913L133.404 168.929L110.673 160.811L27.866 245.242" stroke="#263238" stroke-miterlimit="10"/>
<path d="M453.138 376.482L446.851 369.433" stroke="#263238" stroke-miterlimit="10"/>
<path d="M215.088 229.142L210.131 230.484" stroke="#263238" stroke-miterlimit="10"/>
<path d="M245.702 220.85L220.669 227.63" stroke="#263238" stroke-miterlimit="10"/>
<path d="M151.263 192.074L165.28 171.382L164.333 164.284L180.423 131.632" stroke="#263238" stroke-miterlimit="10"/>
<path d="M145.405 200.721L148.921 195.53" stroke="#263238" stroke-miterlimit="10"/>
<path d="M123.654 212.962L100.923 243.784" stroke="#263238" stroke-miterlimit="10"/>
<path d="M111.806 164.284L117.485 177.061L130.262 187.471L128.842 205.927L125.746 210.125" stroke="#263238" stroke-miterlimit="10"/>
<path d="M228.705 188.952L216.86 200.248L212.601 193.15" stroke="#263238" stroke-miterlimit="10"/>
<path d="M707.008 315.436L614.992 250.532L587.058 289.967L552.552 278.465L499.15 353.229L464.643 345.835L447.39 360.623" stroke="#263238" stroke-miterlimit="10"/>
<path d="M614.992 250.532L604.052 298.624L591.15 292.979" stroke="#263238" stroke-miterlimit="10"/>
<path d="M552.847 281.287L525.834 359.908L507.287 356.683" stroke="#263238" stroke-miterlimit="10"/>
<path d="M571.782 336.004C570.448 336.649 569.126 337.316 567.821 338.012C566.515 338.726 565.234 339.501 564.033 340.35C563.579 340.664 563.136 340.988 562.693 341.312L569.795 328.081L560.05 343.342C559.063 344.136 558.092 344.947 557.141 345.774C555.567 347.144 554.037 348.54 552.537 349.979L552.042 335.625L562.238 320.1L551.967 333.453L551.524 320.606L550.791 334.981L550.789 334.984L550.791 334.985L550.057 349.393C548.755 348.161 547.43 346.956 546.071 345.774C545.002 344.845 543.914 343.933 542.799 343.047L533.579 327.301L540.351 341.191C539.962 340.908 539.575 340.623 539.179 340.349C537.978 339.501 536.698 338.725 535.391 338.011C534.086 337.315 532.764 336.648 531.43 336.003C528.758 334.721 526.037 333.522 523.226 332.532C525.957 333.689 528.575 335.045 531.132 336.476C532.408 337.196 533.67 337.936 534.911 338.703C536.132 339.476 537.307 340.293 538.423 341.195C540.669 342.973 542.768 344.915 544.788 346.919C546.553 348.672 548.27 350.484 549.907 352.324L548.975 370.611H553.247L552.642 353.067C554.472 350.972 556.42 348.907 558.423 346.919C560.443 344.915 562.541 342.974 564.788 341.195C565.904 340.293 567.078 339.475 568.3 338.703C569.541 337.936 570.802 337.196 572.079 336.476C574.636 335.045 577.254 333.689 579.985 332.532C577.175 333.523 574.453 334.723 571.782 336.004Z" fill="#263238"/>
<path d="M208.451 340.371L205.887 340.548L212.564 336.047L207.796 338.457L208.451 336.574L206.271 339.228L203.714 340.521L203.511 331.636L204.865 328.348L203.478 330.197L203.36 325.045L207.607 319.383L203.331 323.761L203.072 312.422L202.843 319.679L200.119 316.641L202.799 321.074L202.436 332.569L200.065 331.018L197.904 327.188L198.77 330.172L194.529 327.399L202.386 334.175L201.196 371.906H204.431L203.747 341.991L204.495 341.487L208.451 340.371Z" fill="#263238"/>
<path d="M615.475 303.117L610.466 303.462L623.512 294.668L614.195 299.377L615.475 295.698L611.215 300.884L606.219 303.409L605.822 286.048L608.468 279.623L605.758 283.236L605.528 273.17L613.826 262.106L605.471 270.66L604.964 248.504L604.517 262.685L599.194 256.748L604.431 265.409L603.723 287.871L599.088 284.841L594.866 277.356L596.559 283.188L588.271 277.768L603.624 291.01L601.299 364.737H607.62L606.285 306.282L607.745 305.297L615.475 303.117Z" fill="#263238"/>
<path d="M690.079 307.277L687.516 307.454L694.192 302.953L689.424 305.363L690.079 303.48L687.899 306.134L685.342 307.426L685.139 298.542L686.493 295.254L685.106 297.103L684.988 291.951L689.235 286.289L684.959 290.667L684.7 279.328L684.471 286.585L681.747 283.546L684.427 287.979L684.065 299.475L681.693 297.924L679.532 294.093L680.398 297.078L676.157 294.304L684.014 301.081L682.824 338.812H686.059L685.375 308.897L686.123 308.393L690.079 307.277Z" fill="#263238"/>
<path d="M58.409 296.815L55.846 296.991L62.522 292.491L57.754 294.901L58.409 293.018L56.229 295.672L53.672 296.964L53.469 288.079L54.823 284.791L53.436 286.64L53.318 281.489L57.565 275.826L53.289 280.204L53.03 268.865L52.801 276.123L50.077 273.084L52.757 277.517L52.395 289.012L50.023 287.462L47.862 283.631L48.728 286.615L44.487 283.842L52.344 290.619L51.154 328.35H54.389L53.706 298.434L54.453 297.931L58.409 296.815Z" fill="#263238"/>
<path d="M165.642 323.477C164.308 324.122 162.986 324.789 161.681 325.485C160.375 326.199 159.094 326.974 157.893 327.823C157.439 328.137 156.996 328.461 156.553 328.785L163.655 315.554L153.91 330.815C152.923 331.609 151.953 332.42 151.001 333.247C149.427 334.617 147.897 336.013 146.397 337.452L145.902 323.098L156.098 307.573L145.827 320.926L145.384 308.079L144.652 322.454L144.65 322.457L144.652 322.458L143.918 336.866C142.616 335.634 141.291 334.429 139.932 333.247C138.863 332.318 137.775 331.406 136.66 330.52L127.44 314.774L134.212 328.664C133.823 328.381 133.437 328.096 133.039 327.822C131.838 326.974 130.558 326.198 129.251 325.484C127.946 324.788 126.624 324.121 125.291 323.476C122.62 322.194 119.898 320.995 117.087 320.005C119.818 321.162 122.436 322.517 124.993 323.949C126.269 324.669 127.531 325.409 128.772 326.176C129.993 326.949 131.168 327.766 132.284 328.668C134.53 330.446 136.629 332.388 138.649 334.392C140.414 336.145 142.132 337.958 143.768 339.797L142.836 358.084H147.108L146.503 340.54C148.333 338.445 150.281 336.381 152.284 334.392C154.304 332.388 156.402 330.447 158.649 328.668C159.765 327.766 160.939 326.949 162.161 326.176C163.402 325.409 164.663 324.669 165.94 323.949C168.498 322.518 171.115 321.162 173.846 320.005C171.035 320.996 168.313 322.195 165.642 323.477Z" fill="#263238"/>
<path d="M720.109 309.639C654.732 352.497 525.614 381.667 377.011 381.667C223.849 381.667 91.382 350.681 28.073 305.658V478.002H720.109V309.639Z" fill="white"/>
<path d="M705.907 318.188C637.087 356.33 515.51 381.667 377.011 381.667C223.849 381.667 91.382 350.681 28.073 305.658" stroke="#263238" stroke-miterlimit="10"/>
<path d="M720.412 309.444C717.465 311.383 714.388 313.295 711.185 315.177" stroke="#263238" stroke-miterlimit="10"/>
<path d="M657.412 311.123L652.175 311.484L665.817 302.287L656.074 307.212L657.412 303.365L652.958 308.787L647.734 311.428L647.319 293.274L650.085 286.556L647.252 290.334L647.011 279.808L655.688 268.238L646.951 277.183L646.422 254.015L645.954 268.844L640.388 262.635L645.864 271.693L645.123 295.181L640.277 292.012L635.862 284.185L637.633 290.283L628.966 284.616L645.02 298.462L642.589 375.557H649.199L647.802 314.432L649.329 313.402L657.412 311.123Z" fill="#263238"/>
<path d="M644.573 376.237C644.573 376.237 632.886 364.128 636.167 364.493C639.447 364.858 645.586 373.912 645.586 373.912C645.586 373.912 645.671 353.951 648.587 358.325C651.503 362.699 647.92 373.996 647.92 373.996C647.92 373.996 656.255 360.993 656.237 363.117C656.179 369.687 649.815 374.826 649.815 374.826C649.815 374.826 663.162 364.939 660.975 368.948C658.788 372.957 650.254 376.746 650.254 376.746C650.254 376.746 665.64 373.642 660.173 375.829C654.706 378.016 649.504 379.517 649.504 379.517H645.253C645.253 379.517 630.724 372.228 636.191 373.321C641.657 374.415 644.573 376.237 644.573 376.237Z" fill="#263238"/>
<path d="M100.281 297.354L95.038 297.715L108.694 288.509L98.941 293.439L100.281 289.587L95.822 295.016L90.591 297.66L90.176 279.486L92.946 272.76L90.109 276.542L89.868 266.005L98.555 254.423L89.808 263.378L89.278 240.184L88.81 255.029L83.238 248.814L88.72 257.881L87.979 281.395L83.127 278.222L78.707 270.387L80.479 276.491L71.804 270.819L87.875 284.68L85.441 361.858H92.059L90.66 300.667L92.189 299.636L100.281 297.354Z" fill="#263238"/>
<path d="M195.389 387.514C195.389 387.514 185.281 377.041 188.118 377.356C190.955 377.671 196.265 385.503 196.265 385.503C196.265 385.503 196.339 368.238 198.86 372.021C201.382 375.804 198.283 385.575 198.283 385.575C198.283 385.575 205.492 374.328 205.476 376.165C205.426 381.848 199.921 386.293 199.921 386.293C199.921 386.293 211.465 377.741 209.574 381.209C207.683 384.677 200.301 387.954 200.301 387.954C200.301 387.954 213.609 385.27 208.88 387.161C204.151 389.052 199.652 390.351 199.652 390.351H195.975C195.975 390.351 183.409 384.046 188.137 384.992C192.867 385.937 195.389 387.514 195.389 387.514Z" fill="#263238"/>
<path d="M249.04 410.464C249.04 410.464 238.932 399.991 241.769 400.306C244.606 400.621 249.916 408.453 249.916 408.453C249.916 408.453 249.989 391.188 252.511 394.971C255.033 398.754 251.934 408.525 251.934 408.525C251.934 408.525 259.144 397.278 259.127 399.115C259.077 404.798 253.572 409.243 253.572 409.243C253.572 409.243 265.116 400.691 263.225 404.159C261.334 407.627 253.952 410.904 253.952 410.904C253.952 410.904 267.26 408.22 262.531 410.111C257.802 412.003 253.303 413.301 253.303 413.301H249.626C249.626 413.301 237.059 406.996 241.788 407.942C246.518 408.888 249.04 410.464 249.04 410.464Z" fill="#263238"/>
<path d="M392.943 395.054C392.943 395.054 385.652 387.5 387.698 387.727C389.744 387.954 393.574 393.603 393.574 393.603C393.574 393.603 393.627 381.15 395.446 383.878C397.265 386.607 395.03 393.655 395.03 393.655C395.03 393.655 400.231 385.542 400.219 386.868C400.183 390.967 396.212 394.174 396.212 394.174C396.212 394.174 404.539 388.006 403.175 390.507C401.811 393.008 396.486 395.372 396.486 395.372C396.486 395.372 406.085 393.436 402.674 394.8C399.263 396.164 396.018 397.101 396.018 397.101H393.366C393.366 397.101 384.301 392.553 387.712 393.235C391.124 393.917 392.943 395.054 392.943 395.054Z" fill="#263238"/>
<path d="M675.97 376.978C675.97 376.978 670.296 371.099 671.888 371.276C673.48 371.453 676.461 375.849 676.461 375.849C676.461 375.849 676.502 366.157 677.918 368.281C679.334 370.405 677.594 375.89 677.594 375.89C677.594 375.89 681.641 369.576 681.632 370.608C681.604 373.798 678.514 376.293 678.514 376.293C678.514 376.293 684.995 371.493 683.933 373.439C682.871 375.386 678.727 377.225 678.727 377.225C678.727 377.225 686.198 375.718 683.543 376.78C680.889 377.842 678.363 378.571 678.363 378.571H676.299C676.299 378.571 669.245 375.032 671.899 375.563C674.554 376.093 675.97 376.978 675.97 376.978Z" fill="#263238"/>
<path d="M293.902 395.094C293.902 395.094 283.794 384.621 286.631 384.936C289.468 385.251 294.778 393.083 294.778 393.083C294.778 393.083 294.851 375.818 297.373 379.601C299.895 383.384 296.796 393.155 296.796 393.155C296.796 393.155 304.006 381.908 303.989 383.745C303.939 389.428 298.434 393.873 298.434 393.873C298.434 393.873 309.978 385.321 308.087 388.789C306.196 392.257 298.814 395.534 298.814 395.534C298.814 395.534 312.122 392.849 307.393 394.741C302.664 396.632 298.165 397.931 298.165 397.931H294.488C294.488 397.931 281.922 391.626 286.65 392.572C291.381 393.518 293.902 395.094 293.902 395.094Z" fill="#92E3A9"/>
<path d="M220.961 388.136C220.961 388.136 214.183 381.113 216.085 381.324C217.987 381.535 221.548 386.787 221.548 386.787C221.548 386.787 221.597 375.21 223.288 377.747C224.979 380.284 222.901 386.836 222.901 386.836C222.901 386.836 227.735 379.294 227.725 380.526C227.692 384.337 224 387.317 224 387.317C224 387.317 231.741 381.583 230.473 383.908C229.205 386.233 224.255 388.431 224.255 388.431C224.255 388.431 233.179 386.631 230.008 387.899C226.837 389.167 223.82 390.038 223.82 390.038H221.354C221.354 390.038 212.927 385.81 216.098 386.444C219.27 387.079 220.961 388.136 220.961 388.136Z" fill="#92E3A9"/>
<path d="M136.263 415.877C136.263 415.877 129.485 408.854 131.387 409.065C133.29 409.276 136.85 414.528 136.85 414.528C136.85 414.528 136.899 402.951 138.59 405.487C140.281 408.024 138.203 414.576 138.203 414.576C138.203 414.576 143.037 407.034 143.027 408.266C142.994 412.077 139.302 415.057 139.302 415.057C139.302 415.057 147.043 409.323 145.775 411.648C144.507 413.973 139.557 416.171 139.557 416.171C139.557 416.171 148.481 414.371 145.31 415.639C142.139 416.907 139.122 417.778 139.122 417.778H136.656C136.656 417.778 128.229 413.55 131.4 414.184C134.572 414.82 136.263 415.877 136.263 415.877Z" fill="#92E3A9"/>
<path d="M363.03 417.237C363.03 417.237 356.252 410.214 358.154 410.425C360.056 410.636 363.617 415.888 363.617 415.888C363.617 415.888 363.666 404.311 365.357 406.848C367.048 409.385 364.97 415.937 364.97 415.937C364.97 415.937 369.804 408.395 369.794 409.627C369.761 413.438 366.069 416.418 366.069 416.418C366.069 416.418 373.81 410.684 372.542 413.009C371.274 415.334 366.324 417.532 366.324 417.532C366.324 417.532 375.248 415.732 372.077 417C368.906 418.268 365.889 419.139 365.889 419.139H363.423C363.423 419.139 354.996 414.911 358.167 415.545C361.339 416.18 363.03 417.237 363.03 417.237Z" fill="#92E3A9"/>
<path d="M473.003 417.604C473.003 417.604 466.225 410.581 468.127 410.792C470.029 411.003 473.59 416.255 473.59 416.255C473.59 416.255 473.639 404.678 475.33 407.215C477.021 409.752 474.943 416.304 474.943 416.304C474.943 416.304 479.777 408.762 479.767 409.994C479.734 413.805 476.042 416.785 476.042 416.785C476.042 416.785 483.783 411.051 482.515 413.376C481.247 415.701 476.297 417.899 476.297 417.899C476.297 417.899 485.221 416.099 482.05 417.367C478.879 418.635 475.862 419.506 475.862 419.506H473.396C473.396 419.506 464.969 415.278 468.14 415.912C471.311 416.546 473.003 417.604 473.003 417.604Z" fill="#92E3A9"/>
<path d="M677.469 395.635C677.469 395.635 667.149 384.942 670.045 385.264C672.942 385.586 678.363 393.582 678.363 393.582C678.363 393.582 678.438 375.955 681.013 379.818C683.588 383.68 680.424 393.656 680.424 393.656C680.424 393.656 687.785 382.174 687.768 384.049C687.717 389.851 682.097 394.389 682.097 394.389C682.097 394.389 693.883 385.658 691.952 389.199C690.021 392.739 682.485 396.085 682.485 396.085C682.485 396.085 696.072 393.344 691.244 395.275C686.416 397.206 681.822 398.532 681.822 398.532H678.068C678.068 398.532 665.238 392.095 670.066 393.061C674.895 394.026 677.469 395.635 677.469 395.635Z" fill="#92E3A9"/>
<path d="M62.538 395.635C62.538 395.635 52.218 384.942 55.115 385.264C58.012 385.586 63.433 393.582 63.433 393.582C63.433 393.582 63.508 375.955 66.083 379.818C68.658 383.68 65.494 393.656 65.494 393.656C65.494 393.656 72.855 382.174 72.838 384.049C72.787 389.851 67.167 394.389 67.167 394.389C67.167 394.389 78.953 385.658 77.022 389.199C75.091 392.739 67.555 396.085 67.555 396.085C67.555 396.085 81.142 393.344 76.314 395.275C71.486 397.206 66.892 398.532 66.892 398.532H63.138C63.138 398.532 50.308 392.095 55.136 393.061C59.963 394.026 62.538 395.635 62.538 395.635Z" fill="#92E3A9"/>
<path d="M113.447 380.537C113.447 380.537 102.885 362.324 105.898 360.918C108.91 359.512 115.136 373.37 115.136 373.37C115.136 373.37 113.931 347.262 116.743 349.672C119.555 352.082 122.166 370.558 122.166 370.558C122.166 370.558 127.789 350.475 129.597 354.692C131.405 358.909 128.152 371.671 128.152 371.671C128.152 371.671 136.224 356.299 137.028 361.32C137.831 366.341 133.212 374.575 133.212 374.575C133.212 374.575 143.856 363.931 144.659 368.148C145.462 372.365 141.847 376.583 141.847 376.583C141.847 376.583 155.905 368.951 152.491 373.169C149.077 377.386 144.056 382.809 144.056 382.809C144.056 382.809 157.512 377.989 155.905 380.801C154.298 383.613 148.273 386.625 148.273 386.625C148.273 386.625 159.319 384.617 158.114 386.424C156.909 388.231 154.104 390.006 154.104 390.006H104.09C104.09 390.006 90.835 385.219 96.057 384.817C101.279 384.415 106.098 386.624 106.098 386.624C106.098 386.624 89.831 375.578 97.462 374.775C105.094 373.972 111.319 383.611 111.319 383.611C111.319 383.611 100.474 368.348 104.29 370.758L113.447 380.537Z" fill="#92E3A9"/>
<path d="M114.127 385.718C114.127 385.718 100.491 371.589 104.318 372.015C108.145 372.441 115.308 383.005 115.308 383.005C115.308 383.005 115.407 359.715 118.809 364.818C122.211 369.921 118.031 383.102 118.031 383.102C118.031 383.102 127.757 367.93 127.735 370.408C127.668 378.074 120.242 384.071 120.242 384.071C120.242 384.071 135.815 372.535 133.264 377.213C130.712 381.891 120.755 386.312 120.755 386.312C120.755 386.312 138.708 382.691 132.329 385.242C125.95 387.794 119.88 389.546 119.88 389.546H114.92C114.92 389.546 97.968 381.041 104.347 382.317C110.725 383.592 114.127 385.718 114.127 385.718Z" fill="#263238" stroke="#263238" stroke-miterlimit="10"/>
<path d="M563.203 412.582C563.203 412.582 543.241 378.157 548.934 375.5C554.628 372.843 566.395 399.035 566.395 399.035C566.395 399.035 564.117 349.688 569.432 354.243C574.746 358.798 579.681 393.721 579.681 393.721C579.681 393.721 590.309 355.762 593.726 363.733C597.142 371.704 590.995 395.825 590.995 395.825C590.995 395.825 606.253 366.77 607.771 376.26C609.289 385.75 600.559 401.313 600.559 401.313C600.559 401.313 620.677 381.195 622.196 389.166C623.714 397.137 616.882 405.109 616.882 405.109C616.882 405.109 643.453 390.685 637 398.656C630.547 406.627 621.057 416.876 621.057 416.876C621.057 416.876 646.49 407.766 643.453 413.08C640.416 418.394 629.029 424.088 629.029 424.088C629.029 424.088 649.907 420.292 647.629 423.709C645.351 427.125 640.049 430.479 640.049 430.479H545.518C545.518 430.479 520.465 421.431 530.334 420.672C540.203 419.913 549.313 424.088 549.313 424.088C549.313 424.088 518.566 403.21 532.991 401.692C547.415 400.174 559.183 418.394 559.183 418.394C559.183 418.394 538.685 389.545 545.897 394.1L563.203 412.582Z" fill="#92E3A9"/>
<path d="M564.488 422.375C564.488 422.375 538.714 395.671 545.948 396.474C553.182 397.277 566.72 417.246 566.72 417.246C566.72 417.246 566.907 373.225 573.338 382.871C579.768 392.517 571.867 417.43 571.867 417.43C571.867 417.43 590.25 388.753 590.209 393.438C590.082 407.928 576.046 419.262 576.046 419.262C576.046 419.262 605.481 397.457 600.659 406.299C595.836 415.141 577.015 423.497 577.015 423.497C577.015 423.497 610.947 416.652 598.89 421.475C586.833 426.298 575.36 429.609 575.36 429.609H565.985C565.985 429.609 533.943 413.533 546 415.944C558.058 418.356 564.488 422.375 564.488 422.375Z" fill="#263238" stroke="#263238" stroke-miterlimit="10"/>
<path d="M147.847 381.569C147.847 381.569 149.889 379.723 151.64 379.723C153.391 379.723 158.74 382.294 158.74 382.294C158.74 382.294 160.88 385.59 161.074 385.788C161.269 385.986 163.894 387.107 164.089 387.568C164.284 388.03 164.673 389.546 164.673 389.546H148.334L145.319 381.635L147.847 381.569Z" fill="white" stroke="#263238" stroke-miterlimit="10"/>
<path d="M151.64 379.723L151.543 381.279C151.543 381.279 155.725 383.71 155.628 384.586C155.531 385.461 154.655 387.504 154.655 387.504L156.795 389.741H145.416L146.291 383.03C146.291 383.03 148.722 379.528 151.64 379.723Z" fill="#263238"/>
<path d="M126.548 380.598C126.548 380.598 134.718 368.344 136.565 368.149C138.413 367.955 142.303 369.511 143.762 372.039C145.221 374.568 146.582 379.528 146.68 379.82C146.777 380.112 147.166 380.306 149.403 383.905C151.64 387.503 151.543 389.546 151.543 389.546H119.934C119.934 389.546 120.615 386.336 121.782 384.489C122.949 382.642 125.672 381.96 125.672 381.96L126.548 380.598Z" fill="white" stroke="#263238" stroke-miterlimit="10"/>
<path d="M139.094 389.351C139.094 389.351 138.219 387.211 138.121 386.92C138.024 386.628 138.024 383.808 137.732 382.641C137.44 381.474 135.009 377.875 135.009 377.875L136.76 372.818L135.885 372.137L137.344 368.538L136.527 368.16C134.612 368.504 126.548 380.598 126.548 380.598L125.673 381.96C125.673 381.96 122.95 382.641 121.783 384.489C120.785 386.069 120.144 388.639 119.979 389.352L139.094 389.351Z" fill="#263238"/>
<path d="M462.839 384.617C462.839 384.617 464.12 383.46 465.217 383.46C466.315 383.46 469.669 385.072 469.669 385.072C469.669 385.072 471.011 387.139 471.133 387.263C471.255 387.387 472.902 388.09 473.023 388.379C473.145 388.668 473.389 389.619 473.389 389.619H463.144L461.254 384.659L462.839 384.617Z" fill="white" stroke="#263238" stroke-miterlimit="10"/>
<path d="M465.218 383.459L465.157 384.435C465.157 384.435 467.779 385.96 467.718 386.508C467.657 387.056 467.108 388.337 467.108 388.337L468.45 389.74H461.315L461.864 385.532C461.864 385.532 463.388 383.337 465.218 383.459Z" fill="#263238"/>
<path d="M449.485 384.008C449.485 384.008 454.607 376.324 455.766 376.203C456.925 376.081 459.364 377.057 460.279 378.642C461.194 380.227 462.047 383.337 462.108 383.52C462.169 383.703 462.413 383.825 463.815 386.081C465.218 388.337 465.157 389.618 465.157 389.618H445.338C445.338 389.618 445.765 387.606 446.497 386.447C447.229 385.288 448.936 384.861 448.936 384.861L449.485 384.008Z" fill="white" stroke="#263238" stroke-miterlimit="10"/>
<path d="M457.351 389.496C457.351 389.496 456.802 388.154 456.741 387.971C456.68 387.788 456.68 386.02 456.497 385.288C456.314 384.556 454.789 382.3 454.789 382.3L455.887 379.129L455.338 378.702L456.253 376.446L455.741 376.209C454.54 376.425 449.484 384.008 449.484 384.008L448.935 384.862C448.935 384.862 447.228 385.289 446.496 386.448C445.87 387.439 445.468 389.05 445.365 389.497H457.351V389.496Z" fill="#263238"/>
<path d="M628.223 414.532C628.223 414.532 632.083 411.043 635.392 411.043C638.701 411.043 648.811 415.903 648.811 415.903C648.811 415.903 652.855 422.133 653.223 422.507C653.591 422.881 658.554 424.999 658.922 425.871C659.29 426.743 660.025 429.609 660.025 429.609H629.142L623.443 414.656L628.223 414.532Z" fill="white" stroke="#263238" stroke-miterlimit="10"/>
<path d="M635.392 411.043L635.208 413.984C635.208 413.984 643.113 418.58 642.929 420.234C642.745 421.888 641.091 425.749 641.091 425.749L645.135 429.977H623.627L625.281 417.293C625.281 417.293 629.877 410.675 635.392 411.043Z" fill="#263238"/>
<path d="M587.965 412.697C587.965 412.697 603.406 389.535 606.899 389.167C610.392 388.799 617.745 391.741 620.502 396.52C623.259 401.299 625.833 410.675 626.017 411.226C626.201 411.778 626.936 412.145 631.164 418.947C635.392 425.749 635.208 429.609 635.208 429.609H575.465C575.465 429.609 576.752 423.543 578.958 420.05C581.164 416.557 586.311 415.27 586.311 415.27L587.965 412.697Z" fill="white" stroke="#263238" stroke-miterlimit="10"/>
<path d="M611.678 429.241C611.678 429.241 610.024 425.197 609.84 424.645C609.656 424.093 609.656 418.762 609.105 416.557C608.554 414.351 603.958 407.549 603.958 407.549L607.267 397.99L605.613 396.703L608.37 389.901L606.826 389.186C603.206 389.836 587.965 412.696 587.965 412.696L586.311 415.27C586.311 415.27 581.164 416.557 578.958 420.05C577.072 423.037 575.861 427.893 575.548 429.241H611.678Z" fill="#263238"/>
<path d="M361.959 334.642C361.959 334.642 350.063 370.378 349.035 376.847C348.007 383.316 348.668 391.349 349.286 395.412C349.905 399.476 356.239 434.571 356.239 434.571C356.239 434.571 354.671 434.042 354.556 435.176C354.441 436.31 354.836 441.11 354.836 441.11C354.836 441.11 353.193 443.411 348.867 445.916C344.542 448.422 342.438 449.179 343.73 449.997C345.022 450.815 350.545 451.11 352.8 450.774C355.055 450.439 361.12 449.731 362.106 449.566C363.092 449.402 366.077 450.039 367.027 448.319C367.977 446.6 367.289 441.383 367.529 439.539C367.769 437.694 366.427 434.756 366.417 434.332C366.407 433.907 365.222 394.241 365.222 394.241L365.972 384.39C365.972 384.39 365.751 393.772 366.83 394.818C367.909 395.864 379.162 435.023 379.162 435.023L378.071 436.746L379.433 440.533L378.358 442.962C378.358 442.962 373.237 447.75 371.144 448.93C369.05 450.11 366.936 450.443 368.09 451.406C369.244 452.369 380.546 451.821 380.546 451.821L392.37 449.422C392.37 449.422 394.161 447.4 393.839 445.711C393.516 444.021 391.96 437.976 391.96 437.976C391.96 437.976 392.34 430.047 391.909 429.774C391.478 429.501 389.288 426.582 389.12 425.454C388.952 424.327 387.723 402.178 386.423 398.454C385.124 394.73 383.509 388.904 383.509 388.904C383.509 388.904 384.426 387.978 384.486 386.98C384.545 385.981 384.254 384.161 384.254 384.161C384.254 384.161 396.6 352.032 397.166 350.194C397.731 348.355 400.276 338.458 400.276 334.499C400.276 330.54 399.993 327.571 399.993 327.571C399.993 327.571 390.378 331.954 380.622 332.378C370.866 332.803 362.241 332.237 362.241 332.237L361.959 334.642Z" fill="#263238" stroke="#263238" stroke-miterlimit="10" stroke-linecap="round" stroke-linejoin="round"/>
<path d="M391.511 335.914C391.511 335.914 391.511 345.529 396.318 347.367" stroke="white" stroke-miterlimit="10" stroke-linecap="round" stroke-linejoin="round"/>
<path d="M398.44 333.087C398.44 333.087 398.722 339.591 397.45 345.388" stroke="white" stroke-miterlimit="10" stroke-linecap="round" stroke-linejoin="round"/>
<path d="M389.219 362.557C387.902 365.361 386.893 367.538 386.845 367.728" stroke="white" stroke-miterlimit="10" stroke-linecap="round" stroke-linejoin="round"/>
<path d="M395.611 349.064C395.611 349.064 392.527 355.536 390.017 360.861" stroke="white" stroke-miterlimit="10" stroke-linecap="round" stroke-linejoin="round"/>
<path d="M367.203 375.548L372.423 353.165L366.908 348.357" stroke="white" stroke-miterlimit="10" stroke-linecap="round" stroke-linejoin="round"/>
<path d="M366.07 380.41L366.612 378.086" stroke="white" stroke-miterlimit="10" stroke-linecap="round" stroke-linejoin="round"/>
<path d="M338.925 283.423L324.765 289.589C324.765 289.589 333.215 272.004 333.558 270.976C333.9 269.948 328.876 261.27 328.99 260.927C329.104 260.585 333.444 255.332 333.558 254.19C333.672 253.048 336.07 249.051 334.243 248.823C332.416 248.595 322.71 257.616 322.481 259.9C322.253 262.184 326.821 269.949 327.278 270.634C327.734 271.319 303.754 297.012 303.297 301.123C302.841 305.234 304.782 307.86 308.208 308.317C311.634 308.773 338.583 299.524 342.694 298.382C346.805 297.24 348.175 299.067 348.175 299.067C348.175 299.067 361.078 314.711 361.992 316.652C362.905 318.594 362.449 325.788 361.421 327.957C360.393 330.127 359.251 333.895 359.822 334.466C360.393 335.037 360.813 335.741 362.525 336.197C364.238 336.654 376.151 338.12 382.889 337.093C389.626 336.065 397.619 332.525 399.446 331.155C401.273 329.785 401.502 328.186 401.502 326.13C401.502 324.075 400.131 322.248 399.218 320.192C398.304 318.136 392.252 299.295 389.74 293.243C387.228 287.191 388.027 282.623 378.549 277.256C369.071 271.89 357.955 273.015 357.955 273.015L338.925 283.423Z" fill="#92E3A9" stroke="#263238" stroke-miterlimit="10" stroke-linecap="round" stroke-linejoin="round"/>
<path d="M324.198 298.201L324.08 299.98" stroke="#263238" stroke-miterlimit="10" stroke-linecap="round" stroke-linejoin="round"/>
<path d="M321.112 301.008L324.765 289.589L324.286 296.858" stroke="#263238" stroke-miterlimit="10" stroke-linecap="round" stroke-linejoin="round"/>
<path d="M320.769 279.426C320.769 279.426 321.34 283.765 326.935 283.994" stroke="#263238" stroke-miterlimit="10" stroke-linecap="round" stroke-linejoin="round"/>
<path d="M346.918 298.039C346.918 298.039 342.807 295.298 338.583 293.928L346.918 298.039Z" fill="white"/>
<path d="M346.918 298.039C346.918 298.039 342.807 295.298 338.583 293.928" stroke="#263238" stroke-miterlimit="10" stroke-linecap="round" stroke-linejoin="round"/>
<path d="M337.336 295.4C336.88 295.323 336.419 295.25 335.956 295.185" stroke="#263238" stroke-miterlimit="10" stroke-linecap="round" stroke-linejoin="round"/>
<path d="M345.434 297.24C345.434 297.24 342.523 296.387 338.941 295.691" stroke="#263238" stroke-miterlimit="10" stroke-linecap="round" stroke-linejoin="round"/>
<path d="M366.368 320.564C366.77 320.895 367.056 321.106 367.13 321.106" stroke="#263238" stroke-miterlimit="10" stroke-linecap="round" stroke-linejoin="round"/>
<path d="M361.992 316.652C361.992 316.652 364.006 318.523 365.516 319.839" stroke="#263238" stroke-miterlimit="10" stroke-linecap="round" stroke-linejoin="round"/>
<path d="M386.657 336.407L396.82 330.012" stroke="#263238" stroke-miterlimit="10" stroke-linecap="round" stroke-linejoin="round"/>
<path d="M392.446 311.477C391.3 316.119 389.077 324.027 386.429 327.843" stroke="#263238" stroke-miterlimit="10" stroke-linecap="round" stroke-linejoin="round"/>
<path d="M393.28 307.859C393.28 307.859 393.136 308.56 392.869 309.711" stroke="#263238" stroke-miterlimit="10" stroke-linecap="round" stroke-linejoin="round"/>
<path d="M393.28 313.912C393.28 313.912 391.11 323.389 389.397 326.016" stroke="#263238" stroke-miterlimit="10" stroke-linecap="round" stroke-linejoin="round"/>
<path d="M330.715 277.128C332.209 273.971 333.432 271.353 333.558 270.975C333.9 269.948 328.876 261.269 328.99 260.927C329.104 260.584 333.444 255.332 333.558 254.19C333.672 253.048 336.07 249.051 334.243 248.823C332.416 248.595 322.71 257.616 322.481 259.899C322.253 262.183 326.821 269.948 327.278 270.633C327.374 270.778 326.377 272.042 324.744 273.981C325.379 275.53 326.933 277.495 330.715 277.128Z" fill="white" stroke="#263238" stroke-miterlimit="10" stroke-linecap="round" stroke-linejoin="round"/>
<path d="M328.726 254.808C328.726 254.808 325.864 260.354 325.969 260.775" stroke="#263238" stroke-miterlimit="10" stroke-linecap="round" stroke-linejoin="round"/>
<path d="M326.601 254.878C326.601 254.878 323.336 259.512 323.546 260.249" stroke="#263238" stroke-miterlimit="10" stroke-linecap="round" stroke-linejoin="round"/>
<path d="M351.144 296.326L355.711 305.576L357.881 305.69L359.708 295.298L358.223 292.901L357.195 299.409L354.455 299.295L351.258 294.499L351.144 296.326Z" fill="#8A8A8A" stroke="#263238" stroke-miterlimit="10" stroke-linecap="round" stroke-linejoin="round"/>
<path d="M355.711 305.576L351.926 333.142L356.303 342.35L360.993 332.782L357.881 305.69L355.711 305.576Z" fill="#8A8A8A" stroke="#263238" stroke-miterlimit="10" stroke-linecap="round" stroke-linejoin="round"/>
<path d="M355.032 304.2L358.534 301.971L359.62 295.801L357.558 297.113L357.195 299.409L354.455 299.295L354.358 299.15L352.973 300.032L355.032 304.2Z" fill="#263238"/>
<path d="M357.88 305.69L357.886 305.659L357.841 305.688L357.88 305.69Z" fill="#263238"/>
<path d="M358.815 313.823L354.173 316.778L353.348 322.782L359.401 318.929L358.815 313.823Z" fill="#263238"/>
<path d="M358.464 310.77L357.881 305.69L357.841 305.688L355.49 307.184L354.666 313.189L358.464 310.77Z" fill="#263238"/>
<path d="M359.752 321.981L352.855 326.372L352.031 332.376L360.339 327.087L359.752 321.981Z" fill="#263238"/>
<path d="M359.11 336.624L360.993 332.782L360.689 330.139L352.866 335.119L354.866 339.326L359.11 336.624Z" fill="#263238"/>
<path d="M347.946 285.706C347.946 285.706 347.033 291.301 347.147 293.814C347.261 296.326 348.517 300.779 348.517 300.779L354.113 294.385L363.476 300.208C363.476 300.208 363.134 288.332 363.134 287.99C363.134 287.647 360.964 274.857 360.279 273.601C359.594 272.345 357.767 271.66 356.739 271.888C355.711 272.118 347.946 285.706 347.946 285.706Z" fill="#92E3A9" stroke="#263238" stroke-miterlimit="10" stroke-linecap="round" stroke-linejoin="round"/>
<path d="M332.17 254.513C332.17 254.513 331.875 262.878 332.072 266.225C332.269 269.571 331.777 272.228 332.663 274.984C333.548 277.739 334.532 283.054 335.418 284.825C336.304 286.596 338.174 288.269 340.929 288.269C343.685 288.269 346.735 286.006 348.212 284.529C349.688 283.053 352.247 280.986 353.625 278.33C355.003 275.672 353.822 268.98 354.018 267.11C354.215 265.241 354.609 261.993 354.609 261.993C354.609 261.993 356.577 257.171 355.002 254.907C353.428 252.643 346.44 250.085 341.126 250.577C335.812 251.069 332.17 254.513 332.17 254.513Z" fill="white" stroke="#263238" stroke-miterlimit="10" stroke-linecap="round" stroke-linejoin="round"/>
<path d="M336.796 263.961L337.583 266.913C337.583 266.913 335.221 273.803 335.812 274.196C336.402 274.589 341.224 274.098 341.224 274.098" stroke="#263238" stroke-miterlimit="10" stroke-linecap="round" stroke-linejoin="round"/>
<path d="M340.634 260.91C340.634 260.91 340.536 261.993 340.929 262.189C341.323 262.386 345.161 263.862 345.752 263.666C346.342 263.469 345.554 262.682 345.063 262.485C344.57 262.288 340.437 260.024 340.634 260.91Z" fill="#263238" stroke="#263238" stroke-miterlimit="10" stroke-linecap="round" stroke-linejoin="round"/>
<path d="M336.796 262.485C336.796 262.485 333.647 264.256 333.056 264.354C332.466 264.453 333.45 263.173 333.45 263.173C333.45 263.173 335.812 260.516 336.402 260.909C336.993 261.304 336.796 262.485 336.796 262.485Z" fill="#263238" stroke="#263238" stroke-miterlimit="10" stroke-linecap="round" stroke-linejoin="round"/>
<path d="M341.815 266.421C341.815 266.421 343.488 268.193 345.752 266.815" stroke="#263238" stroke-miterlimit="10" stroke-linecap="round" stroke-linejoin="round"/>
<path d="M333.647 267.209C333.647 267.209 335.221 268.193 336.796 266.618" stroke="#263238" stroke-miterlimit="10" stroke-linecap="round" stroke-linejoin="round"/>
<path d="M354.018 267.11C354.197 265.415 354.536 262.595 354.598 262.082L352.641 261.009C352.641 261.009 353.231 268.291 352.444 272.326C351.657 276.361 350.279 277.64 348.704 278.231C347.13 278.821 346.342 278.034 346.342 278.034C346.342 278.034 342.602 274.491 339.256 274.392C336.336 274.307 334.09 277.519 333.567 278.337C334.189 280.867 334.825 283.639 335.418 284.824C336.304 286.596 338.174 288.268 340.929 288.268C343.685 288.268 346.735 286.005 348.212 284.529C349.688 283.052 352.247 280.986 353.625 278.329C355.002 275.672 353.821 268.98 354.018 267.11Z" fill="#263238" stroke="#263238" stroke-miterlimit="10" stroke-linecap="round" stroke-linejoin="round"/>
<path d="M343.98 280.986C343.98 280.986 341.913 278.034 339.945 277.542C337.977 277.05 335.91 280.888 336.599 281.577C337.288 282.265 338.272 279.707 340.142 280.495C342.011 281.281 343.094 282.561 343.98 280.986Z" fill="white" stroke="#263238" stroke-miterlimit="10" stroke-linecap="round" stroke-linejoin="round"/>
<path d="M331.875 249.297C331.875 249.297 328.923 248.412 327.053 249.396C325.183 250.38 324.297 252.545 324.297 252.545L328.136 252.84L329.907 253.726C329.907 253.726 329.12 253.726 328.726 254.808C328.333 255.891 328.037 257.171 328.037 257.171C328.037 257.171 329.415 256.383 331.58 256.088C333.745 255.793 337.977 254.514 337.977 254.514L338.47 257.762C338.47 257.762 340.93 256.187 342.898 255.597C344.866 255.006 346.047 253.727 346.047 253.727C346.047 253.727 351.165 255.695 351.066 256.581C350.968 257.466 349.196 259.631 349.787 260.32C350.377 261.009 351.952 262.485 351.952 262.485L357.856 265.831C357.856 265.831 360.021 262.485 361.104 257.171C362.187 251.857 357.266 246.149 353.133 244.575C349 243 345.949 243.591 343.39 243.689C340.832 243.787 337.288 243 337.288 243L339.651 245.46C339.651 245.46 337.387 246.346 336.403 246.543C335.419 246.74 333.745 247.232 333.352 247.035C332.958 246.838 331.58 245.953 331.58 245.953C331.58 245.953 330.891 248.904 331.875 249.297Z" fill="#263238" stroke="#263238" stroke-miterlimit="10" stroke-linecap="round" stroke-linejoin="round"/>
<path d="M355.593 271.243C355.593 271.243 357.069 270.456 357.856 269.275C358.643 268.094 360.907 263.567 358.249 262.288C356.236 261.319 354.903 263.059 354.374 263.96C354.254 264.985 354.113 266.207 354.018 267.11C353.82 268.98 355.001 275.672 353.624 278.33C352.247 280.987 349.687 283.054 348.211 284.529C347.645 285.096 346.845 285.778 345.92 286.404L348.408 287.088C348.408 287.088 349.196 289.548 351.361 292.304C353.526 295.059 355.396 296.831 355.396 296.831C355.396 296.831 355.986 293.288 357.561 285.415C359.135 277.541 357.954 273.014 357.954 273.014L355.593 271.243Z" fill="white" stroke="#263238" stroke-miterlimit="10" stroke-linecap="round" stroke-linejoin="round"/>
<path d="M348.408 287.088L351.852 288.072L350.18 290.532C350.18 290.532 348.802 288.269 348.408 287.088Z" fill="#263238" stroke="#263238" stroke-miterlimit="10" stroke-linecap="round" stroke-linejoin="round"/>
<path d="M369.186 284.451L372.041 355.82L378.435 356.276C378.435 356.276 383.916 333.21 385.515 325.331C387.113 317.452 387.684 312.427 387.57 306.147C387.456 299.867 385.971 286.849 385.971 286.849C385.971 286.849 382.66 281.254 379.805 279.312" fill="#92E3A9"/>
<path d="M369.186 284.451L372.041 355.82L378.435 356.276C378.435 356.276 383.916 333.21 385.515 325.331C387.113 317.452 387.684 312.427 387.57 306.147C387.456 299.867 385.971 286.849 385.971 286.849C385.971 286.849 382.66 281.254 379.805 279.312" stroke="#263238" stroke-miterlimit="10" stroke-linecap="round" stroke-linejoin="round"/>
<path d="M382.173 297.796C382.764 295.931 383.116 294.728 383.116 294.728" stroke="#263238" stroke-miterlimit="10" stroke-linecap="round" stroke-linejoin="round"/>
<path d="M370.899 325.788C370.899 325.788 373.639 319.393 376.836 312.313C378.578 308.457 380.285 303.584 381.479 299.947" stroke="#263238" stroke-miterlimit="10" stroke-linecap="round" stroke-linejoin="round"/>
<path d="M378.494 316.12C378.314 316.611 378.14 317.025 377.978 317.338" stroke="#263238" stroke-miterlimit="10" stroke-linecap="round" stroke-linejoin="round"/>
<path d="M381.861 303.064C381.861 303.064 380.452 309.772 379.125 314.191" stroke="#263238" stroke-miterlimit="10" stroke-linecap="round" stroke-linejoin="round"/>
<path d="M372.041 349.539L379.691 349.881" stroke="#263238" stroke-miterlimit="10" stroke-linecap="round" stroke-linejoin="round"/>
<path d="M372.041 355.82C372.041 355.82 371.148 366.837 371.148 367.789C371.148 368.741 371.91 375.693 372.1 376.265C372.29 376.836 377.147 380.455 377.623 380.455C378.099 380.455 380.766 380.741 381.242 379.979C381.718 379.217 381.909 378.741 381.242 378.55C380.575 378.36 378.766 378.455 378.766 378.455L377.718 377.979C377.718 377.979 381.623 377.598 381.909 377.502C382.195 377.407 383.623 376.455 383.909 375.788C384.195 375.121 383.718 374.36 383.718 374.36C383.718 374.36 385.147 373.027 385.242 372.55C385.337 372.074 385.432 370.741 384.766 370.932C384.099 371.122 383.147 372.169 383.147 372.169H380.766C380.766 372.169 383.242 370.551 383.527 370.074C383.813 369.598 384.194 367.598 384.099 367.027C384.003 366.455 382.766 367.122 382.48 367.694C382.194 368.265 381.718 369.789 381.718 369.789L378.861 370.17L377.909 368.932C377.909 368.932 379.814 363.028 379.814 361.79C379.814 360.552 378.435 356.276 378.435 356.276L372.041 355.82Z" fill="white" stroke="#263238" stroke-miterlimit="10" stroke-linecap="round" stroke-linejoin="round"/>
<path d="M375.529 370.265C375.529 370.265 377.624 372.075 378.195 372.265C378.767 372.456 380.766 372.17 380.766 372.17" stroke="#263238" stroke-miterlimit="10" stroke-linecap="round" stroke-linejoin="round"/>
<path d="M374.29 372.361C374.29 372.361 377.528 375.217 378.385 375.217C379.242 375.217 383.718 374.361 383.718 374.361" stroke="#263238" stroke-miterlimit="10" stroke-linecap="round" stroke-linejoin="round"/>
<path d="M373.624 374.836C373.624 374.836 375.529 377.122 376.1 377.312C376.672 377.502 377.719 377.979 377.719 377.979" stroke="#263238" stroke-miterlimit="10" stroke-linecap="round" stroke-linejoin="round"/>
<path d="M434.031 226.947C427.174 230.816 417.286 234.813 410.429 238.682C408.855 239.57 407.276 240.458 405.638 241.217C396.413 245.487 387.09 244.572 378.02 239.988C390.346 237.379 399.449 228.547 403.71 216.692C396.62 213.264 389.634 209.482 384.192 203.793C377.253 196.54 373.531 185.349 374.376 175.348C375.782 158.698 380.263 143.104 390.264 129.718C400.264 116.332 415.013 106.404 431.362 102.933C435.282 102.1 439.267 101.63 443.243 101.165C459.151 99.293 475.867 97.2402 491.801 98.8488C505.994 100.647 523.58 106.064 535.323 114.24C543.534 119.958 559.995 157.538 559.094 168.504C558.192 179.471 555.406 190.084 550.831 200.093C547.415 207.567 543.258 215.045 536.643 219.922C533.206 222.458 529.247 224.179 525.318 225.861C514.252 230.591 502.889 233.877 490.896 234.874C483.392 235.499 475.854 234.68 468.367 233.865C456.482 232.571 445.002 231.691 434.031 226.947Z" fill="#D6E5E5"/>
<path d="M440.405 161.088C441.717 161.088 442.733 160.904 443.453 160.536C444.173 160.168 444.533 159.632 444.533 158.928C444.533 158.304 444.317 157.768 443.885 157.32C443.453 156.856 442.917 156.464 442.277 156.144C441.637 155.824 440.765 155.448 439.661 155.016C439.565 154.984 439.333 154.896 438.965 154.752C437.461 154.144 436.301 153.536 435.485 152.928C434.685 152.32 434.285 151.536 434.285 150.576C434.285 149.504 434.709 148.696 435.557 148.152C436.405 147.608 437.493 147.336 438.821 147.336C439.797 147.336 440.693 147.464 441.509 147.72C442.341 147.96 442.997 148.296 443.477 148.728C443.973 149.16 444.221 149.648 444.221 150.192C444.029 150.288 443.845 150.336 443.669 150.336C443.477 150.336 443.277 150.296 443.069 150.216C442.877 150.12 442.589 149.968 442.205 149.76C441.581 149.424 440.997 149.16 440.453 148.968C439.909 148.76 439.269 148.656 438.533 148.656C437.605 148.656 436.853 148.816 436.277 149.136C435.701 149.456 435.413 149.904 435.413 150.48C435.413 150.928 435.605 151.336 435.989 151.704C436.389 152.072 436.885 152.4 437.477 152.688C438.085 152.96 438.893 153.288 439.901 153.672C441.181 154.168 442.237 154.632 443.069 155.064C443.901 155.496 444.605 156.048 445.181 156.72C445.773 157.376 446.069 158.16 446.069 159.072C446.069 160.144 445.557 160.976 444.533 161.568C443.509 162.144 442.237 162.432 440.717 162.432C439.517 162.432 438.333 162.256 437.165 161.904C435.997 161.552 434.997 161.032 434.165 160.344C433.333 159.64 432.805 158.8 432.581 157.824C432.581 157.392 432.701 157.024 432.941 156.72C433.181 156.4 433.477 156.24 433.829 156.24C433.829 157.28 434.117 158.168 434.693 158.904C435.285 159.624 436.077 160.168 437.069 160.536C438.077 160.904 439.189 161.088 440.405 161.088ZM452.948 162.024C452.004 162.024 451.148 161.816 450.38 161.4C449.628 160.968 449.036 160.376 448.604 159.624C448.188 158.856 447.98 157.984 447.98 157.008C447.98 155.408 448.564 154.216 449.732 153.432C450.916 152.648 452.364 152.256 454.076 152.256C454.86 152.256 455.588 152.448 456.26 152.832C456.948 153.216 457.5 153.768 457.916 154.488C458.332 155.208 458.54 156.04 458.54 156.984C458.54 158.008 458.276 158.904 457.748 159.672C457.22 160.424 456.524 161.008 455.66 161.424C454.812 161.824 453.908 162.024 452.948 162.024ZM452.684 160.656C454.172 160.656 455.3 160.32 456.068 159.648C456.836 158.976 457.22 157.992 457.22 156.696C457.22 155.816 456.916 155.056 456.308 154.416C455.716 153.776 454.884 153.456 453.812 153.456C453.092 153.456 452.364 153.592 451.628 153.864C450.892 154.136 450.284 154.544 449.804 155.088C449.324 155.632 449.084 156.288 449.084 157.056C449.084 157.696 449.244 158.296 449.564 158.856C449.884 159.4 450.316 159.84 450.86 160.176C451.42 160.496 452.028 160.656 452.684 160.656ZM462.56 162C461.904 160.72 461.384 159.216 461 157.488C460.632 155.76 460.448 154.264 460.448 153C460.448 152.504 460.56 152.184 460.784 152.04C460.912 151.96 461.008 151.92 461.072 151.92C461.184 151.92 461.264 152.008 461.312 152.184C461.376 152.36 461.44 152.68 461.504 153.144L461.624 154.008C461.8 153.144 462.136 152.464 462.632 151.968C463.144 151.456 463.768 151.2 464.504 151.2C465.32 151.2 465.928 151.36 466.328 151.68C466.728 151.984 466.928 152.496 466.928 153.216C466.128 152.832 465.4 152.64 464.744 152.64C464.12 152.64 463.584 152.808 463.136 153.144C462.688 153.48 462.376 153.976 462.2 154.632C462.056 155.08 461.984 155.504 461.984 155.904C461.984 156.336 462.04 156.744 462.152 157.128C462.28 157.496 462.472 157.952 462.728 158.496C462.968 159.056 463.152 159.536 463.28 159.936C463.424 160.336 463.504 160.768 463.52 161.232C463.52 161.504 463.424 161.704 463.232 161.832C463.04 161.944 462.816 162 462.56 162ZM469.99 162C469.334 160.72 468.814 159.216 468.43 157.488C468.062 155.76 467.878 154.264 467.878 153C467.878 152.504 467.99 152.184 468.214 152.04C468.342 151.96 468.438 151.92 468.502 151.92C468.614 151.92 468.694 152.008 468.742 152.184C468.806 152.36 468.87 152.68 468.934 153.144L469.054 154.008C469.23 153.144 469.566 152.464 470.062 151.968C470.574 151.456 471.198 151.2 471.934 151.2C472.75 151.2 473.358 151.36 473.758 151.68C474.158 151.984 474.358 152.496 474.358 153.216C473.558 152.832 472.83 152.64 472.174 152.64C471.55 152.64 471.014 152.808 470.566 153.144C470.118 153.48 469.806 153.976 469.63 154.632C469.486 155.08 469.414 155.504 469.414 155.904C469.414 156.336 469.47 156.744 469.582 157.128C469.71 157.496 469.902 157.952 470.158 158.496C470.398 159.056 470.582 159.536 470.71 159.936C470.854 160.336 470.934 160.768 470.95 161.232C470.95 161.504 470.854 161.704 470.662 161.832C470.47 161.944 470.246 162 469.99 162ZM481.884 173.352C480.796 173.352 479.82 173.12 478.956 172.656C478.108 172.192 477.428 171.656 476.916 171.048C476.404 170.44 476.116 169.944 476.052 169.56C475.988 169.208 476.068 168.936 476.292 168.744C476.532 168.552 476.828 168.472 477.18 168.504C477.676 169.688 478.268 170.6 478.956 171.24C479.644 171.88 480.628 172.216 481.908 172.248C482.804 172.264 483.516 171.688 484.044 170.52C484.588 169.368 484.972 167.952 485.196 166.272C485.42 164.608 485.532 162.968 485.532 161.352C485.532 160.52 485.508 159.84 485.46 159.312C484.244 160.8 482.692 161.544 480.804 161.544C479.172 161.544 477.916 160.768 477.036 159.216C476.172 157.664 475.612 155.912 475.356 153.96C475.324 153.768 475.308 153.496 475.308 153.144C475.308 152.136 475.636 151.632 476.292 151.632C476.356 151.632 476.444 152.032 476.556 152.832C476.732 154.096 476.948 155.232 477.204 156.24C477.46 157.248 477.884 158.168 478.476 159C479.084 159.816 479.884 160.224 480.876 160.224C481.66 160.224 482.46 159.968 483.276 159.456C484.108 158.928 484.708 158.344 485.076 157.704C485.076 156.488 484.916 155.4 484.596 154.44C484.292 153.464 484.132 152.944 484.116 152.88C484.084 152.528 484.068 152.304 484.068 152.208C484.068 151.888 484.116 151.656 484.212 151.512C484.324 151.368 484.484 151.296 484.692 151.296C484.916 151.296 485.172 151.752 485.46 152.664C485.748 153.576 486.004 154.768 486.228 156.24C486.452 157.712 486.604 159.248 486.684 160.848C486.716 161.68 486.732 162.296 486.732 162.696C486.732 165.768 486.348 168.312 485.58 170.328C484.828 172.344 483.596 173.352 481.884 173.352ZM490.18 162C489.892 162 489.636 161.872 489.412 161.616C489.204 161.344 489.036 161.032 488.908 160.68C488.796 160.312 488.74 160 488.74 159.744C488.74 159.232 488.812 158.808 488.956 158.472C489.116 158.12 489.3 157.872 489.508 157.728C489.716 157.568 489.908 157.488 490.084 157.488C490.644 157.488 491.092 157.76 491.428 158.304C491.764 158.832 491.932 159.4 491.932 160.008C491.932 160.248 491.836 160.528 491.644 160.848C491.468 161.168 491.244 161.44 490.972 161.664C490.7 161.888 490.436 162 490.18 162ZM495.078 162C494.79 162 494.534 161.872 494.31 161.616C494.102 161.344 493.934 161.032 493.806 160.68C493.694 160.312 493.638 160 493.638 159.744C493.638 159.232 493.71 158.808 493.854 158.472C494.014 158.12 494.198 157.872 494.406 157.728C494.614 157.568 494.806 157.488 494.982 157.488C495.542 157.488 495.99 157.76 496.326 158.304C496.662 158.832 496.83 159.4 496.83 160.008C496.83 160.248 496.734 160.528 496.542 160.848C496.366 161.168 496.142 161.44 495.87 161.664C495.598 161.888 495.334 162 495.078 162ZM499.976 162C499.688 162 499.432 161.872 499.208 161.616C499 161.344 498.832 161.032 498.704 160.68C498.592 160.312 498.536 160 498.536 159.744C498.536 159.232 498.608 158.808 498.752 158.472C498.912 158.12 499.096 157.872 499.304 157.728C499.512 157.568 499.704 157.488 499.88 157.488C500.44 157.488 500.888 157.76 501.224 158.304C501.56 158.832 501.728 159.4 501.728 160.008C501.728 160.248 501.632 160.528 501.44 160.848C501.264 161.168 501.04 161.44 500.768 161.664C500.496 161.888 500.232 162 499.976 162ZM396.947 174.048C397.411 174.048 397.891 174.504 398.387 175.416C398.883 176.328 399.299 177.376 399.635 178.56C399.971 179.728 400.139 180.6 400.139 181.176C400.139 182.056 399.947 182.848 399.563 183.552C399.195 184.24 398.667 184.784 397.979 185.184C397.291 185.568 396.507 185.76 395.627 185.76C394.411 185.76 393.355 185.432 392.459 184.776C391.579 184.12 390.875 183.368 390.347 182.52C389.819 181.656 389.275 180.624 388.715 179.424L388.379 178.704L388.427 184.512C388.427 184.864 388.363 185.208 388.235 185.544C388.123 185.864 387.923 186.024 387.635 186.024C387.347 186.024 387.139 185.864 387.011 185.544C386.883 185.208 386.819 184.88 386.819 184.56C386.819 183.536 386.899 182.064 387.059 180.144C387.219 178.224 387.299 176.792 387.299 175.848C387.299 175.624 387.283 175.392 387.251 175.152C387.219 174.912 387.195 174.744 387.179 174.648C387.099 174.216 387.059 173.832 387.059 173.496V173.4C387.107 173.4 387.251 173.368 387.491 173.304C387.747 173.224 387.899 173.184 387.947 173.184H388.187C388.795 175.92 389.691 178.448 390.875 180.768C392.075 183.072 393.715 184.224 395.795 184.224C396.771 184.224 397.507 183.936 398.003 183.36C398.515 182.768 398.771 181.976 398.771 180.984C398.771 180.136 398.635 179.36 398.363 178.656C398.091 177.936 397.683 177.056 397.139 176.016L396.491 174.744C396.443 174.664 396.419 174.584 396.419 174.504C396.419 174.376 396.467 174.272 396.563 174.192C396.659 174.096 396.787 174.048 396.947 174.048ZM388.427 184.512V184.464V184.512ZM407.502 186.024C406.558 186.024 405.702 185.816 404.934 185.4C404.182 184.968 403.59 184.376 403.158 183.624C402.742 182.856 402.534 181.984 402.534 181.008C402.534 179.408 403.118 178.216 404.286 177.432C405.47 176.648 406.918 176.256 408.63 176.256C409.414 176.256 410.142 176.448 410.814 176.832C411.502 177.216 412.054 177.768 412.47 178.488C412.886 179.208 413.094 180.04 413.094 180.984C413.094 182.008 412.83 182.904 412.302 183.672C411.774 184.424 411.078 185.008 410.214 185.424C409.366 185.824 408.462 186.024 407.502 186.024ZM407.238 184.656C408.726 184.656 409.854 184.32 410.622 183.648C411.39 182.976 411.774 181.992 411.774 180.696C411.774 179.816 411.47 179.056 410.862 178.416C410.27 177.776 409.438 177.456 408.366 177.456C407.646 177.456 406.918 177.592 406.182 177.864C405.446 178.136 404.838 178.544 404.358 179.088C403.878 179.632 403.638 180.288 403.638 181.056C403.638 181.696 403.798 182.296 404.118 182.856C404.438 183.4 404.87 183.84 405.414 184.176C405.974 184.496 406.582 184.656 407.238 184.656ZM423.835 194.544C423.515 194.544 423.131 193.688 422.683 191.976C422.251 190.264 421.859 188.36 421.507 186.264C421.171 184.184 421.003 182.872 421.003 182.328C421.003 180.712 421.547 179.536 422.635 178.8C423.723 178.048 425.123 177.672 426.835 177.672C427.747 177.672 428.611 177.864 429.427 178.248C430.243 178.616 430.899 179.152 431.395 179.856C431.891 180.544 432.139 181.344 432.139 182.256C432.139 183.392 431.739 184.192 430.939 184.656C430.155 185.12 429.163 185.352 427.963 185.352C426.715 185.352 425.651 185.144 424.771 184.728C423.907 184.296 423.475 183.712 423.475 182.976L423.499 182.736C423.611 182.608 423.731 182.544 423.859 182.544C423.971 182.544 424.091 182.592 424.219 182.688C424.363 182.768 424.515 182.864 424.675 182.976C425.171 183.344 425.659 183.64 426.139 183.864C426.635 184.088 427.251 184.2 427.987 184.2C428.995 184.2 429.707 184.024 430.123 183.672C430.555 183.304 430.771 182.728 430.771 181.944C430.771 181.368 430.579 180.856 430.195 180.408C429.811 179.96 429.315 179.616 428.707 179.376C428.099 179.136 427.475 179.016 426.835 179.016C425.347 179.016 424.227 179.336 423.475 179.976C422.723 180.6 422.387 181.648 422.467 183.12C422.611 185.616 422.835 187.712 423.139 189.408C423.459 191.104 424.011 192.544 424.795 193.728L424.819 193.776C424.819 193.808 424.779 193.84 424.699 193.872C424.635 193.92 424.587 193.96 424.555 193.992C424.363 194.296 424.123 194.48 423.835 194.544ZM434.651 185.832C434.299 184.088 434.027 182.024 433.835 179.64C433.659 177.24 433.571 174.92 433.571 172.68C433.571 171.56 433.595 170.568 433.643 169.704C433.643 169.496 433.803 169.392 434.123 169.392C434.379 169.392 434.539 169.456 434.603 169.584C434.683 169.712 434.723 169.912 434.723 170.184C434.723 172.776 434.771 174.992 434.867 176.832C434.963 178.656 435.091 180.624 435.251 182.736C435.347 184.096 435.411 185.016 435.443 185.496C435.459 185.752 435.323 185.88 435.035 185.88C434.939 185.88 434.811 185.864 434.651 185.832ZM443.53 186C441.866 186 440.418 185.712 439.186 185.136C437.97 184.544 437.362 183.512 437.362 182.04C437.362 181.512 437.522 181 437.842 180.504C438.162 180.008 438.634 179.608 439.258 179.304C439.882 178.984 440.642 178.824 441.538 178.824C442.226 178.824 442.81 178.856 443.29 178.92C443.77 178.984 444.322 179.16 444.946 179.448C445.57 179.736 446.218 180.192 446.89 180.816C446.634 179.712 446.25 178.744 445.738 177.912C445.226 177.08 444.65 176.44 444.01 175.992C443.386 175.528 442.77 175.296 442.162 175.296C441.874 175.296 441.602 175.352 441.346 175.464C441.106 175.56 440.81 175.704 440.458 175.896C440.058 176.152 439.762 176.28 439.57 176.28C439.49 176.28 439.418 176.256 439.354 176.208C439.306 176.144 439.282 176.072 439.282 175.992C439.282 175.352 439.562 174.856 440.122 174.504C440.698 174.152 441.394 173.992 442.21 174.024C443.33 174.088 444.354 174.568 445.282 175.464C446.21 176.344 446.938 177.44 447.466 178.752C448.01 180.064 448.282 181.352 448.282 182.616C448.282 182.824 448.266 183.12 448.234 183.504L447.466 183.456C446.858 182.224 446.074 181.352 445.114 180.84C444.17 180.312 443.218 180.048 442.258 180.048C441.026 180.048 440.146 180.232 439.618 180.6C439.09 180.968 438.826 181.504 438.826 182.208C438.826 182.944 439.194 183.536 439.93 183.984C440.666 184.432 441.61 184.656 442.762 184.656C443.402 184.656 443.914 184.624 444.298 184.56C444.682 184.48 445.082 184.376 445.498 184.248C445.834 184.136 446.13 184.056 446.386 184.008C446.642 183.96 446.97 183.936 447.37 183.936C447.818 183.936 448.098 183.968 448.21 184.032C448.338 184.096 448.402 184.24 448.402 184.464C448.402 184.624 448.074 184.824 447.418 185.064C446.762 185.304 446.026 185.52 445.21 185.712C444.394 185.904 443.834 186 443.53 186ZM452.603 186.096C452.379 186.16 452.251 186.192 452.219 186.192C452.091 186.192 451.955 186.128 451.811 186C451.283 185.216 450.899 183.848 450.659 181.896C450.435 179.944 450.323 178.264 450.323 176.856C450.323 176.632 450.483 176.52 450.803 176.52C451.283 176.52 451.523 176.784 451.523 177.312C451.523 177.456 451.515 177.576 451.499 177.672C451.643 177.336 451.915 176.992 452.315 176.64C452.715 176.288 453.179 175.992 453.707 175.752C454.235 175.512 454.771 175.392 455.315 175.392C457.027 175.392 458.275 176.152 459.059 177.672C459.843 179.176 460.235 181.048 460.235 183.288C460.235 184.056 460.155 184.672 459.995 185.136C459.835 185.584 459.619 185.808 459.347 185.808C459.059 185.808 458.915 185.72 458.915 185.544C459.027 184.696 459.083 183.864 459.083 183.048C459.083 180.984 458.723 179.424 458.003 178.368C457.283 177.296 456.331 176.76 455.147 176.76C454.571 176.76 454.011 176.904 453.467 177.192C452.939 177.48 452.507 177.88 452.171 178.392C451.851 178.904 451.691 179.488 451.691 180.144C451.691 180.88 451.731 181.52 451.811 182.064C451.891 182.608 452.019 183.264 452.195 184.032C452.387 184.784 452.523 185.472 452.603 186.096ZM466.023 186C465.863 186.032 465.759 186.048 465.711 186.048C465.215 186.048 464.871 185.68 464.679 184.944C464.503 184.208 464.415 183.176 464.415 181.848C464.415 181.304 464.431 180.456 464.463 179.304C464.495 178.6 464.511 178.072 464.511 177.72C462.543 177.72 461.559 177.496 461.559 177.048C461.559 176.904 461.575 176.792 461.607 176.712C461.655 176.632 461.751 176.592 461.895 176.592L464.511 176.424C464.495 175.64 464.455 174.784 464.391 173.856C464.327 173.024 464.287 172.256 464.271 171.552C464.271 171.376 464.343 171.256 464.487 171.192C464.631 171.112 464.783 171.072 464.943 171.072C465.135 171.072 465.295 171.176 465.423 171.384C465.551 171.576 465.615 171.776 465.615 171.984L465.783 176.376L467.775 176.472C468.079 176.44 468.335 176.496 468.543 176.64C468.767 176.784 468.887 177.024 468.903 177.36C468.567 177.504 468.199 177.592 467.799 177.624C467.399 177.656 466.727 177.672 465.783 177.672C465.783 179.16 465.855 181.608 465.999 185.016C465.999 185.368 465.999 185.616 465.999 185.76C466.015 185.888 466.023 185.968 466.023 186ZM470.342 183.168C470.566 182.992 470.782 182.904 470.99 182.904C471.182 182.904 471.366 182.96 471.542 183.072C471.734 183.184 471.926 183.328 472.118 183.504C472.31 183.664 472.462 183.784 472.574 183.864C472.942 184.152 473.446 184.376 474.086 184.536C474.726 184.696 475.406 184.776 476.126 184.776C476.942 184.776 477.67 184.624 478.31 184.32C478.966 184 479.294 183.576 479.294 183.048C479.294 182.568 479.118 182.192 478.766 181.92C478.414 181.632 477.99 181.424 477.494 181.296C476.998 181.168 476.342 181.048 475.526 180.936C474.422 180.808 473.542 180.648 472.886 180.456C472.246 180.264 471.734 179.952 471.35 179.52C470.966 179.072 470.774 178.448 470.774 177.648C470.774 176.784 471.182 176.144 471.998 175.728C472.814 175.296 473.75 175.08 474.806 175.08C475.766 175.08 476.582 175.288 477.254 175.704C477.942 176.104 478.294 176.68 478.31 177.432C478.342 177.864 478.278 178.208 478.118 178.464C477.958 178.704 477.766 178.824 477.542 178.824C477.414 178.824 477.302 178.776 477.206 178.68C477.126 178.584 477.086 178.456 477.086 178.296C477.086 178.04 477.174 177.76 477.35 177.456C477.27 177.072 477.006 176.784 476.558 176.592C476.126 176.4 475.606 176.304 474.998 176.304C474.102 176.304 473.39 176.472 472.862 176.808C472.334 177.128 472.07 177.512 472.07 177.96C472.07 178.44 472.262 178.808 472.646 179.064C473.03 179.32 473.494 179.504 474.038 179.616C474.598 179.712 475.39 179.808 476.414 179.904C477.262 180.016 477.95 180.152 478.478 180.312C479.022 180.472 479.478 180.784 479.846 181.248C480.214 181.696 480.398 182.344 480.398 183.192C480.398 184.072 479.99 184.768 479.174 185.28C478.358 185.776 477.382 186.024 476.246 186.024C474.79 186.024 473.486 185.776 472.334 185.28C471.198 184.784 470.534 184.08 470.342 183.168ZM494.337 169.104C495.057 169.104 495.745 169.288 496.401 169.656C497.057 170.008 497.585 170.464 497.985 171.024C498.401 171.584 498.609 172.144 498.609 172.704H498.081C497.841 172.704 497.625 172.632 497.433 172.488C497.257 172.344 497.025 172.112 496.737 171.792C496.321 171.344 495.945 171.008 495.609 170.784C495.289 170.56 494.873 170.448 494.361 170.448C493.481 170.448 492.745 170.856 492.153 171.672C491.561 172.472 491.209 173.416 491.097 174.504C491.049 175 491.025 175.496 491.025 175.992C491.025 176.808 491.081 177.56 491.193 178.248C491.401 178.28 491.889 178.32 492.657 178.368C493.425 178.416 494.057 178.456 494.553 178.488C494.729 178.488 495.073 178.504 495.585 178.536C495.745 178.536 495.857 178.576 495.921 178.656C496.001 178.72 496.041 178.84 496.041 179.016C496.041 179.448 495.553 179.664 494.577 179.664C493.729 179.664 492.665 179.512 491.385 179.208C491.561 179.928 491.785 180.592 492.057 181.2C492.329 181.792 492.681 182.504 493.113 183.336C493.417 183.928 493.641 184.392 493.785 184.728C493.929 185.048 494.001 185.32 494.001 185.544C494.001 185.72 493.945 185.848 493.833 185.928C493.721 185.992 493.561 186.024 493.353 186.024C492.921 186.024 492.513 185.568 492.129 184.656C491.761 183.728 491.337 182.448 490.857 180.816L490.425 179.4C490.073 179.432 489.633 179.528 489.105 179.688C489.057 179.704 488.889 179.752 488.601 179.832C488.329 179.896 488.081 179.928 487.857 179.928C487.601 179.928 487.473 179.776 487.473 179.472C487.473 179.072 487.681 178.808 488.097 178.68C488.513 178.536 488.905 178.456 489.273 178.44C489.641 178.408 489.873 178.384 489.969 178.368C489.937 177.76 489.921 177.216 489.921 176.736C489.921 174.672 490.233 172.888 490.857 171.384C491.497 169.864 492.657 169.104 494.337 169.104ZM503.104 186.024C502.16 186.024 501.304 185.816 500.536 185.4C499.784 184.968 499.192 184.376 498.76 183.624C498.344 182.856 498.136 181.984 498.136 181.008C498.136 179.408 498.72 178.216 499.888 177.432C501.072 176.648 502.52 176.256 504.232 176.256C505.016 176.256 505.744 176.448 506.416 176.832C507.104 177.216 507.656 177.768 508.072 178.488C508.488 179.208 508.696 180.04 508.696 180.984C508.696 182.008 508.432 182.904 507.904 183.672C507.376 184.424 506.68 185.008 505.816 185.424C504.968 185.824 504.064 186.024 503.104 186.024ZM502.84 184.656C504.328 184.656 505.456 184.32 506.224 183.648C506.992 182.976 507.376 181.992 507.376 180.696C507.376 179.816 507.072 179.056 506.464 178.416C505.872 177.776 505.04 177.456 503.968 177.456C503.248 177.456 502.52 177.592 501.784 177.864C501.048 178.136 500.44 178.544 499.96 179.088C499.48 179.632 499.24 180.288 499.24 181.056C499.24 181.696 499.4 182.296 499.72 182.856C500.04 183.4 500.472 183.84 501.016 184.176C501.576 184.496 502.184 184.656 502.84 184.656ZM521.645 185.88C521.357 185.88 521.125 185.76 520.949 185.52C520.789 185.264 520.645 184.88 520.517 184.368C520.389 183.84 520.189 182.928 519.917 181.632C519.645 182.704 519.133 183.56 518.381 184.2C517.629 184.824 516.709 185.136 515.621 185.136C514.629 185.136 513.789 184.792 513.101 184.104C512.429 183.4 511.925 182.48 511.589 181.344C511.253 180.192 511.085 178.952 511.085 177.624C511.085 177.016 511.141 176.496 511.253 176.064C511.381 175.616 511.533 175.28 511.709 175.056C511.901 174.832 512.085 174.728 512.261 174.744C512.453 174.744 512.549 174.872 512.549 175.128C512.549 175.336 512.493 175.664 512.381 176.112C512.269 176.608 512.213 177.176 512.213 177.816C512.213 178.776 512.349 179.712 512.621 180.624C512.909 181.536 513.325 182.288 513.869 182.88C514.429 183.456 515.085 183.744 515.837 183.744C516.461 183.744 517.029 183.56 517.541 183.192C518.053 182.824 518.453 182.36 518.741 181.8C519.045 181.24 519.197 180.688 519.197 180.144V176.328C519.373 175.992 519.613 175.824 519.917 175.824C520.189 175.824 520.373 176.056 520.469 176.52C520.565 176.984 520.613 177.64 520.613 178.488C520.613 179.208 520.605 179.76 520.589 180.144C520.685 180.672 520.829 181.208 521.021 181.752C521.229 182.296 521.485 182.912 521.789 183.6C522.157 184.448 522.341 184.968 522.341 185.16C522.341 185.64 522.109 185.88 521.645 185.88ZM526.549 186.096C526.325 186.16 526.197 186.192 526.165 186.192C526.037 186.192 525.901 186.128 525.757 186C525.229 185.216 524.845 183.848 524.605 181.896C524.381 179.944 524.269 178.264 524.269 176.856C524.269 176.632 524.429 176.52 524.749 176.52C525.229 176.52 525.469 176.784 525.469 177.312C525.469 177.456 525.461 177.576 525.445 177.672C525.589 177.336 525.861 176.992 526.261 176.64C526.661 176.288 527.125 175.992 527.653 175.752C528.181 175.512 528.717 175.392 529.261 175.392C530.973 175.392 532.221 176.152 533.005 177.672C533.789 179.176 534.181 181.048 534.181 183.288C534.181 184.056 534.101 184.672 533.941 185.136C533.781 185.584 533.565 185.808 533.293 185.808C533.005 185.808 532.861 185.72 532.861 185.544C532.973 184.696 533.029 183.864 533.029 183.048C533.029 180.984 532.669 179.424 531.949 178.368C531.229 177.296 530.277 176.76 529.093 176.76C528.517 176.76 527.957 176.904 527.413 177.192C526.885 177.48 526.453 177.88 526.117 178.392C525.797 178.904 525.637 179.488 525.637 180.144C525.637 180.88 525.677 181.52 525.757 182.064C525.837 182.608 525.965 183.264 526.141 184.032C526.333 184.784 526.469 185.472 526.549 186.096ZM540.209 185.976C539.457 185.976 538.801 185.72 538.241 185.208C537.697 184.696 537.281 184.032 536.993 183.216C536.721 182.4 536.585 181.552 536.585 180.672C536.585 179.136 536.905 177.84 537.545 176.784C538.201 175.728 539.193 175.2 540.521 175.2C541.321 175.2 542.017 175.344 542.609 175.632C543.217 175.904 544.009 176.368 544.985 177.024L545.609 177.456C545.529 176.928 545.409 176.32 545.249 175.632C545.089 174.944 544.985 174.472 544.937 174.216C544.665 172.968 544.465 172.04 544.337 171.432C544.225 170.808 544.169 170.256 544.169 169.776C544.169 168.928 544.409 168.504 544.889 168.504C545.065 168.888 545.273 169.712 545.513 170.976C545.753 172.224 546.057 173.936 546.425 176.112C546.809 178.416 547.145 180.296 547.433 181.752C547.721 183.208 547.961 184.12 548.153 184.488C548.153 184.856 547.881 185.04 547.337 185.04C546.921 185.04 546.633 184.8 546.473 184.32C546.329 183.84 546.241 183 546.209 181.8H546.017C545.345 183.016 544.473 184.016 543.401 184.8C542.329 185.584 541.265 185.976 540.209 185.976ZM540.521 184.8C541.177 184.8 541.881 184.528 542.633 183.984C543.401 183.424 544.049 182.752 544.577 181.968C545.105 181.168 545.369 180.448 545.369 179.808V179.088C543.721 177.36 542.201 176.496 540.809 176.496C539.833 176.496 539.081 176.856 538.553 177.576C538.025 178.28 537.761 179.208 537.761 180.36L537.785 180.864C537.881 182.08 538.153 183.04 538.601 183.744C539.049 184.448 539.689 184.8 540.521 184.8Z" fill="#3A6336"/>
</svg>
