<svg width="358" height="93" viewBox="0 0 358 93" fill="none" xmlns="http://www.w3.org/2000/svg">
<path d="M265 30C265 28.8954 265.895 28 267 28H275C276.105 28 277 28.8954 277 30V70C277 71.1046 276.105 72 275 72H267C265.895 72 265 71.1046 265 70V30Z" fill="#795548"/>
<path d="M268.542 19.8542C268.542 19.8542 267.631 14.3125 273.687 14.3125C277.646 14.3125 280.417 17.4792 280.417 17.4792C280.417 17.4792 277.448 22.2292 272.896 22.2292C269.333 22.2292 268.542 19.8542 268.542 19.8542ZM270.125 13.125C270.125 10.7104 267.75 8.375 267.75 8.375C267.75 8.375 264.86 10.0771 264.583 13.5208C264.306 16.9646 266.879 17.7562 266.879 17.7562C266.879 17.7562 270.125 16.6083 270.125 13.125Z" fill="#8BC34A"/>
<path d="M280.417 17.4792C280.417 17.4792 277.448 22.2292 272.896 22.2292C270.521 22.2292 269.373 21.1604 268.858 20.4479C267.71 21.4375 267.315 22.3479 267.315 22.3875C267.275 22.5458 267.117 22.625 266.958 22.625C266.919 22.625 266.84 22.625 266.8 22.5854C266.602 22.5063 266.523 22.2687 266.602 22.0708C266.642 21.9521 267.631 19.775 270.64 18.35C274.994 16.0542 280.417 17.4792 280.417 17.4792ZM267.354 19.8542C267.394 19.8542 267.433 19.8542 267.473 19.8146C267.671 19.7354 267.79 19.4979 267.71 19.3C267.512 18.7062 267.354 18.1521 267.275 17.5583C268.146 17.1625 270.125 15.8563 270.125 13.125C270.125 10.7104 267.75 8.375 267.75 8.375C267.75 8.375 267.592 8.81042 267.354 9.5625C267.275 9.76042 265.296 14.9458 266.998 19.5771C267.037 19.7354 267.196 19.8542 267.354 19.8542Z" fill="#689F38"/>
<path d="M84.0109 72H72.1429V9.44H91.6469C96.2469 9.44 100.418 10.1147 104.159 11.464C107.9 12.8133 110.875 14.96 113.083 17.904C115.352 20.848 116.487 24.712 116.487 29.496C116.487 32.992 115.782 36.0587 114.371 38.696C112.96 41.3333 111.028 43.5107 108.575 45.228C106.183 46.884 103.454 48.1413 100.387 49C97.3816 49.7973 94.2229 50.196 90.9109 50.196H84.0109V72ZM91.2789 19.376H84.0109V40.352H91.5549C93.9469 40.352 96.0322 40.0147 97.8109 39.34C99.6509 38.604 101.092 37.5 102.135 36.028C103.178 34.4947 103.76 32.5627 103.883 30.232C103.883 27.5333 103.362 25.3867 102.319 23.792C101.338 22.1973 99.9269 21.0627 98.0869 20.388C96.2469 19.7133 93.9776 19.376 91.2789 19.376ZM134.776 72H122.908V8.06L134.776 7.048V72ZM193.565 72H181.605V27.38H189.425L191.449 32.072C193.35 30.784 195.313 29.68 197.337 28.76C199.422 27.7787 201.416 27.0733 203.317 26.644C205.28 26.1533 207.058 25.908 208.653 25.908C212.701 25.908 215.798 26.7053 217.945 28.3C220.153 29.8947 221.686 32.072 222.545 34.832C223.465 37.5307 223.925 40.5973 223.925 44.032V72H211.965V44.584C211.965 41.7013 211.382 39.524 210.217 38.052C209.052 36.58 207.488 35.844 205.525 35.844C204.053 35.844 202.581 36.12 201.109 36.672C199.637 37.224 198.257 37.9293 196.969 38.788C195.742 39.6467 194.608 40.444 193.565 41.18V72ZM253.768 27.564L257.448 36.58H245.672V55.624C245.672 57.9547 246.224 59.856 247.328 61.328C248.432 62.8 250.057 63.536 252.204 63.536C253.001 63.536 253.799 63.444 254.596 63.26C255.393 63.076 256.221 62.8 257.08 62.432L260.576 71.08C259.963 71.5707 259.135 72 258.092 72.368C257.049 72.7973 255.945 73.1347 254.78 73.38C253.615 73.6867 252.541 73.84 251.56 73.84C247.88 73.84 244.721 73.2267 242.084 72C239.508 70.712 237.484 68.872 236.012 66.48C234.54 64.088 233.804 61.1747 233.804 57.74V36.58H227.732L227.824 27.564H233.804V16.892L245.672 14.776V27.564H253.768ZM279.939 36.58L280.031 27.564H286.839V24.068C286.839 20.6333 287.545 17.6893 288.955 15.236C290.366 12.7213 292.359 10.7893 294.935 9.44C297.511 8.09067 300.639 7.416 304.319 7.416C305.301 7.416 306.374 7.53866 307.539 7.784C308.705 8.02933 309.778 8.36667 310.759 8.796C311.802 9.22533 312.63 9.716 313.243 10.268L309.839 19.008C308.919 18.5787 308.03 18.272 307.171 18.088C306.374 17.8427 305.607 17.72 304.871 17.72C302.847 17.72 301.345 18.4867 300.363 20.02C299.443 21.492 298.983 23.424 298.983 25.816V27.564H307.355L311.127 36.58H298.983V72H286.839V36.58H279.939ZM325.576 74.116L327.692 68.872L312.328 29.312L324.104 25.632L334.5 54.428L344.16 27.38H356.764L336.8 77.888C335.88 80.28 334.438 82.4573 332.476 84.42C330.513 86.444 328.274 88.1307 325.76 89.48C323.306 90.8293 320.761 91.8107 318.124 92.424L313.892 82.58C315.302 81.9667 316.805 81.2613 318.4 80.464C320.056 79.6667 321.528 78.7467 322.816 77.704C324.165 76.6613 325.085 75.4653 325.576 74.116Z" fill="#518C4C"/>
<path d="M159 22.0372L142 64.3429C142 64.3429 147.362 72 159 72C170.638 72 176 64.3429 176 64.3429L159 22.0372Z" fill="#3A6336"/>
<path d="M159 11.3171L145.923 43.2857C145.923 43.2857 148.146 49.0286 159 49.0286C169.854 49.0286 172.077 43.2857 172.077 43.2857L159 11.3171Z" fill="#689F38"/>
<path d="M159 5L149.846 24.1429C149.846 24.1429 151.677 27.9714 159 27.9714C166.323 27.9714 168.154 24.1429 168.154 24.1429L159 5Z" fill="#ACDD73"/>
<g clip-path="url(#clip0_2_51)">
<path d="M23.7606 30.6833C24.0754 30.5834 24.3376 30.3629 24.4895 30.0703C24.6415 29.7777 24.6708 29.4369 24.571 29.1227C23.1621 24.7144 25.6743 21.0397 28.4982 19.0501C31.1289 17.1848 33.6224 16.563 36.5086 15.8791C39.8187 15.0646 43.5652 14.1443 47.9351 11.079C48.2288 10.8576 48.5492 10.6738 48.8888 10.5319C49.1349 11.6127 49.25 12.7191 49.2317 13.8272C49.4561 20.1133 47.8042 25.1931 44.3881 28.9673C40.2613 33.5186 33.7408 34.5632 28.9533 33.3694C29.533 31.187 31.2349 26.5299 37.7429 23.7009C38.0454 23.5673 38.2824 23.3194 38.4017 23.0115C38.5209 22.7037 38.5127 22.3612 38.3787 22.0594C38.2448 21.7577 37.9962 21.5213 37.6876 21.4024C37.3789 21.2834 37.0356 21.2917 36.733 21.4252C31.185 23.8439 27.638 27.8916 26.3912 33.4191C26.1045 34.6627 25.7304 36.7642 25.5247 38.2503C25.4916 38.5774 25.5897 38.9044 25.7977 39.1596C26.0056 39.4148 26.3065 39.5774 26.6343 39.6119H26.7652C27.0744 39.6136 27.3732 39.5007 27.6036 39.295C27.834 39.0894 27.9795 38.8056 28.012 38.499C28.012 38.499 28.1429 37.2865 28.4172 35.7818C29.8458 36.1273 31.3108 36.3006 32.7808 36.2979C37.4873 36.2979 42.6551 34.6067 46.2582 30.6274C50.1294 26.3621 51.9746 20.6791 51.7501 13.7589C51.6566 10.9733 51.4821 8.94638 50.0421 8.23134C48.8327 7.60958 47.5486 8.36192 46.5263 9.06451C42.5367 11.8625 39.1829 12.6832 35.9289 13.4853C32.9242 14.219 30.0878 14.9153 27.0707 17.0356C23.5299 19.5226 20.3881 24.2045 22.2084 29.8937C22.3125 30.2014 22.5332 30.4563 22.8232 30.6039C23.1133 30.7514 23.4497 30.78 23.7606 30.6833ZM63.9247 47.4089C63.5382 43.1 61.0384 38.0451 55.1974 36.7704C55.0374 36.7357 54.872 36.7328 54.7109 36.7619C54.5497 36.7909 54.3958 36.8513 54.2581 36.9396C54.1203 37.028 54.0013 37.1425 53.9079 37.2767C53.8145 37.4109 53.7486 37.5621 53.7138 37.7218C53.679 37.8814 53.6761 38.0463 53.7052 38.207C53.7343 38.3678 53.7948 38.5213 53.8834 38.6587C53.972 38.7961 54.0868 38.9148 54.2213 39.0079C54.3559 39.1011 54.5075 39.1669 54.6675 39.2016C59.1995 40.1902 61.1382 44.1757 61.4499 47.6265C61.7366 50.8224 61.0197 53.2846 60.2031 56.1385C59.2556 59.4028 58.1771 63.0961 58.6571 68.406C58.6979 68.7696 58.6979 69.1366 58.6571 69.5003C57.5928 69.1785 56.5729 68.7252 55.6213 68.151C50.0795 65.1976 46.4701 61.2494 44.9055 56.4121C43.0354 50.5675 45.3543 44.4057 48.8016 40.8679C50.4036 42.4658 53.5704 46.2462 52.8036 53.3032C52.786 53.4665 52.8009 53.6317 52.8473 53.7893C52.8937 53.9469 52.9707 54.0938 53.074 54.2217C53.1774 54.3496 53.3049 54.4559 53.4495 54.5346C53.594 54.6133 53.7526 54.6629 53.9164 54.6804C54.0801 54.698 54.2457 54.6832 54.4037 54.6369C54.5617 54.5907 54.709 54.5138 54.8372 54.4108C54.9654 54.3077 55.072 54.1805 55.151 54.0363C55.2299 53.8921 55.2796 53.7339 55.2972 53.5706C55.9517 47.5581 54.1875 42.528 50.0608 38.6171C48.8714 37.4966 47.6228 36.4401 46.3205 35.4523C46.0527 35.2585 45.7187 35.1788 45.3919 35.2307C45.0652 35.2826 44.7725 35.4618 44.5782 35.729C44.3839 35.9961 44.304 36.3293 44.3561 36.6552C44.4081 36.9811 44.5878 37.2731 44.8556 37.4668C44.8556 37.4668 45.8468 38.1881 47.0187 39.1767C43.0166 43.2866 40.3486 50.4058 42.5367 57.1706C44.3008 62.6484 48.3091 67.0816 54.4369 70.3459C56.201 71.291 57.6535 71.9998 58.8005 71.9998C59.2428 72.0062 59.677 71.8806 60.0473 71.6391C61.1756 70.893 61.2005 69.4008 61.0883 68.1883C60.6519 63.3448 61.6182 60.0308 62.547 56.8287C63.4447 53.869 64.2551 51.0711 63.9247 47.4089ZM37.3065 52.5447C37.3065 52.5447 36.1845 53.0359 34.7382 53.5582C33.1548 48.0928 28.3112 42.1985 21.3419 40.7062C15.7315 39.5 9.85307 40.7062 3.95594 44.3995C1.58088 45.8731 -0.0897692 47.0358 0.00373709 48.6338C0.0910097 49.983 1.37516 50.7478 2.49724 51.2576C6.92321 53.3032 9.31697 55.7903 11.6297 58.1965C13.7741 60.4225 15.7938 62.5489 19.1414 64.066C20.8977 64.8894 22.8112 65.3263 24.7517 65.3469C26.2521 65.3648 27.7387 65.061 29.1111 64.4559C30.4834 63.8509 31.7094 62.9588 32.706 61.8401C32.9049 61.5935 33.002 61.2805 32.9776 60.965C32.9531 60.6495 32.809 60.3551 32.5746 60.1419C32.3401 59.9286 32.033 59.8126 31.7157 59.8173C31.3985 59.8221 31.095 59.9474 30.8671 60.1675C27.7502 63.5873 23.2868 63.2764 20.1575 61.809C17.2401 60.4598 15.4572 58.6131 13.4001 56.4742C11.0375 54.0245 8.3632 51.2452 3.51334 49.013C3.174 48.8745 2.85521 48.6904 2.56581 48.4659C3.3789 47.7126 4.28116 47.0611 5.25256 46.526C10.5824 43.2182 15.8499 42.0866 20.7995 43.1498C26.8151 44.4431 30.998 49.5353 32.3382 54.2856C30.1502 54.8701 25.2878 55.7095 19.5466 51.525C19.2796 51.3304 18.946 51.2496 18.6192 51.3003C18.2925 51.351 17.9993 51.5291 17.8042 51.7955C17.6091 52.0618 17.5281 52.3945 17.579 52.7204C17.6298 53.0463 17.8084 53.3387 18.0754 53.5333C22.9689 57.1022 28.2239 58.1095 33.6598 56.4867C35.231 56.0184 36.7751 55.4642 38.2852 54.8266C38.4405 54.764 38.5816 54.6708 38.7 54.5526C38.8183 54.4344 38.9116 54.2937 38.9743 54.1388C39.0369 53.9838 39.0676 53.8179 39.0646 53.6509C39.0615 53.4838 39.0247 53.3191 38.9564 53.1666C38.8881 53.014 38.7897 52.8768 38.6671 52.763C38.5444 52.6493 38.4 52.5613 38.2425 52.5044C38.0851 52.4475 37.9177 52.4229 37.7505 52.4319C37.5832 52.441 37.4195 52.4836 37.2691 52.5571L37.3065 52.5447Z" fill="url(#paint0_radial_2_51)"/>
</g>
<defs>
<radialGradient id="paint0_radial_2_51" cx="0" cy="0" r="1" gradientUnits="userSpaceOnUse" gradientTransform="translate(37 40) rotate(51.6325) scale(30.6105)">
<stop stop-color="#B2E08A"/>
<stop offset="1" stop-color="#447040"/>
</radialGradient>
<clipPath id="clip0_2_51">
<rect width="64" height="64" fill="white" transform="translate(0 8)"/>
</clipPath>
</defs>
</svg>
