<svg width="64" height="64" viewBox="0 0 64 64" fill="none" xmlns="http://www.w3.org/2000/svg">
<g clip-path="url(#clip0_2_45)">
<path d="M23.7606 22.6833C24.0754 22.5834 24.3376 22.3629 24.4895 22.0703C24.6415 21.7777 24.6708 21.4369 24.571 21.1227C23.1621 16.7144 25.6743 13.0397 28.4982 11.0501C31.1289 9.18479 33.6224 8.56302 36.5086 7.87908C39.8187 7.06456 43.5652 6.14435 47.9351 3.07904C48.2288 2.85758 48.5492 2.67375 48.8888 2.53188C49.1349 3.6127 49.25 4.71907 49.2317 5.82725C49.4561 12.1133 47.8042 17.1931 44.3881 20.9673C40.2613 25.5186 33.7408 26.5632 28.9533 25.3694C29.533 23.187 31.2349 18.5299 37.7429 15.7009C38.0454 15.5673 38.2824 15.3194 38.4017 15.0115C38.5209 14.7037 38.5127 14.3612 38.3787 14.0594C38.2448 13.7577 37.9962 13.5213 37.6876 13.4024C37.3789 13.2834 37.0356 13.2917 36.733 13.4252C31.185 15.8439 27.638 19.8916 26.3912 25.4191C26.1045 26.6627 25.7304 28.7642 25.5247 30.2503C25.4916 30.5774 25.5897 30.9044 25.7977 31.1596C26.0056 31.4148 26.3065 31.5774 26.6343 31.6119H26.7652C27.0744 31.6136 27.3732 31.5007 27.6036 31.295C27.834 31.0894 27.9795 30.8056 28.012 30.499C28.012 30.499 28.1429 29.2865 28.4172 27.7818C29.8458 28.1273 31.3108 28.3006 32.7808 28.2979C37.4873 28.2979 42.6551 26.6067 46.2582 22.6274C50.1294 18.3621 51.9746 12.6791 51.7501 5.75885C51.6566 2.97334 51.4821 0.946376 50.0421 0.231344C48.8327 -0.390423 47.5486 0.361915 46.5263 1.06451C42.5367 3.86246 39.1829 4.6832 35.9289 5.48528C32.9242 6.21896 30.0878 6.91534 27.0707 9.03556C23.5299 11.5226 20.3881 16.2045 22.2084 21.8937C22.3125 22.2014 22.5332 22.4563 22.8232 22.6039C23.1133 22.7514 23.4497 22.78 23.7606 22.6833ZM63.9247 39.4089C63.5382 35.1 61.0384 30.0451 55.1974 28.7704C55.0374 28.7357 54.872 28.7328 54.7109 28.7619C54.5497 28.7909 54.3958 28.8513 54.2581 28.9396C54.1203 29.028 54.0013 29.1425 53.9079 29.2767C53.8145 29.4109 53.7486 29.5621 53.7138 29.7218C53.679 29.8814 53.6761 30.0463 53.7052 30.207C53.7343 30.3678 53.7948 30.5213 53.8834 30.6587C53.972 30.7961 54.0868 30.9148 54.2213 31.0079C54.3559 31.1011 54.5075 31.1669 54.6675 31.2016C59.1995 32.1902 61.1382 36.1757 61.4499 39.6265C61.7366 42.8224 61.0197 45.2846 60.2031 48.1385C59.2556 51.4028 58.1771 55.0961 58.6571 60.406C58.6979 60.7696 58.6979 61.1366 58.6571 61.5003C57.5928 61.1785 56.5729 60.7252 55.6213 60.151C50.0795 57.1976 46.4701 53.2494 44.9055 48.4121C43.0354 42.5675 45.3543 36.4057 48.8016 32.8679C50.4036 34.4658 53.5704 38.2462 52.8036 45.3032C52.786 45.4665 52.8009 45.6317 52.8473 45.7893C52.8937 45.9469 52.9707 46.0938 53.074 46.2217C53.1774 46.3496 53.3049 46.4559 53.4495 46.5346C53.594 46.6133 53.7526 46.6629 53.9164 46.6804C54.0801 46.698 54.2457 46.6832 54.4037 46.6369C54.5617 46.5907 54.709 46.5138 54.8372 46.4108C54.9654 46.3077 55.072 46.1805 55.151 46.0363C55.2299 45.8921 55.2796 45.7339 55.2972 45.5706C55.9517 39.5581 54.1875 34.528 50.0608 30.6171C48.8714 29.4966 47.6228 28.4401 46.3205 27.4523C46.0527 27.2585 45.7187 27.1788 45.3919 27.2307C45.0652 27.2826 44.7725 27.4618 44.5782 27.729C44.3839 27.9961 44.304 28.3293 44.3561 28.6552C44.4081 28.9811 44.5878 29.2731 44.8556 29.4668C44.8556 29.4668 45.8468 30.1881 47.0187 31.1767C43.0166 35.2866 40.3486 42.4058 42.5367 49.1706C44.3008 54.6484 48.3091 59.0816 54.4369 62.3459C56.201 63.291 57.6535 63.9998 58.8005 63.9998C59.2428 64.0062 59.677 63.8806 60.0473 63.6391C61.1756 62.893 61.2005 61.4008 61.0883 60.1883C60.6519 55.3448 61.6182 52.0308 62.547 48.8287C63.4447 45.869 64.2551 43.0711 63.9247 39.4089ZM37.3065 44.5447C37.3065 44.5447 36.1845 45.0359 34.7382 45.5582C33.1548 40.0928 28.3112 34.1985 21.3419 32.7062C15.7315 31.5 9.85307 32.7062 3.95594 36.3995C1.58088 37.8731 -0.0897692 39.0358 0.00373709 40.6338C0.0910097 41.983 1.37516 42.7478 2.49724 43.2576C6.92321 45.3032 9.31697 47.7903 11.6297 50.1965C13.7741 52.4225 15.7938 54.5489 19.1414 56.066C20.8977 56.8894 22.8112 57.3263 24.7517 57.3469C26.2521 57.3648 27.7387 57.061 29.1111 56.4559C30.4834 55.8509 31.7094 54.9588 32.706 53.8401C32.9049 53.5935 33.002 53.2805 32.9776 52.965C32.9531 52.6495 32.809 52.3551 32.5746 52.1419C32.3401 51.9286 32.033 51.8126 31.7157 51.8173C31.3985 51.8221 31.095 51.9474 30.8671 52.1675C27.7502 55.5873 23.2868 55.2764 20.1575 53.809C17.2401 52.4598 15.4572 50.6131 13.4001 48.4742C11.0375 46.0245 8.3632 43.2452 3.51334 41.013C3.174 40.8745 2.85521 40.6904 2.56581 40.4659C3.3789 39.7126 4.28116 39.0611 5.25256 38.526C10.5824 35.2182 15.8499 34.0866 20.7995 35.1498C26.8151 36.4431 30.998 41.5353 32.3382 46.2856C30.1502 46.8701 25.2878 47.7095 19.5466 43.525C19.2796 43.3304 18.946 43.2496 18.6192 43.3003C18.2925 43.351 17.9993 43.5291 17.8042 43.7955C17.6091 44.0618 17.5281 44.3945 17.579 44.7204C17.6298 45.0463 17.8084 45.3387 18.0754 45.5333C22.9689 49.1022 28.2239 50.1095 33.6598 48.4867C35.231 48.0184 36.7751 47.4642 38.2852 46.8266C38.4405 46.764 38.5816 46.6708 38.7 46.5526C38.8183 46.4344 38.9116 46.2937 38.9743 46.1388C39.0369 45.9838 39.0676 45.8179 39.0646 45.6509C39.0615 45.4838 39.0247 45.3191 38.9564 45.1666C38.8881 45.014 38.7897 44.8768 38.6671 44.763C38.5444 44.6493 38.4 44.5613 38.2425 44.5044C38.0851 44.4475 37.9177 44.4229 37.7505 44.4319C37.5832 44.441 37.4195 44.4836 37.2691 44.5571L37.3065 44.5447Z" fill="url(#paint0_radial_2_45)"/>
</g>
<defs>
<radialGradient id="paint0_radial_2_45" cx="0" cy="0" r="1" gradientUnits="userSpaceOnUse" gradientTransform="translate(37 32) rotate(51.6325) scale(30.6105)">
<stop stop-color="#B2E08A"/>
<stop offset="1" stop-color="#447040"/>
</radialGradient>
<clipPath id="clip0_2_45">
<rect width="64" height="64" fill="white"/>
</clipPath>
</defs>
</svg>
