<?xml version="1.0" encoding="utf-8"?>
<!-- Generator: Adobe Illustrator 27.5.0, SVG Export Plug-In . SVG Version: 6.00 Build 0)  -->
<svg version="1.1" xmlns="http://www.w3.org/2000/svg" xmlns:xlink="http://www.w3.org/1999/xlink" x="0px" y="0px"
	 viewBox="0 0 750 500" style="enable-background:new 0 0 750 500;" xml:space="preserve">
<g id="BACKGROUND">
	<rect style="fill:#FFFFFF;" width="750" height="500"/>
</g>
<g id="OBJECT">
	<g>
		<path style="fill:#FFEFDF;" d="M73.674,200.749c30.81-38.385,69.735-57.082,153.18-61.034
			c83.445-3.952,103.479,59.5,238.78,46.452c135.301-13.048,206.301-9.195,231.872,27.45
			c25.571,36.645,37.143,157.201-163.429,140.637c-200.571-16.564-264.58-47.421-356.004-30.707
			c-91.424,16.714-128.71,11.163-137.71-15.633C31.363,281.119,59.113,218.889,73.674,200.749z"/>
		<path style="fill:#FFEFDF;" d="M63.858,412.124c0,0,136.259-1.447,309.771,0c173.512,1.447,296.725,1.508,317.061,13.049
			c20.336,11.541,11.558,32.113-95.902,26.97c-107.46-5.143-168.17-21.572-232.318-12.072c-64.148,9.5-118.918-1.524-170.485-1.154
			c-51.567,0.369-125.734,6.55-149.659-4.898C18.401,422.571,43.516,412.3,63.858,412.124z"/>
	</g>
	<g>
		<g>
			<path style="fill:#FF9400;" d="M349.156,89.221H299.64c-4.71,0-8.528,3.818-8.528,8.527v34.284c0,4.71,3.818,8.527,8.528,8.527
				h5.964c-1.573,4.475-3.382,10.569-1.844,11.255c1.739,0.776,9.722-6.765,14.256-11.255h31.14c4.71,0,8.528-3.818,8.528-8.527
				V97.749C357.684,93.039,353.866,89.221,349.156,89.221z"/>
			<g>
				<path style="fill:#FFFFFF;" d="M313.053,104.525c-2.202-1.174-2.819-4.086-1.224-6.005c1.888-2.27,5.208-4.58,10.815-4.356
					c7.159,0.285,13.369,5.217,13.101,11.947c-0.186,4.677-3.785,7.402-8.444,9.176c-1.651,0.652-1.752,1.986-1.815,3.561l0,0
					c-0.059,1.476-1.303,2.625-2.779,2.566l-2.53-0.101c-1.476-0.059-2.625-1.303-2.566-2.779l0.101-2.53
					c0.084-2.1,0.248-3.814,2.451-5.113c2.986-1.745,5.712-1.78,5.847-5.169c0.091-2.291-1.562-3.982-3.71-4.068
					c-1.947-0.078-3.363,0.787-4.336,1.92C316.74,104.998,314.708,105.408,313.053,104.525L313.053,104.525z M326.581,129.744
					c-0.12,3.007-2.651,5.344-5.706,5.222c-3.007-0.12-5.344-2.651-5.224-5.658c0.122-3.055,2.653-5.392,5.66-5.272
					C324.366,124.158,326.703,126.689,326.581,129.744z"/>
			</g>
		</g>
		<g>
			<polygon style="fill:#FFA78C;" points="292.003,403.333 295.792,418.285 300.844,419.411 309.686,418.285 306.443,403.333 			"/>
			<path style="fill:#00557F;" d="M294.87,417.593c0,0,0.728,9.902,1.229,11.446c0.501,1.544,1.475,1.386,1.475,1.386
				s5.509,1.64,9.215,2.219c3.706,0.579,8.213,1.544,12.62,1.351c4.407-0.193,6.11-0.772,6.11-2.219
				c0-1.447-0.501-4.245-5.909-7.525c-5.409-3.28-8.514-5.403-8.514-5.403s-1.002-1.737-2.905-2.412
				c-1.903-0.675-6.344,2.026-7.479,2.315C299.578,419.04,296.172,416.531,294.87,417.593z"/>
			<polygon style="fill:#FFA78C;" points="239.973,405.199 239.973,416.824 247.814,419.049 252.891,416.824 252.891,405.199 			"/>
			<path style="fill:#00557F;" d="M238.682,416.824c0,0-3.588,3.445-9.329,7.177c-5.741,3.732-5.885,4.593-5.598,6.889
				c0.287,2.296,14.209,1.579,19.52,0.718c5.31-0.861,7.463-1.292,7.463-1.292l3.588-1.148l-1.435-13.205
				c0,0-3.301,1.148-4.754,1.256c-1.453,0.108-4.736-2.476-6.889-3.014C239.094,413.667,238.646,416.107,238.682,416.824z"/>
			<path style="fill:#FFA78C;" d="M345.073,161.02c-1.101,0.19-2.707,2.277-3.56,3.493l-0.515-0.079
				c1.258-1.934,4.195-5.129,2.203-4.652c-1.786,0.427-3.488,3.224-4.115,4.361l-0.642-0.098c1.226-2.078,4.578-5.825,2.427-5.287
				c-1.992,0.498-3.885,3.948-4.414,4.984l-0.366-0.056c1.164-2.038,2.797-4.523,1.176-3.955c-1.802,0.632-3.262,3.96-3.684,5.01
				c-0.959,0.992-2.064,2.202-2.783,3c-0.625-2.475-2.229-5.515-3.005-5.321c-0.861,0.215,0.108,3.122,0.269,5.113
				c0.108,1.326,0.715,2.863,1.11,3.745c-2.502,5.005-10.146,17.004-14.139,25.833l-10.976-11.44l-16.073,9.473
				c0,0,17.84,23.396,24.9,22.319c15.706-2.397,23.594-35.84,25.274-43.902l0,0l4.967-8.454l0,0
				C343.127,165.106,346.633,160.751,345.073,161.02z"/>
			<path style="fill:#FFA78C;" d="M266.407,166.012l-5.958,5.807l-10.409-3.868c0.201-1.698,0.191-3.416,0.08-4.943
				c-0.07-0.975-0.171-1.879-0.281-2.662c-0.251-1.778-0.542-2.954-0.542-2.954l15.623-0.743c-0.1,0.643-0.131,1.336-0.1,2.04
				c0.03,0.784,0.121,1.577,0.261,2.341C265.533,163.701,266.407,166.012,266.407,166.012z"/>
			<path style="fill:#D88471;" d="M265.081,161.029c-1.758,1.547-4.893,4.049-7.013,4.19c-2.12,0.141-5.827-1.296-7.947-2.21
				c-0.07-0.975-0.171-1.879-0.281-2.662c0.633,0.332,4.009,1.959,8.007,1.286c2.914-0.492,5.526-1.979,6.973-2.944
				C264.85,159.471,264.94,160.265,265.081,161.029z"/>
			<path style="fill:#FFA78C;" d="M235.916,131.585c0,0,2.29,15.369,3.963,20.609c1.673,5.24,10.987,9.674,17.468,9.763
				c5.51,0.076,13.336-7.922,14.587-12.451c1.251-4.53-0.478-24.744-0.478-24.744S247.372,105.13,235.916,131.585z"/>
			<path style="fill:#00557F;" d="M249.719,140.382c0.134,1.034-0.232,1.934-0.819,2.011c-0.587,0.076-1.171-0.701-1.305-1.735
				c-0.134-1.034,0.232-1.934,0.819-2.011C249,138.571,249.584,139.347,249.719,140.382z"/>
			<path style="fill:#00557F;" d="M263.063,138.578c0.097,1.038-0.302,1.925-0.891,1.98c-0.589,0.055-1.145-0.742-1.242-1.781
				c-0.097-1.038,0.302-1.925,0.891-1.98C262.41,136.743,262.966,137.54,263.063,138.578z"/>
			<path style="fill:#FFA78C;" d="M238.856,140.866c0,0-3.749-3.579-5.879-2.215c-2.13,1.363-1.023,6.646,1.874,9.373
				c2.897,2.727,5.112,1.363,5.112,1.363L238.856,140.866z"/>
			<path style="fill:#FFA78C;" d="M270.896,136.605c0,0,2.84-4.336,5.223-3.491c2.384,0.844,2.504,6.241,0.301,9.554
				s-4.67,2.488-4.67,2.488L270.896,136.605z"/>
			<path style="fill:#00557F;" d="M237.264,139.894l1.449,5.353c0,0,3.44-1.251,2.135-12.875c0,0,6.998-1.068,9.133-4.389
				c0,0,5.812,1.412,9.252,0.825c3.44-0.587,6.286-3.078,6.286-3.078s0.237,8.487,3.914,9.759c0,0-0.027,5.367,1.944,5.929
				c0,0,0.402-7.452,3.44-8.308c0,0,2.208-7.024,1.496-9.278c-0.712-2.254-2.965-2.847-2.965-2.847s-0.942-12.155-19.808-9.489
				c-18.187,2.57-20.717,12.217-21.271,13.878c-0.788,2.365,0.395,4.708,0.633,7.632c0.237,2.924,1.304,5.345,1.304,5.345
				L237.264,139.894z"/>
			<polygon style="fill:#FFD07F;" points="310.59,406.206 290.064,406.206 265.519,280.046 262.937,280.196 257.853,406.206 
				236.744,406.206 236.152,337.856 235.991,319.34 235.378,249.181 288.989,249.181 298.534,318.546 301.105,337.233 			"/>
			<path style="fill:#FFA78C;" d="M242.808,268.182c2.153,0.538,2.799-0.484,2.314-1.077c-0.484-0.592-4.69-2.65-5.713-3.814
				l-3.414-3.883c0,0,2.076,0.161,4.171,0c2.094-0.161,3.611-1.453,0.543-1.776c-2.238-0.236-5.493-0.698-7.094-0.932l-0.553-0.629
				l-10.086-21.816l9.96-29.567l-15.926-7.917c0,0-11.195,30.594-12.344,37.484c-1.148,6.889,22.965,31.576,22.965,31.576
				l0.013-0.023c0.84,1.778,2.116,4.242,3.432,5.871c2.261,2.799,4.113,3.103,4.113,3.103l0.001-0.002
				c0.502,0.279,0.992,0.501,1.43,0.611c2.153,0.538,2.799-0.484,2.314-1.077c-0.254-0.31-1.529-1.023-2.833-1.799l0.218-0.541
				c1.199,0.906,2.696,1.902,3.799,2.178c2.153,0.538,2.799-0.484,2.314-1.076c-0.425-0.52-3.718-2.169-5.208-3.352l0.328-0.815
				c1.257,0.987,3.028,2.24,4.288,2.554c2.153,0.538,2.799-0.484,2.314-1.077c-0.479-0.586-4.601-2.607-5.677-3.777l0.312-0.775
				C240.021,266.784,241.636,267.889,242.808,268.182z"/>
			<path style="fill:#00557F;" d="M250.169,163.912l-24.908,11.568l7.799,50.45l2.319,23.252h53.608l1.076-24.974v-56.167
				l-24.243-3.81c0,0-2.238,4.883-6.975,5.519C254.111,170.385,250.169,163.912,250.169,163.912z"/>
			<path style="fill:#00557F;" d="M225.262,175.481c0,0-9.688,15.736-12.272,22.903c0,0,10.037,6.018,19.945,6.305
				C232.935,204.689,233.802,183.016,225.262,175.481z"/>
			<path style="fill:#00557F;" d="M290.035,168.039c0,0,12.351,11.331,17.684,16.771c0,0-7.858,8.181-17.654,14.281
				C290.065,199.091,285.409,178.446,290.035,168.039z"/>
			<path style="fill:none;stroke:#00557F;stroke-linecap:round;stroke-linejoin:round;stroke-miterlimit:10;" d="M244.007,135.406
				c0,0,4.023,0,5.723-1.755"/>
			<path style="fill:none;stroke:#00557F;stroke-linecap:round;stroke-linejoin:round;stroke-miterlimit:10;" d="M265.222,132.506
				c0,0-2.976-0.763-4.731,0"/>
			<path style="fill:none;stroke:#BF6D60;stroke-linecap:round;stroke-linejoin:round;stroke-miterlimit:10;" d="M254.843,138.341
				c0,0,0.763,4.086,0.382,4.696c0,0-1.307,0.305-0.997,1.831c0.31,1.526,1.76,1.603,1.76,1.603"/>
			<path style="fill:#FFFFFF;" d="M253.699,150.669c0,0,4.503-1.45,6.792,0c2.289,1.45-5.342,2.442-6.792,2.442
				C252.249,153.111,252.325,151.432,253.699,150.669z"/>
			<path style="fill:none;stroke:#BF6D60;stroke-linecap:round;stroke-linejoin:round;stroke-miterlimit:10;" d="M275.734,136.608
				c0,0-2.352,2.124-2.862,5.38"/>
			<path style="fill:none;stroke:#BF6D60;stroke-linecap:round;stroke-linejoin:round;stroke-miterlimit:10;" d="M275.276,141.359
				c0,0-0.332-1.928-1.168-2.681"/>
			<path style="fill:none;stroke:#BF6D60;stroke-linecap:round;stroke-linejoin:round;stroke-miterlimit:10;" d="M233.896,141.244
				c0,0,2.986,1.98,3.892,5.227"/>
			<path style="fill:none;stroke:#BF6D60;stroke-linecap:round;stroke-linejoin:round;stroke-miterlimit:10;" d="M235.155,145.766
				c0,0,0.057-1.729,0.687-2.753"/>
			<path style="fill:none;stroke:#004560;stroke-linecap:round;stroke-linejoin:round;stroke-miterlimit:10;" d="M228.823,180.331
				c0,0-0.357,15.872,0.911,24.077"/>
			<path style="fill:none;stroke:#004560;stroke-linecap:round;stroke-linejoin:round;stroke-miterlimit:10;" d="M288.176,176.126
				c0,0,2.662,15.487,1.765,22.383"/>
			<path style="fill:none;stroke:#004560;stroke-linecap:round;stroke-linejoin:round;stroke-miterlimit:10;" d="M249.297,169.237
				c0,0,3.72,3.588,9.462,3.158c5.741-0.431,7.648-3.158,7.648-3.158"/>
			<path style="fill:none;stroke:#BF6D60;stroke-linecap:round;stroke-linejoin:round;stroke-miterlimit:10;" d="M222.015,234.399
				c0,0-3.014-0.144-5.741,0"/>
			<path style="fill:none;stroke:#BF6D60;stroke-linecap:round;stroke-linejoin:round;stroke-miterlimit:10;" d="M315.035,197.111
				c0,0-2.022,5.151-2.596,7.298"/>
			
				<line style="fill:none;stroke:#BF6D60;stroke-linecap:round;stroke-linejoin:round;stroke-miterlimit:10;" x1="330.8" y1="167.74" x2="332.389" y2="170.242"/>
			<path style="fill:none;stroke:#BF6D60;stroke-linecap:round;stroke-linejoin:round;stroke-miterlimit:10;" d="M334.686,163.912
				c0,0,5.275,0.177,7.033,1.315"/>
			
				<line style="fill:none;stroke:#BF6D60;stroke-linecap:round;stroke-linejoin:round;stroke-miterlimit:10;" x1="236.942" y1="252.412" x2="286.245" y2="252.412"/>
			<path style="fill:none;stroke:#BF6D60;stroke-linecap:round;stroke-linejoin:round;stroke-miterlimit:10;" d="M260.84,252.412
				c0,0-3.66,19.783,2.799,23.132v-18.396"/>
			<path style="fill:none;stroke:#BF6D60;stroke-linecap:round;stroke-linejoin:round;stroke-miterlimit:10;" d="M250.506,272.004
				c0,0,6.17,3.86,9.301,6.028"/>
			<path style="fill:none;stroke:#BF6D60;stroke-linecap:round;stroke-linejoin:round;stroke-miterlimit:10;" d="M267.945,278.032
				c0,0,7.535-7.535,9.042-9.904"/>
			<path style="fill:none;stroke:#BF6D60;stroke-linecap:round;stroke-linejoin:round;stroke-miterlimit:10;" d="M238.999,400.965
				c0,0,7.953,0.861,15.328,0"/>
			<path style="fill:none;stroke:#BF6D60;stroke-linecap:round;stroke-linejoin:round;stroke-miterlimit:10;" d="M307.128,400.965
				c0,0-9.473,0.67-15.932,0.718"/>
			<path style="fill:none;stroke:#00415B;stroke-linecap:round;stroke-linejoin:round;stroke-miterlimit:10;" d="M224.671,428.845
				c0,0,3.122,0.969,11.518,0.538c8.396-0.431,16.702-2.691,16.702-2.691"/>
			<path style="fill:none;stroke:#00415B;stroke-linecap:round;stroke-linejoin:round;stroke-miterlimit:10;" d="M297.44,427.446
				c0,0,11.195,3.229,17.439,3.875c6.243,0.646,9.904-0.754,9.904-0.754"/>
			<path style="fill:none;stroke:#00415B;stroke-linecap:round;stroke-linejoin:round;stroke-miterlimit:10;" d="M233.375,421.199
				c0,0,2.51,0,5.021,2.082"/>
			<path style="fill:none;stroke:#00415B;stroke-linecap:round;stroke-linejoin:round;stroke-miterlimit:10;" d="M234.953,419.848
				c0,0,2.51,0,5.02,2.082"/>
			<path style="fill:none;stroke:#00415B;stroke-linecap:round;stroke-linejoin:round;stroke-miterlimit:10;" d="M236.531,418.496
				c0,0,2.51,0,5.02,2.082"/>
			<path style="fill:none;stroke:#00415B;stroke-linecap:round;stroke-linejoin:round;stroke-miterlimit:10;" d="M314.678,421.79
				c0,0-2.51,0-5.02,2.082"/>
			<path style="fill:none;stroke:#00415B;stroke-linecap:round;stroke-linejoin:round;stroke-miterlimit:10;" d="M313.1,420.439
				c0,0-2.51,0-5.021,2.082"/>
			<path style="fill:none;stroke:#00415B;stroke-linecap:round;stroke-linejoin:round;stroke-miterlimit:10;" d="M311.522,419.088
				c0,0-2.51,0-5.021,2.082"/>
			
				<line style="fill:none;stroke:#004560;stroke-linecap:round;stroke-linejoin:round;stroke-miterlimit:10;" x1="271.82" y1="121.729" x2="268.052" y2="123.666"/>
			<path style="fill:none;stroke:#004560;stroke-linecap:round;stroke-linejoin:round;stroke-miterlimit:10;" d="M266.438,124.528
				c0,0-3.92,7.125-16.456,3.455c0,0-5.387,4.991-11.317,4.354"/>
			<path style="fill:none;stroke:#004560;stroke-linecap:round;stroke-linejoin:round;stroke-miterlimit:10;" d="M269.434,135.488
				c0,0-3.325-1.381-3.914-9.759"/>
			<path style="fill:none;stroke:#004560;stroke-linecap:round;stroke-linejoin:round;stroke-miterlimit:10;" d="M234.502,124.528
				c0,0-0.783,1.922-0.607,3.652"/>
			<path style="fill:none;stroke:#004560;stroke-linecap:round;stroke-linejoin:round;stroke-miterlimit:10;" d="M236.871,128.46
				c0,0-0.386,1.196-0.516,2.148"/>
			
				<line style="fill:none;stroke:#004560;stroke-linecap:round;stroke-linejoin:round;stroke-miterlimit:10;" x1="270.896" y1="126.824" x2="271.739" y2="128.46"/>
			<path style="fill:none;stroke:#004560;stroke-linecap:round;stroke-linejoin:round;stroke-miterlimit:10;" d="M268.734,116.562
				c0,0,1.507,1.148,1.651,2.081"/>
			<path style="fill:none;stroke:#004560;stroke-linecap:round;stroke-linejoin:round;stroke-miterlimit:10;" d="M266.079,118.643
				c0,0,1.073,0.718,1.398,1.22"/>
			
				<line style="fill:none;stroke:#004560;stroke-linecap:round;stroke-linejoin:round;stroke-miterlimit:10;" x1="250.865" y1="125.729" x2="252.551" y2="124.025"/>
			<path style="fill:#F2BD70;" d="M248.71,328.553c0,5.707-3.918,10.338-8.751,10.338c-1.366,0-2.662-0.372-3.808-1.035
				l-0.161-18.517c1.186-0.713,2.542-1.115,3.969-1.115C244.792,318.224,248.71,322.846,248.71,328.553z"/>
			<path style="fill:#F2BD70;" d="M301.105,337.233c-1.366,1.055-2.994,1.658-4.742,1.658c-4.833,0-8.751-4.632-8.751-10.338
				s3.918-10.328,8.751-10.328c0.753,0,1.477,0.111,2.17,0.322L301.105,337.233z"/>
		</g>
	</g>
	<g>
		<g>
			<path style="fill:#FF9400;" d="M445.204,66.826c-2.027-1.021-2.65-3.656-1.239-5.434c1.669-2.104,4.639-4.274,9.743-4.189
				c6.516,0.109,12.266,4.463,12.164,10.588c-0.071,4.257-3.286,6.81-7.485,8.521c-1.488,0.627-1.552,1.843-1.576,3.276l0,0
				c-0.023,1.344-1.13,2.415-2.473,2.392l-2.302-0.038c-1.344-0.023-2.414-1.13-2.392-2.473l0.038-2.302
				c0.032-1.911,0.145-3.474,2.121-4.701c2.678-1.65,5.156-1.739,5.208-4.823c0.035-2.085-1.504-3.588-3.459-3.621
				c-1.772-0.029-3.042,0.786-3.902,1.837C448.567,67.179,446.728,67.593,445.204,66.826L445.204,66.826z M458.036,89.472
				c-0.046,2.736-2.298,4.915-5.078,4.869c-2.737-0.046-4.915-2.298-4.87-5.035c0.046-2.78,2.299-4.959,5.035-4.913
				C455.904,84.439,458.083,86.692,458.036,89.472z"/>
		</g>
		<g>
			<path style="fill:#FF9400;" d="M485.281,85.299c-1.412-1.777-0.873-4.43,1.153-5.453c2.397-1.211,6.003-1.935,10.601,0.282
				c5.87,2.83,9.265,9.194,6.604,14.712c-1.849,3.835-5.838,4.805-10.368,4.598c-1.614-0.054-2.181,1.022-2.804,2.314l0,0
				c-0.584,1.21-2.038,1.718-3.248,1.135l-2.074-1c-1.21-0.584-1.718-2.038-1.135-3.248l1-2.074c0.83-1.722,1.588-3.093,3.896-3.379
				c3.123-0.375,5.41,0.583,6.75-2.195c0.906-1.879,0.139-3.888-1.622-4.738c-1.596-0.77-3.091-0.562-4.313,0.031
				C488.186,87.029,486.343,86.635,485.281,85.299L485.281,85.299z M487.437,111.239c-1.189,2.465-4.147,3.499-6.651,2.291
				c-2.465-1.189-3.499-4.147-2.31-6.612c1.208-2.505,4.166-3.538,6.631-2.35C487.611,105.776,488.645,108.734,487.437,111.239z"/>
		</g>
		<g>
			<path style="fill:#FF9400;" d="M403.363,86.048c-2.23,0.425-4.328-1.285-4.293-3.555c0.042-2.685,1.075-6.215,5.174-9.257
				c5.233-3.883,12.446-3.933,16.096,0.986c2.537,3.419,1.543,7.402-0.745,11.318c-0.798,1.404-0.108,2.407,0.747,3.558l0,0
				c0.801,1.079,0.575,2.603-0.504,3.404l-1.849,1.372c-1.079,0.801-2.603,0.575-3.404-0.504l-1.372-1.849
				c-1.139-1.535-2.001-2.843-1.182-5.02c1.119-2.94,3.03-4.52,1.192-6.997c-1.243-1.675-3.379-1.929-4.949-0.764
				c-1.423,1.056-1.934,2.476-1.976,3.834C406.245,84.279,405.04,85.728,403.363,86.048L403.363,86.048z M427.335,96.19
				c1.631,2.198,1.172,5.297-1.061,6.954c-2.198,1.631-5.298,1.172-6.928-1.026c-1.657-2.233-1.198-5.333,1-6.964
				C422.578,93.497,425.678,93.957,427.335,96.19z"/>
		</g>
		<g>
			<polygon style="fill:#FFA78C;" points="408.932,400.527 407.927,415.306 393.665,427.119 396.402,431.152 423.197,426.398 
				425.358,401.507 			"/>
			<path style="fill:#00557F;" d="M402.38,419.339c0,0,4.466,4.682,11.793,4.876c2.328,0.062,9.564-2.175,9.564-2.175
				s0.468,5.258-0.684,8.752c-0.571,1.732-26.075,5.402-29.965,5.258c-3.89-0.144-4.898-0.576-5.763-1.801
				c-0.864-1.224-1.585-3.313,2.017-5.618C392.944,426.326,402.38,419.339,402.38,419.339z"/>
			<polygon style="fill:#FFA78C;" points="476.708,399.553 477.713,414.332 491.975,426.145 489.237,430.179 462.442,425.424 
				460.281,400.533 			"/>
			<path style="fill:#00557F;" d="M483.259,418.366c0,0-4.466,4.682-11.793,4.876c-2.328,0.062-9.564-2.175-9.564-2.175
				s-0.468,5.258,0.684,8.752c0.571,1.732,26.075,5.402,29.965,5.258c3.89-0.144,4.898-0.576,5.762-1.801
				c0.864-1.225,1.585-3.313-2.017-5.618C492.695,425.353,483.259,418.366,483.259,418.366z"/>
			<polygon style="fill:#00557F;" points="413.401,240.528 404.613,401.507 428.095,401.507 442.301,266.346 445.455,266.958 
				457.772,401.507 480.202,400.513 472.534,240.528 			"/>
			<path style="fill:#FFD07F;" d="M472.534,219.737v-61.581c0,0-13.964-4.076-33.27-4.404c0,0-18.011-0.946-22.549,0l-3.759,65.985
				l-4.493,26.859c0,0,25.756,4.48,31.806,4.047l4.322-6.267l3.674,6.296c0,0,16.639-0.345,27.876-4.077L472.534,219.737z"/>
			<path style="fill:#FFA78C;" d="M453.962,157.316c-0.051,1.896,0.111,3.348,0.111,3.348l-7.13,4.064l-8.985-6.272
				c0.615-1.573,1.028-3.217,1.301-4.699c0.061-0.333,0.121-0.655,0.171-0.968c0.101-0.585,0.171-1.139,0.222-1.644
				c0.151-1.361,0.202-2.38,0.212-2.773c0.01-0.121,0.01-0.182,0.01-0.182l1.049,0.222l14.047,2.945
				c-0.252,0.585-0.454,1.24-0.595,1.916c-0.171,0.756-0.282,1.533-0.333,2.299C453.992,156.177,453.962,156.762,453.962,157.316z"
				/>
			<path style="fill:#FFD07F;" d="M394.673,184.421c0,0,13.805-29.652,22.041-30.669c10.586-1.308,2.737,25.437,2.737,25.437
				l-13.11,23.237L394.673,184.421z"/>
			<path style="fill:#FFD07F;" d="M493.568,187.451c0,0-13.805-28.453-22.041-29.47c-10.586-1.308-2.737,25.437-2.737,25.437
				l13.11,21.321L493.568,187.451z"/>
			<path style="fill:#FFA78C;" d="M406.774,195.227c-1.518-2.762-22.87-19.431-28.044-23.447l0,0l-1.417-1.955
				c0,0-2.233-3.097-4.826-3.89c-1.265-0.387-6.627-2.091-8.211-2.162c-1.585-0.071,0,2.003,1.224,2.479
				c1.225,0.476,3.53,1.234,3.53,1.234l-9.436,4.212c0,0-5.384,2.071-5.871,3.476s1.729,0.54,3.728-0.27
				c1.482-0.601,3.079-1.319,3.807-1.651l0.163,0.152c-0.656,0.258-5.337,2.137-5.789,3.443c-0.486,1.405,1.729,0.54,3.728-0.27
				c1.437-0.583,2.972-1.271,3.73-1.615l0.304,0.283c-1.033,0.414-5.214,2.154-5.64,3.385c-0.486,1.405,1.729,0.54,3.728-0.27
				c1.354-0.549,2.79-1.189,3.587-1.551l0.25,0.233c-1.513,0.635-4.71,2.086-5.079,3.154c-0.486,1.405,1.729,0.54,3.728-0.27
				c1.084-0.439,2.219-0.937,3.042-1.305l0,0c0,0,1.807-0.566,3.937-1.449c0.878,1.342,19.62,29.82,28.482,29.82
				C408.503,206.993,408.503,198.371,406.774,195.227z"/>
			<path style="fill:#FFA78C;" d="M529.21,175.782c-0.486-1.405-5.871-3.476-5.871-3.476l-9.436-4.212c0,0,2.305-0.758,3.529-1.234
				c1.224-0.476,2.809-2.549,1.224-2.479c-1.585,0.071-6.947,1.776-8.211,2.162c-2.593,0.792-4.826,3.89-4.826,3.89l-0.99,1.366
				c-3.882,4.619-21.727,25.962-22.643,29.025c-1.028,3.438,0.788,11.866,9.66,9.955c7.436-1.602,17.569-25.249,20.656-32.867
				c1.991,0.809,3.622,1.318,3.622,1.318l0,0c0.823,0.368,1.958,0.866,3.042,1.305c1.999,0.81,4.214,1.675,3.728,0.27
				c-0.37-1.068-3.566-2.519-5.08-3.154l0.25-0.233c0.797,0.361,2.233,1.002,3.587,1.551c1.999,0.81,4.214,1.675,3.727,0.27
				c-0.426-1.23-4.607-2.971-5.64-3.385l0.304-0.283c0.757,0.344,2.293,1.033,3.73,1.615c1.999,0.81,4.214,1.675,3.728,0.27
				c-0.452-1.306-5.133-3.186-5.789-3.443l0.163-0.152c0.729,0.332,2.325,1.05,3.808,1.651
				C527.481,176.322,529.696,177.187,529.21,175.782z"/>
			<path style="fill:none;stroke:#BF6D60;stroke-linecap:round;stroke-linejoin:round;stroke-miterlimit:10;" d="M417.147,158.804
				c0,0,3.444,11.002-0.331,25.057"/>
			<path style="fill:none;stroke:#BF6D60;stroke-linecap:round;stroke-linejoin:round;stroke-miterlimit:10;" d="M472.534,163.124
				c0,0-3.896,14.015-1.948,23.215"/>
			<polyline style="fill:none;stroke:#BF6D60;stroke-linecap:round;stroke-linejoin:round;stroke-miterlimit:10;" points="
				415.85,219.526 418.584,221.039 416.816,223.848 			"/>
			
				<line style="fill:none;stroke:#BF6D60;stroke-linecap:round;stroke-linejoin:round;stroke-miterlimit:10;" x1="471.287" y1="221.687" x2="468.439" y2="223.848"/>
			
				<line style="fill:none;stroke:#BF6D60;stroke-linecap:round;stroke-linejoin:round;stroke-miterlimit:10;" x1="446.939" y1="164.728" x2="444.59" y2="244.377"/>
			<path style="fill:#D88471;" d="M454.97,151.356c-0.252,0.585-0.454,1.24-0.595,1.916c-0.171,0.756-0.282,1.533-0.333,2.299
				c-0.05,0.605-0.081,1.19-0.081,1.745c-1.936,0.413-4.437,0.363-7.493-0.857c-3.762-1.503-5.869-2.753-7.039-3.671
				c0.101-0.585,0.171-1.139,0.222-1.644c0.151-1.361,0.202-2.38,0.212-2.773l1.059,0.04L454.97,151.356z"/>
			<path style="fill:#FFA78C;" d="M433.496,120.225c0,0-1.627,15.243-1.329,20.661c0.297,5.418,8.091,11.963,14.257,13.656
				c5.242,1.44,14.699-4.255,17.017-8.27c2.318-4.015,5.682-23.745,5.682-23.745S450.998,97.807,433.496,120.225z"/>
			<path style="fill:#FFA78C;" d="M434.001,129.816c0,0-2.692-4.347-5.064-3.574c-2.372,0.773-2.625,6.092-0.536,9.414
				s4.543,2.57,4.543,2.57L434.001,129.816z"/>
			<path style="fill:#FFA78C;" d="M465.651,133.697c0,0,3.787-3.436,5.854-2.038c2.067,1.398,0.842,6.58-2.083,9.197
				c-2.925,2.617-5.076,1.216-5.076,1.216L465.651,133.697z"/>
			<path style="fill:#00557F;" d="M444.482,102.08c-7.347,1.513-7.239,5.834-11.237,6.807c-3.998,0.972-5.719,3.457-6.263,6.05
				c-0.544,2.593,0.32,2.593,1.076,2.593c0.756,0,1.189,0,1.189,0s0.095,2.525-0.108,5.618c-0.203,3.093,1.352,3.566,1.352,3.566
				s3.4,2.269,3.509,5.51c0,0,1.622-0.324,2.054-2.161c0.432-1.837,0.648-8.968,0.648-8.968s4.754-0.216,7.887-2.269
				c0,0,1.189,1.08,3.998,1.08s11.021-2.701,13.29-1.297c0,0,0.864,2.701,3.349,4.43c0,0-1.008,7.347-0.882,9.184
				c0.126,1.837,1.081,2.915,1.081,2.915s1.746-3.526,4.663-3.814c0,0,2.593-4.07,3.025-7.528c0,0,2.161-0.108,1.945-2.377
				c-0.216-2.269-1.08-3.025-1.621-5.294c-0.54-2.269-2.377-4.646-3.673-4.754c0,0,1.189-1.837-4.646-5.835
				C459.285,101.54,451.83,100.567,444.482,102.08z"/>
			<path style="fill:#FFFBDC;" d="M439.655,151.14c0,0-0.053,3.598,1.622,6.794c1.513,2.887,5.662,6.794,5.662,6.794
				s-2.997-1.314-5.518-1.242c-2.521,0.072-4.826,1.242-4.826,1.242l-1.729-11.038L439.655,151.14z"/>
			<path style="fill:#FFFBDC;" d="M454.37,153.274c0,0-1.697,8.374-7.431,11.454c0,0,3.63-0.559,5.791,0
				c2.161,0.559,3.457,1.927,3.457,1.927s2.834-8.664,2.893-11.247L454.37,153.274z"/>
			<path style="fill:none;stroke:#BF6D60;stroke-linecap:round;stroke-linejoin:round;stroke-miterlimit:10;" d="M429.104,128.839
				c0,0,2.212,1.85,3.027,5.618"/>
			<path style="fill:none;stroke:#BF6D60;stroke-linecap:round;stroke-linejoin:round;stroke-miterlimit:10;" d="M429.968,134.026
				c0,0,0.126-2.017,1.18-2.377"/>
			<path style="fill:none;stroke:#BF6D60;stroke-linecap:round;stroke-linejoin:round;stroke-miterlimit:10;" d="M470.378,134.026
				c0,0-3.306,1.801-4.388,5.042"/>
			<path style="fill:none;stroke:#BF6D60;stroke-linecap:round;stroke-linejoin:round;stroke-miterlimit:10;" d="M468.184,138.636
				c0,0,0.615-0.936,0-2.089"/>
			<path style="fill:#00557F;" d="M443.993,131.169c-0.13,1.021-0.705,1.788-1.284,1.714c-0.579-0.074-0.942-0.961-0.812-1.982
				s0.705-1.788,1.284-1.714C443.76,129.261,444.124,130.149,443.993,131.169z"/>
			<path style="fill:none;stroke:#00557F;stroke-linecap:round;stroke-linejoin:round;stroke-miterlimit:10;" d="M439.787,124.993
				c0,0,3.839,1.006,5.901-0.244"/>
			<path style="fill:#00557F;" d="M455.287,131.973c-0.018,1.029,0.44,1.871,1.023,1.881c0.583,0.01,1.071-0.815,1.09-1.844
				c0.018-1.029-0.44-1.871-1.023-1.881C455.793,130.119,455.305,130.945,455.287,131.973z"/>
			<path style="fill:none;stroke:#00557F;stroke-linecap:round;stroke-linejoin:round;stroke-miterlimit:10;" d="M460.342,126.469
				c0,0-3.944,0.441-5.804-1.093"/>
			<path style="fill:none;stroke:#BF6D60;stroke-linecap:round;stroke-linejoin:round;stroke-miterlimit:10;" d="M449.394,130.503
				c0,0-0.293,4.09-0.81,4.577c0,0-1.324-0.035-1.409,1.499c-0.086,1.534,1.279,1.969,1.279,1.969"/>
			<path style="fill:none;stroke:#BF6D60;stroke-linecap:round;stroke-linejoin:round;stroke-miterlimit:10;" d="M446.464,143.534
				c0,0,2.419-1.585,4.163-1.297c1.743,0.288,2.384,1.297,2.384,1.297"/>
			
				<line style="fill:none;stroke:#BF6D60;stroke-linecap:round;stroke-linejoin:round;stroke-miterlimit:10;" x1="369.03" y1="167.486" x2="372.308" y2="169.177"/>
			
				<line style="fill:none;stroke:#BF6D60;stroke-linecap:round;stroke-linejoin:round;stroke-miterlimit:10;" x1="360.819" y1="172.778" x2="365.645" y2="177.1"/>
			<path style="fill:none;stroke:#BF6D60;stroke-linecap:round;stroke-linejoin:round;stroke-miterlimit:10;" d="M370.945,177.173
				c0,0,3.92-1.441,4.28-1.513"/>
			
				<line style="fill:none;stroke:#BF6D60;stroke-linecap:round;stroke-linejoin:round;stroke-miterlimit:10;" x1="512.303" y1="177.913" x2="509.418" y2="176.956"/>
			
				<line style="fill:none;stroke:#BF6D60;stroke-linecap:round;stroke-linejoin:round;stroke-miterlimit:10;" x1="522.168" y1="173.228" x2="517.198" y2="177.913"/>
			<path style="fill:none;stroke:#BF6D60;stroke-linecap:round;stroke-linejoin:round;stroke-miterlimit:10;" d="M513.903,168.095
				c0,0-1.654,1.784-3.042,2.595"/>
			
				<line style="fill:none;stroke:#004560;stroke-linecap:round;stroke-linejoin:round;stroke-miterlimit:10;" x1="405.227" y1="395.209" x2="428.757" y2="395.209"/>
			
				<line style="fill:none;stroke:#004560;stroke-linecap:round;stroke-linejoin:round;stroke-miterlimit:10;" x1="457.099" y1="394.151" x2="480.202" y2="393.048"/>
			<path style="fill:none;stroke:#004560;stroke-linecap:round;stroke-linejoin:round;stroke-miterlimit:10;" d="M422.621,256.55
				c0,0-4.343,58.344-5.629,64.467c-1.286,6.123,0,8.428,0,8.428s-0.721,5.762-0.572,6.915c0.15,1.153-2.731,51.574-2.731,51.574"/>
			<path style="fill:none;stroke:#004560;stroke-linecap:round;stroke-linejoin:round;stroke-miterlimit:10;" d="M461.518,256.55
				c0,0,4.898,69.15,5.474,72.607c0.576,3.458,0,5.941,0,5.941s-0.064,2.703,0.256,4.719c0.32,2.017,3.49,48.117,3.49,48.117"/>
			
				<line style="fill:none;stroke:#004560;stroke-linecap:round;stroke-linejoin:round;stroke-miterlimit:10;" x1="442.301" y1="266.346" x2="435.731" y2="260.151"/>
			
				<line style="fill:none;stroke:#004560;stroke-linecap:round;stroke-linejoin:round;stroke-miterlimit:10;" x1="445.455" y1="266.958" x2="450.713" y2="263.897"/>
			<path style="fill:#F2BD70;" d="M422.909,180.053l13.542,1.283c0,0-0.144,15.14-8.067,15.14S422.909,180.053,422.909,180.053z"/>
			
				<line style="fill:none;stroke:#004560;stroke-linecap:round;stroke-linejoin:round;stroke-miterlimit:10;" x1="469.123" y1="112.236" x2="465.99" y2="114.035"/>
			<path style="fill:none;stroke:#004560;stroke-linecap:round;stroke-linejoin:round;stroke-miterlimit:10;" d="M434.001,120.844
				c0,0,7.348,1.008,10.589-2.017c0,0,2.658,2.125,7.56,0.558c4.902-1.567,9.007-1.207,9.728-0.774c0,0,1.657,4.394,4.826,4.826
				c3.169,0.432,3.673-0.648,3.673-0.648"/>
			
				<line style="fill:none;stroke:#004560;stroke-linecap:round;stroke-linejoin:round;stroke-miterlimit:10;" x1="473.043" y1="122.069" x2="472.178" y2="123.077"/>
			<path style="fill:none;stroke:#004560;stroke-linecap:round;stroke-linejoin:round;stroke-miterlimit:10;" d="M431.148,118.683
				c0,0,0.477-1.945,1.485-2.737"/>
			<path style="fill:none;stroke:#004560;stroke-linecap:round;stroke-linejoin:round;stroke-miterlimit:10;" d="M467.556,110.039
				c0,0-0.708-1.441-2.221-2.017"/>
			<path style="fill:none;stroke:#004560;stroke-linecap:round;stroke-linejoin:round;stroke-miterlimit:10;" d="M436.883,109.031
				c0,0,3.457-2.953,3.673-3.457"/>
			<path style="fill:none;stroke:#004560;stroke-linecap:round;stroke-linejoin:round;stroke-miterlimit:10;" d="M445.023,116.666
				c0,0,1.152-1.585,2.593-2.089"/>
		</g>
	</g>
	<g>
		<g>
			<path style="fill:#FF9400;" d="M84.227,93.136c-2.285-0.273-3.788-2.569-3.058-4.751c0.863-2.581,2.945-5.675,7.838-7.357
				c6.247-2.147,13.23,0.016,15.249,5.888c1.403,4.081-0.779,7.625-4.19,10.706c-1.201,1.112-0.842,2.292-0.37,3.666l0,0
				c0.443,1.288-0.243,2.691-1.531,3.134l-2.207,0.759c-1.288,0.443-2.691-0.243-3.134-1.531l-0.759-2.208
				c-0.63-1.832-1.062-3.36,0.397-5.212c1.983-2.497,4.313-3.438,3.297-6.395c-0.687-1.999-2.673-2.9-4.547-2.256
				c-1.699,0.584-2.627,1.8-3.084,3.098C87.554,92.312,85.945,93.342,84.227,93.136L84.227,93.136z M104.278,110.286
				c0.902,2.623-0.492,5.477-3.158,6.394c-2.624,0.902-5.478-0.492-6.38-3.116c-0.916-2.666,0.478-5.52,3.102-6.421
				C100.508,106.226,103.362,107.62,104.278,110.286z"/>
		</g>
		<g>
			<path style="fill:#D88471;" d="M133.946,406.407c-0.609-3.708-2.467-14.897-4.72-27.285
				c-2.762-15.191-10.128-34.411-10.128-34.411l-16.252,12.775l19.569,52.882c-0.502,1.574-1.375,3.887-2.511,5.237
				c-1.841,2.187-2.532,3.075-2.532,3.075s4.258,1.299,7.25,1.299s10.818-6.905,11.163-8.171
				C135.979,411.101,134.921,408.538,133.946,406.407z"/>
			<path style="fill:#004560;" d="M118.97,416.697c0,0-1.136,1.323-4.589,4.085c-3.453,2.762-4.719,4.604-4.719,5.754
				c0,1.151,13.465,1.568,16.342,0.784c2.877-0.784,11.278-9.3,12.199-11.142c0.921-1.841-3.419-7.858-3.419-7.858
				s-1.645,3.485-2.795,5.211c-1.151,1.726-5.421,3.63-7.992,4.49C118.15,419.977,118.97,416.697,118.97,416.697z"/>
			<path style="fill:#004560;" d="M92.836,249.572c0,0-1.357,18.697-1.055,44.028c0.302,25.331,8.181,51.11,8.181,51.11
				l20.166-6.177l-1.508-88.961H92.836z"/>
			<path style="fill:#D88471;" d="M103.089,182.022c0,0-9.348,17.641-11.987,24.427c-2.639,6.785,4.717,15.413,4.717,15.413
				l5.461-5.16C101.279,216.702,104.295,187.903,103.089,182.022z"/>
			<path style="fill:#FFD07F;" d="M103.089,182.022c0,0,16.134-8.896,29.553-11.158c13.419-2.262,17.792,5.579,17.792,5.579
				l-9.378,52.02l4.704,21.109H92.836l6.333-30.006C99.169,219.567,98.414,193.783,103.089,182.022z"/>
			<path style="fill:#FFA78C;" d="M100.642,135.423c0,0-0.005,17.491,0.789,22.419c0.794,4.928,6.399,9.094,12.015,10.846
				c5.615,1.753,15.382-5.033,17.116-8.929c1.735-3.896,2.972-23.139,2.972-23.139S108.033,122.841,100.642,135.423z"/>
			<path style="fill:#FFA78C;" d="M115.182,166.988c0,0,0.94,6.067-0.254,11.371l15.651-5.427l0.37-14.317L115.182,166.988z"/>
			<path style="fill:#FFA78C;" d="M130.047,146.864c0,0,2.782-5.375,6.236-3.557c3.454,1.818,1.765,8.862-0.482,11.254
				c-2.247,2.392-5.592,0.187-5.592,0.187L130.047,146.864z"/>
			<path style="fill:#D88471;" d="M115.399,168.969c0,0,7.005-1.167,11.253-4.835c0,0-4.932,8.873-11.168,9.957L115.399,168.969z"/>
			<path style="fill:#00557F;" d="M111.495,132.111c0,0,2.051,4.42,7.622,8.72c5.57,4.301,9.851,4.681,9.851,4.681
				s-1.76,5.286,1.197,7.1c0,0,1.173-10.213,5.226-9.623c4.054,0.59,2.375,12.54-3.779,12.415c0,0-1.678,3.68-0.8,8.463
				c0,0,12.444-9.068,14.112-21.552c1.668-12.484-6.995-16.201-6.995-16.201s-3.074-6.099-13.404-7.99
				c-10.331-1.892-15.666,4.011-15.666,4.011s-5.166-1.677-9.674,3.52c-4.508,5.198-2.14,10.469-2.14,10.469
				s-3.347,3.688-2.08,8.051c1.268,4.363,5.897,5.373,5.897,5.373s0.849-12.254,2.799-15.592
				C105.613,130.618,111.495,132.111,111.495,132.111z"/>
			<path style="fill:none;stroke:#BF6D60;stroke-linecap:round;stroke-linejoin:round;stroke-miterlimit:10;" d="M109.378,146.32
				c0,0,0.326,3.541-1.08,5.728c-1.405,2.187,1.599,3.198,1.599,3.198"/>
			<path style="fill:none;stroke:#00557F;stroke-linecap:round;stroke-linejoin:round;stroke-miterlimit:10;" d="M102.121,142.166
				c0,0,2.062-2.474,4.415-0.641"/>
			<path style="fill:none;stroke:#00557F;stroke-linecap:round;stroke-linejoin:round;stroke-miterlimit:10;" d="M114.438,142.218
				c0,0,2.169,1.191,5.173,1.47"/>
			<path style="fill:none;stroke:#BF6D60;stroke-linecap:round;stroke-linejoin:round;stroke-miterlimit:10;" d="M135.486,146.111
				c0,0-2.946,1.357-3.424,5.611"/>
			<path style="fill:#FFA78C;" d="M148.775,177.046c0,0,4.674,0.603,6.031,9.952c1.357,9.348-7.703,33.314-10.856,38.449
				c-5.277,8.595-52.17,1.508-52.17,1.508l2.563-10.404l37.695-4.674c0,0,4.825-20.959,7.69-28.648
				C142.594,175.539,148.775,177.046,148.775,177.046z"/>
			<path style="fill:none;stroke:#BF6D60;stroke-linecap:round;stroke-linejoin:round;stroke-miterlimit:10;" d="M134.112,150.946
				c0,0,0.302-1.064-0.942-2.201"/>
			<path style="fill:#00557F;" d="M117.539,148.159c-0.049,0.98-0.539,1.751-1.095,1.723s-0.966-0.844-0.917-1.824
				c0.049-0.98,0.539-1.751,1.095-1.723S117.588,147.179,117.539,148.159z"/>
			<path style="fill:#00557F;" d="M106.18,147.59c-0.049,0.979-0.539,1.751-1.095,1.723c-0.555-0.028-0.966-0.844-0.917-1.824
				c0.049-0.979,0.539-1.751,1.095-1.723C105.818,145.794,106.229,146.611,106.18,147.59z"/>
			<path style="fill:none;stroke:#BF6D60;stroke-linecap:round;stroke-linejoin:round;stroke-miterlimit:10;" d="M109.623,159.686
				c0,0,1.874-0.801,4.413,0.744"/>
			
				<ellipse transform="matrix(0.3052 -0.9523 0.9523 0.3052 -22.6925 220.5744)" style="fill:#00557F;" cx="139.809" cy="125.838" rx="7.747" ry="7.747"/>
			<path style="fill:#FFA78C;" d="M94.679,172.674c0,0,3.75-4.75,5.25-5.202c1.501-0.452,6.633,2.196,7.007,2.983
				c0.374,0.787-0.531,2.219-0.531,2.219s-0.226,2.714-1.131,3.166c-0.905,0.452-0.905,0.452-0.905,0.452s-1.432,4.071-3.92,4.75
				c0,0-0.528,4.75-3.543,5.428l-5.805-4.9C91.102,181.57,91.849,177.574,94.679,172.674z"/>
			<path style="fill:#FFA78C;" d="M98.791,168.641c0,0,2.224-2.79,3.92-3.657c1.696-0.867,6.295,0.226,6.785,0.905
				c0.49,0.678-0.49,1.131-2.262,0.98c-1.772-0.151-2.375-0.217-2.375-0.217l-1.282,2.32L98.791,168.641z"/>
			<path style="fill:#FFA78C;" d="M91.102,181.57c0,0-10.982,30.005-10.781,37.846c0.201,7.841,5.227,9.047,8.243,8.846
				c3.016-0.201,7.114-4.63,8.846-10.052c1.732-5.422,0-33.172,0-33.172L91.102,181.57z"/>
			<path style="fill:none;stroke:#BF6D60;stroke-linecap:round;stroke-linejoin:round;stroke-miterlimit:10;" d="M132.592,213.385
				c0,0,2.815,2.815,4.222,6.031"/>
			<path style="fill:none;stroke:#BF6D60;stroke-linecap:round;stroke-linejoin:round;stroke-miterlimit:10;" d="M94.293,186.47
				c0,0,1.709,1.043,3.189-0.191"/>
			<path style="fill:none;stroke:#BF6D60;stroke-linecap:round;stroke-linejoin:round;stroke-miterlimit:10;" d="M100.45,181.042
				c0,0-0.88-0.377-0.578-1.533l0.77-1.759"/>
			<path style="fill:none;stroke:#BF6D60;stroke-linecap:round;stroke-linejoin:round;stroke-miterlimit:10;" d="M101.33,174.584
				c0,0,2.614,0.603,3.041,1.709"/>
			<path style="fill:none;stroke:#BF6D60;stroke-linecap:round;stroke-linejoin:round;stroke-miterlimit:10;" d="M102.636,171.468
				c0,0,2.362-0.151,3.77,1.206"/>
			<path style="fill:#FFA78C;" d="M118.138,363.481l-21.006,1.083l-7.253,49.063c-2.247,1.037-4.71,3.922-9.935,5.952
				c-4.108,1.596-3.097,2.285-3.963,3.909c-0.866,1.624,0,3.465,0,3.465h27.53c0.968-0.011,1.749-0.793,1.756-1.761
				c0.022-2.788,0.055-8.248,0.013-11.371c0.552-2.213,2.757-10.908,5.927-21.537C114.889,379.939,118.138,363.481,118.138,363.481z
				"/>
			<path style="fill:#00557F;" d="M85.376,416.802c0,0,1.916,2.852,10.008,2.349c8.092-0.503,10.006-2.349,10.006-2.349
				s1.024,9.589,0.579,10.543c-0.445,0.954-10.149,0.405-11.484,0.378c-1.335-0.027-19.229,0.831-21.455,0s-2.849-2.44-2.137-3.546
				C71.604,423.071,82.304,418.304,85.376,416.802z"/>
			<path style="fill:#FFA78C;" d="M108.91,179.084c0,0-0.994,2.838,8.177,2.938c9.171,0.101,22.038-9.348,22.038-9.348l-7.841-0.606
				l-16.357,4.224L108.91,179.084z"/>
			<path style="fill:#00557F;" d="M139.93,151.722c0,0,0.704,10.8,6.433,14.016c0,0,5.529,0.302,7.036,5.73
				c1.508,5.428-4.523,9.147-4.523,9.147s-0.503,6.534-8.544,7.338c-8.042,0.804-11.862-9.851-11.862-15.681
				S135.507,153.688,139.93,151.722z"/>
			<path style="fill:#00557F;" d="M145.749,249.572c0,0,1.624,15.592-5.522,39.955c-7.146,24.362-20.465,75.037-20.465,75.037
				H94.749l13.318-100.049l-1.624-14.942H145.749z"/>
			
				<line style="fill:none;stroke:#004560;stroke-linecap:round;stroke-linejoin:round;stroke-miterlimit:10;" x1="118.374" y1="256.873" x2="108.068" y2="264.515"/>
			<path style="fill:none;stroke:#004560;stroke-linecap:round;stroke-linejoin:round;stroke-miterlimit:10;" d="M141.482,251.071
				c0,0-0.861,21.016-5.167,37.809c-4.306,16.793-19.807,71.262-19.807,71.262"/>
			<path style="fill:none;stroke:#004560;stroke-linecap:round;stroke-linejoin:round;stroke-miterlimit:10;" d="M95.338,360.142
				c0,0,20.214,0.538,25.59,0"/>
			<path style="fill:none;stroke:#BF6D60;stroke-linecap:round;stroke-linejoin:round;stroke-miterlimit:10;" d="M107.924,181.57
				c0,0,0.115,2.103,7.005,2.534c6.89,0.431,13.542-2.081,13.542-2.081"/>
			<path style="fill:none;stroke:#004560;stroke-linecap:round;stroke-linejoin:round;stroke-miterlimit:10;" d="M110.643,128.893
				c0,0,3.543,13.417,18.325,16.62"/>
			
				<line style="fill:none;stroke:#004560;stroke-linecap:round;stroke-linejoin:round;stroke-miterlimit:10;" x1="108.86" y1="122.135" x2="111.071" y2="123.651"/>
			<path style="fill:none;stroke:#004560;stroke-linecap:round;stroke-linejoin:round;stroke-miterlimit:10;" d="M97.046,136.125
				c0,0,1.537,1.232,2.46,1.59"/>
			<path style="fill:none;stroke:#004560;stroke-linecap:round;stroke-linejoin:round;stroke-miterlimit:10;" d="M133.774,122.135
				c0,0,6.655,4.222,9.083,9.222"/>
			<path style="fill:none;stroke:#004560;stroke-linecap:round;stroke-linejoin:round;stroke-miterlimit:10;" d="M132.062,132.143
				c0,0,1.218,0.786,1.471,2.214"/>
			
				<line style="fill:none;stroke:#004560;stroke-linecap:round;stroke-linejoin:round;stroke-miterlimit:10;" x1="130.047" y1="124.929" x2="131.714" y2="126.214"/>
			<path style="fill:none;stroke:#004560;stroke-linecap:round;stroke-linejoin:round;stroke-miterlimit:10;" d="M139.126,154.214
				c0,0,0.803,6.52,2.66,9.653"/>
			
				<line style="fill:none;stroke:#004560;stroke-linecap:round;stroke-linejoin:round;stroke-miterlimit:10;" x1="130.813" y1="163.867" x2="132.429" y2="162.429"/>
			
				<line style="fill:none;stroke:#004560;stroke-linecap:round;stroke-linejoin:round;stroke-miterlimit:10;" x1="137.429" y1="157.5" x2="137.429" y2="159.479"/>
			<path style="fill:none;stroke:#004560;stroke-linecap:round;stroke-linejoin:round;stroke-miterlimit:10;" d="M146,174.584
				c0,0,2.609,2.289,2.876,6.031"/>
			<path style="fill:none;stroke:#004560;stroke-linecap:round;stroke-linejoin:round;stroke-miterlimit:10;" d="M142.643,181.57
				c0,0,0.286,1.144,0,2.144"/>
			<path style="fill:none;stroke:#004560;stroke-linecap:round;stroke-linejoin:round;stroke-miterlimit:10;" d="M133.17,172.674
				c0,0,0.188,2.882,1.259,4.925"/>
			<path style="fill:none;stroke:#004560;stroke-linecap:round;stroke-linejoin:round;stroke-miterlimit:10;" d="M140.071,168.487
				c0,0,1.357,1.208,1.714,1.968"/>
			<path style="fill:none;stroke:#004560;stroke-linecap:round;stroke-linejoin:round;stroke-miterlimit:10;" d="M117.087,127.286
				c0,0,0.52,2.571,1.806,3.429"/>
			<path style="fill:none;stroke:#004560;stroke-linecap:round;stroke-linejoin:round;stroke-miterlimit:10;" d="M125.536,138.429
				c0,0,1.071,1.182,2.036,1.663"/>
			<path style="fill:none;stroke:#BF6D60;stroke-linecap:round;stroke-linejoin:round;stroke-miterlimit:10;" d="M94.749,247.429
				c0,0,22.832,0.143,28.613,0c5.781-0.143,18.924,0.244,18.924,0.244"/>
		</g>
		<g>
			<path style="fill:#FF9400;" d="M153.19,117.827c-2.337-1.891-2.402-5.476-0.077-7.381c2.751-2.254,7.204-4.229,13.786-2.685
				c8.403,1.97,14.622,9.22,12.769,17.119c-1.287,5.489-6.165,7.891-12.081,8.927c-2.102,0.394-2.526,1.949-2.959,3.798l0,0
				c-0.406,1.733-2.14,2.808-3.873,2.401l-2.969-0.696c-1.733-0.406-2.808-2.14-2.401-3.873l0.696-2.969
				c0.578-2.465,1.163-4.455,4.065-5.488c3.93-1.383,7.162-0.802,8.094-4.779c0.631-2.689-0.939-5.067-3.46-5.658
				c-2.285-0.536-4.158,0.163-5.566,1.281C157.442,119.228,154.947,119.248,153.19,117.827L153.19,117.827z M163.437,150.741
				c-0.827,3.529-4.355,5.716-7.94,4.875c-3.529-0.828-5.716-4.355-4.888-7.883c0.841-3.585,4.368-5.773,7.897-4.945
				C162.091,143.628,164.278,147.155,163.437,150.741z"/>
		</g>
	</g>
	<g>
		<path style="fill:#00557F;" d="M571.488,128.148c0,0-3.629,17.209-1.512,26.888c2.117,9.679,9.074,8.469,10.132,8.166
			c1.059-0.302,1.963-3.135,1.963-3.135s1.347,2.53,4.38,2.379c3.033-0.151,6.209-2.1,6.209-2.1s9.536,2.251,15.128,1.042
			c5.591-1.21,6.387-3.63,6.387-3.63s3.308,1.512,7.078-1.815c3.771-3.327-1.527-16.743-3.566-22.058
			C615.648,128.571,571.488,128.148,571.488,128.148z"/>
		<polygon style="fill:#FFA78C;" points="589.938,409.653 591.148,423.567 602.339,421.903 602.339,409.2 		"/>
		<polygon style="fill:#FFA78C;" points="635.459,409.2 638.635,421.752 648.767,421.752 647.557,409.2 		"/>
		<path style="fill:#00557F;" d="M602.339,420.24c0,0,8.923,11.342,13.157,13.913c4.234,2.571,2.268,4.991,0.605,5.595
			c-1.664,0.605-6.465,0.213-15.577,0c-0.81-0.019-6.965-0.62-10.177-1.08c-1.06-0.152-1.783-1.142-1.612-2.199l2.297-14.228
			l9.682-1.715L602.339,420.24z"/>
		<path style="fill:#00557F;" d="M637.879,418.763l-1.409,17.292c-0.057,0.706,0.46,1.328,1.166,1.395
			c3.884,0.372,15.434,1.466,16.917,1.466c1.786,0,10.917,0,12.902-1.134c1.985-1.134,1.39-3.176,0-4.537
			c-1.389-1.361-9.131-5.671-9.131-5.671l-9.886-9.237L637.879,418.763z"/>
		<path style="fill:#FFD07F;" d="M621.613,173.266c0,0-7.438-8.108-25.298-8.108c-13.609,0-25.297,9.633-25.297,9.633l9.755,45.601
			l-4.704,21.109h52.924l-5.05-23.927C623.943,217.575,629.359,185.983,621.613,173.266z"/>
		<path style="fill:#FFA78C;" d="M614.413,123.521c0,0,3.163,17.203,3.273,22.193c0.109,4.99-4.652,10.1-9.859,12.838
			c-5.206,2.738-16.038-2.173-18.447-5.692s-7.101-22.222-7.101-22.222S604.872,112.48,614.413,123.521z"/>
		<path style="fill:#FFA78C;" d="M605.811,157.193c0,0,0.171,6.137,2.303,11.138l-16.373-2.512l-2.949-14.015L605.811,157.193z"/>
		<path style="fill:#FFA78C;" d="M587.557,140.083c0,0-3.707-4.784-6.776-2.372c-3.069,2.412-0.136,9.035,2.506,10.982
			c2.642,1.947,5.534-0.826,5.534-0.826L587.557,140.083z"/>
		<path style="fill:#D88471;" d="M605.955,159.181c0,0-7.1,0.117-11.941-2.723c0,0,6.453,7.836,12.782,7.777L605.955,159.181z"/>
		<path style="fill:#00557F;" d="M607.33,121.539c0,0,0.866,6.082-7.671,10.109c-6.364,3.003-7.982,6.242-7.982,6.242
			s1.663,6.106-3.199,7.868c0,0-2.998-9.833-6.878-8.521c-3.88,1.312-0.071,12.763,5.958,11.529c0,0,2.315,3.316,2.315,8.179
			c0,0-13.877-6.672-17.772-18.65c-3.895-11.978,3.954-17.198,3.954-17.198s1.922-6.553,11.741-10.279
			c9.819-3.726,20.911-1.466,26.284,2.832c5.372,4.298,3.995,9.911,3.995,9.911s3.958,3.023,3.499,7.543
			c-0.459,4.52-4.83,6.349-4.83,6.349s-3.048-11.899-5.569-14.83C608.656,119.692,607.33,121.539,607.33,121.539z"/>
		<path style="fill:none;stroke:#BF6D60;stroke-linecap:round;stroke-linejoin:round;stroke-miterlimit:10;" d="M607.788,135.816
			c0,0,0.319,3.542,2.096,5.439c1.777,1.897-0.995,3.434-0.995,3.434"/>
		<path style="fill:none;stroke:#00557F;stroke-linecap:round;stroke-linejoin:round;stroke-miterlimit:10;" d="M614.175,130.42
			c0,0-2.475-2.061-4.458,0.167"/>
		<path style="fill:none;stroke:#00557F;stroke-linecap:round;stroke-linejoin:round;stroke-miterlimit:10;" d="M602.07,132.695
			c0,0-1.919,1.564-4.822,2.38"/>
		<path style="fill:none;stroke:#BF6D60;stroke-linecap:round;stroke-linejoin:round;stroke-miterlimit:10;" d="M582.071,140.325
			c0,0,3.143,0.803,4.38,4.9"/>
		<path style="fill:none;stroke:#BF6D60;stroke-linecap:round;stroke-linejoin:round;stroke-miterlimit:10;" d="M584.296,144.832
			c0,0-0.489-0.992,0.529-2.335"/>
		<path style="fill:#00557F;" d="M600.093,139.098c0.225,0.955,0.846,1.625,1.388,1.497c0.541-0.128,0.798-1.005,0.573-1.96
			c-0.225-0.954-0.846-1.625-1.388-1.497C600.124,137.267,599.868,138.144,600.093,139.098z"/>
		<path style="fill:#00557F;" d="M611.163,136.488c0.225,0.954,0.846,1.625,1.388,1.497c0.541-0.128,0.798-1.005,0.573-1.96
			c-0.225-0.955-0.846-1.625-1.388-1.497C611.194,134.656,610.938,135.534,611.163,136.488z"/>
		<path style="fill:none;stroke:#BF6D60;stroke-linecap:round;stroke-linejoin:round;stroke-miterlimit:10;" d="M609.96,149.007
			c0,0-1.987-0.449-4.206,1.529"/>
		<path style="fill:#FFA78C;" d="M655.967,167.567c-2.336-7.487-17.164-35.411-17.164-35.411s-1.427-3.806-5.062-8.143
			c0,0-4.131-3.684-5.849-4.162c-0.944-0.731-2.315-1.691-3.392-2.022c-1.821-0.561-6.161,1.312-6.526,2.065
			c-0.365,0.753,0.678,1.029,2.397,0.574c1.719-0.455,2.301-0.624,2.301-0.624l1.32,1.638c-1.377,0.958-2.591,2.046-2.708,2.467
			c-0.232,0.839,0.907,2.094,0.907,2.094s0.692,2.634,1.661,2.923c0.969,0.289,0.969,0.289,0.969,0.289s2.115,3.762,4.683,4
			c0,0,1.168,3.985,3.828,4.643c0.58,4.939,2.838,23.367,4.983,29.899l-9.322,1.911c0.545,3.726,4.899,18,4.899,18
			C638.191,187.088,659.259,178.118,655.967,167.567z"/>
		<path style="fill:#00557F;" d="M644.668,349.766c0,0-2.783-76.791-15.675-108.264h-52.924c0,0-5.427,14.804-4.248,45.655
			c0.948,24.795,7.123,52.211,9.513,62.026c-0.258,9.691-0.203,36.78,7.092,61.112h15.425l-0.907-57.353l4.438-71.671l13.495,64.217
			l-0.062-0.011c0,0,2.091,39.501,14.34,64.818h13.611L644.668,349.766z"/>
		<path style="fill:none;stroke:#BF6D60;stroke-linecap:round;stroke-linejoin:round;stroke-miterlimit:10;" d="M636.508,137.534
			c0,0-1.503,1.323-3.174,0.363"/>
		<path style="fill:none;stroke:#004560;stroke-linecap:round;stroke-linejoin:round;stroke-miterlimit:10;" d="M581.334,243.053
			c0,0-6.367,25.709-4.25,50.813c2.117,25.104,7.41,49.604,7.41,49.604"/>
		<path style="fill:none;stroke:#BF6D60;stroke-linecap:round;stroke-linejoin:round;stroke-miterlimit:10;" d="M629.505,133.253
			c0,0,0.801-0.523,0.304-1.61l-1.062-1.6"/>
		<path style="fill:none;stroke:#BF6D60;stroke-linecap:round;stroke-linejoin:round;stroke-miterlimit:10;" d="M627.521,127.044
			c0,0-2.47,1.046-2.699,2.209"/>
		<path style="fill:none;stroke:#BF6D60;stroke-linecap:round;stroke-linejoin:round;stroke-miterlimit:10;" d="M625.695,124.201
			c0,0-2.353,0.26-3.504,1.84"/>
		<path style="fill:#FFD07F;" d="M612.143,167.714l18.109,0.617l4.669,19.375c0,0-7.399,4.327-13.667,4.175
			C611.918,191.656,612.143,167.714,612.143,167.714z"/>
		<path style="fill:#FFA78C;" d="M592.78,248.265c0,0,1.312,0.477,2.446,0.775c1.133,0.298,2.446,0.358,1.909-0.895
			c-0.537-1.253-3.579-2.806-6.681-2.327c-3.1,0.479-4.116,0.759-4.118,0.76l-5.53,0.603l-16.541-23.256l5.773-15.143l-14.84-10.604
			c0,0-5.488,12.145-8.59,24.553c-3.102,12.408,27.043,31.815,27.043,31.815s2.068,2.227,5.727,3.022
			c2.737,0.595,6.008,0.3,7.482,0.113c0.019-0.003,0.037,0.005,0.056,0.001l0.273-0.045c0.294-0.041,0.461-0.07,0.461-0.07v-0.006
			l3.605-0.595c0,0,1.312,0.477,2.446,0.776c1.134,0.298,2.446,0.358,1.909-0.895c-0.467-1.089-2.829-2.402-5.476-2.412l1.877-0.31
			c0,0,1.312,0.477,2.446,0.775c1.133,0.298,2.446,0.358,1.909-0.895c-0.527-1.231-3.475-2.741-6.52-2.339l2.696-0.445
			c0,0,1.312,0.477,2.446,0.775c1.133,0.298,2.446,0.358,1.909-0.895c-0.537-1.253-3.579-2.806-6.681-2.327
			c-1.108,0.171-1.941,0.316-2.565,0.433v-0.1L592.78,248.265z"/>
		<path style="fill:#FFD07F;" d="M571.018,174.791c0,0-12.195,9.037-16.959,24.236l17.762,11.342c0,0,7.752-11.078,10.25-19.32
			C584.57,182.807,576.294,172.9,571.018,174.791z"/>
		<path style="fill:#FFA78C;" d="M581.078,168.753c0,0,6.532,4.128,17.375,3.826c10.843-0.302,13.69-4.865,13.69-4.865l-4.896-1.807
			l-15.809-1.527L581.078,168.753z"/>
		<path style="fill:none;stroke:#BF6D60;stroke-linecap:round;stroke-linejoin:round;stroke-miterlimit:10;" d="M577.049,202.002
			c0,0,3.485-7.498,4.028-15.663"/>
		<path style="fill:none;stroke:#BF6D60;stroke-linecap:round;stroke-linejoin:round;stroke-miterlimit:10;" d="M621.253,175.57
			c0,0,5.31,11.301,4.918,15.686"/>
		
			<line style="fill:none;stroke:#BF6D60;stroke-linecap:round;stroke-linejoin:round;stroke-miterlimit:10;" x1="619.731" y1="215.831" x2="607.788" y2="218.553"/>
		<polyline style="fill:none;stroke:#BF6D60;stroke-linecap:round;stroke-linejoin:round;stroke-miterlimit:10;" points="
			584.145,220.368 586.452,221.687 584.145,222.768 		"/>
		<path style="fill:none;stroke:#BF6D60;stroke-linecap:round;stroke-linejoin:round;stroke-miterlimit:10;" d="M582.53,172.595
			c0,0,12.416,4.245,21.095,1.962c8.678-2.283,10.55-5.164,10.55-5.164"/>
		<path style="fill:none;stroke:#BF6D60;stroke-linecap:round;stroke-linejoin:round;stroke-miterlimit:10;" d="M564.266,223.926
			c0,0-3.515,2.566-7.825,2.793"/>
		<path style="fill:none;stroke:#BF6D60;stroke-linecap:round;stroke-linejoin:round;stroke-miterlimit:10;" d="M638.316,167.794
			c0,0,2.739,1.308,8.864,2.895"/>
		<path style="fill:none;stroke:#004560;stroke-linecap:round;stroke-linejoin:round;stroke-miterlimit:10;" d="M592.963,349.67
			c0,0,3.932,2.571,8.771,0"/>
		<path style="fill:none;stroke:#004560;stroke-linecap:round;stroke-linejoin:round;stroke-miterlimit:10;" d="M642.718,348.158
			c0,0-5.747,0.756-8.62-1.815"/>
		
			<line style="fill:none;stroke:#004560;stroke-linecap:round;stroke-linejoin:round;stroke-miterlimit:10;" x1="620.878" y1="345.488" x2="625.931" y2="347.302"/>
		
			<line style="fill:none;stroke:#004560;stroke-linecap:round;stroke-linejoin:round;stroke-miterlimit:10;" x1="581.334" y1="349.182" x2="584.494" y2="352.09"/>
		<path style="fill:none;stroke:#004560;stroke-linecap:round;stroke-linejoin:round;stroke-miterlimit:10;" d="M607.383,281.271
			c0,0,1.157-11.602,4.484-15.836s7.864-5.444,7.864-5.444"/>
		<path style="fill:none;stroke:#004560;stroke-linecap:round;stroke-linejoin:round;stroke-miterlimit:10;" d="M588.929,435.275
			c0,0,6.227,0.824,14.847,1.353c8.62,0.529,13.006,0,13.006,0"/>
		<path style="fill:none;stroke:#004560;stroke-linecap:round;stroke-linejoin:round;stroke-miterlimit:10;" d="M636.971,434.889
			c0,0,14.745,1.302,20.341,1.18c5.596-0.122,9.981-1.18,9.981-1.18"/>
		<path style="fill:none;stroke:#004560;stroke-linecap:round;stroke-linejoin:round;stroke-miterlimit:10;" d="M592.963,410.295
			c0,0-10.737-37.789-8.469-53.517"/>
		<path style="fill:none;stroke:#004560;stroke-linecap:round;stroke-linejoin:round;stroke-miterlimit:10;" d="M610.21,270.631
			c0,0,12.936,66.185,13.194,72.839"/>
		<path style="fill:none;stroke:#004560;stroke-linecap:round;stroke-linejoin:round;stroke-miterlimit:10;" d="M625.931,350.813
			c0,0,1.512,41.92,12.477,59.482"/>
		<path style="fill:none;stroke:#004560;stroke-linecap:round;stroke-linejoin:round;stroke-miterlimit:10;" d="M576.056,121.098
			c0,0,4.355-0.365,7.531,0"/>
		<path style="fill:none;stroke:#004560;stroke-linecap:round;stroke-linejoin:round;stroke-miterlimit:10;" d="M606.725,119.27
			c0,0,1.966,4.523-1.664,8.878c-3.629,4.355-11.342,4.014-13.384,9.742c0,0,1.239,7.362-3.199,7.868"/>
		<path style="fill:none;stroke:#004560;stroke-linecap:round;stroke-linejoin:round;stroke-miterlimit:10;" d="M589.787,136.257
			c0,0,0.076-3.527,1.059-5.267"/>
		
			<line style="fill:none;stroke:#004560;stroke-linecap:round;stroke-linejoin:round;stroke-miterlimit:10;" x1="615.723" y1="122.522" x2="618.076" y2="123.562"/>
		<path style="fill:none;stroke:#004560;stroke-linecap:round;stroke-linejoin:round;stroke-miterlimit:10;" d="M573.299,141.237
			c0,0-0.383,3.516,0,6.087"/>
		<path style="fill:none;stroke:#004560;stroke-linecap:round;stroke-linejoin:round;stroke-miterlimit:10;" d="M577.462,152.715
			c0,0-0.227,2.744,0,3.743"/>
		
			<line style="fill:none;stroke:#004560;stroke-linecap:round;stroke-linejoin:round;stroke-miterlimit:10;" x1="584.825" y1="153.889" x2="584.825" y2="156.095"/>
		<path style="fill:none;stroke:#004560;stroke-linecap:round;stroke-linejoin:round;stroke-miterlimit:10;" d="M607.788,112.843
			c0,0,3.549,1.134,5.137,2.949"/>
		
			<line style="fill:none;stroke:#004560;stroke-linecap:round;stroke-linejoin:round;stroke-miterlimit:10;" x1="617.687" y1="151.558" x2="617.901" y2="153.889"/>
		<path style="fill:none;stroke:#004560;stroke-linecap:round;stroke-linejoin:round;stroke-miterlimit:10;" d="M577.462,127.044
			c0,0-0.907,2.51-0.529,4.627"/>
		<path style="fill:none;stroke:#004560;stroke-linecap:round;stroke-linejoin:round;stroke-miterlimit:10;" d="M597.248,118.59
			c0,0-0.076,1.815-0.933,3.1"/>
		<path style="fill:none;stroke:#004560;stroke-linecap:round;stroke-linejoin:round;stroke-miterlimit:10;" d="M582.906,116.17
			c0,0,2.604-2.495,5.915-3.327"/>
		<path style="fill:#FF9400;" d="M666.453,63.617h-40.152c-4.64,0-8.401,3.761-8.401,8.401v30.836c0,4.64,3.761,8.401,8.401,8.401
			h13.229l-1.355,5.836c-0.386,1.664,1.454,2.95,2.883,2.015l12.001-7.85h13.393c4.64,0,8.401-3.761,8.401-8.401V72.018
			C674.854,67.379,671.093,63.617,666.453,63.617z"/>
		<g>
			<path style="fill:#FFFFFF;" d="M637.419,77.966c-2.062-1.021-2.711-3.687-1.294-5.5c1.677-2.144,4.672-4.365,9.846-4.315
				c6.605,0.064,12.464,4.437,12.404,10.646c-0.042,4.315-3.282,6.926-7.527,8.691c-1.504,0.646-1.56,1.879-1.574,3.332l0,0
				c-0.013,1.362-1.128,2.455-2.49,2.442l-2.334-0.023c-1.362-0.013-2.455-1.128-2.442-2.49l0.023-2.334
				c0.019-1.937,0.122-3.522,2.116-4.78c2.703-1.691,5.214-1.799,5.244-4.925c0.021-2.114-1.55-3.627-3.532-3.646
				c-1.796-0.017-3.078,0.818-3.943,1.889C640.829,78.3,638.969,78.734,637.419,77.966L637.419,77.966z M650.586,100.83
				c-0.027,2.774-2.294,4.998-5.113,4.971c-2.774-0.027-4.998-2.295-4.971-5.069c0.027-2.818,2.295-5.043,5.069-5.016
				C648.389,95.744,650.613,98.012,650.586,100.83z"/>
		</g>
	</g>
</g>
</svg>
