<?xml version="1.0" encoding="utf-8"?>
<!-- Generator: Adobe Illustrator 27.5.0, SVG Export Plug-In . SVG Version: 6.00 Build 0)  -->
<svg version="1.1" xmlns="http://www.w3.org/2000/svg" xmlns:xlink="http://www.w3.org/1999/xlink" x="0px" y="0px"
	 viewBox="0 0 500 500" style="enable-background:new 0 0 500 500;" xml:space="preserve">
<g id="Background_Simple">
	<g>
		<path style="fill:#92E3A9;" d="M455.148,405.106C478.135,372.802,484.802,328.019,481,290
			c-1.884-18.834-5.559-38.569-16.679-54.346c-16.196-22.976-42.938-35.083-63.32-53.653
			c-29.991-27.325-42.693-67.215-68.215-97.974c-33.306-40.139-85.757-45.206-134.889-42.837C161.03,42.968,101.682,43.695,93,90
			c-9,48,8,93-28,116c-35.999,23-54.999,70.998-44.001,111.998C30.277,352.58,74.755,358.702,84,394c11,42,75,98,137,94
			c61.996-4,97.995-44.994,123.995-43c30.13,2.311,62.223,2.224,87.551-16.614C441.376,421.817,448.871,413.927,455.148,405.106z"/>
		<path style="opacity:0.7;fill:#FFFFFF;" d="M455.148,405.106C478.135,372.802,484.802,328.019,481,290
			c-1.884-18.834-5.559-38.569-16.679-54.346c-16.196-22.976-42.938-35.083-63.32-53.653
			c-29.991-27.325-42.693-67.215-68.215-97.974c-33.306-40.139-85.757-45.206-134.889-42.837C161.03,42.968,101.682,43.695,93,90
			c-9,48,8,93-28,116c-35.999,23-54.999,70.998-44.001,111.998C30.277,352.58,74.755,358.702,84,394c11,42,75,98,137,94
			c61.996-4,97.995-44.994,123.995-43c30.13,2.311,62.223,2.224,87.551-16.614C441.376,421.817,448.871,413.927,455.148,405.106z"/>
	</g>
</g>
<g id="Plants">
	<g>
		<g>
			<path style="fill:none;stroke:#263238;stroke-width:2;stroke-linecap:round;stroke-linejoin:round;stroke-miterlimit:10;" d="
				M410.691,136.057c0,0-19.086-10.604-20.5,13.431c-1.414,24.035-4.948,180.259-4.948,180.259"/>
			<path style="fill:none;stroke:#263238;stroke-width:2;stroke-linecap:round;stroke-linejoin:round;stroke-miterlimit:10;" d="
				M380.278,151.606c0,0,15.568,34.641,8.499,176.021"/>
			<g>
				<path style="fill:#92E3A9;" d="M395.573,140.895c0,0-7.301,4.678-11.455-0.676c-4.154-5.354,2.81-15.161-3.329-19.354
					c-6.139-4.194-16.734,2.206-16.734,2.206s8.161,2.397,7.898,6.852c-0.263,4.455-4.194,6.139-4.718,4.192
					c-0.524-1.947-4.415-11.755-11.042-7.676c-6.627,4.079-7.639,10.406-7.639,10.406s15.424-1.644,16.359,4.158
					c0.935,5.803-6.327-1.012-12.691-1.387c-6.364-0.376-12.167,0.559-11.755,4.415s-0.601,10.182-0.601,10.182
					s5.392-4.791,12.392-4.378c7,0.413,6.738,4.868,0.374,4.492c-6.364-0.376-11.831,5.688-11.831,5.688s5.801,9.921,13.175,14.827
					c7.374,4.905,10.032,3.146,10.894-0.635c0.862-3.781-1.121-13.477,3.334-13.214c4.455,0.263-7.378,16.807-1.688,17.782
					c5.69,0.974,10.257-0.672,11.755-4.415c1.498-3.743,1.498-3.743,1.498-3.743s-1.982-9.696-1.121-13.477
					c0.862-3.781,1.909,0.112,2.919,4.643c1.01,4.53,1.645,15.423,3.591,14.9c1.947-0.524,8.162-8.459,9.623-11.566
					c1.461-3.107-8.196-12.617-8.084-14.526c0.113-1.909,7.562,1.723,8.722,3.708c1.16,1.984,2.283,4.605,2.283,4.605
					s4.643-2.919,4.532-11.867C402.124,138.089,395.573,140.895,395.573,140.895z"/>
				<path style="opacity:0.3;fill:#263238;" d="M395.573,140.895c0,0-7.301,4.678-11.455-0.676
					c-4.154-5.354,2.81-15.161-3.329-19.354c-6.139-4.194-16.734,2.206-16.734,2.206s8.161,2.397,7.898,6.852
					c-0.263,4.455-4.194,6.139-4.718,4.192c-0.524-1.947-4.415-11.755-11.042-7.676c-6.627,4.079-7.639,10.406-7.639,10.406
					s15.424-1.644,16.359,4.158c0.935,5.803-6.327-1.012-12.691-1.387c-6.364-0.376-12.167,0.559-11.755,4.415
					s-0.601,10.182-0.601,10.182s5.392-4.791,12.392-4.378c7,0.413,6.738,4.868,0.374,4.492c-6.364-0.376-11.831,5.688-11.831,5.688
					s5.801,9.921,13.175,14.827c7.374,4.905,10.032,3.146,10.894-0.635c0.862-3.781-1.121-13.477,3.334-13.214
					c4.455,0.263-7.378,16.807-1.688,17.782c5.69,0.974,10.257-0.672,11.755-4.415c1.498-3.743,1.498-3.743,1.498-3.743
					s-1.982-9.696-1.121-13.477c0.862-3.781,1.909,0.112,2.919,4.643c1.01,4.53,1.645,15.423,3.591,14.9
					c1.947-0.524,8.162-8.459,9.623-11.566c1.461-3.107-8.196-12.617-8.084-14.526c0.113-1.909,7.562,1.723,8.722,3.708
					c1.16,1.984,2.283,4.605,2.283,4.605s4.643-2.919,4.532-11.867C402.124,138.089,395.573,140.895,395.573,140.895z"/>
				<path style="fill:none;stroke:#263238;stroke-linecap:round;stroke-linejoin:round;stroke-miterlimit:10;" d="M358.56,161.874
					c4.761-5.886,11.777-13.85,17.658-17.65"/>
				<path style="fill:none;stroke:#263238;stroke-linecap:round;stroke-linejoin:round;stroke-miterlimit:10;" d="M353.041,169.039
					c0,0,1.222-1.7,3.204-4.246"/>
				<path style="fill:none;stroke:#263238;stroke-linecap:round;stroke-linejoin:round;stroke-miterlimit:10;" d="M379.325,145.684
					c0,0,7.074,9.997,8.382,20.292"/>
				<path style="fill:none;stroke:#263238;stroke-linecap:round;stroke-linejoin:round;stroke-miterlimit:10;" d="M371.312,151.597
					c0,0,1.984-1.16,1.234,11.568"/>
				<path style="fill:none;stroke:#263238;stroke-linecap:round;stroke-linejoin:round;stroke-miterlimit:10;" d="M376.48,139.768
					c0,0,4.044-3.593,1.911-10.744"/>
				
					<line style="fill:none;stroke:#263238;stroke-linecap:round;stroke-linejoin:round;stroke-miterlimit:10;" x1="371.014" y1="145.832" x2="368.132" y2="140.553"/>
				<path style="fill:none;stroke:#263238;stroke-linecap:round;stroke-linejoin:round;stroke-miterlimit:10;" d="M364.949,151.222
					c0,0-9.171-6.927-14.898-7.265"/>
			</g>
			<g>
				<path style="fill:#92E3A9;" d="M421.594,122.033c0,0-0.292,10.498-8.485,11.008c-8.192,0.51-13.263-13.148-21.647-9.86
					c-8.383,3.288-9.198,18.258-9.198,18.258s7.963-6.536,12.244-3.237c4.281,3.3,3.287,8.383,0.981,7.581
					c-2.306-0.803-14.779-3.592-15.212,5.823c-0.433,9.415,5.212,14.741,5.212,14.741s8.866-16.563,15.313-13.544
					c6.447,3.019-5.325,5.644-10.039,11.76c-4.714,6.116-7.733,12.563-3.592,14.78c4.141,2.217,9.785,7.542,9.785,7.542
					s-1.122-8.664,4.064-15.391c5.185-6.727,9.466-3.428,4.752,2.688c-4.714,6.116-2.369,15.722-2.369,15.722
					s13.887,0.955,23.825-3.084c9.937-4.039,9.988-7.9,6.79-11.34c-3.198-3.44-14.257-8.064-10.957-12.345
					c3.3-4.281,11.799,18.843,16.652,13.81c4.854-5.033,6.319-10.728,3.592-14.779c-2.727-4.051-2.727-4.051-2.727-4.051
					s-11.059-4.624-14.257-8.064c-3.198-3.44,1.414-1.835,6.638,0.242c5.224,2.076,16.564,8.867,17.366,6.561
					c0.802-2.306-2.906-13.938-5.021-17.518c-2.115-3.58-18.219-0.394-20.054-1.808c-1.835-1.414,6.88-6.396,9.657-6.205
					c2.778,0.191,6.167,0.853,6.167,0.853s0.242-6.638-8.792-12.625C423.25,113.561,421.594,122.033,421.594,122.033z"/>
				<path style="opacity:0.2;fill:#263238;" d="M421.594,122.033c0,0-0.292,10.498-8.485,11.008
					c-8.192,0.51-13.263-13.148-21.647-9.86c-8.383,3.288-9.198,18.258-9.198,18.258s7.963-6.536,12.244-3.237
					c4.281,3.3,3.287,8.383,0.981,7.581c-2.306-0.803-14.779-3.592-15.212,5.823c-0.433,9.415,5.212,14.741,5.212,14.741
					s8.866-16.563,15.313-13.544c6.447,3.019-5.325,5.644-10.039,11.76c-4.714,6.116-7.733,12.563-3.592,14.78
					c4.141,2.217,9.785,7.542,9.785,7.542s-1.122-8.664,4.064-15.391c5.185-6.727,9.466-3.428,4.752,2.688
					c-4.714,6.116-2.369,15.722-2.369,15.722s13.887,0.955,23.825-3.084c9.937-4.039,9.988-7.9,6.79-11.34
					c-3.198-3.44-14.257-8.064-10.957-12.345c3.3-4.281,11.799,18.843,16.652,13.81c4.854-5.033,6.319-10.728,3.592-14.779
					c-2.727-4.051-2.727-4.051-2.727-4.051s-11.059-4.624-14.257-8.064c-3.198-3.44,1.414-1.835,6.638,0.242
					c5.224,2.076,16.564,8.867,17.366,6.561c0.802-2.306-2.906-13.938-5.021-17.518c-2.115-3.58-18.219-0.394-20.054-1.808
					c-1.835-1.414,6.88-6.396,9.657-6.205c2.778,0.191,6.167,0.853,6.167,0.853s0.242-6.638-8.792-12.625
					C423.25,113.561,421.594,122.033,421.594,122.033z"/>
				<path style="fill:none;stroke:#263238;stroke-linecap:round;stroke-linejoin:round;stroke-miterlimit:10;" d="M417.371,173.39
					c-2.648-8.779-5.839-21.232-5.636-29.71"/>
				<path style="fill:none;stroke:#263238;stroke-linecap:round;stroke-linejoin:round;stroke-miterlimit:10;" d="M420.782,183.8
					c0,0-0.868-2.382-2.068-6.102"/>
				<path style="fill:none;stroke:#263238;stroke-linecap:round;stroke-linejoin:round;stroke-miterlimit:10;" d="M415.314,141.565
					c0,0,14.83-0.268,26.029,5.439"/>
				<path style="fill:none;stroke:#263238;stroke-linecap:round;stroke-linejoin:round;stroke-miterlimit:10;" d="M415.774,153.617
					c0,0,0.191-2.777,12.422,6.65"/>
				<path style="fill:none;stroke:#263238;stroke-linecap:round;stroke-linejoin:round;stroke-miterlimit:10;" d="M407.453,140.38
					c0,0-0.841-6.497-9.454-9.236"/>
				
					<line style="fill:none;stroke:#263238;stroke-linecap:round;stroke-linejoin:round;stroke-miterlimit:10;" x1="409.798" y1="149.987" x2="402.549" y2="149.274"/>
				<path style="fill:none;stroke:#263238;stroke-linecap:round;stroke-linejoin:round;stroke-miterlimit:10;" d="M411.06,159.733
					c0,0-13.186,4.46-17.429,9.964"/>
			</g>
			<path style="fill:none;stroke:#263238;stroke-width:2;stroke-linecap:round;stroke-linejoin:round;stroke-miterlimit:10;" d="
				M333.639,191.902c0,0,41.707,27.569,41,134.311"/>
			<g>
				<path style="fill:#92E3A9;" d="M385.062,184.619c0,0-1.328,12.087-10.83,11.902c-9.501-0.185-14.064-16.423-24.048-13.421
					c-9.984,3.002-12.337,20.2-12.337,20.2s9.805-6.791,14.434-2.579c4.628,4.212,3.002,9.984,0.417,8.84s-16.715-5.54-18.103,5.284
					c-1.388,10.824,4.623,17.501,4.623,17.501s11.795-18.276,18.949-14.183c7.154,4.093-6.678,6.011-12.694,12.623
					c-6.016,6.612-10.109,13.766-5.54,16.715c4.569,2.949,10.58,9.626,10.58,9.626s-0.477-10.103,6.142-17.376
					c6.618-7.273,11.247-3.062,5.23,3.55c-6.016,6.612-4.217,17.918-4.217,17.918s15.935,2.413,27.783-1.31
					c11.848-3.723,12.271-8.173,8.905-12.444c-3.366-4.271-15.69-10.651-11.479-15.279c4.211-4.628,11.836,22.857,17.913,17.507
					c6.076-5.349,8.304-11.783,5.54-16.715c-2.764-4.932-2.764-4.932-2.764-4.932s-12.325-6.38-15.691-10.651
					c-3.366-4.271,1.805-1.984,7.637,0.906c5.832,2.889,18.276,11.795,19.42,9.209c1.144-2.586-2.037-16.358-4.14-20.688
					c-2.103-4.331-20.986-2.174-22.97-3.979c-1.984-1.805,8.542-6.731,11.729-6.249c3.187,0.482,7.035,1.567,7.035,1.567
					s0.905-7.637-8.953-15.399C387.772,174.999,385.062,184.619,385.062,184.619z"/>
				<path style="opacity:0.3;fill:#263238;" d="M385.062,184.619c0,0-1.328,12.087-10.83,11.902
					c-9.501-0.185-14.064-16.423-24.048-13.421c-9.984,3.002-12.337,20.2-12.337,20.2s9.805-6.791,14.434-2.579
					c4.628,4.212,3.002,9.984,0.417,8.84s-16.715-5.54-18.103,5.284c-1.388,10.824,4.623,17.501,4.623,17.501
					s11.795-18.276,18.949-14.183c7.154,4.093-6.678,6.011-12.694,12.623c-6.016,6.612-10.109,13.766-5.54,16.715
					c4.569,2.949,10.58,9.626,10.58,9.626s-0.477-10.103,6.142-17.376c6.618-7.273,11.247-3.062,5.23,3.55
					c-6.016,6.612-4.217,17.918-4.217,17.918s15.935,2.413,27.783-1.31c11.848-3.723,12.271-8.173,8.905-12.444
					c-3.366-4.271-15.69-10.651-11.479-15.279c4.211-4.628,11.836,22.857,17.913,17.507c6.076-5.349,8.304-11.783,5.54-16.715
					c-2.764-4.932-2.764-4.932-2.764-4.932s-12.325-6.38-15.691-10.651c-3.366-4.271,1.805-1.984,7.637,0.906
					c5.832,2.889,18.276,11.795,19.42,9.209c1.144-2.586-2.037-16.358-4.14-20.688c-2.103-4.331-20.986-2.174-22.97-3.979
					c-1.984-1.805,8.542-6.731,11.729-6.249c3.187,0.482,7.035,1.567,7.035,1.567s0.905-7.637-8.953-15.399
					C387.772,174.999,385.062,184.619,385.062,184.619z"/>
				<path style="fill:none;stroke:#263238;stroke-linecap:round;stroke-linejoin:round;stroke-miterlimit:10;" d="M375.341,243.482
					c-2.227-10.379-4.733-25.051-3.7-34.815"/>
				<path style="fill:none;stroke:#263238;stroke-linecap:round;stroke-linejoin:round;stroke-miterlimit:10;" d="M378.295,255.816
					c0,0-0.777-2.831-1.81-7.237"/>
				<path style="fill:none;stroke:#263238;stroke-linecap:round;stroke-linejoin:round;stroke-miterlimit:10;" d="M375.972,206.564
					c0,0,17.138,1.09,29.522,8.733"/>
				<path style="fill:none;stroke:#263238;stroke-linecap:round;stroke-linejoin:round;stroke-miterlimit:10;" d="M375.364,220.515
					c0,0,0.482-3.187,13.707,8.846"/>
				<path style="fill:none;stroke:#263238;stroke-linecap:round;stroke-linejoin:round;stroke-miterlimit:10;" d="M367.013,204.456
					c0,0-0.358-7.577-10.038-11.551"/>
				
					<line style="fill:none;stroke:#263238;stroke-linecap:round;stroke-linejoin:round;stroke-miterlimit:10;" x1="368.812" y1="215.762" x2="360.514" y2="214.255"/>
				<path style="fill:none;stroke:#263238;stroke-linecap:round;stroke-linejoin:round;stroke-miterlimit:10;" d="M369.348,227.128
					c0,0-15.637,3.902-21.052,9.853"/>
			</g>
			<path style="fill:none;stroke:#263238;stroke-width:2;stroke-linecap:round;stroke-linejoin:round;stroke-miterlimit:10;" d="
				M349.897,276.023c0,0,26.862,20.5,29.69,50.897l-5.655-101.794"/>
			<path style="fill:none;stroke:#263238;stroke-width:2;stroke-linecap:round;stroke-linejoin:round;stroke-miterlimit:10;" d="
				M383.828,326.213c0,0-20.5-149.156,38.88-149.156"/>
			<g>
				<path style="fill:#92E3A9;" d="M459.424,204.917c-6.57-3.886-13.837-3.971-17.398-8.073c-3.561-4.102,3.431-6.175,7.172-4.627
					c3.741,1.547,12.41,6.009,14.052,6.981c1.642,0.972,0.506-13.226-2.539-18.575c-3.045-5.348-11.378-8.462-15.54-4.091
					c-8.779,9.22-22.471-2.869-21.534-10.076c0.937-7.207-5.789-14.954-20.227-10.412c-14.438,4.543-9.055,7.061-9.055,7.061
					s10.251,6.285,16.822,10.171c6.571,3.886,17.458,7.221,15.119,10.051c-2.339,2.829-8.634,1.102-13.897-3.12
					c-5.264-4.222-20.383-14.272-21.93-10.531c-1.547,3.741-6.981,14.052-6.981,14.052s11.007,1.633,19.796,4.392
					c8.789,2.759,10.587,7.592,3.716,7.963c-6.871,0.371-19.341-4.787-23.227,1.783c-3.886,6.57-1.227,23.442-1.227,23.442
					s12.58-8.524,18.995-8.499c6.415,0.025,2.314,3.586-4.858,8.213c-7.171,4.628-8.994,6.21-8.994,6.21l6.52,16.717
					c0,0,10.792-1.377,15.049-1.077c4.257,0.3,4.257,0.3,4.257,0.3s-0.045-17.543,5.028-22.746c5.073-5.203,5.935,6.836,7.001,9.906
					c1.067,3.07-2.148,12.255-2.148,12.255s12.46-6.821,16.501-9.53c4.042-2.709,4.042-2.709,4.042-2.709
					s-4.663-12.735-7.828-16.381c-3.165-3.646-7.482-3.095-3.836-6.26c3.646-3.165,9.089-1.497,12.194,3
					c3.105,4.497,6.761,13.311,6.761,13.311s4.652,0.756,10.697-6.09C467.972,211.082,465.994,208.803,459.424,204.917z
					 M402.31,224.234c-4.828-2.414,6.639-7.242,6.639-7.242C413.173,216.389,407.138,226.648,402.31,224.234z M410.44,201.703
					c-2.058-1.029,4.116-3.087,4.116-3.087C423.475,200.331,412.498,202.732,410.44,201.703z"/>
				<path style="fill:none;stroke:#263238;stroke-linecap:round;stroke-linejoin:round;stroke-miterlimit:10;" d="M402.182,236.528
					c-1.255,1.327-2.545,2.618-3.871,3.861"/>
				<path style="fill:none;stroke:#263238;stroke-linecap:round;stroke-linejoin:round;stroke-miterlimit:10;" d="M426.949,198.971
					c-4.618,9.622-11.604,22.177-20.792,33.094"/>
				<path style="fill:none;stroke:#263238;stroke-linecap:round;stroke-linejoin:round;stroke-miterlimit:10;" d="M429.183,194.154
					c2.895-6.473,4.38-10.741,4.38-10.741s5.384,2.519,10.612,1.177c5.228-1.342,9.425-0.19,9.425-0.19"/>
				<path style="fill:none;stroke:#263238;stroke-linecap:round;stroke-linejoin:round;stroke-miterlimit:10;" d="M423.932,192.572
					c1.367-1.187-19.711-11.658-19.711-11.658"/>
				<path style="fill:none;stroke:#263238;stroke-linecap:round;stroke-linejoin:round;stroke-miterlimit:10;" d="M435.035,198.917
					c0,0,9.976,4.127,15.515,10.507"/>
				<path style="fill:none;stroke:#263238;stroke-linecap:round;stroke-linejoin:round;stroke-miterlimit:10;" d="M421.724,205.678
					c0,0-6.751-1.332-16.176-1.142c-9.425,0.19-16.021,2.719-16.021,2.719"/>
				<path style="fill:none;stroke:#263238;stroke-linecap:round;stroke-linejoin:round;stroke-miterlimit:10;" d="M424.253,212.274
					c0,0,11.043,7.197,10.837,16.166"/>
			</g>
			<g>
				<path style="fill:#92E3A9;" d="M344.086,188.883c0,0-6.639,4.828-10.863,0c-4.224-4.828,1.811-14.484-4.224-18.105
					c-6.035-3.621-15.691,3.017-15.691,3.017s7.845,1.81,7.845,6.035c0,4.225-3.621,6.035-4.224,4.225
					c-0.604-1.811-4.828-10.863-10.863-6.639c-6.035,4.225-6.638,10.26-6.638,10.26s14.484-2.414,15.691,3.017
					c1.207,5.432-6.035-0.603-12.07-0.603s-11.466,1.207-10.863,4.828c0.604,3.621,0,9.656,0,9.656s4.828-4.828,11.467-4.828
					c6.638,0,6.638,4.224,0.603,4.224s-10.863,6.035-10.863,6.035s6.035,9.053,13.277,13.277c7.242,4.225,9.656,2.414,10.26-1.207
					c0.603-3.621-1.811-12.673,2.414-12.673c4.225,0-6.035,16.294-0.603,16.898c5.431,0.604,9.656-1.207,10.863-4.828
					c1.207-3.621,1.207-3.621,1.207-3.621s-2.414-9.052-1.81-12.673c0.603-3.621,1.81,0,3.017,4.225
					c1.207,4.224,2.414,14.484,4.225,13.88c1.81-0.604,7.242-8.449,8.449-11.466c1.207-3.018-8.449-11.467-8.449-13.277
					s7.242,1.207,8.449,3.018c1.207,1.811,2.414,4.225,2.414,4.225s4.225-3.018,3.621-11.467
					C350.121,185.866,344.086,188.883,344.086,188.883z"/>
				<path style="fill:none;stroke:#263238;stroke-linecap:round;stroke-linejoin:round;stroke-miterlimit:10;" d="M310.278,210.772
					c4.171-5.827,10.358-13.745,15.703-17.665"/>
				<path style="fill:none;stroke:#263238;stroke-linecap:round;stroke-linejoin:round;stroke-miterlimit:10;" d="M305.462,217.851
					c0,0,1.06-1.675,2.791-4.192"/>
				<path style="fill:none;stroke:#263238;stroke-linecap:round;stroke-linejoin:round;stroke-miterlimit:10;" d="M328.998,194.314
					c0,0,7.242,9.053,9.052,18.709"/>
				<path style="fill:none;stroke:#263238;stroke-linecap:round;stroke-linejoin:round;stroke-miterlimit:10;" d="M321.756,200.349
					c0,0,1.811-1.207,1.811,10.863"/>
				<path style="fill:none;stroke:#263238;stroke-linecap:round;stroke-linejoin:round;stroke-miterlimit:10;" d="M325.981,188.883
					c0,0,3.621-3.621,1.207-10.259"/>
				
					<line style="fill:none;stroke:#263238;stroke-linecap:round;stroke-linejoin:round;stroke-miterlimit:10;" x1="321.153" y1="194.918" x2="318.135" y2="190.09"/>
				<path style="fill:none;stroke:#263238;stroke-linecap:round;stroke-linejoin:round;stroke-miterlimit:10;" d="M315.721,200.349
					c0,0-9.052-6.035-14.484-6.035"/>
			</g>
		</g>
		<g>
			<path style="fill:none;stroke:#263238;stroke-width:2;stroke-linecap:round;stroke-linejoin:round;stroke-miterlimit:10;" d="
				M350.304,264.903c0,0,19.086-10.603,20.5,13.431c0.873,14.849,2.556,80.156,3.715,127.905"/>
			<path style="fill:none;stroke:#263238;stroke-width:2;stroke-linecap:round;stroke-linejoin:round;stroke-miterlimit:10;" d="
				M380.716,280.452c0,0-11.755,26.158-10.198,125.782"/>
			<g>
				<path style="fill:#92E3A9;" d="M365.422,269.741c0,0,7.301,4.678,11.455-0.676c4.154-5.354-2.81-15.161,3.329-19.355
					c6.139-4.194,16.734,2.206,16.734,2.206s-8.161,2.397-7.898,6.852c0.263,4.455,4.194,6.139,4.718,4.192
					c0.524-1.947,4.415-11.756,11.042-7.676c6.627,4.079,7.639,10.406,7.639,10.406s-15.424-1.645-16.359,4.158
					c-0.935,5.803,6.327-1.012,12.691-1.387c6.364-0.375,12.167,0.559,11.755,4.415c-0.411,3.856,0.601,10.182,0.601,10.182
					s-5.392-4.791-12.392-4.378c-7,0.413-6.737,4.868-0.373,4.492c6.364-0.376,11.83,5.688,11.83,5.688s-5.801,9.921-13.175,14.827
					c-7.374,4.905-10.032,3.146-10.894-0.635c-0.862-3.781,1.121-13.477-3.334-13.214c-4.455,0.263,7.378,16.808,1.688,17.782
					c-5.69,0.974-10.257-0.672-11.755-4.415c-1.498-3.743-1.498-3.743-1.498-3.743s1.983-9.696,1.121-13.477
					c-0.862-3.781-1.909,0.112-2.919,4.643c-1.01,4.53-1.645,15.424-3.591,14.9c-1.947-0.524-8.162-8.459-9.623-11.566
					c-1.461-3.107,8.196-12.617,8.084-14.527c-0.113-1.909-7.562,1.724-8.722,3.708c-1.16,1.984-2.283,4.605-2.283,4.605
					s-4.643-2.919-4.532-11.867C358.87,266.935,365.422,269.741,365.422,269.741z"/>
				<path style="opacity:0.3;fill:#263238;" d="M365.422,269.741c0,0,7.301,4.678,11.455-0.676
					c4.154-5.354-2.81-15.161,3.329-19.355c6.139-4.194,16.734,2.206,16.734,2.206s-8.161,2.397-7.898,6.852
					c0.263,4.455,4.194,6.139,4.718,4.192c0.524-1.947,4.415-11.756,11.042-7.676c6.627,4.079,7.639,10.406,7.639,10.406
					s-15.424-1.645-16.359,4.158c-0.935,5.803,6.327-1.012,12.691-1.387c6.364-0.375,12.167,0.559,11.755,4.415
					c-0.411,3.856,0.601,10.182,0.601,10.182s-5.392-4.791-12.392-4.378c-7,0.413-6.737,4.868-0.373,4.492
					c6.364-0.376,11.83,5.688,11.83,5.688s-5.801,9.921-13.175,14.827c-7.374,4.905-10.032,3.146-10.894-0.635
					c-0.862-3.781,1.121-13.477-3.334-13.214c-4.455,0.263,7.378,16.808,1.688,17.782c-5.69,0.974-10.257-0.672-11.755-4.415
					c-1.498-3.743-1.498-3.743-1.498-3.743s1.983-9.696,1.121-13.477c-0.862-3.781-1.909,0.112-2.919,4.643
					c-1.01,4.53-1.645,15.424-3.591,14.9c-1.947-0.524-8.162-8.459-9.623-11.566c-1.461-3.107,8.196-12.617,8.084-14.527
					c-0.113-1.909-7.562,1.724-8.722,3.708c-1.16,1.984-2.283,4.605-2.283,4.605s-4.643-2.919-4.532-11.867
					C358.87,266.935,365.422,269.741,365.422,269.741z"/>
				<path style="fill:none;stroke:#263238;stroke-linecap:round;stroke-linejoin:round;stroke-miterlimit:10;" d="M402.434,290.72
					c-4.761-5.886-11.777-13.85-17.658-17.651"/>
				<path style="fill:none;stroke:#263238;stroke-linecap:round;stroke-linejoin:round;stroke-miterlimit:10;" d="M407.953,297.885
					c0,0-1.222-1.7-3.204-4.246"/>
				<path style="fill:none;stroke:#263238;stroke-linecap:round;stroke-linejoin:round;stroke-miterlimit:10;" d="M381.67,274.53
					c0,0-7.074,9.996-8.382,20.291"/>
				<path style="fill:none;stroke:#263238;stroke-linecap:round;stroke-linejoin:round;stroke-miterlimit:10;" d="M389.682,280.443
					c0,0-1.984-1.16-1.234,11.568"/>
				<path style="fill:none;stroke:#263238;stroke-linecap:round;stroke-linejoin:round;stroke-miterlimit:10;" d="M384.514,268.615
					c0,0-4.044-3.593-1.911-10.744"/>
				
					<line style="fill:none;stroke:#263238;stroke-linecap:round;stroke-linejoin:round;stroke-miterlimit:10;" x1="389.98" y1="274.678" x2="392.862" y2="269.399"/>
				<path style="fill:none;stroke:#263238;stroke-linecap:round;stroke-linejoin:round;stroke-miterlimit:10;" d="M396.046,280.068
					c0,0,9.171-6.927,14.898-7.265"/>
			</g>
			<g>
				<path style="fill:#92E3A9;" d="M339.4,250.879c0,0,0.292,10.498,8.485,11.008c8.192,0.51,13.263-13.148,21.647-9.86
					c8.383,3.288,9.198,18.258,9.198,18.258s-7.963-6.536-12.244-3.237c-4.281,3.3-3.287,8.383-0.981,7.58
					c2.306-0.803,14.779-3.592,15.212,5.823c0.433,9.415-5.212,14.741-5.212,14.741s-8.866-16.563-15.313-13.544
					c-6.447,3.019,5.325,5.644,10.039,11.76c4.714,6.116,7.733,12.563,3.592,14.78c-4.141,2.216-9.785,7.542-9.785,7.542
					s1.122-8.664-4.064-15.391c-5.185-6.727-9.466-3.428-4.752,2.688c4.714,6.116,2.369,15.722,2.369,15.722
					s-13.887,0.955-23.825-3.085c-9.937-4.039-9.988-7.9-6.79-11.34c3.198-3.44,14.257-8.064,10.957-12.345
					c-3.3-4.281-11.799,18.843-16.652,13.81c-4.854-5.033-6.319-10.728-3.592-14.779c2.727-4.051,2.727-4.051,2.727-4.051
					s11.059-4.624,14.257-8.064c3.198-3.44-1.414-1.835-6.638,0.242c-5.224,2.076-16.564,8.867-17.366,6.561
					c-0.802-2.306,2.906-13.938,5.021-17.518c2.115-3.58,18.219-0.394,20.054-1.808c1.835-1.414-6.88-6.396-9.657-6.205
					c-2.778,0.191-6.167,0.853-6.167,0.853s-0.242-6.638,8.792-12.625C337.744,242.407,339.4,250.879,339.4,250.879z"/>
				<path style="opacity:0.2;fill:#263238;" d="M339.4,250.879c0,0,0.292,10.498,8.485,11.008c8.192,0.51,13.263-13.148,21.647-9.86
					c8.383,3.288,9.198,18.258,9.198,18.258s-7.963-6.536-12.244-3.237c-4.281,3.3-3.287,8.383-0.981,7.58
					c2.306-0.803,14.779-3.592,15.212,5.823c0.433,9.415-5.212,14.741-5.212,14.741s-8.866-16.563-15.313-13.544
					c-6.447,3.019,5.325,5.644,10.039,11.76c4.714,6.116,7.733,12.563,3.592,14.78c-4.141,2.216-9.785,7.542-9.785,7.542
					s1.122-8.664-4.064-15.391c-5.185-6.727-9.466-3.428-4.752,2.688c4.714,6.116,2.369,15.722,2.369,15.722
					s-13.887,0.955-23.825-3.085c-9.937-4.039-9.988-7.9-6.79-11.34c3.198-3.44,14.257-8.064,10.957-12.345
					c-3.3-4.281-11.799,18.843-16.652,13.81c-4.854-5.033-6.319-10.728-3.592-14.779c2.727-4.051,2.727-4.051,2.727-4.051
					s11.059-4.624,14.257-8.064c3.198-3.44-1.414-1.835-6.638,0.242c-5.224,2.076-16.564,8.867-17.366,6.561
					c-0.802-2.306,2.906-13.938,5.021-17.518c2.115-3.58,18.219-0.394,20.054-1.808c1.835-1.414-6.88-6.396-9.657-6.205
					c-2.778,0.191-6.167,0.853-6.167,0.853s-0.242-6.638,8.792-12.625C337.744,242.407,339.4,250.879,339.4,250.879z"/>
				<path style="fill:none;stroke:#263238;stroke-linecap:round;stroke-linejoin:round;stroke-miterlimit:10;" d="M343.624,302.236
					c2.648-8.779,5.839-21.232,5.636-29.71"/>
				<path style="fill:none;stroke:#263238;stroke-linecap:round;stroke-linejoin:round;stroke-miterlimit:10;" d="M340.212,312.646
					c0,0,0.868-2.383,2.068-6.102"/>
				<path style="fill:none;stroke:#263238;stroke-linecap:round;stroke-linejoin:round;stroke-miterlimit:10;" d="M345.68,270.411
					c0,0-14.83-0.268-26.029,5.439"/>
				<path style="fill:none;stroke:#263238;stroke-linecap:round;stroke-linejoin:round;stroke-miterlimit:10;" d="M345.221,282.464
					c0,0-0.191-2.777-12.422,6.65"/>
				<path style="fill:none;stroke:#263238;stroke-linecap:round;stroke-linejoin:round;stroke-miterlimit:10;" d="M353.541,269.227
					c0,0,0.841-6.498,9.454-9.237"/>
				
					<line style="fill:none;stroke:#263238;stroke-linecap:round;stroke-linejoin:round;stroke-miterlimit:10;" x1="351.196" y1="278.833" x2="358.446" y2="278.12"/>
				<path style="fill:none;stroke:#263238;stroke-linecap:round;stroke-linejoin:round;stroke-miterlimit:10;" d="M349.934,288.579
					c0,0,13.186,4.46,17.429,9.964"/>
			</g>
			<path style="fill:none;stroke:#263238;stroke-width:2;stroke-linecap:round;stroke-linejoin:round;stroke-miterlimit:10;" d="
				M427.356,320.748c0,0-28.378,18.758-37.921,85.237"/>
			<g>
				<path style="fill:#92E3A9;" d="M375.932,313.465c0,0,1.328,12.086,10.83,11.902c9.501-0.185,14.064-16.423,24.048-13.421
					c9.984,3.002,12.337,20.2,12.337,20.2s-9.805-6.791-14.434-2.579c-4.628,4.211-3.002,9.984-0.417,8.84
					c2.585-1.144,16.715-5.54,18.103,5.284c1.388,10.824-4.623,17.501-4.623,17.501s-11.795-18.276-18.949-14.184
					c-7.154,4.092,6.678,6.011,12.694,12.623c6.016,6.612,10.109,13.766,5.54,16.715c-4.569,2.949-10.58,9.626-10.58,9.626
					s0.477-10.103-6.142-17.376c-6.618-7.273-11.247-3.062-5.23,3.55c6.016,6.612,4.217,17.918,4.217,17.918
					s-15.935,2.413-27.783-1.31c-11.848-3.723-12.271-8.173-8.906-12.444c3.366-4.271,15.69-10.651,11.479-15.28
					c-4.211-4.628-11.836,22.857-17.913,17.507c-6.076-5.349-8.304-11.783-5.54-16.715c2.764-4.932,2.764-4.932,2.764-4.932
					s12.325-6.38,15.691-10.651c3.366-4.271-1.805-1.984-7.637,0.906c-5.832,2.889-18.276,11.795-19.42,9.209
					c-1.144-2.586,2.037-16.358,4.14-20.689c2.103-4.331,20.986-2.174,22.97-3.979c1.984-1.805-8.542-6.731-11.729-6.249
					c-3.187,0.483-7.035,1.567-7.035,1.567s-0.905-7.637,8.953-15.398C373.222,303.845,375.932,313.465,375.932,313.465z"/>
				<path style="opacity:0.3;fill:#263238;" d="M375.932,313.465c0,0,1.328,12.086,10.83,11.902
					c9.501-0.185,14.064-16.423,24.048-13.421c9.984,3.002,12.337,20.2,12.337,20.2s-9.805-6.791-14.434-2.579
					c-4.628,4.211-3.002,9.984-0.417,8.84c2.585-1.144,16.715-5.54,18.103,5.284c1.388,10.824-4.623,17.501-4.623,17.501
					s-11.795-18.276-18.949-14.184c-7.154,4.092,6.678,6.011,12.694,12.623c6.016,6.612,10.109,13.766,5.54,16.715
					c-4.569,2.949-10.58,9.626-10.58,9.626s0.477-10.103-6.142-17.376c-6.618-7.273-11.247-3.062-5.23,3.55
					c6.016,6.612,4.217,17.918,4.217,17.918s-15.935,2.413-27.783-1.31c-11.848-3.723-12.271-8.173-8.906-12.444
					c3.366-4.271,15.69-10.651,11.479-15.28c-4.211-4.628-11.836,22.857-17.913,17.507c-6.076-5.349-8.304-11.783-5.54-16.715
					c2.764-4.932,2.764-4.932,2.764-4.932s12.325-6.38,15.691-10.651c3.366-4.271-1.805-1.984-7.637,0.906
					c-5.832,2.889-18.276,11.795-19.42,9.209c-1.144-2.586,2.037-16.358,4.14-20.689c2.103-4.331,20.986-2.174,22.97-3.979
					c1.984-1.805-8.542-6.731-11.729-6.249c-3.187,0.483-7.035,1.567-7.035,1.567s-0.905-7.637,8.953-15.398
					C373.222,303.845,375.932,313.465,375.932,313.465z"/>
				<path style="fill:none;stroke:#263238;stroke-linecap:round;stroke-linejoin:round;stroke-miterlimit:10;" d="M385.654,372.328
					c2.227-10.379,4.734-25.051,3.7-34.815"/>
				<path style="fill:none;stroke:#263238;stroke-linecap:round;stroke-linejoin:round;stroke-miterlimit:10;" d="M382.699,384.662
					c0,0,0.777-2.831,1.81-7.237"/>
				<path style="fill:none;stroke:#263238;stroke-linecap:round;stroke-linejoin:round;stroke-miterlimit:10;" d="M385.022,335.41
					c0,0-17.138,1.09-29.522,8.733"/>
				<path style="fill:none;stroke:#263238;stroke-linecap:round;stroke-linejoin:round;stroke-miterlimit:10;" d="M385.63,349.362
					c0,0-0.482-3.187-13.707,8.846"/>
				<path style="fill:none;stroke:#263238;stroke-linecap:round;stroke-linejoin:round;stroke-miterlimit:10;" d="M393.982,333.302
					c0,0,0.358-7.577,10.038-11.55"/>
				
					<line style="fill:none;stroke:#263238;stroke-linecap:round;stroke-linejoin:round;stroke-miterlimit:10;" x1="392.183" y1="344.608" x2="400.481" y2="343.101"/>
				<path style="fill:none;stroke:#263238;stroke-linecap:round;stroke-linejoin:round;stroke-miterlimit:10;" d="M391.647,355.974
					c0,0,15.637,3.902,21.052,9.853"/>
			</g>
			
				<line style="fill:none;stroke:#263238;stroke-width:2;stroke-linecap:round;stroke-linejoin:round;stroke-miterlimit:10;" x1="384.19" y1="405.67" x2="387.063" y2="353.972"/>
			<path style="fill:none;stroke:#263238;stroke-width:2;stroke-linecap:round;stroke-linejoin:round;stroke-miterlimit:10;" d="
				M380.547,406.238c0.61-43.502-5.607-100.335-42.261-100.335"/>
			<g>
				<path style="fill:#92E3A9;" d="M301.571,333.763c6.57-3.886,13.837-3.971,17.398-8.073c3.561-4.102-3.431-6.175-7.172-4.628
					c-3.741,1.547-12.41,6.009-14.052,6.981c-1.642,0.972-0.506-13.226,2.539-18.575c3.045-5.349,11.378-8.462,15.54-4.091
					c8.779,9.22,22.471-2.87,21.534-10.076c-0.937-7.207,5.789-14.954,20.227-10.411c14.438,4.542,9.055,7.061,9.055,7.061
					s-10.251,6.285-16.822,10.171c-6.571,3.886-17.458,7.221-15.119,10.051c2.339,2.829,8.634,1.102,13.897-3.12
					c5.264-4.222,20.383-14.272,21.93-10.532c1.547,3.741,6.981,14.052,6.981,14.052s-11.007,1.633-19.796,4.392
					c-8.789,2.759-10.587,7.592-3.716,7.963s19.341-4.787,23.227,1.783c3.886,6.57,1.227,23.442,1.227,23.442
					s-12.58-8.524-18.995-8.499c-6.415,0.025-2.314,3.586,4.858,8.213c7.171,4.628,8.994,6.21,8.994,6.21l-6.52,16.716
					c0,0-10.792-1.377-15.049-1.077c-4.257,0.3-4.257,0.3-4.257,0.3s0.045-17.543-5.028-22.746
					c-5.073-5.203-5.935,6.836-7.001,9.906c-1.067,3.07,2.148,12.255,2.148,12.255s-12.46-6.821-16.501-9.53
					c-4.042-2.709-4.042-2.709-4.042-2.709s4.663-12.735,7.828-16.381c3.165-3.646,7.482-3.095,3.836-6.26
					c-3.646-3.165-9.089-1.497-12.194,3c-3.105,4.497-6.761,13.311-6.761,13.311s-4.652,0.756-10.697-6.09
					C293.022,339.928,295,337.649,301.571,333.763z M358.684,353.08c4.828-2.414-6.639-7.242-6.639-7.242
					C347.821,345.235,353.856,355.494,358.684,353.08z M350.554,330.549c2.058-1.029-4.116-3.087-4.116-3.087
					C337.52,329.177,348.496,331.578,350.554,330.549z"/>
				<path style="fill:none;stroke:#263238;stroke-linecap:round;stroke-linejoin:round;stroke-miterlimit:10;" d="M358.813,365.374
					c1.255,1.327,2.545,2.618,3.871,3.861"/>
				<path style="fill:none;stroke:#263238;stroke-linecap:round;stroke-linejoin:round;stroke-miterlimit:10;" d="M334.045,327.817
					c4.618,9.622,11.604,22.177,20.792,33.094"/>
				<path style="fill:none;stroke:#263238;stroke-linecap:round;stroke-linejoin:round;stroke-miterlimit:10;" d="M331.812,323
					c-2.895-6.473-4.379-10.741-4.379-10.741s-5.384,2.519-10.612,1.177c-5.228-1.342-9.425-0.19-9.425-0.19"/>
				<path style="fill:none;stroke:#263238;stroke-linecap:round;stroke-linejoin:round;stroke-miterlimit:10;" d="M337.063,321.418
					c-1.367-1.187,19.711-11.658,19.711-11.658"/>
				<path style="fill:none;stroke:#263238;stroke-linecap:round;stroke-linejoin:round;stroke-miterlimit:10;" d="M325.96,327.764
					c0,0-9.976,4.127-15.515,10.507"/>
				<path style="fill:none;stroke:#263238;stroke-linecap:round;stroke-linejoin:round;stroke-miterlimit:10;" d="M339.271,334.524
					c0,0,6.751-1.332,16.176-1.142c9.425,0.19,16.021,2.719,16.021,2.719"/>
				<path style="fill:none;stroke:#263238;stroke-linecap:round;stroke-linejoin:round;stroke-miterlimit:10;" d="M336.742,341.12
					c0,0-11.043,7.197-10.837,16.166"/>
			</g>
			<g>
				<path style="fill:#92E3A9;" d="M416.909,317.729c0,0,6.639,4.828,10.863,0c4.224-4.828-1.811-14.484,4.224-18.105
					c6.035-3.621,15.691,3.017,15.691,3.017s-7.845,1.81-7.845,6.035c0,4.224,3.621,6.035,4.224,4.224
					c0.604-1.81,4.828-10.863,10.863-6.638c6.035,4.224,6.639,10.26,6.639,10.26s-14.484-2.414-15.691,3.017
					c-1.207,5.431,6.035-0.603,12.07-0.603c6.035,0,11.467,1.207,10.863,4.828c-0.604,3.621,0,9.656,0,9.656
					s-4.828-4.828-11.467-4.828c-6.639,0-6.639,4.224-0.603,4.224c6.035,0,10.863,6.035,10.863,6.035s-6.035,9.053-13.277,13.277
					c-7.242,4.224-9.656,2.414-10.26-1.207c-0.603-3.621,1.811-12.673-2.414-12.673c-4.225,0,6.035,16.294,0.603,16.898
					c-5.431,0.604-9.656-1.207-10.863-4.828c-1.207-3.621-1.207-3.621-1.207-3.621s2.414-9.053,1.81-12.673
					c-0.603-3.621-1.81,0-3.017,4.224c-1.207,4.224-2.414,14.484-4.225,13.88c-1.81-0.603-7.242-8.449-8.449-11.466
					c-1.207-3.018,8.449-11.467,8.449-13.277c0-1.811-7.242,1.207-8.449,3.017c-1.207,1.811-2.414,4.225-2.414,4.225
					s-4.225-3.018-3.621-11.466C410.874,314.712,416.909,317.729,416.909,317.729z"/>
				<path style="fill:none;stroke:#263238;stroke-linecap:round;stroke-linejoin:round;stroke-miterlimit:10;" d="M450.716,339.618
					c-4.171-5.828-10.358-13.745-15.703-17.665"/>
				<path style="fill:none;stroke:#263238;stroke-linecap:round;stroke-linejoin:round;stroke-miterlimit:10;" d="M455.533,346.697
					c0,0-1.06-1.675-2.791-4.192"/>
				<path style="fill:none;stroke:#263238;stroke-linecap:round;stroke-linejoin:round;stroke-miterlimit:10;" d="M431.996,323.161
					c0,0-7.242,9.053-9.052,18.708"/>
				<path style="fill:none;stroke:#263238;stroke-linecap:round;stroke-linejoin:round;stroke-miterlimit:10;" d="M439.238,329.195
					c0,0-1.811-1.207-1.811,10.863"/>
				<path style="fill:none;stroke:#263238;stroke-linecap:round;stroke-linejoin:round;stroke-miterlimit:10;" d="M435.013,317.729
					c0,0-3.621-3.621-1.207-10.26"/>
				
					<line style="fill:none;stroke:#263238;stroke-linecap:round;stroke-linejoin:round;stroke-miterlimit:10;" x1="439.842" y1="323.764" x2="442.859" y2="318.936"/>
				<path style="fill:none;stroke:#263238;stroke-linecap:round;stroke-linejoin:round;stroke-miterlimit:10;" d="M445.273,329.195
					c0,0,9.052-6.035,14.484-6.035"/>
			</g>
		</g>
	</g>
</g>
<g id="Form">
	<g>
		<rect x="58" y="34.782" style="opacity:0.2;" width="222" height="292.337"/>
		
			<rect x="51" y="26.782" style="fill:#FFFFFF;stroke:#263238;stroke-linecap:round;stroke-linejoin:round;stroke-miterlimit:10;" width="222" height="292.337"/>
		<polyline style="fill:none;stroke:#263238;stroke-linecap:round;stroke-linejoin:round;stroke-miterlimit:10;" points="
			214.604,114.592 62.997,114.592 62.997,80.523 259.72,80.523 259.72,114.592 218.261,114.592 		"/>
		<polyline style="fill:none;stroke:#263238;stroke-linecap:round;stroke-linejoin:round;stroke-miterlimit:10;" points="
			75.285,154.893 62.997,154.893 62.997,137.282 170.381,137.282 		"/>
		<polyline style="fill:none;stroke:#263238;stroke-linecap:round;stroke-linejoin:round;stroke-miterlimit:10;" points="
			175.036,137.282 259.72,137.282 259.72,154.893 78.61,154.893 		"/>
		<polyline style="fill:none;stroke:#263238;stroke-linecap:round;stroke-linejoin:round;stroke-miterlimit:10;" points="
			228.901,190.535 62.997,190.535 62.997,172.924 259.72,172.924 259.72,190.535 232.559,190.535 		"/>
		<polyline style="fill:none;stroke:#263238;stroke-linecap:round;stroke-linejoin:round;stroke-miterlimit:10;" points="
			113.855,297.042 62.997,297.042 62.997,207.36 259.72,207.36 259.72,297.042 118.843,297.042 		"/>
		
			<rect x="62.997" y="207.36" style="fill:#D1D1D1;stroke:#263238;stroke-linecap:round;stroke-linejoin:round;stroke-miterlimit:10;" width="196.723" height="15.668"/>
		<polyline style="fill:none;stroke:#263238;stroke-linecap:round;stroke-linejoin:round;stroke-miterlimit:10;" points="
			156.516,115.254 156.516,137.305 62.997,137.305 62.997,114.592 		"/>
		
			<rect x="62.997" y="92.612" style="fill:#D1D1D1;stroke:#263238;stroke-linecap:round;stroke-linejoin:round;stroke-miterlimit:10;" width="196.723" height="9.891"/>
		
			<line style="fill:none;stroke:#263238;stroke-linecap:round;stroke-linejoin:round;stroke-miterlimit:10;" x1="194.407" y1="81.441" x2="194.407" y2="92.659"/>
		
			<rect x="206.304" y="83.318" style="fill:#D1D1D1;stroke:#263238;stroke-linecap:round;stroke-linejoin:round;stroke-miterlimit:10;" width="13.405" height="6.553"/>
		
			<line style="fill:none;stroke:#263238;stroke-linecap:round;stroke-linejoin:round;stroke-miterlimit:10;" x1="163.099" y1="102.813" x2="163.099" y2="114.703"/>
		
			<line style="fill:none;stroke:#263238;stroke-linecap:round;stroke-linejoin:round;stroke-miterlimit:10;" x1="204.23" y1="102.813" x2="204.23" y2="114.703"/>
		
			<line style="fill:none;stroke:#263238;stroke-linecap:round;stroke-linejoin:round;stroke-miterlimit:10;" x1="99.187" y1="137.312" x2="99.187" y2="114.753"/>
		
			<line style="fill:none;stroke:#263238;stroke-linecap:round;stroke-linejoin:round;stroke-miterlimit:10;" x1="122.09" y1="137.312" x2="122.09" y2="114.753"/>
		
			<line style="fill:none;stroke:#263238;stroke-linecap:round;stroke-linejoin:round;stroke-miterlimit:10;" x1="147.057" y1="137.42" x2="147.057" y2="154.575"/>
		
			<line style="fill:none;stroke:#263238;stroke-linecap:round;stroke-linejoin:round;stroke-miterlimit:10;" x1="193.96" y1="137.185" x2="193.96" y2="190.23"/>
		<polyline style="fill:none;stroke:#263238;stroke-linecap:round;stroke-linejoin:round;stroke-miterlimit:10;" points="
			62.997,154.893 62.997,172.938 194.029,172.938 		"/>
		
			<line style="fill:none;stroke:#263238;stroke-linecap:round;stroke-linejoin:round;stroke-miterlimit:10;" x1="112.355" y1="155.018" x2="112.355" y2="172.376"/>
		
			<line style="fill:none;stroke:#263238;stroke-linecap:round;stroke-linejoin:round;stroke-miterlimit:10;" x1="248.186" y1="237.626" x2="259.818" y2="237.626"/>
		
			<line style="fill:none;stroke:#263238;stroke-linecap:round;stroke-linejoin:round;stroke-miterlimit:10;" x1="63.273" y1="237.626" x2="243.864" y2="237.626"/>
		
			<line style="fill:none;stroke:#263238;stroke-linecap:round;stroke-linejoin:round;stroke-miterlimit:10;" x1="63.273" y1="251.787" x2="259.818" y2="251.787"/>
		
			<line style="fill:none;stroke:#263238;stroke-linecap:round;stroke-linejoin:round;stroke-miterlimit:10;" x1="123.83" y1="265.893" x2="259.818" y2="265.893"/>
		
			<line style="fill:none;stroke:#263238;stroke-linecap:round;stroke-linejoin:round;stroke-miterlimit:10;" x1="63.273" y1="265.893" x2="118.843" y2="265.893"/>
		
			<rect x="94.052" y="241.529" style="fill:#D1D1D1;stroke:#263238;stroke-linecap:round;stroke-linejoin:round;stroke-miterlimit:10;" width="6.647" height="6.647"/>
		
			<rect x="132.202" y="241.529" style="fill:#D1D1D1;stroke:#263238;stroke-linecap:round;stroke-linejoin:round;stroke-miterlimit:10;" width="6.647" height="6.647"/>
		
			<rect x="105.853" y="255.103" style="fill:#D1D1D1;stroke:#263238;stroke-linecap:round;stroke-linejoin:round;stroke-miterlimit:10;" width="6.647" height="6.647"/>
		
			<rect x="142.316" y="255.103" style="fill:#D1D1D1;stroke:#263238;stroke-linecap:round;stroke-linejoin:round;stroke-miterlimit:10;" width="6.647" height="6.647"/>
		
			<rect x="177.181" y="255.103" style="fill:#D1D1D1;stroke:#263238;stroke-linecap:round;stroke-linejoin:round;stroke-miterlimit:10;" width="6.647" height="6.647"/>
		
			<rect x="212.579" y="255.103" style="fill:#D1D1D1;stroke:#263238;stroke-linecap:round;stroke-linejoin:round;stroke-miterlimit:10;" width="6.647" height="6.647"/>
		
			<line style="fill:none;stroke:#263238;stroke-linecap:round;stroke-linejoin:round;stroke-miterlimit:10;" x1="102.773" y1="251.911" x2="102.773" y2="266.017"/>
		
			<line style="fill:none;stroke:#263238;stroke-linecap:round;stroke-linejoin:round;stroke-miterlimit:10;" x1="138.437" y1="251.911" x2="138.437" y2="266.017"/>
		
			<line style="fill:none;stroke:#263238;stroke-linecap:round;stroke-linejoin:round;stroke-miterlimit:10;" x1="174.101" y1="251.911" x2="174.101" y2="266.017"/>
		
			<line style="fill:none;stroke:#263238;stroke-linecap:round;stroke-linejoin:round;stroke-miterlimit:10;" x1="209.765" y1="251.911" x2="209.765" y2="266.017"/>
		
			<line style="fill:none;stroke:#263238;stroke-linecap:round;stroke-linejoin:round;stroke-miterlimit:10;" x1="63.273" y1="280.268" x2="259.818" y2="280.268"/>
		
			<rect x="81.447" y="269.477" style="fill:#D1D1D1;stroke:#263238;stroke-linecap:round;stroke-linejoin:round;stroke-miterlimit:10;" width="6.647" height="6.647"/>
		
			<rect x="142.316" y="269.477" style="fill:#D1D1D1;stroke:#263238;stroke-linecap:round;stroke-linejoin:round;stroke-miterlimit:10;" width="6.647" height="6.647"/>
		
			<rect x="177.181" y="269.477" style="fill:#D1D1D1;stroke:#263238;stroke-linecap:round;stroke-linejoin:round;stroke-miterlimit:10;" width="6.647" height="6.647"/>
		
			<rect x="222.099" y="269.477" style="fill:#D1D1D1;stroke:#263238;stroke-linecap:round;stroke-linejoin:round;stroke-miterlimit:10;" width="6.647" height="6.647"/>
		
			<line style="fill:none;stroke:#263238;stroke-linecap:round;stroke-linejoin:round;stroke-miterlimit:10;" x1="78.367" y1="266.286" x2="78.367" y2="280.254"/>
		
			<line style="fill:none;stroke:#263238;stroke-linecap:round;stroke-linejoin:round;stroke-miterlimit:10;" x1="138.437" y1="266.286" x2="138.437" y2="280.254"/>
		
			<line style="fill:none;stroke:#263238;stroke-linecap:round;stroke-linejoin:round;stroke-miterlimit:10;" x1="174.101" y1="266.286" x2="174.101" y2="280.254"/>
		
			<line style="fill:none;stroke:#263238;stroke-linecap:round;stroke-linejoin:round;stroke-miterlimit:10;" x1="219.285" y1="266.286" x2="219.285" y2="280.254"/>
		<g>
			<path style="fill:#263238;" d="M142.177,50.402v2.422h-5.492v10.335h-2.661V39.282h9.483v2.422h-6.822v8.698H142.177z"/>
			<path style="fill:#263238;" d="M145.415,45.046c0-3.65,1.808-6.003,5.458-6.003c3.684,0,5.492,2.354,5.492,6.003v12.348
				c0,3.616-1.808,6.003-5.492,6.003c-3.65,0-5.458-2.388-5.458-6.003V45.046z M148.042,57.53c0,2.183,0.921,3.445,2.831,3.445
				c1.944,0,2.831-1.262,2.831-3.445V44.91c0-2.149-0.887-3.445-2.831-3.445c-1.91,0-2.831,1.297-2.831,3.445V57.53z"/>
			<path style="fill:#263238;" d="M164.208,39.282c3.752,0,5.321,1.91,5.321,5.458v1.944c0,2.627-0.921,4.264-2.967,4.912
				c2.183,0.648,3.002,2.422,3.002,4.98v3.718c0,1.057,0.034,2.046,0.477,2.865h-2.694c-0.307-0.682-0.443-1.296-0.443-2.899v-3.752
				c0-2.694-1.262-3.547-3.48-3.547h-1.876v10.199h-2.661V39.282H164.208z M163.526,50.538c2.115,0,3.377-0.682,3.377-3.274v-2.285
				c0-2.149-0.785-3.275-2.763-3.275h-2.592v8.834H163.526z"/>
			<path style="fill:#263238;" d="M181.124,63.124h-2.559l-3.956-18.999v19.033h-2.319V39.282h3.718l3.923,19.067l3.786-19.067
				h3.718v23.877h-2.524V43.955L181.124,63.124z"/>
		</g>
		<line style="fill:none;stroke:#263238;stroke-miterlimit:10;" x1="122.833" y1="74.849" x2="144.492" y2="74.849"/>
		<line style="fill:none;stroke:#263238;stroke-miterlimit:10;" x1="63.739" y1="74.849" x2="119.175" y2="74.849"/>
		<line style="fill:none;stroke:#263238;stroke-miterlimit:10;" x1="161.586" y1="74.849" x2="209.331" y2="74.849"/>
		<line style="fill:none;stroke:#263238;stroke-miterlimit:10;" x1="222.298" y1="74.849" x2="260.023" y2="74.849"/>
	</g>
</g>
<g id="Character">
	<g>
		<g>
			<polygon style="fill:#FFFFFF;stroke:#263238;stroke-linecap:round;stroke-linejoin:round;stroke-miterlimit:10;" points="
				230.936,412.545 305.159,409.5 345.685,458.762 245.602,467.484 			"/>
			
				<polygon style="fill:none;stroke:#263238;stroke-width:0.5;stroke-linecap:round;stroke-linejoin:round;stroke-miterlimit:10;" points="
				245.932,446.471 326.164,440.878 331.449,447.536 248.162,453.866 			"/>
			
				<polygon style="fill:none;stroke:#263238;stroke-width:0.5;stroke-linecap:round;stroke-linejoin:round;stroke-miterlimit:10;" points="
				243.522,438.474 320.414,433.634 322.864,436.72 244.547,441.876 			"/>
			
				<polygon style="fill:none;stroke:#263238;stroke-width:0.5;stroke-linecap:round;stroke-linejoin:round;stroke-miterlimit:10;" points="
				241.569,431.997 315.731,427.734 318.001,430.594 242.514,435.132 			"/>
			
				<polygon style="fill:none;stroke:#263238;stroke-width:0.5;stroke-linecap:round;stroke-linejoin:round;stroke-miterlimit:10;" points="
				236.556,415.368 303.598,412.449 313.639,425.098 240.7,429.114 			"/>
			
				<polygon style="fill:#D1D1D1;stroke:#263238;stroke-width:0.5;stroke-linecap:round;stroke-linejoin:round;stroke-miterlimit:10;" points="
				239.918,426.522 311.754,422.724 313.639,425.098 240.7,429.114 			"/>
			
				<polyline style="fill:none;stroke:#263238;stroke-width:0.5;stroke-linecap:round;stroke-linejoin:round;stroke-miterlimit:10;" points="
				289.327,443.311 286.941,439.081 322.861,436.716 326.164,440.878 			"/>
			
				<polygon style="fill:#D1D1D1;stroke:#263238;stroke-width:0.5;stroke-linecap:round;stroke-linejoin:round;stroke-miterlimit:10;" points="
				246.702,449.025 327.992,443.181 329.526,445.114 247.349,451.171 			"/>
			
				<line style="fill:none;stroke:#263238;stroke-width:0.5;stroke-linecap:round;stroke-linejoin:round;stroke-miterlimit:10;" x1="277.063" y1="451.463" x2="275.933" y2="449.053"/>
			
				<polygon style="fill:#D1D1D1;stroke:#263238;stroke-width:0.5;stroke-linecap:round;stroke-linejoin:round;stroke-miterlimit:10;" points="
				265.264,450.459 271.089,450.026 271.711,451.444 265.842,451.887 			"/>
			
				<line style="fill:none;stroke:#263238;stroke-width:0.5;stroke-linecap:round;stroke-linejoin:round;stroke-miterlimit:10;" x1="288.015" y1="445.989" x2="286.71" y2="443.606"/>
			
				<line style="fill:none;stroke:#263238;stroke-width:0.5;stroke-linecap:round;stroke-linejoin:round;stroke-miterlimit:10;" x1="270.772" y1="447.228" x2="269.691" y2="444.792"/>
			
				<line style="fill:none;stroke:#263238;stroke-width:0.5;stroke-linecap:round;stroke-linejoin:round;stroke-miterlimit:10;" x1="309.226" y1="437.612" x2="312.195" y2="441.819"/>
			
				<line style="fill:none;stroke:#263238;stroke-width:0.5;stroke-linecap:round;stroke-linejoin:round;stroke-miterlimit:10;" x1="300.426" y1="438.192" x2="303.19" y2="442.447"/>
			
				<line style="fill:none;stroke:#263238;stroke-width:0.5;stroke-linecap:round;stroke-linejoin:round;stroke-miterlimit:10;" x1="290.665" y1="438.813" x2="288.825" y2="435.682"/>
			
				<line style="fill:none;stroke:#263238;stroke-width:0.5;stroke-linecap:round;stroke-linejoin:round;stroke-miterlimit:10;" x1="271.919" y1="440.093" x2="267.44" y2="430.563"/>
			
				<polyline style="fill:none;stroke:#263238;stroke-width:0.5;stroke-linecap:round;stroke-linejoin:round;stroke-miterlimit:10;" points="
				320.414,433.634 317.999,430.591 268.815,433.548 			"/>
			
				<line style="fill:none;stroke:#263238;stroke-width:0.5;stroke-linecap:round;stroke-linejoin:round;stroke-miterlimit:10;" x1="302.043" y1="434.768" x2="300.025" y2="431.771"/>
			
				<line style="fill:none;stroke:#263238;stroke-width:0.5;stroke-linecap:round;stroke-linejoin:round;stroke-miterlimit:10;" x1="309.957" y1="420.583" x2="239.176" y2="424.187"/>
			
				<line style="fill:none;stroke:#263238;stroke-width:0.5;stroke-linecap:round;stroke-linejoin:round;stroke-miterlimit:10;" x1="308.352" y1="418.559" x2="238.513" y2="421.987"/>
			
				<line style="fill:none;stroke:#263238;stroke-width:0.5;stroke-linecap:round;stroke-linejoin:round;stroke-miterlimit:10;" x1="306.797" y1="416.599" x2="237.872" y2="419.858"/>
			
				<polygon style="fill:#D1D1D1;stroke:#263238;stroke-width:0.5;stroke-linecap:round;stroke-linejoin:round;stroke-miterlimit:10;" points="
				296.045,419.7 298.324,419.587 299.014,420.548 296.722,420.664 			"/>
			
				<polygon style="fill:#D1D1D1;stroke:#263238;stroke-width:0.5;stroke-linecap:round;stroke-linejoin:round;stroke-miterlimit:10;" points="
				282.793,420.356 285.124,420.241 285.734,421.218 283.388,421.336 			"/>
			
				<polygon style="fill:#D1D1D1;stroke:#263238;stroke-width:0.5;stroke-linecap:round;stroke-linejoin:round;stroke-miterlimit:10;" points="
				290.672,417.962 292.939,417.853 293.588,418.794 291.307,418.905 			"/>
			
				<polygon style="fill:#D1D1D1;stroke:#263238;stroke-width:0.5;stroke-linecap:round;stroke-linejoin:round;stroke-miterlimit:10;" points="
				278.08,418.564 280.396,418.453 280.969,419.408 278.638,419.521 			"/>
			
				<polygon style="fill:#D1D1D1;stroke:#263238;stroke-width:0.5;stroke-linecap:round;stroke-linejoin:round;stroke-miterlimit:10;" points="
				265.781,419.152 268.146,419.039 268.642,420.008 266.262,420.123 			"/>
			
				<polygon style="fill:#D1D1D1;stroke:#263238;stroke-width:0.5;stroke-linecap:round;stroke-linejoin:round;stroke-miterlimit:10;" points="
				253.027,419.762 255.443,419.646 255.858,420.63 253.427,420.748 			"/>
			
				<line style="fill:none;stroke:#263238;stroke-width:0.5;stroke-linecap:round;stroke-linejoin:round;stroke-miterlimit:10;" x1="294.959" y1="419.198" x2="293.57" y2="417.207"/>
			
				<line style="fill:none;stroke:#263238;stroke-width:0.5;stroke-linecap:round;stroke-linejoin:round;stroke-miterlimit:10;" x1="282.606" y1="419.804" x2="281.375" y2="417.783"/>
			
				<line style="fill:none;stroke:#263238;stroke-width:0.5;stroke-linecap:round;stroke-linejoin:round;stroke-miterlimit:10;" x1="269.986" y1="420.423" x2="268.919" y2="418.372"/>
			
				<line style="fill:none;stroke:#263238;stroke-width:0.5;stroke-linecap:round;stroke-linejoin:round;stroke-miterlimit:10;" x1="257.09" y1="421.056" x2="256.195" y2="418.974"/>
			
				<line style="fill:none;stroke:#263238;stroke-width:0.5;stroke-linecap:round;stroke-linejoin:round;stroke-miterlimit:10;" x1="305.256" y1="414.655" x2="237.238" y2="417.752"/>
			
				<polygon style="fill:#D1D1D1;stroke:#263238;stroke-width:0.5;stroke-linecap:round;stroke-linejoin:round;stroke-miterlimit:10;" points="
				297.501,415.587 299.707,415.486 300.385,416.391 298.166,416.495 			"/>
			
				<polygon style="fill:#D1D1D1;stroke:#263238;stroke-width:0.5;stroke-linecap:round;stroke-linejoin:round;stroke-miterlimit:10;" points="
				276.898,416.536 279.184,416.43 279.74,417.359 277.44,417.466 			"/>
			
				<polygon style="fill:#D1D1D1;stroke:#263238;stroke-width:0.5;stroke-linecap:round;stroke-linejoin:round;stroke-miterlimit:10;" points="
				264.761,417.094 267.094,416.987 267.577,417.928 265.229,418.038 			"/>
			
				<polygon style="fill:#D1D1D1;stroke:#263238;stroke-width:0.5;stroke-linecap:round;stroke-linejoin:round;stroke-miterlimit:10;" points="
				248.75,417.831 251.147,417.721 251.529,418.68 249.117,418.793 			"/>
			
				<line style="fill:none;stroke:#263238;stroke-width:0.5;stroke-linecap:round;stroke-linejoin:round;stroke-miterlimit:10;" x1="301.742" y1="416.782" x2="300.305" y2="414.883"/>
			
				<line style="fill:none;stroke:#263238;stroke-width:0.5;stroke-linecap:round;stroke-linejoin:round;stroke-miterlimit:10;" x1="281.352" y1="417.745" x2="280.166" y2="415.799"/>
			
				<line style="fill:none;stroke:#263238;stroke-width:0.5;stroke-linecap:round;stroke-linejoin:round;stroke-miterlimit:10;" x1="268.899" y1="418.333" x2="267.872" y2="416.359"/>
			
				<line style="fill:none;stroke:#263238;stroke-width:0.5;stroke-linecap:round;stroke-linejoin:round;stroke-miterlimit:10;" x1="252.736" y1="419.097" x2="251.92" y2="417.086"/>
			<g>
				<path style="fill:#263238;" d="M303.331,456.604L303,456.052l2.357-0.192l-1.416-2.309l1.125-0.089l3.359,5.417l-4.131,0.349
					l-0.339-0.568l2.967-0.249l-1.228-2.002L303.331,456.604z"/>
				<path style="fill:#263238;" d="M302.663,457.952c0.503,0.85,0.038,1.47-1.565,1.605c-1.622,0.137-2.734-0.352-3.217-1.207
					l-1.602-2.837c-0.46-0.814,0.015-1.409,1.593-1.535c1.559-0.124,2.643,0.346,3.122,1.155L302.663,457.952z M299.849,455.193
					c-0.287-0.49-0.846-0.741-1.665-0.675c-0.835,0.067-1.054,0.38-0.773,0.872l1.654,2.895c0.287,0.502,0.85,0.774,1.704,0.702
					c0.837-0.07,1.063-0.407,0.77-0.908L299.849,455.193z"/>
				<path style="fill:#263238;" d="M295.173,459.998c-1.669,0.141-2.61-0.255-3.056-1.094l-0.243-0.456
					c-0.326-0.613-0.123-1.026,0.696-1.25c-1.038-0.071-1.615-0.451-1.927-1.037l-0.449-0.845c-0.127-0.239-0.26-0.461-0.55-0.63
					l1.168-0.093c0.215,0.143,0.349,0.276,0.543,0.638l0.458,0.852c0.332,0.617,0.99,0.768,1.96,0.689l0.819-0.067l-1.274-2.31
					l1.146-0.091l3.067,5.495L295.173,459.998z M294.033,457.334c-0.927,0.076-1.396,0.28-1.072,0.883l0.288,0.535
					c0.272,0.506,0.764,0.743,1.641,0.669l1.147-0.096l-1.138-2.062L294.033,457.334z"/>
				<path style="fill:#263238;" d="M284.817,455.079l1.119-0.089l4,4.248l-2.279-4.393l1.009-0.08l2.905,5.537l-1.664,0.141
					l-4.019-4.32l0.554,4.612l-1.679,0.142l-2.718-5.586l1.109-0.088l2.198,4.459L284.817,455.079z"/>
			</g>
			
				<line style="fill:none;stroke:#263238;stroke-width:0.5;stroke-miterlimit:10;" x1="332.077" y1="448.72" x2="299.109" y2="451.262"/>
			
				<line style="fill:none;stroke:#263238;stroke-width:0.5;stroke-miterlimit:10;" x1="291.88" y1="451.819" x2="271.197" y2="453.414"/>
			
				<line style="fill:none;stroke:#263238;stroke-width:0.5;stroke-miterlimit:10;" x1="265.451" y1="453.857" x2="248.413" y2="455.171"/>
		</g>
		<g>
			<g>
				<path style="fill:#92E3A9;stroke:#263238;stroke-linecap:round;stroke-linejoin:round;stroke-miterlimit:10;" d="M300,255.333
					c0,0-9.667,2.667-20.667,8c-11,5.333-32.667,13.333-43,17.333S219.667,295,217.667,300S207,326.333,207,326.333
					S188.667,355,184,362c-4.667,7-11,16.667-11.333,25.667c-0.333,9,4.667,14,16.333,14c11.667,0,16.667-4,22.333-10
					s24-35.333,26.667-38.667c2.667-3.333,10-16,10-16s3.667,33,3.667,43.333c0,10.333,0,24.333,0,24.333h105c0,0,5-36.667,6-39.667
					s8.667-24.667,8.667-24.667s27.62,44.682,32.287,50.682c4.667,6,17.813,18.649,30.731,13.587
					c12.964-5.081,10.269-18.92,3.269-35.587c-7-16.667-19.287-45.016-19.287-46.349c0-1.333-5-21-25.333-36.333
					c-20.333-15.333-40.333-19-45-21.333C343.333,262.667,328.333,255.333,300,255.333z"/>
				<g>
					<path style="fill:none;stroke:#263238;stroke-linecap:round;stroke-linejoin:round;stroke-miterlimit:10;" d="M234.667,315.333
						l13,20.333c0,0-10.667-11-17.333-12.667"/>
					<path style="fill:none;stroke:#263238;stroke-linecap:round;stroke-linejoin:round;stroke-miterlimit:10;" d="M247.667,335.667
						L240,333c0,0-7-4-12.667-2.333"/>
					<path style="fill:none;stroke:#263238;stroke-linecap:round;stroke-linejoin:round;stroke-miterlimit:10;" d="M287.54,287.024
						c0.748,5.485,2.483,12.307,6.46,16.975"/>
					<path style="fill:none;stroke:#263238;stroke-linecap:round;stroke-linejoin:round;stroke-miterlimit:10;" d="M287,278
						c0,0-0.075,1.909,0.114,4.786"/>
					<path style="fill:none;stroke:#263238;stroke-linecap:round;stroke-linejoin:round;stroke-miterlimit:10;" d="M290.648,307.993
						c0.93,0.939,1.935,1.84,3.018,2.673"/>
					<path style="fill:none;stroke:#263238;stroke-linecap:round;stroke-linejoin:round;stroke-miterlimit:10;" d="M281.333,293
						c0,0,2.405,7.214,7.923,13.499"/>
					<path style="fill:none;stroke:#263238;stroke-linecap:round;stroke-linejoin:round;stroke-miterlimit:10;" d="M347.168,367.48
						c-2.273,3.69-4.42,6.666-6.168,8.186"/>
					<path style="fill:none;stroke:#263238;stroke-linecap:round;stroke-linejoin:round;stroke-miterlimit:10;" d="M364,334.333
						c0,0-7.747,17.514-14.98,30.038"/>
					<path style="fill:none;stroke:#263238;stroke-linecap:round;stroke-linejoin:round;stroke-miterlimit:10;" d="M329.925,378.454
						c-0.981,1.209-1.777,2.218-2.258,2.88"/>
					<path style="fill:none;stroke:#263238;stroke-linecap:round;stroke-linejoin:round;stroke-miterlimit:10;" d="M342.667,363.333
						c0,0-6.138,7.134-10.69,12.623"/>
					<path style="fill:none;stroke:#263238;stroke-linecap:round;stroke-linejoin:round;stroke-miterlimit:10;" d="M371.333,340.333
						c0,0,14.667-23.333,15.333-25.333"/>
					<path style="fill:none;stroke:#263238;stroke-linecap:round;stroke-linejoin:round;stroke-miterlimit:10;" d="M382.548,331.336
						c4.362-3.528,10.907-7.988,17.452-9.336"/>
					<path style="fill:none;stroke:#263238;stroke-linecap:round;stroke-linejoin:round;stroke-miterlimit:10;" d="M377.333,336
						c0,0,1.191-1.226,3.188-2.963"/>
					<path style="fill:none;stroke:#263238;stroke-linecap:round;stroke-linejoin:round;stroke-miterlimit:10;" d="M395.667,318.333
						c0,0-6,3-12,7.667"/>
					<path style="fill:none;stroke:#263238;stroke-linecap:round;stroke-linejoin:round;stroke-miterlimit:10;" d="M401.667,367.667
						c0,0,8.333-4.667,18,1"/>
					<path style="fill:none;stroke:#263238;stroke-linecap:round;stroke-linejoin:round;stroke-miterlimit:10;" d="M404.667,363.333
						c0,0,11.667-2.333,20.333,3"/>
					<path style="fill:none;stroke:#263238;stroke-linecap:round;stroke-linejoin:round;stroke-miterlimit:10;" d="M186,367.333
						c0,0,6-6,15-4.667"/>
					<path style="fill:none;stroke:#263238;stroke-linecap:round;stroke-linejoin:round;stroke-miterlimit:10;" d="M206.639,363.45
						c0.768,0.546,1.558,1.17,2.361,1.883"/>
					<path style="fill:none;stroke:#263238;stroke-linecap:round;stroke-linejoin:round;stroke-miterlimit:10;" d="M197.667,359.667
						c0,0,2.251,0.141,5.473,1.702"/>
				</g>
			</g>
			<g>
				<g>
					<path style="fill:#ABABAB;stroke:#263238;stroke-linecap:round;stroke-linejoin:round;stroke-miterlimit:10;" d="M297.667,264
						c0,0-3,12.667-2,22c1,9.333,11.333,23.667,20,27c8.667,3.333,24.667-6.333,30.333-12c5.667-5.667,6-23.667,6-23.667
						s-8.635-18.663-27-24C306.635,247.996,297.667,264,297.667,264z"/>
					<path style="fill:#ABABAB;stroke:#263238;stroke-linecap:round;stroke-linejoin:round;stroke-miterlimit:10;" d="
						M366.597,261.392c0,0,1.741,5.204-1.607,11.803s-9.821,12.158-11.557,11.582c-1.736-0.577,5.411-24.417,5.411-24.417
						S363.585,257.693,366.597,261.392z"/>
					<g>
						<path style="fill:#ABABAB;stroke:#263238;stroke-linecap:round;stroke-linejoin:round;stroke-miterlimit:10;" d="
							M293.059,242.352c0,0-3.293,4.39-2.195,11.708c1.098,7.317,5.488,14.634,7.317,14.634c1.829,0,2.561-24.878,2.561-24.878
							S297.084,239.791,293.059,242.352z"/>
						<path style="fill:#ABABAB;stroke:#263238;stroke-linecap:round;stroke-linejoin:round;stroke-miterlimit:10;" d="
							M298.547,251.864c0,0-2.561,22.317,0.366,31.464c2.927,9.146,8.781,23.415,17.927,27.073c9.147,3.659,30-12.073,33.293-18.293
							c3.293-6.22,12.439-32.561,12.439-32.561s8.049-9.512,3.293-22.683c-4.756-13.171-30.366-21.22-40.976-20.854
							c-10.61,0.366-21.22,9.146-21.952,16.098C302.206,239.059,298.547,251.864,298.547,251.864z"/>
						<path style="fill:none;stroke:#263238;stroke-width:2;stroke-linecap:round;stroke-linejoin:round;stroke-miterlimit:10;" d="
							M322.328,265.401c0,0-8.049-9.878-15.366-6.586"/>
						<path style="fill:none;stroke:#263238;stroke-width:2;stroke-linecap:round;stroke-linejoin:round;stroke-miterlimit:10;" d="
							M335.133,269.791c0,0,10.976-2.561,16.098,2.195"/>
						<path style="fill:none;stroke:#263238;stroke-linecap:round;stroke-linejoin:round;stroke-miterlimit:10;" d="M308.06,267.596
							c0,0,2.349,6.993,11.889,6.198"/>
						<path style="fill:none;stroke:#263238;stroke-linecap:round;stroke-linejoin:round;stroke-miterlimit:10;" d="
							M334.401,277.474c0,0,2.195,4.756,12.439,2.927"/>
						<path style="fill:none;stroke:#263238;stroke-linecap:round;stroke-linejoin:round;stroke-miterlimit:10;" d="
							M316.371,284.129c0,0-0.596,2.584,0.596,4.372c1.192,1.789,4.174,4.373,6.36,4.373c2.186,0,6.758-0.795,7.95-1.988
							s1.987-2.584,1.987-2.584"/>
						<path style="fill:none;stroke:#263238;stroke-linecap:round;stroke-linejoin:round;stroke-miterlimit:10;" d="
							M311.403,290.688c0,0,4.969,5.764,9.143,7.155c4.174,1.391,11.925-0.994,14.111-1.789"/>
					</g>
				</g>
				<path style="fill:#263238;stroke:#263238;stroke-linecap:round;stroke-linejoin:round;stroke-miterlimit:10;" d="
					M383.858,226.675c-0.343-2.398,1.37-5.824,1.713-7.879c0.342-2.055-2.398-5.824-4.796-8.907c-2.398-3.083-2.74-6.509-2.74-8.564
					c0-2.055-2.398-3.768-4.453-5.138c-2.055-1.37-5.481-4.111-6.851-5.824c-1.37-1.713-7.194-1.37-8.221-1.37
					s-5.481-3.768-8.221-5.138c-2.74-1.37-8.221,1.028-8.221,1.028s-6.509-3.083-7.879-3.083c-1.37,0-7.194,2.398-7.194,2.398
					s-3.923,1.655-5.971,1.876c-0.494-0.118-0.9-0.192-1.142-0.192c-0.766-0.999-7.617,3.112-7.617,3.112l-6.166,1.028l-2.285,3.713
					c-2.196,0.237-7.323,1.056-7.682,3.565c-0.457,3.197,0,4.567-1.37,6.394c-1.37,1.827-6.394,1.37-5.024,5.481
					c1.37,4.111,4.567,7.308,0.457,9.591c-4.111,2.284-6.394,6.394-4.111,8.678c2.284,2.284,4.111,5.481,3.654,7.307
					c-0.457,1.827-0.914,5.938,0.913,6.851c1.827,0.913,4.567,3.197,4.567,3.197l2.284,5.024l1.37,3.197
					c0,0,2.284-7.308,4.111-8.221c1.827-0.913,0,3.197,3.654,3.197c3.654,0,7.308-17.356,10.048-17.812
					c2.74-0.457,10.961,15.072,19.182,15.072c8.221,0,18.269-7.308,22.379-7.308c4.111,0,0.913,17.356,0.913,21.009
					s0.914,7.308,0.914,8.678c0,1.37,4.567-6.394,7.764-8.221c0.884-0.505,1.944-1.118,3.051-1.813
					c-0.03,0.157-0.047,0.247-0.047,0.247s11.304-7.194,12.675-9.592c1.37-2.398,0.343-4.453,0.343-6.509
					c0-2.055,1.37-3.768,1.713-6.851C385.913,231.813,384.201,229.073,383.858,226.675z"/>
			</g>
		</g>
		
			<line style="fill:none;stroke:#263238;stroke-linecap:round;stroke-linejoin:round;stroke-miterlimit:10;" x1="467.586" y1="404.593" x2="27" y2="404.593"/>
		<g>
			<path style="fill:#ABABAB;stroke:#263238;stroke-linecap:round;stroke-linejoin:round;stroke-miterlimit:10;" d="
				M419.692,375.439c0,0-12.495-4.587-21.468-0.998c-8.973,3.589-30.061,12.114-44.418,14.806
				c-14.358,2.692-28.715,3.141-40.829,2.692c-12.114-0.449-18.844,1.346-21.536,3.589c-2.692,2.243-12.563,14.806-11.666,16.152
				c0.897,1.346,1.889,1.862,6.281,0.897c1.753-0.385,6.73-5.833,6.73-5.833l8.973-4.038c0,0-9.422,10.319-8.076,11.665
				c1.346,1.346,3.589-0.449,5.384-1.795c1.795-1.346,5.384-4.487,5.384-4.487l8.076-3.589c0,0-8.525,5.833-8.525,8.525
				c0,2.692,2.089,1.105,5.648-0.319c1.044-0.418,4.804-3.551,4.804-3.551l6.752-1.901c0,0,5.609,3.363,14.134,3.363
				c8.525,0,13.978-5.22,13.978-5.22s31.407,4.487,47.111,3.141c15.703-1.346,35.445,0.449,43.521-5.384
				c8.076-5.833-2.243-21.088-3.141-22.434"/>
			<path style="fill:none;stroke:#263238;stroke-linecap:round;stroke-linejoin:round;stroke-miterlimit:10;" d="M281.873,412.917
				c0,0,1.671-4.804,3.342-6.892c1.671-2.089,9.399-7.101,12.114-8.563c2.715-1.462,3.342-1.671,3.342-1.671"/>
			
				<line style="fill:none;stroke:#263238;stroke-linecap:round;stroke-linejoin:round;stroke-miterlimit:10;" x1="301.76" y1="402.707" x2="309.651" y2="397.461"/>
			
				<line style="fill:none;stroke:#263238;stroke-linecap:round;stroke-linejoin:round;stroke-miterlimit:10;" x1="312.528" y1="404.502" x2="319.885" y2="400.803"/>
			<path style="fill:#92E3A9;stroke:#263238;stroke-linecap:round;stroke-linejoin:round;stroke-miterlimit:10;" d="
				M419.692,375.439c-6.675-1.592-16.088-3.15-21.468-0.998c-7.967,3.187-25.482,10.261-39.359,13.693
				c1.566,1.713,3.025,4.253,3.21,7.865c0.224,4.375-0.635,8.195-1.48,10.806c10.578,1.184,26.174,2.563,35.834,1.735
				c15.703-1.346,35.445,0.449,43.521-5.384c8.076-5.833-2.243-21.088-3.141-22.434"/>
		</g>
		<g>
			<path style="fill:#92E3A9;stroke:#263238;stroke-linecap:round;stroke-linejoin:round;stroke-miterlimit:10;" d="
				M182.802,374.094c0.841-2.274,6.999-7.702,15.283-6.251c8.284,1.452,17.709,10.653,23.08,17.738
				c5.371,7.085,9.671,8.984,9.671,8.984l-6.338,19.377c0,0-3.896-0.943-11.224-2.8c-7.328-1.857-23.694-4.283-31.225-6.618
				c-7.531-2.335-10.743-10.447-9.103-18.022c1.64-7.575,4.249-12.063,4.249-12.063"/>
			<path style="fill:#ABABAB;stroke:#263238;stroke-linecap:round;stroke-linejoin:round;stroke-miterlimit:10;" d="
				M221.165,385.581c-0.561-0.74-1.175-1.506-1.818-2.28c-4.688,1.873-10.632,5.324-13.784,11.403
				c-3.175,6.124-3.17,11.099-2.543,14.307c4.012,0.761,7.691,1.481,10.256,2.131c7.328,1.857,11.224,2.8,11.224,2.8l6.338-19.377
				C230.837,394.565,226.536,392.666,221.165,385.581z"/>
			<g>
				<path style="fill:#ABABAB;stroke:#263238;stroke-linecap:round;stroke-linejoin:round;stroke-miterlimit:10;" d="
					M218.579,404.496c-0.421,2.998-1.335,6.43,2.966,8.33c4.301,1.899,8.659,6.594,11.381,7.696
					c2.723,1.102,7.531,2.335,10.312,2.51c2.781,0.175,6.213,1.089,11.66-0.43c5.447-1.518,5.302-2.923,5.302-2.923
					s3.396,0.131,5.077-0.694c1.681-0.825,0.501-2.91-1.541-3.736c-2.042-0.827-4.533-1.914-4.533-1.914s3.095-2.866,2.319-3.577
					c-0.776-0.71-0.776-0.71-0.776-0.71s3.586,0.422,3.891-0.723c0.305-1.144-1.938-6.171-2.835-10.415
					c-0.896-4.244-2.794-3.666-6.241-4.348c-3.447-0.682-8.154,0.185-14.353-1.136c-6.199-1.321-15.18,0.906-18.729,1.846"/>
				<path style="fill:#263238;" d="M242.794,375.654l5.655,20.02l4.518,2.146l-6.694-23.159c-0.301-1.042-1.445-1.587-2.444-1.163
					l0,0C242.99,373.852,242.546,374.777,242.794,375.654z"/>
				<path style="fill:#ABABAB;stroke:#263238;stroke-linecap:round;stroke-linejoin:round;stroke-miterlimit:10;" d="
					M245.987,394.123c0,0,9.905,5.276,10.585,5.552c0.466,0.188,4.875,7.553,6.281,11.097c0.641,1.615-0.088,2.55-1.609,3.389
					l-2.042-0.826l-12.308-7.754l-4.518-2.146"/>
				<path style="fill:none;stroke:#263238;stroke-linecap:round;stroke-linejoin:round;stroke-miterlimit:10;" d="M239.086,411.37
					c0,0,9.644,5.725,11.671,6.784c2.027,1.058,9.443,1.525,9.443,1.525"/>
				<path style="fill:none;stroke:#263238;stroke-linecap:round;stroke-linejoin:round;stroke-miterlimit:10;" d="M235.477,416.96
					c0,0,8.095,4.465,9.688,5.03c1.593,0.565,5.025,1.479,5.025,1.479"/>
			</g>
		</g>
	</g>
</g>
<g id="Device">
	<g>
		<g>
			<polygon style="fill:#CCCCCC;stroke:#263238;stroke-linecap:round;stroke-linejoin:round;stroke-miterlimit:10;" points="
				172.842,454.167 209.762,420.213 128.418,414.965 			"/>
			<polygon style="fill:#263238;stroke:#263238;stroke-linecap:round;stroke-linejoin:round;stroke-miterlimit:10;" points="
				171.277,447.328 187.896,431.584 168.653,430.418 			"/>
			<polygon style="fill:#A6A6A6;stroke:#263238;stroke-linecap:round;stroke-linejoin:round;stroke-miterlimit:10;" points="
				58.082,358.802 179.847,364.19 172.842,454.167 50,448.24 			"/>
		</g>
		<path style="fill:#263238;stroke:#263238;stroke-linecap:round;stroke-linejoin:round;stroke-miterlimit:10;" d="M50.541,442.248
			c7.195-1.056,19.347-3.892,39.867-10.531c48.85-15.804,54.956-59.984,89.438-67.527l-121.765-5.388L50.541,442.248z"/>
		
			<ellipse style="fill:#FFFFFF;stroke:#263238;stroke-linecap:round;stroke-linejoin:round;stroke-miterlimit:10;" cx="114.115" cy="404.419" rx="9.339" ry="7.184"/>
	</g>
</g>
</svg>
